<?xml version="1.0" standalone="no"?>
<!DOCTYPE svg PUBLIC "-//W3C//DTD SVG 1.1//EN" "http://www.w3.org/Graphics/SVG/1.1/DTD/svg11.dtd" >
<svg xmlns="http://www.w3.org/2000/svg">
<metadata>
Created by FontPrep 20130207 at Sat Jan 14 23:01:57 2017
 By Predrag Jevtic
Copyright (c) 2011 Natanael Gama (exo@ndiscovered.com), with Reserved Font Name "Exo"
</metadata>
<defs>
<font id="9611154d53964f16de2ae802b2261f0a" horiz-adv-x='1024' >
  <font-face 
    font-family="Exo-Medium"
    font-weight="500"
    font-stretch="normal"
    units-per-em="2048"
    panose-1="2 0 6 3 0 0 0 0 0 0"
    ascent="1638"
    descent="-410"
    x-height="1087"
    cap-height="1499"
    bbox="-172 -558.523 2746 2052"
    underline-thickness="102"
    underline-position="-102"
    unicode-range="U+000D-FB06"
  />
<missing-glyph horiz-adv-x="1523" 
d="M190 0v1087h1143v-1087h-1143zM1286 1061h-1046l526 -496zM219 45l524 500l-524 493v-993zM246 27h1038l-518 497zM1305 1036l-517 -491l517 -494v985z" />
    <glyph glyph-name="fi" unicode="fi" horiz-adv-x="1255" 
d="M39 918v135l192 34v101q0 184 114 303t300 119q76 0 208 -22t204 -46v-119l-359 21q-108 4 -186 -45q-94 -59 -92 -213v-99l731 -20v-1067h-190v918h-541v-918h-189v918h-192z" />
    <glyph glyph-name="fl" unicode="fl" horiz-adv-x="1470" 
d="M39 918v135l194 34v105q-1 194 87 306t266 112h567v-1211q0 -160 44 -196q22 -18 67 -33q156 -43 170 -43v-127h-197q-145 0 -209 87q-63 87 -63 300v1057h-338q-70 0 -112 -20q-95 -44 -93 -232v-105h283v-169h-287v-918h-189v918h-190z" />
    <glyph glyph-name=".notdef" horiz-adv-x="1523" 
d="M190 0v1087h1143v-1087h-1143zM1286 1061h-1046l526 -496zM219 45l524 500l-524 493v-993zM246 27h1038l-518 497zM1305 1036l-517 -491l517 -494v985z" />
    <glyph glyph-name=".notdef" horiz-adv-x="1523" 
d="M190 0v1087h1143v-1087h-1143zM1286 1061h-1046l526 -496zM219 45l524 500l-524 493v-993zM246 27h1038l-518 497zM1305 1036l-517 -491l517 -494v985z" />
    <glyph glyph-name=".null" horiz-adv-x="0" 
 />
    <glyph glyph-name="uni000D" unicode="&#xd;" horiz-adv-x="1912" 
 />
    <glyph glyph-name="space" unicode=" " horiz-adv-x="512" 
 />
    <glyph glyph-name="exclam" unicode="!" horiz-adv-x="552" 
d="M168 1497h211l-19 -1096h-176zM340 233q47 0 47 -51v-135q0 -47 -47 -47h-131q-23 0 -36 14t-13 33v135q0 51 49 51h131z" />
    <glyph glyph-name="quotedbl" unicode="&#x22;" horiz-adv-x="813" 
d="M465 1499h186v-137l-20 -275h-144l-22 275v137zM162 1499h188v-137l-20 -275h-144l-24 275v137z" />
    <glyph glyph-name="numbersign" unicode="#" horiz-adv-x="1425" 
d="M512 594l315 -2l50 315h-316zM39 463l18 131h324l49 313h-321l20 131h324l75 461h131l-75 -461h315l74 461h131l-74 -461h361l-23 -131h-360l-50 -315h361l-21 -131h-362l-76 -461h-131l76 461l-318 2l-75 -463h-131l75 463h-317z" />
    <glyph glyph-name="dollar" unicode="$" horiz-adv-x="1173" 
d="M293 1135v-119q0 -184 201 -185h245q227 0 296 -164q34 -77 34 -200v-129q0 -214 -131 -288t-307 -66v-168h-135v176q-205 18 -344 45v143q12 0 193 -7t294 -7q242 0 242 170v123q0 88 -35 136t-125 48h-246q-247 0 -330 170q-41 84 -41 195v133q6 291 238 351
q66 17 154 19v177h135v-183q137 -8 383 -45v-147l-482 18q-110 4 -174 -31q-65 -35 -65 -165z" />
    <glyph glyph-name="percent" unicode="%" horiz-adv-x="1957" 
d="M1294 272q0 -68 25 -92t94 -24h191q80 0 102 24t23 92v248q0 70 -26 94t-95 23h-191q-79 0 -101 -24t-22 -93v-248zM1143 264v266q0 134 57 196t209 62h207q148 0 206 -61t58 -197v-266q0 -137 -58 -198t-210 -62h-207q-145 0 -203 62t-59 198zM455 0l901 1499h162
l-900 -1499h-163zM231 983q0 -69 26 -93t95 -24h191q79 0 101 25t22 92v248q0 69 -25 93t-94 24h-191q-80 0 -102 -24t-23 -93v-248zM80 975v266q0 135 59 197t209 61h207q145 0 203 -61t59 -197v-266q0 -137 -58 -199t-208 -61h-207q-147 0 -206 61q-58 62 -58 199z" />
    <glyph glyph-name="ampersand" unicode="&#x26;" horiz-adv-x="1327" 
d="M311 272q37 -50 93 -78t122 -23t115 52l147 139l-288 386l-146 -123q-195 -160 -43 -353zM975 1323h-393q-90 1 -133 -21q-90 -45 32 -217l443 -602l239 242l62 -70l-111 -219l-82 -92l250 -344h-221l-162 219l-145 -133q-78 -72 -191 -91t-226 26t-183 147
q-111 152 -85 308t162 276l166 141l-123 168q-57 78 -65 158q-14 139 106 231q90 68 325 54q164 -10 335 -50v-131z" />
    <glyph glyph-name="quotesingle" unicode="'" horiz-adv-x="399" 
d="M104 1499h191v-137l-21 -275h-147l-23 275v137z" />
    <glyph glyph-name="parenleft" unicode="(" horiz-adv-x="708" 
d="M143 657q0 177 35 350t111 372t155 327l35 55h193q-216 -354 -303 -763q-37 -173 -37 -315q0 -278 67 -505t139 -371q71 -143 115 -208l19 -29h-193q-42 48 -109 176q-67 127 -111 246q-44 120 -80 304t-36 361z" />
    <glyph glyph-name="parenright" unicode=")" horiz-adv-x="708" 
d="M379 706q0 212 -85 485t-171 423l-84 147h192q44 -63 109 -199q66 -134 110 -256t80 -297t37 -352q0 -463 -217 -893q-49 -98 -84 -147l-35 -47h-192q12 20 36 56t82 152t103 236q119 320 119 692z" />
    <glyph glyph-name="asterisk" unicode="*" horiz-adv-x="892" 
d="M508 1169l246 158l45 -80l-189 -198zM416 969l88 133l225 -187l-49 -71zM354 1470l88 35l150 -245l-146 -64zM229 850l50 276l153 -36l-119 -269zM96 1159v90l285 58l10 -158z" />
    <glyph glyph-name="plus" unicode="+" horiz-adv-x="1038" 
d="M94 641v176h336v338h176v-338h340v-176h-340v-338h-176v338h-336z" />
    <glyph glyph-name="comma" unicode="," horiz-adv-x="546" 
d="M213 0q-51 0 -51 51v129q0 55 51 56h123q49 0 49 -56v-203q1 -57 -21 -94t-69 -54t-100 -13l-23 4v74q29 0 44 11t17 22t3 28v45h-23z" />
    <glyph glyph-name="hyphen" unicode="-" horiz-adv-x="724" 
d="M41 506v176h643v-176h-643z" />
    <glyph glyph-name="period" unicode="." horiz-adv-x="550" 
d="M162 47v135q0 51 49 51h127q51 0 51 -51v-135q0 -47 -51 -47h-127q-20 0 -35 13q-14 14 -14 34z" />
    <glyph glyph-name="slash" unicode="/" horiz-adv-x="849" 
d="M39 -147l575 1724h199l-575 -1724h-199z" />
    <glyph glyph-name="zero" unicode="0" horiz-adv-x="1308" 
d="M322 354q0 -92 54 -132t134 -40h299q178 0 178 170v795q0 170 -176 170h-303q-96 0 -141 -49t-45 -121v-793zM133 340v815q0 166 100 255t261 89h335q265 0 328 -211q18 -59 19 -129v-819q0 -174 -92 -257t-257 -83h-335q-160 0 -260 83q-99 83 -99 257z" />
    <glyph glyph-name="one" unicode="1" horiz-adv-x="745" 
d="M594 1499v-1499h-188v1296l-330 -100v131l330 172h188z" />
    <glyph glyph-name="two" unicode="2" horiz-adv-x="1216" 
d="M76 1335v140q317 45 622 45q247 0 362 -190q62 -102 62 -230t-59 -252t-138 -219q-191 -232 -489 -447h686v-182h-1032v170q196 133 355 267q159 135 254 233t164 212t69 215t-64 170t-196 68h-596z" />
    <glyph glyph-name="three" unicode="3" horiz-adv-x="1210" 
d="M543 -14q-313 0 -473 57l2 127h585q101 0 143 22q75 40 77 154v107q0 193 -207 198l-473 17v147l473 21q211 10 211 188v123q0 61 -32 101q-58 73 -179 73h-613v125q150 56 419 58q110 1 256 -1t240 -97q95 -95 95 -247v-133q0 -225 -139 -281q139 -80 139 -299v-110
q0 -350 -369 -350h-155z" />
    <glyph glyph-name="four" unicode="4" horiz-adv-x="1243" 
d="M844 557v404l71 153h117v-557h174v-147l-174 -41v-365h-188v365h-735l-70 90l623 1040h217l-560 -942h525z" />
    <glyph glyph-name="five" unicode="5" horiz-adv-x="1230" 
d="M575 928q165 0 207 -6q175 0 256 -96q80 -96 80 -253v-227q0 -100 -34 -173t-89 -111q-101 -70 -223 -70q-208 0 -320 8t-307 41v143h611q94 0 134 52t40 126v233q0 55 -22 85q-47 63 -148 63h-283q-67 1 -111 -35t-44 -108h-172l45 899h876v-182h-700l-23 -453
q62 64 227 64z" />
    <glyph glyph-name="six" unicode="6" horiz-adv-x="1267" 
d="M313 707q0 -236 35 -349q55 -178 189 -178h264q82 0 113 22q51 35 53 134v223q0 84 -44 116t-120 32h-490zM125 790q0 540 223 679q59 38 129 40q311 8 627 -39v-141h-569q-90 0 -140 -87t-66 -205t-16 -193q295 41 435 41q140 1 192 -11q153 -33 189 -148
q24 -70 24 -157v-258q0 -313 -338 -313h-303q-72 0 -127 20q-193 70 -241 440q-18 140 -19 332z" />
    <glyph glyph-name="seven" unicode="7" horiz-adv-x="1122" 
d="M57 1317v182h947l61 -106l-530 -1393h-218l510 1317h-770z" />
    <glyph glyph-name="eight" unicode="8" horiz-adv-x="1292" 
d="M332 1012q0 -59 30 -98q51 -62 142 -62h293q166 0 166 160v127q0 104 -41 148t-127 44h-271q-102 0 -147 -37t-45 -155v-127zM332 328q0 -148 192 -148h269q73 0 121 38t49 110v194q1 76 -47 116t-117 40h-295q-76 0 -124 -37t-48 -119v-194zM143 324v186q0 172 170 223
q-63 23 -102 73q-66 84 -68 216v133q1 195 97 275t270 79h303q170 0 254 -84t84 -270v-127q0 -133 -70 -195q-35 -32 -84 -42q39 -8 81 -49t57 -114q16 -73 16 -110v-192q0 -220 -161 -290q-79 -36 -179 -36h-301q-102 0 -175 27t-109 61t-56 84q-20 51 -24 82q-3 31 -3 70z
" />
    <glyph glyph-name="nine" unicode="9" horiz-adv-x="1267" 
d="M301 948q0 -82 44 -114t122 -33h489q0 451 -160 515q-30 11 -63 11h-266q-79 0 -111 -20q-54 -34 -55 -136v-223zM115 940v256q0 313 340 313h301q72 0 128 -19q56 -18 106 -72q152 -163 154 -699q1 -536 -224 -681q-59 -38 -127 -40q-393 -10 -629 39v141h571
q53 0 93 36q74 66 99 191t29 261q-295 -43 -450 -43q-155 1 -225 25q-166 58 -166 292z" />
    <glyph glyph-name="colon" unicode=":" horiz-adv-x="550" 
d="M162 903v135q0 51 49 52h127q51 0 51 -52v-135q0 -47 -51 -47h-127q-29 0 -39 16t-10 31zM162 47v135q0 51 49 51h127q51 0 51 -51v-135q0 -47 -51 -47h-127q-20 0 -35 13q-14 14 -14 34z" />
    <glyph glyph-name="semicolon" unicode=";" horiz-adv-x="555" 
d="M166 905v135q0 51 49 52h127q51 0 51 -52v-135q0 -47 -51 -47h-127q-33 0 -41 16t-8 31zM162 51v129q0 32 18 44q18 11 33 12h123q49 0 49 -56v-203q1 -57 -21 -94t-69 -54t-100 -13l-23 4v74q29 0 44 11t17 22t3 28v45h-23q-20 0 -36 15q-15 16 -15 36z" />
    <glyph glyph-name="less" unicode="&#x3c;" horiz-adv-x="958" 
d="M96 629v190l768 324v-193l-538 -225l538 -246v-196z" />
    <glyph glyph-name="equal" unicode="=" horiz-adv-x="956" 
d="M41 850v176h874v-176h-874zM41 418v176h874v-176h-874z" />
    <glyph glyph-name="greater" unicode="&#x3e;" horiz-adv-x="958" 
d="M96 283v196l537 246l-537 225v193l768 -324v-190z" />
    <glyph glyph-name="question" unicode="?" horiz-adv-x="1107" 
d="M344 47v135q0 51 49 51h129q49 0 49 -51v-135q0 -47 -49 -47h-129q-23 0 -36 14t-13 33zM372 1513q63 0 130 2t114 -2q315 0 395 -239q22 -66 21 -146v-192q0 -199 -132 -283t-355 -53v-201h-176v351h276q115 4 170 81q31 43 31 107v180q0 113 -62 162t-202 49h-543v139
q270 45 333 45z" />
    <glyph glyph-name="at" unicode="@" horiz-adv-x="1740" 
d="M641 250q0 -35 35 -66t82 -30q125 0 315 104v229l-319 -30q-55 -6 -85 -40t-28 -85q-2 -2 -2 -42t2 -40zM125 6v688q0 165 88 260q37 39 109 67t167 28h429q125 0 225 -63t100 -232v-754h-133l-33 127l-19 -14q-118 -87 -199 -109q-80 -22 -132 -22q-117 -2 -191 70
t-71 177v103q0 129 71 203t201 73h336q2 137 0 137q0 76 -38 104t-122 28h-424q-144 0 -177 -89q-15 -39 -15 -96v-680q0 -213 192 -213h707q156 0 194 95q17 45 17 118v1018q0 115 -57 175t-154 61h-827v116q276 57 598 56h229q174 -2 278 -104t105 -304v-1018
q0 -389 -381 -389h-709q-166 -1 -265 97t-99 286z" />
    <glyph glyph-name="A" unicode="A" horiz-adv-x="1384" 
d="M494 573h450l-221 656zM86 0l539 1499h198l516 -1499h-215l-123 395h-567l-129 -395h-219z" />
    <glyph glyph-name="B" unicode="B" horiz-adv-x="1224" 
d="M952 1100q0 219 -215 219h-393v-447h393q103 0 159 58t56 170zM344 180h395q225 0 226 250q-1 115 -57 191t-169 75h-395v-516zM154 0v1499h587q109 0 190 -35t125 -94q83 -111 85 -264q0 -274 -195 -328q84 -18 146 -109t61 -245q0 -302 -213 -390q-82 -34 -197 -34
h-589z" />
    <glyph glyph-name="C" unicode="C" horiz-adv-x="1179" 
d="M104 754q0 468 151 632q119 130 354 130t505 -56v-149q-22 2 -40 3q-19 1 -45 3q-27 2 -57 3t-64 3t-70 4t-73 3l-72 2t-99 1q-152 0 -227 -114q-74 -114 -74 -469q0 -495 232 -566q46 -14 122 -14t197 4t196 6l74 4v-149q-240 -47 -512 -47t-385 211t-113 555z" />
    <glyph glyph-name="D" unicode="D" horiz-adv-x="1347" 
d="M342 184h383q121 0 201 77q147 141 147 467t-88 458t-260 133h-383v-1135zM154 0v1499h577q131 0 229 -49t154 -123q144 -194 146 -576t-175 -595q-59 -72 -150 -114t-204 -42h-577z" />
    <glyph glyph-name="E" unicode="E" horiz-adv-x="1161" 
d="M152 264v957q0 151 80 217t196 61q614 -29 651 -33v-151h-633q-77 0 -92 -33q-14 -33 -14 -82v-360l653 -23v-151l-653 -21v-360q0 -79 43 -96q28 -11 84 -11h612v-149l-630 -35q-297 -17 -297 270z" />
    <glyph glyph-name="F" unicode="F" horiz-adv-x="1161" 
d="M152 0v1219q0 149 78 217t198 63q614 -29 651 -33v-151h-633q-77 0 -92 -33q-14 -33 -14 -82v-360l653 -23v-151l-653 -21v-645h-188z" />
    <glyph glyph-name="G" unicode="G" horiz-adv-x="1257" 
d="M239 131q-135 171 -135 618t137 621q115 146 347 146q106 0 260 -16t274 -42v-149q-2 0 -37 3t-186 14t-261 11q-110 1 -164 -23q-110 -48 -145 -184q-36 -136 -36 -421q-1 -285 67 -410t248 -127q68 -2 157 22t144 48l56 24v371h-308v125q160 51 357 51q66 0 139 -6
v-807h-139l-45 100q-168 -107 -391 -110q-223 -4 -339 141z" />
    <glyph glyph-name="H" unicode="H" horiz-adv-x="1304" 
d="M154 0v1499h188v-684h662v684h188v-1499h-188v635h-662v-635h-188z" />
    <glyph glyph-name="I" unicode="I" horiz-adv-x="454" 
d="M154 0v1499h188v-1499h-188z" />
    <glyph glyph-name="J" unicode="J" horiz-adv-x="733" 
d="M430 373v1126h188v-1161q0 -66 -4 -110t-30 -102t-72 -89q-82 -51 -223 -48t-221 56l6 141q6 -2 30 -6t41 -8t51 -8q115 -14 169 29q65 52 65 180z" />
    <glyph glyph-name="K" unicode="K" horiz-adv-x="1230" 
d="M154 0v1499h184v-659h156l446 659h225l-501 -747l501 -752h-225l-446 659h-154v-659h-186z" />
    <glyph glyph-name="L" unicode="L" horiz-adv-x="1130" 
d="M154 266v1233h188v-1210q0 -82 40 -94q40 -13 87 -13h596v-182h-625q-208 0 -263 128q-23 56 -23 138z" />
    <glyph glyph-name="M" unicode="M" horiz-adv-x="1665" 
d="M104 0l109 1499h260l358 -1186l351 1186h258l123 -1499h-189l-94 1163l-346 -1163h-201l-356 1163l-84 -1163h-189z" />
    <glyph glyph-name="N" unicode="N" horiz-adv-x="1390" 
d="M154 0v1499h192l744 -1149v1149h188v-1499h-188l-746 1147v-1147h-190z" />
    <glyph glyph-name="O" unicode="O" horiz-adv-x="1380" 
d="M369 319q56 -97 134 -121t183 -24t159 8q119 18 178 96q85 112 85 442q0 365 -64 473q-18 32 -37 59t-67 46t-95 24t-113 5t-125 -2t-89 -13q-30 -12 -58 -26t-44 -37t-36 -55t-39 -114q-28 -118 -28 -391t56 -370zM125 769q0 175 30 319t75 226q46 81 128 126t159 57
t179 12t161 -6q156 -16 234 -76q109 -81 157 -241q48 -159 48 -467t-70 -467q-36 -82 -82 -134q-84 -95 -259 -117q-72 -9 -166 -9q-93 0 -155 5q-160 13 -239 75q-108 81 -150 220q-50 165 -50 477z" />
    <glyph glyph-name="P" unicode="P" horiz-adv-x="1200" 
d="M307 774h428q144 0 176 134q13 58 13 146q-1 173 -69 225q-53 40 -120 40h-428v-545zM119 0v1499h622q375 0 375 -442q0 -325 -160 -418q-58 -34 -116 -39q-58 -6 -107 -5t-233 18t-193 22v-635h-188z" />
    <glyph glyph-name="Q" unicode="Q" horiz-adv-x="1380" 
d="M639 -68h123q99 -87 222 -73q52 6 118 28v-182q-110 -46 -282 11q-69 24 -120 81t-61 135zM373 309q48 -86 125 -110q77 -25 191 -25t176 13q143 30 189 146q54 135 54 355t-18 333q-18 112 -44 173t-84 91t-108 36t-120 6q-72 0 -130 -2t-88 -13q-30 -12 -58 -26
t-44 -37t-36 -55t-38 -120q-27 -125 -27 -390t60 -375zM178 1199q68 225 262 279q108 30 231 31q122 0 182 -6q158 -16 236 -76q112 -84 160 -247q47 -163 47 -384q0 -222 -17 -342q-30 -216 -139 -339t-431 -123q-248 0 -350 58t-147 154q-87 187 -87 505t53 490z" />
    <glyph glyph-name="R" unicode="R" horiz-adv-x="1220" 
d="M307 788h447q113 0 147 62q33 62 33 171q0 197 -52 247q-52 51 -128 51h-447v-531zM119 0v1499h643q362 0 362 -455q0 -141 -33 -233q-33 -91 -63 -119q-57 -51 -96 -64t-62 -18l308 -610h-207l-297 600l-367 29v-629h-188z" />
    <glyph glyph-name="S" unicode="S" horiz-adv-x="1198" 
d="M1114 338q0 -354 -393 -354q-125 0 -295 17t-256 36v151q225 -22 387 -22t214 4t86 28q67 46 69 138v123q0 88 -35 136t-125 48h-270q-96 0 -168 24q-72 23 -110 57q-93 82 -93 284v133q0 217 112 293q112 77 293 77q94 0 272 -18t259 -33v-151q-191 13 -380 18
q-189 4 -226 0q-98 -11 -125 -83q-16 -42 -17 -109v-119q0 -117 46 -151t151 -34h274q330 0 330 -364v-129z" />
    <glyph glyph-name="T" unicode="T" horiz-adv-x="1191" 
d="M84 1317v182h1059v-182h-441v-1317h-188v1317h-430z" />
    <glyph glyph-name="U" unicode="U" horiz-adv-x="1378" 
d="M154 655v844h188v-844q0 -161 13 -219t23 -95q12 -46 61 -105q53 -64 230 -64q95 0 129 2q127 7 202 102q75 94 75 379v844h191v-844q0 -251 -66 -422q-43 -113 -164 -190q-83 -53 -321 -53h-21q-252 0 -328 52q-36 24 -83 72q-129 132 -129 541z" />
    <glyph glyph-name="V" unicode="V" horiz-adv-x="1380" 
d="M86 1499h203l411 -1220l430 1220h203l-534 -1499h-201z" />
    <glyph glyph-name="W" unicode="W" horiz-adv-x="1986" 
d="M86 1499h203l409 -1202l342 1202h209l-129 -455l262 -757l355 1212h202l-452 -1499h-201l-260 725l-227 -725h-201z" />
    <glyph glyph-name="X" unicode="X" horiz-adv-x="1245" 
d="M86 1499h207l346 -596l352 596h207l-444 -741l434 -758h-207l-342 596l-340 -596h-207l432 758z" />
    <glyph glyph-name="Y" unicode="Y" horiz-adv-x="1304" 
d="M745 0h-188v514l-471 985h205l362 -768l400 768h204l-512 -985v-514z" />
    <glyph glyph-name="Z" unicode="Z" horiz-adv-x="1148" 
d="M68 0v182l776 1135h-776v182h1015v-182l-768 -1135h768v-182h-1015z" />
    <glyph glyph-name="bracketleft" unicode="[" horiz-adv-x="663" 
d="M162 -61v1425q0 199 107 299q67 61 190 61h168v-176h-150q-87 0 -118 -112q-9 -37 -9 -82v-1413q0 -91 35 -143t92 -52h150v-176h-168q-74 0 -130 26t-87 64q-54 66 -74 186q-6 44 -6 93z" />
    <glyph glyph-name="backslash" unicode="\" horiz-adv-x="849" 
d="M39 1577h199l575 -1724h-199z" />
    <glyph glyph-name="bracketright" unicode="]" horiz-adv-x="663" 
d="M502 -61q0 -369 -297 -369h-166v176h147q59 0 94 51q34 51 33 144v1413q0 92 -33 143q-34 51 -94 51h-147v176h166q125 0 191 -62q67 -62 86 -140q20 -77 20 -158v-1425z" />
    <glyph glyph-name="asciicircum" unicode="^" horiz-adv-x="796" 
d="M96 1087l234 269h164l208 -269h-157l-137 140l-152 -140h-160z" />
    <glyph glyph-name="underscore" unicode="_" horiz-adv-x="1380" 
d="M41 -2v176h1298v-176h-1298z" />
    <glyph glyph-name="grave" unicode="`" horiz-adv-x="495" 
d="M39 1364h209l211 -277h-154z" />
    <glyph glyph-name="a" unicode="a" horiz-adv-x="1062" 
d="M264 283q0 -123 117 -123q68 0 167 26t165 50l65 24v266l-401 -28q-113 -10 -113 -127v-88zM76 264v119q0 125 75 202t209 77q418 -2 418 0q2 117 1 136q-6 119 -106 136q-25 4 -125 4t-437 -23v127q201 63 522 66q206 0 289 -136q45 -75 45 -190v-782h-144l-45 127
q-6 -6 -67 -38q-61 -33 -167 -67t-186 -34q-126 2 -204 76t-78 200z" />
    <glyph glyph-name="b" unicode="b" horiz-adv-x="1134" 
d="M664 164q188 0 188 377q0 235 -48 312t-140 79q-184 0 -363 -49v-631q195 -88 363 -88zM115 0v1608h184v-584q88 36 199 58t180 22q243 0 319 -218q33 -95 38 -187t5 -160q0 -551 -356 -551q-92 0 -211 45t-172 86l-43 -119h-143z" />
    <glyph glyph-name="c" unicode="c" horiz-adv-x="1019" 
d="M285 564q0 -179 20 -260q21 -80 63 -110t149 -30t355 14l72 6v-133q-133 -47 -333 -57t-261 5t-109 51q-145 109 -145 493q0 385 142 494q78 59 212 61q135 1 272 -19q136 -20 208 -39v-127q-449 21 -517 7q-68 -13 -98 -95t-30 -261z" />
    <glyph glyph-name="d" unicode="d" horiz-adv-x="1134" 
d="M285 541q0 -377 188 -377q168 0 363 88v631q-178 49 -363 49q-63 0 -102 -30q-86 -66 -86 -361zM96 539q0 328 94 446q94 119 263 119q105 0 214 -28t169 -52v584h186v-1608h-143l-43 119q-53 -41 -172 -86t-211 -45q-357 0 -357 551z" />
    <glyph glyph-name="e" unicode="e" horiz-adv-x="1075" 
d="M285 616h407q119 0 119 95q0 79 -8 117t-36 62t-69 30t-105 6q-166 0 -196 -15q-64 -31 -76 -63q-29 -75 -33 -125q-3 -50 -3 -107zM571 1096q207 0 284 -40t111 -123q33 -83 33 -226q0 -256 -286 -256h-428q0 -173 45 -231t168 -58q338 0 481 22v-137q-188 -57 -524 -57
q-207 0 -283 121t-76 405t47 388q27 60 62 98q87 94 366 94z" />
    <glyph glyph-name="f" unicode="f" horiz-adv-x="821" 
d="M39 918v135l190 34v203q0 186 77 253t203 67t273 -49v-119l-235 2q-70 0 -97 -25q-28 -25 -30 -66q-2 -42 -2 -81v-185h287v-169h-287v-918h-189v918h-190z" />
    <glyph glyph-name="g" unicode="g" horiz-adv-x="1136" 
d="M283 705q0 -157 87 -206q36 -22 87 -22h176q140 0 176 151q8 38 6 77q-4 111 -43 161t-141 52h-164q-184 0 -184 -213zM369 8q-60 0 -90 15v-250q0 -100 52 -127t111 -27h269q81 0 113 40t32 112v108q0 69 -27 99t-104 30h-356zM92 229q0 59 31 111t90 66q-41 26 -70 78
q-49 87 -49 221q0 193 94 289t267 98h645v-129l-154 -37q2 -4 14 -27q41 -75 43 -176q5 -301 -197 -389q-65 -29 -149 -29h-301q-84 0 -84 -57q0 -66 84 -66h408q133 0 207 -78t73 -215v-127q0 -311 -317 -315h-307q-203 0 -287 139q-43 72 -43 176v164l84 125
q-82 55 -82 178z" />
    <glyph glyph-name="h" unicode="h" 
d="M834 750q0 184 -180 184q-90 0 -160 -25t-191 -86v-823h-188v1606h188v-643q6 4 34 21q28 18 35 22q6 4 32 19t37 19t65 29q72 33 184 33q160 0 246 -104t86 -252v-750h-188v750z" />
    <glyph glyph-name="i" unicode="i" horiz-adv-x="419" 
d="M113 0v1087h188v-1087h-188zM96 1260v129q0 53 49 53h134q45 0 47 -53v-129q0 -47 -47 -48h-134q-23 0 -36 14t-13 34z" />
    <glyph glyph-name="j" unicode="j" horiz-adv-x="458" 
d="M135 -553v1640h189v-1095q4 -365 -60 -545h-129zM115 1260v129q0 53 49 53h133q23 0 35 -16t12 -37v-129q0 -47 -47 -48h-133q-23 0 -36 14t-13 34z" />
    <glyph glyph-name="k" unicode="k" horiz-adv-x="1054" 
d="M115 0v1602h188v-895h76l387 380h252l-463 -464l463 -623h-230l-409 537h-76v-537h-188z" />
    <glyph glyph-name="l" unicode="l" horiz-adv-x="620" 
d="M115 387v1217h188v-1205q0 -121 28 -168t83 -61q156 -43 170 -43v-127h-195q-274 0 -274 387z" />
    <glyph glyph-name="m" unicode="m" horiz-adv-x="1824" 
d="M651 1100q247 0 322 -154q193 154 426 154q151 0 241 -100t91 -259v-741h-189v743q0 55 -22 99q-43 86 -150 86q-106 0 -188 -24t-170 -83v-821h-189v743q0 85 -47 135t-119 50t-131 -14t-99 -32q-40 -17 -124 -63v-819h-188v1087h141l47 -126q21 11 51 29q28 20 50 32
t35 18t33 16q86 44 179 44z" />
    <glyph glyph-name="n" unicode="n" 
d="M115 0v1087h141l47 -124q30 19 54 33t50 29q25 15 35 19t35 16t39 17q14 3 38 11q56 18 136 18q160 0 246 -104t86 -252v-750h-188v750q0 135 -100 173q-30 11 -100 11t-140 -25t-191 -86v-823h-188z" />
    <glyph glyph-name="o" unicode="o" horiz-adv-x="1157" 
d="M580 926q-182 0 -228 -61q-66 -89 -67 -255q0 -166 7 -227q12 -108 58 -158t139 -58q35 -3 129 -3q170 0 213 91t43 276q0 187 -22 247t-42 86q-48 62 -230 62zM96 528q0 223 47 346q47 124 149 174t288 50q276 0 379 -123t103 -437t-102 -432q-104 -116 -378 -116
t-380 120t-106 418z" />
    <glyph glyph-name="p" unicode="p" horiz-adv-x="1134" 
d="M664 156q63 0 102 30q86 65 86 359q0 379 -188 379q-170 0 -363 -88v-631q176 -49 363 -49zM115 -553v1640h143l43 -116q86 64 203 96q116 33 190 33t137 -32q209 -106 209 -519q0 -323 -93 -445t-263 -120q-76 0 -186 22t-199 55v-614h-184z" />
    <glyph glyph-name="q" unicode="q" horiz-adv-x="1136" 
d="M285 570v-112q0 -133 38 -211q15 -34 37 -51q56 -44 130 -44q127 0 197 14q71 14 147 35v729h-340q-130 0 -182 -140q-27 -75 -27 -220zM834 59q-170 -79 -364 -79q-323 0 -365 380q-9 83 -9 189q0 268 96 409q96 142 280 142q183 0 550 -51v-1602h-188v612z" />
    <glyph glyph-name="r" unicode="r" horiz-adv-x="866" 
d="M115 0v1087h143l45 -137q78 52 124 77q131 73 248 73q118 0 152 -17v-184q-53 10 -157 10q-104 1 -182 -25q-77 -26 -185 -93v-791h-188z" />
    <glyph glyph-name="s" unicode="s" horiz-adv-x="1036" 
d="M76 727v94q0 133 65 205q66 72 233 72t325 -14q159 -14 206 -25v-135h-522q-78 0 -98 -25t-21 -82v-82q0 -74 30 -89t89 -15h305q90 0 152 -36q120 -69 121 -235v-102q0 -268 -267 -268q-104 0 -311 15t-262 30v131h549q102 0 102 98v86q0 72 -40 90q-24 12 -62 13h-305
q-150 0 -220 60q-69 60 -69 214z" />
    <glyph glyph-name="t" unicode="t" horiz-adv-x="776" 
d="M39 920v127l194 43l41 303h148v-303h297v-170h-297v-519q0 -121 28 -168t82 -61q156 -43 170 -43v-127h-198q-270 0 -271 387v531h-194z" />
    <glyph glyph-name="u" unicode="u" 
d="M285 338q0 -182 180 -182q90 0 160 24t190 86v821h189v-1087h-142l-47 123q-12 -6 -49 -29q-37 -24 -52 -30t-76 -39q-82 -43 -227 -43t-230 103t-85 255v747h189v-749z" />
    <glyph glyph-name="v" unicode="v" horiz-adv-x="1112" 
d="M39 1087h203l313 -833l317 833h203l-424 -1087h-198z" />
    <glyph glyph-name="w" unicode="w" horiz-adv-x="1652" 
d="M39 1087h203l295 -833l258 833h196l-100 -333l221 -500l301 833h203l-397 -1087h-199l-219 496l-164 -496h-207z" />
    <glyph glyph-name="x" unicode="x" horiz-adv-x="1099" 
d="M45 0l389 545l-389 542h231l271 -393l276 393h232l-393 -548l376 -539h-215l-272 389l-272 -389h-234z" />
    <glyph glyph-name="y" unicode="y" horiz-adv-x="1146" 
d="M588 178q10 0 26 4l287 905h205l-453 -1431l-151 -209h-125l182 553q-197 0 -266 240l-252 847h203l241 -825q29 -84 103 -84z" />
    <glyph glyph-name="z" unicode="z" horiz-adv-x="942" 
d="M57 911v176h830v-176l-551 -733h551v-176h-799v176l563 733h-594z" />
    <glyph glyph-name="braceleft" unicode="{" horiz-adv-x="655" 
d="M39 762q5 0 21 2t28 3q125 10 125 103v473q0 226 176 327q94 54 229 54v-176q-104 0 -160 -50t-57 -179v-453q0 -76 -49 -122t-131 -60q80 -12 129 -60t49 -116v-565q1 -97 59 -151t160 -50v-172q-227 0 -317 106t-90 246v574q0 56 -52 84t-120 24v158z" />
    <glyph glyph-name="bar" unicode="|" horiz-adv-x="501" 
d="M164 -147v1724h176v-1724h-176z" />
    <glyph glyph-name="braceright" unicode="}" horiz-adv-x="655" 
d="M256 -57v565q0 89 87 143q40 25 91 33q-82 14 -131 60t-49 122v453q0 137 -58 183t-157 46v176q199 0 301 -108t102 -273v-473q0 -66 53 -84q68 -24 123 -24v-158q-99 5 -147 -43q-27 -27 -27 -65v-574q0 -142 -85 -240q-95 -112 -320 -112v172q102 -4 160 49
q57 53 57 152z" />
    <glyph glyph-name="asciitilde" unicode="~" horiz-adv-x="884" 
d="M344 1321q38 0 105 -36q66 -36 112 -36t89 22t67 40q25 18 28 20l46 -96q-7 -5 -21 -21t-24 -25t-24 -23q-76 -74 -165 -79q-47 0 -118 36t-122 36t-103 -32t-73 -40l-45 93q12 10 43 39t45 41t41 29t54 25t65 7z" />
    <glyph glyph-name="exclamdown" unicode="&#xa1;" horiz-adv-x="552" 
d="M168 -553l16 1090h176l19 -1090h-211zM381 891v-119q-4 -55 -47 -55h-123q-49 0 -49 53v127q0 43 49 47h121q49 -8 49 -53z" />
    <glyph glyph-name="cent" unicode="&#xa2;" horiz-adv-x="1001" 
d="M76 556q0 383 150 491q84 59 237 55v196h137v-206q172 -18 311 -52v-127q-442 24 -513 10q-26 -5 -54 -27q-80 -61 -80 -335q0 -176 22 -258t64 -113q42 -30 122 -30q199 1 380 16l74 4v-131q-141 -49 -326 -57v-189h-139v183q-125 0 -185 29q-61 29 -93 69t-57 99
q-50 115 -50 373z" />
    <glyph glyph-name="sterling" unicode="&#xa3;" horiz-adv-x="1212" 
d="M96 0v147l144 35v484h-144v108l144 37v211q0 273 101 374q65 65 155 84q91 19 212 19q120 0 336 -24l74 -9v-147h-395q-145 0 -171 -9q-62 -22 -74 -40q-32 -45 -41 -102t-9 -140v-217l528 -33v-110h-528v-486h688v-182h-1020z" />
    <glyph glyph-name="currency" unicode="&#xa4;" horiz-adv-x="931" 
d="M260 624q0 -68 57 -130t141 -62t141 62q58 62 58 145q0 84 -58 141q-57 58 -125 58t-115 -27q-99 -58 -99 -187zM782 634q0 -100 -57 -185l106 -105l-90 -84l-102 102q-82 -59 -180 -59t-180 57l-97 -96l-82 90l95 92q-59 86 -59 190t52 185l-90 92l86 80l86 -86
q84 59 191 59t194 -65l99 96l77 -86l-96 -98q47 -79 47 -179z" />
    <glyph glyph-name="yen" unicode="&#xa5;" horiz-adv-x="1247" 
d="M1051 668v-136h-353v-94h353v-133h-353v-305h-188v305h-334v133h334v94h-334v136h313l-450 831h205l362 -688l393 688h211l-489 -831h330z" />
    <glyph glyph-name="brokenbar" unicode="&#xa6;" horiz-adv-x="503" 
d="M164 879v698h176v-698h-176zM164 -147v671h176v-671h-176z" />
    <glyph glyph-name="section" unicode="&#xa7;" horiz-adv-x="1124" 
d="M293 731q0 -61 24 -79q25 -17 84 -17h316q81 0 96 26q16 26 16 72v113q0 55 -17 80q-17 24 -95 24h-316q-65 0 -87 -20t-21 -88v-111zM106 713v112q0 84 20 134t81 69q-102 35 -103 180v131q0 140 77 203q77 62 179 63q101 1 307 -13t275 -25v-137h-543q-67 0 -91 -37
q-13 -20 -15 -58v-123q0 -90 106 -90h336q164 0 226 -65q61 -66 59 -195v-110q0 -176 -96 -195q94 -14 94 -176v-139q0 -181 -128 -234q-60 -24 -150 -24t-292 14q-200 14 -268 25v137h531q57 0 87 16t31 68v129q0 55 -23 72q-24 17 -85 18h-338q-139 1 -208 53t-69 197z
" />
    <glyph glyph-name="dieresis" unicode="&#xa8;" horiz-adv-x="927" 
d="M618 1192q0 45 32 76q32 30 77 30t76 -30t31 -76q0 -45 -31 -77t-76 -32t-77 32t-32 77zM96 1192q0 45 32 76q32 30 77 30t76 -30t31 -76q0 -45 -32 -77q-30 -32 -75 -32t-77 32t-32 77z" />
    <glyph glyph-name="copyright" unicode="&#xa9;" horiz-adv-x="1654" 
d="M776 1051q-162 0 -162 -277q0 -127 12 -188q12 -62 51 -102q38 -40 101 -40q150 0 365 33v-119q-182 -57 -377 -57q-220 0 -274 224q-23 92 -23 223q0 233 79 339q79 107 214 107t368 -49v-119q-172 25 -354 25zM252 756q0 -246 78 -418q40 -88 106 -141t150 -54h528
q129 2 209 156t80 445t-45 415q-71 197 -242 197h-530q-96 0 -168 -48q-166 -111 -166 -552zM104 754q0 745 482 745h530q235 0 340 -206q94 -185 94 -526q0 -340 -100 -546q-51 -105 -136 -163t-198 -58h-530q-109 0 -196 50t-138 128q-148 226 -148 576z" />
    <glyph glyph-name="ordfeminine" unicode="&#xaa;" horiz-adv-x="745" 
d="M207 979q0 -76 93 -76t198 47l34 15v161l-243 -18q-82 -8 -82 -80v-49zM686 1296v-522h-104l-47 98q-33 -34 -125 -70q-90 -36 -162 -36t-132 51t-59 133v88q-1 84 55 136t156 51q264 -2 264 0q2 55 0 57q0 53 -29 76q-30 22 -105 22t-316 -16v100q16 2 76 16t131 23
q70 10 164 11q93 1 163 -52t70 -166zM57 545v127h633v-127h-633z" />
    <glyph glyph-name="guillemotleft" unicode="&#xab;" horiz-adv-x="1140" 
d="M496 725l422 416l120 -119l-305 -297l314 -305l-119 -121zM96 725l422 416l119 -119l-303 -297l313 -305l-119 -121z" />
    <glyph glyph-name="logicalnot" unicode="&#xac;" horiz-adv-x="1060" 
d="M94 516v172h873v-362h-172v190h-701z" />
    <glyph glyph-name="uni00AD" unicode="&#xad;" horiz-adv-x="724" 
d="M41 506v176h643v-176h-643z" />
    <glyph glyph-name="registered" unicode="&#xae;" horiz-adv-x="1654" 
d="M674 782h219q79 0 103 27t24 91q0 109 -39 126q-39 18 -88 18h-219v-262zM526 313v875h367q274 0 274 -266q0 -173 -91 -231q-36 -23 -95 -36l184 -342h-164l-182 342l-145 25v-367h-148zM252 756q0 -246 78 -418q40 -88 106 -141t150 -54h528q129 2 209 156t80 445
t-45 415q-71 197 -242 197h-530q-96 0 -168 -48q-166 -111 -166 -552zM104 754q0 745 482 745h530q235 0 340 -206q94 -185 94 -526q0 -340 -100 -546q-51 -105 -136 -163t-198 -58h-530q-109 0 -196 50t-138 128q-148 226 -148 576z" />
    <glyph glyph-name="macron" unicode="&#xaf;" horiz-adv-x="788" 
d="M96 1087v138h598v-138h-598z" />
    <glyph glyph-name="degree" unicode="&#xb0;" horiz-adv-x="606" 
d="M199 1301q0 -37 14 -61q29 -50 82 -50t84 31t31 67t-15 60q-29 52 -99 52q-36 0 -66 -31q-30 -32 -31 -68zM96 1294q0 58 28 106t76 77t104 29t105 -29q103 -62 103 -183q0 -57 -28 -105t-76 -76t-104 -28t-104 28t-76 76t-28 105z" />
    <glyph glyph-name="plusminus" unicode="&#xb1;" horiz-adv-x="1062" 
d="M106 791v176h336v336h176v-336h340v-176h-340v-340h-176v340h-336zM106 168v176h852v-176h-852z" />
    <glyph glyph-name="twosuperior" unicode="&#xb2;" horiz-adv-x="798" 
d="M61 1659v115q242 33 383 32q274 0 275 -282q0 -70 -35 -148t-74 -133q-40 -55 -108 -124t-96 -91t-76 -63h389v-150h-651v141q105 75 205 159q222 187 265 294q23 59 23 121q0 130 -155 129h-345z" />
    <glyph glyph-name="threesuperior" unicode="&#xb3;" horiz-adv-x="831" 
d="M565 1069v41q0 123 -137 127l-281 10v119l281 14q139 6 139 119v39q0 113 -139 113h-371v108q113 37 252 37h158q125 0 188 -69t64 -173v-69q0 -94 -51 -147q-23 -24 -54 -35q104 -57 105 -195v-55q-1 -119 -61 -183t-201 -63h-169q-105 0 -222 39l2 108l352 2
q108 0 132 45q13 25 13 68z" />
    <glyph glyph-name="acute" unicode="&#xb4;" horiz-adv-x="495" 
d="M39 1087l209 277h211l-266 -277h-154z" />
    <glyph glyph-name="uni00B5" unicode="&#xb5;" horiz-adv-x="1212" 
d="M360 338q0 -182 182 -182q88 0 159 24t190 86v821h188v-1087h-139l-49 123q-8 -3 -41 -23q-142 -84 -206 -97t-138 -16t-146 40v-580h-188v1640h188v-749z" />
    <glyph glyph-name="paragraph" unicode="&#xb6;" horiz-adv-x="1185" 
d="M244 1032q0 -139 155 -139h107v438h-107q-87 0 -121 -39t-34 -94v-166zM76 1022v190q0 137 94 212t225 75h754v-172h-131v-1327h-168v1331h-176v-1884h-168v1315l-18 -10q-42 -25 -93 -25q-155 0 -237 84t-82 211z" />
    <glyph glyph-name="periodcentered" unicode="&#xb7;" horiz-adv-x="550" 
d="M162 717v135q0 51 49 51h127q51 0 51 -51v-135q0 -47 -51 -47h-127q-27 0 -38 16t-11 31z" />
    <glyph glyph-name="cedilla" unicode="&#xb8;" horiz-adv-x="509" 
d="M264 -76h152q0 -160 -44 -220t-169 -60h-107v88l103 30q41 16 53 56t12 106z" />
    <glyph glyph-name="onesuperior" unicode="&#xb9;" horiz-adv-x="552" 
d="M430 1794v-979h-151v821l-248 -65v110l248 113h151z" />
    <glyph glyph-name="ordmasculine" unicode="&#xba;" horiz-adv-x="800" 
d="M211 1148q0 -100 11 -146q18 -75 99 -92q27 -5 71 -5q115 0 134 16q40 33 51 77q23 94 13 195q-11 101 -34 131q-24 30 -58 37t-85 7t-71 -2t-47 -8t-39 -22t-28 -51q-16 -37 -17 -137zM82 551v125h637v-125h-637zM402 764q-196 0 -270 82t-75 290q0 209 74 291
q75 82 271 82t269 -82t73 -292q0 -211 -74 -291q-72 -80 -268 -80z" />
    <glyph glyph-name="guillemotright" unicode="&#xbb;" horiz-adv-x="1140" 
d="M496 420l313 305l-305 297l121 119l422 -416l-433 -426zM96 420l312 305l-304 297l121 119l422 -416l-432 -426z" />
    <glyph glyph-name="onequarter" unicode="&#xbc;" horiz-adv-x="1863" 
d="M1556 385v238l56 100h98v-338h115v-123l-115 -31v-233h-154v233h-489l-47 62l407 682h170l-348 -590h307zM426 0l750 1511h151l-747 -1511h-154zM430 1503v-979h-151v822l-248 -66v109l248 114h151z" />
    <glyph glyph-name="onehalf" unicode="&#xbd;" horiz-adv-x="2002" 
d="M1266 842q-2 0 -2 30v58q0 29 2 28q244 33 385 33q274 0 274 -284q0 -146 -127 -300q-95 -114 -213 -217q-14 -12 -49 -43h389v-147h-653v139q8 9 80 63q236 179 327 292q90 114 89 198t-35 117q-35 33 -121 33h-346zM414 0l749 1511h154l-750 -1511h-153zM430 1503v-979
h-151v822l-248 -66v109l248 114h151z" />
    <glyph glyph-name="threequarters" unicode="&#xbe;" horiz-adv-x="2101" 
d="M1741 381v244l49 100h98v-344h115v-119l-115 -29v-233h-147v233h-498l-45 62l406 680h161l-346 -594h322zM631 0l747 1511h154l-748 -1511h-153zM57 1358v108q94 34 253 38q42 1 163 1q121 1 184 -69t64 -172v-70q0 -70 -30 -118t-75 -64q104 -57 105 -197v-53
q-1 -119 -61 -182t-201 -64h-125q-54 0 -65 1t-40 3t-44 5t-39 6t-42 9t-38 13l2 109l354 2q82 0 114 24t31 88v41q0 125 -137 129l-283 10v117l283 14q139 6 139 119v41q0 111 -139 111h-373z" />
    <glyph glyph-name="questiondown" unicode="&#xbf;" horiz-adv-x="1112" 
d="M541 913q0 21 14 35t35 17h119q49 -2 49 -47v-130q-2 -49 -43 -51h-133q-39 8 -41 51v125zM1071 -414v-90q-14 -2 -65 -10t-79 -10t-75 -10q-47 -7 -112 -12t-136 -5q-72 0 -140 1t-144 25q-244 76 -244 367v193q-2 182 133 270t352 60v15l2 84v84q0 15 -2 17h178l2 -350
q-184 4 -267 1t-132 -58t-55 -135q-2 -145 -2 -181q0 -88 60 -149t183 -60l545 2q-2 -29 -2 -49z" />
    <glyph glyph-name="Agrave" unicode="&#xc0;" horiz-adv-x="1384" 
d="M494 573h450l-221 656zM86 0l539 1499h198l516 -1499h-215l-123 395h-567l-129 -395h-219zM381 1909h211l209 -277h-154z" />
    <glyph glyph-name="Aacute" unicode="&#xc1;" horiz-adv-x="1384" 
d="M494 573h450l-221 656zM86 0l539 1499h198l516 -1499h-215l-123 395h-567l-129 -395h-219zM647 1632l211 277h209l-266 -277h-154z" />
    <glyph glyph-name="Acircumflex" unicode="&#xc2;" horiz-adv-x="1384" 
d="M494 573h450l-221 656zM86 0l539 1499h198l516 -1499h-215l-123 395h-567l-129 -395h-219zM420 1632l235 269h164l209 -269h-158l-139 140l-151 -140h-160z" />
    <glyph glyph-name="Atilde" unicode="&#xc3;" horiz-adv-x="1384" 
d="M494 573h450l-221 656zM86 0l539 1499h198l516 -1499h-215l-123 395h-567l-129 -395h-219zM714 1670q-65 34 -113 34t-102 -30l-77 -42l-45 92q117 104 189 127q73 23 160 -20t112 -45q55 -2 188 76l45 -97q-26 -26 -78 -65q-53 -39 -89 -54t-81 -12q-44 2 -109 36z" />
    <glyph glyph-name="Adieresis" unicode="&#xc4;" horiz-adv-x="1384" 
d="M494 573h450l-221 656zM86 0l539 1499h198l516 -1499h-215l-123 395h-567l-129 -395h-219zM877 1741q0 45 32 76q33 31 78 31t76 -32q31 -30 31 -75t-32 -77t-76 -32t-77 32q-32 32 -32 77zM354 1741q0 45 33 76t78 31t76 -32q31 -30 31 -75t-32 -77t-76 -32t-77 32
t-33 77z" />
    <glyph glyph-name="Aring" unicode="&#xc5;" horiz-adv-x="1384" 
d="M494 573h450l-221 656zM516 1719q0 73 62 134t147 61q86 0 146 -60q61 -62 61 -134q1 -137 -103 -197q-29 -17 -61 -24h55l516 -1499h-215l-123 395h-567l-129 -395h-219l539 1499h59q-33 7 -62 24q-106 62 -106 196zM618 1704q0 -43 32 -74t75 -31t74 31t31 67
q0 37 -15 61q-29 52 -81 52t-84 -32t-32 -74z" />
    <glyph glyph-name="AE" unicode="&#xc6;" horiz-adv-x="1904" 
d="M895 625v657l-324 -657h324zM1819 1313h-633q-76 0 -88 -35q-12 -30 -15 -74v-375l650 -20v-152l-650 -20v-356q-1 -38 7 -52t12 -22t14 -12q10 -3 16 -7q9 -5 33 -6h45l607 -2v-155l-625 -35q-297 -16 -297 258v198h-412l-219 -446h-207l602 1221q82 168 184 225
q101 57 215 53q52 -2 109 0q614 -29 652 -33v-153z" />
    <glyph glyph-name="Ccedilla" unicode="&#xc7;" horiz-adv-x="1179" 
d="M1114 37q-217 -49 -522 -49q-369 0 -461 455q-27 135 -27 299t14 276q30 250 143 374t345 124t508 -56v-149q-22 2 -40 3q-19 1 -45 3q-27 2 -57 3t-64 3t-70 4t-73 3l-72 2t-99 1q-152 0 -227 -114q-74 -114 -74 -469q0 -495 232 -566q46 -14 122 -14t197 4t196 6l74 4
v-147zM557 -74h152q0 -160 -45 -221t-168 -61h-107v90l103 30q39 16 52 56t13 106z" />
    <glyph glyph-name="Egrave" unicode="&#xc8;" horiz-adv-x="1161" 
d="M152 264v957q0 151 80 217t196 61q614 -29 651 -33v-151h-633q-77 0 -92 -33q-14 -33 -14 -82v-360l653 -21v-153l-653 -21v-360q0 -79 43 -96q28 -11 84 -11h612v-149l-630 -35q-297 -17 -297 270zM354 1898h209l211 -274h-153z" />
    <glyph glyph-name="Eacute" unicode="&#xc9;" horiz-adv-x="1161" 
d="M152 264v957q0 151 80 217t196 61q614 -29 651 -33v-151h-633q-77 0 -92 -33q-14 -33 -14 -82v-360l653 -21v-153l-653 -21v-360q0 -79 43 -96q28 -11 84 -11h612v-149l-630 -35q-297 -17 -297 270zM582 1624l209 274h210l-266 -274h-153z" />
    <glyph glyph-name="Ecircumflex" unicode="&#xca;" horiz-adv-x="1161" 
d="M152 264v957q0 151 80 217t196 61q614 -29 651 -33v-151h-633q-77 0 -92 -33q-14 -33 -14 -82v-360l653 -21v-153l-653 -21v-360q0 -79 43 -96q28 -11 84 -11h612v-149l-630 -35q-297 -17 -297 270zM344 1632l236 269h163l209 -269h-157l-140 140l-151 -140h-160z" />
    <glyph glyph-name="Edieresis" unicode="&#xcb;" horiz-adv-x="1161" 
d="M152 264v957q0 151 80 217t196 61q614 -29 651 -33v-151h-633q-77 0 -92 -33q-14 -33 -14 -82v-360l653 -21v-153l-653 -21v-360q0 -79 43 -96q28 -11 84 -11h612v-149l-630 -35q-297 -17 -297 270zM801 1733q0 45 32 75q33 30 77 31q44 0 75 -31q31 -32 31 -76t-31 -76
t-76 -32t-77 32t-31 77zM279 1733q-1 45 31 75t77 31q45 0 76 -31q31 -32 31 -76t-31 -76t-76 -32t-77 32q-31 32 -31 77z" />
    <glyph glyph-name="Igrave" unicode="&#xcc;" horiz-adv-x="454" 
d="M154 0v1499h188v-1499h-188zM-96 1909h211l209 -277h-154z" />
    <glyph glyph-name="Iacute" unicode="&#xcd;" horiz-adv-x="454" 
d="M154 0v1499h188v-1499h-188zM170 1632l211 277h209l-266 -277h-154z" />
    <glyph glyph-name="Icircumflex" unicode="&#xce;" horiz-adv-x="454" 
d="M154 0v1499h188v-1499h-188zM-57 1632l235 269h164l209 -269h-158l-139 140l-152 -140h-159z" />
    <glyph glyph-name="Idieresis" unicode="&#xcf;" horiz-adv-x="454" 
d="M154 0v1499h188v-1499h-188zM401 1741q0 45 32 76t77 31t76 -32q30 -30 30 -75t-30 -77t-76 -32q-45 0 -77 32t-32 77zM-123 1741q0 45 33 76t78 31q46 0 76 -32q30 -30 30 -75t-31 -77t-75 -32t-78 32q-33 32 -33 77z" />
    <glyph glyph-name="Eth" unicode="&#xd0;" horiz-adv-x="1347" 
d="M342 184h385q119 0 198 78q142 140 142 483q0 565 -340 566l-385 -2v-486h268v-118h-268v-521zM20 705v118h134v674q0 2 579 2q264 0 397 -195q107 -156 124 -390t-5 -364q-67 -395 -312 -508q-91 -42 -204 -42h-579v705h-134z" />
    <glyph glyph-name="Ntilde" unicode="&#xd1;" horiz-adv-x="1390" 
d="M154 0v1499h192l744 -1149v1149h188v-1499h-188l-746 1147v-1147h-190zM706 1670q-64 34 -113 34q-48 0 -76 -16q-78 -44 -105 -56l-45 92q118 105 191 127t159 -21q86 -42 112 -44q55 -2 187 76l47 -97q-29 -21 -45 -37t-34 -28t-30 -22q-108 -82 -248 -8z" />
    <glyph glyph-name="Ograve" unicode="&#xd2;" horiz-adv-x="1380" 
d="M345 385q32 -102 66 -131q58 -50 126 -65t169 -15t162 13q139 30 189 152q51 122 51 349q0 228 -19 345t-41 154q-22 38 -41 65t-67 46t-95 24t-137 5q-92 0 -140 -6t-106 -36t-85 -90t-45 -173t-19 -324q0 -211 32 -313zM125 740q0 146 15 262t40 197t68 138t88 90
t132 57t208 25q121 0 181 -6q156 -16 234 -76q109 -81 157 -241q48 -159 48 -467t-70 -467q-36 -82 -82 -134q-84 -95 -259 -117q-72 -9 -166 -9q-93 0 -155 5q-160 13 -239 75q-108 81 -150 220q-50 165 -50 448zM369 1909h211l208 -277h-153z" />
    <glyph glyph-name="Oacute" unicode="&#xd3;" horiz-adv-x="1380" 
d="M345 385q32 -102 66 -131q58 -50 126 -65t169 -15t162 13q139 30 189 152q51 122 51 349q0 228 -19 345t-41 154q-22 38 -41 65t-67 46t-95 24t-137 5q-92 0 -140 -6t-106 -36t-85 -90t-45 -173t-19 -324q0 -211 32 -313zM125 740q0 146 15 262t40 197t68 138t88 90
t132 57t208 25q121 0 181 -6q156 -16 234 -76q109 -81 157 -241q48 -159 48 -467t-70 -467q-36 -82 -82 -134q-84 -95 -259 -117q-72 -9 -166 -9q-93 0 -155 5q-160 13 -239 75q-108 81 -150 220q-50 165 -50 448zM635 1632l211 277h209l-267 -277h-153z" />
    <glyph glyph-name="Ocircumflex" unicode="&#xd4;" horiz-adv-x="1380" 
d="M345 385q32 -102 66 -131q58 -50 126 -65t169 -15t162 13q139 30 189 152q51 122 51 349q0 228 -19 345t-41 154q-22 38 -41 65t-67 46t-95 24t-137 5q-92 0 -140 -6t-106 -36t-85 -90t-45 -173t-19 -324q0 -211 32 -313zM125 740q0 146 15 262t40 197t68 138t88 90
t132 57t208 25q121 0 181 -6q156 -16 234 -76q109 -81 157 -241q48 -159 48 -467t-70 -467q-36 -82 -82 -134q-84 -95 -259 -117q-72 -9 -166 -9q-93 0 -155 5q-160 13 -239 75q-108 81 -150 220q-50 165 -50 448zM408 1632l235 269h164l209 -269h-158l-139 140l-152 -140
h-159z" />
    <glyph glyph-name="Otilde" unicode="&#xd5;" horiz-adv-x="1380" 
d="M345 385q32 -102 66 -131q58 -50 126 -65t169 -15t162 13q139 30 189 152q51 122 51 349q0 228 -19 345t-41 154q-22 38 -41 65t-67 46t-95 24t-137 5q-92 0 -140 -6t-106 -36t-85 -90t-45 -173t-19 -324q0 -211 32 -313zM125 740q0 146 15 262t40 197t68 138t88 90
t132 57t208 25q121 0 181 -6q156 -16 234 -76q109 -81 157 -241q48 -159 48 -467t-70 -467q-36 -82 -82 -134q-84 -95 -259 -117q-72 -9 -166 -9q-93 0 -155 5q-160 13 -239 75q-108 81 -150 220q-50 165 -50 448zM487 1673q-56 -31 -77 -41l-45 92q118 105 189 127
q72 22 159 -20q87 -43 127 -45t174 76l45 -97q-32 -32 -82 -68t-86 -51t-81 -12q-44 2 -109 36t-112 34q-46 0 -102 -31z" />
    <glyph glyph-name="Odieresis" unicode="&#xd6;" horiz-adv-x="1380" 
d="M345 385q32 -102 66 -131q58 -50 126 -65t169 -15t162 13q139 30 189 152q51 122 51 349q0 228 -19 345t-41 154q-22 38 -41 65t-67 46t-95 24t-137 5q-92 0 -140 -6t-106 -36t-85 -90t-45 -173t-19 -324q0 -211 32 -313zM125 740q0 146 15 262t40 197t68 138t88 90
t132 57t208 25q121 0 181 -6q156 -16 234 -76q109 -81 157 -241q48 -159 48 -467t-70 -467q-36 -82 -82 -134q-84 -95 -259 -117q-72 -9 -166 -9q-93 0 -155 5q-160 13 -239 75q-108 81 -150 220q-50 165 -50 448zM864 1741q0 45 33 76t78 31t76 -32q31 -30 31 -75t-32 -77
t-76 -32t-77 32t-33 77zM342 1741q0 45 33 76t78 31t75 -32q30 -30 31 -75q0 -45 -32 -77q-31 -32 -75 -32t-77 32t-33 77z" />
    <glyph glyph-name="multiply" unicode="&#xd7;" horiz-adv-x="940" 
d="M106 489l240 238l-240 240l125 125l240 -240l240 240l125 -123l-242 -242l240 -238l-125 -124l-238 237l-238 -235z" />
    <glyph glyph-name="Oslash" unicode="&#xd8;" horiz-adv-x="1384" 
d="M1110 758q0 298 -61 424l-613 -946q78 -61 277 -62q96 0 157 13q139 30 189 152q51 121 51 419zM724 1327q-58 0 -116 -2t-88 -13q-82 -31 -103 -63q-53 -81 -64 -126q-38 -156 -38 -415q0 -258 56 -370l608 940q-56 42 -159 47q-38 2 -96 2zM1144 118q-85 -81 -186 -104
q-101 -22 -240 -22q-138 0 -230 16t-160 64l-47 -72h-134l99 152q-119 165 -119 592t122 593q42 57 86 90t131 57q87 25 230 25q144 0 232 -15t155 -60l43 65h134l-95 -143q133 -172 133 -630t-154 -608z" />
    <glyph glyph-name="Ugrave" unicode="&#xd9;" horiz-adv-x="1378" 
d="M154 655v844h188v-844q0 -161 13 -219t23 -95q12 -46 61 -105q53 -64 230 -64q95 0 129 2q127 7 202 102q75 94 75 379v844h191v-844q0 -251 -66 -422q-43 -113 -164 -190q-83 -53 -321 -53h-21q-252 0 -328 52q-36 24 -83 72q-129 132 -129 541zM367 1909h208l211 -277
h-153z" />
    <glyph glyph-name="Uacute" unicode="&#xda;" horiz-adv-x="1378" 
d="M154 655v844h188v-844q0 -161 13 -219t23 -95q12 -46 61 -105q53 -64 230 -64q95 0 129 2q127 7 202 102q75 94 75 379v844h191v-844q0 -251 -66 -422q-43 -113 -164 -190q-83 -53 -321 -53h-21q-252 0 -328 52q-36 24 -83 72q-129 132 -129 541zM633 1632l209 277h211
l-267 -277h-153z" />
    <glyph glyph-name="Ucircumflex" unicode="&#xdb;" horiz-adv-x="1378" 
d="M154 655v844h188v-844q0 -161 13 -219t23 -95q12 -46 61 -105q53 -64 230 -64q95 0 129 2q127 7 202 102q75 94 75 379v844h191v-844q0 -251 -66 -422q-43 -113 -164 -190q-83 -53 -321 -53h-21q-252 0 -328 52q-36 24 -83 72q-129 132 -129 541zM406 1632l233 269h164
l209 -269h-156l-139 140l-152 -140h-159z" />
    <glyph glyph-name="Udieresis" unicode="&#xdc;" horiz-adv-x="1378" 
d="M154 655v844h188v-844q0 -161 13 -219t23 -95q12 -46 61 -105q53 -64 230 -64q95 0 129 2q127 7 202 102q75 94 75 379v844h191v-844q0 -251 -66 -422q-43 -113 -164 -190q-83 -53 -321 -53h-21q-252 0 -328 52q-36 24 -83 72q-129 132 -129 541zM862 1741q0 45 32 76
t77 31t76 -32q31 -30 31 -75t-32 -77q-30 -32 -75 -32t-77 32t-32 77zM340 1741q0 45 32 76t77 31t77 -32q32 -30 31 -75q0 -45 -32 -77q-33 -32 -77 -32t-76 32t-32 77z" />
    <glyph glyph-name="Yacute" unicode="&#xdd;" horiz-adv-x="1304" 
d="M745 0h-188v514l-471 985h205l362 -768l400 768h204l-512 -985v-514zM594 1632l211 277h211l-266 -277h-156z" />
    <glyph glyph-name="Thorn" unicode="&#xde;" horiz-adv-x="1134" 
d="M303 483h352q85 0 125 39q71 69 69 256t-96 227q-44 19 -98 19h-352v-541zM115 0v1493h188v-289h377q360 -4 360 -436q0 -326 -170 -419q-80 -44 -190 -44q-12 0 -48 -1t-47 0t-44 2t-61 6q-28 4 -74 12t-103 20v-344h-188z" />
    <glyph glyph-name="germandbls" unicode="&#xdf;" horiz-adv-x="1167" 
d="M788 158q59 0 106 35q46 35 48 94v84q0 55 -79 84q-36 12 -78 23q-172 45 -219 134q-22 43 -22 120t45 137q44 60 185 169q98 76 98 195q0 180 -288 180q-127 1 -204 -67t-77 -216v-1130h-188v1159q0 186 124 310t343 124q143 0 246 -37q104 -37 154 -97
q104 -124 72 -285t-147 -248q-20 -18 -69 -61t-78 -74q-29 -32 -29 -72q0 -41 41 -63t99 -38q57 -16 117 -40t102 -78q42 -53 40 -135v-89q0 -223 -218 -278q-54 -14 -113 -14t-170 12t-168 27v145q125 -10 327 -10z" />
    <glyph glyph-name="agrave" unicode="&#xe0;" horiz-adv-x="1062" 
d="M264 283q0 -123 117 -123q68 0 167 26t165 50l65 24v266l-401 -28q-113 -10 -113 -127v-88zM76 264v119q0 125 75 202t209 77q418 -2 418 0q2 117 1 136q-6 119 -106 136q-25 4 -125 4t-437 -23v129q201 61 522 64q206 0 289 -136q45 -75 45 -190v-782h-144l-45 127
q-6 -6 -67 -38q-61 -33 -167 -67t-186 -34q-126 2 -204 76t-78 200zM203 1507h211l209 -276h-154z" />
    <glyph glyph-name="aacute" unicode="&#xe1;" horiz-adv-x="1062" 
d="M264 283q0 -123 117 -123q68 0 167 26t165 50l65 24v266l-401 -28q-113 -10 -113 -127v-88zM76 264v119q0 125 75 202t209 77q418 -2 418 0q2 117 1 136q-6 119 -106 136q-25 4 -125 4t-437 -23v129q201 61 522 64q206 0 289 -136q45 -75 45 -190v-782h-144l-45 127
q-6 -6 -67 -38q-61 -33 -167 -67t-186 -34q-126 2 -204 76t-78 200zM461 1231l209 276h211l-267 -276h-153z" />
    <glyph glyph-name="acircumflex" unicode="&#xe2;" horiz-adv-x="1062" 
d="M264 283q0 -123 117 -123q68 0 167 26t165 50l65 24v266l-401 -28q-113 -10 -113 -127v-88zM76 264v119q0 125 75 202t209 77q418 -2 418 0q2 117 1 136q-6 119 -106 136q-25 4 -125 4t-437 -23v129q201 61 522 64q206 0 289 -136q45 -75 45 -190v-782h-144l-45 127
q-6 -6 -67 -38q-61 -33 -167 -67t-186 -34q-126 2 -204 76t-78 200zM238 1231l233 268h164l209 -268h-158l-139 139l-150 -139h-159z" />
    <glyph glyph-name="atilde" unicode="&#xe3;" horiz-adv-x="1062" 
d="M264 283q0 -123 117 -123q68 0 167 26t165 50l65 24v266l-401 -28q-113 -10 -113 -127v-88zM76 264v119q0 125 75 202t209 77q418 -2 418 0q2 117 1 136q-6 119 -106 136q-25 4 -125 4t-437 -23v129q201 61 522 64q206 0 289 -136q45 -75 45 -190v-782h-144l-45 127
q-6 -6 -67 -38q-61 -33 -167 -67t-186 -34q-126 2 -204 76t-78 200zM184 1323q141 133 242 133q55 -2 125 -36t94 -36q55 -2 189 76l45 -96q-38 -38 -60 -52t-48 -34q-71 -50 -130 -46t-124 37t-109 34t-101 -30t-78 -42z" />
    <glyph glyph-name="adieresis" unicode="&#xe4;" horiz-adv-x="1062" 
d="M264 283q0 -123 117 -123q68 0 167 26t165 50l65 24v266l-401 -28q-113 -10 -113 -127v-88zM76 264v119q0 125 75 202t209 77q418 -2 418 0q2 117 1 136q-6 119 -106 136q-25 4 -125 4t-437 -23v129q201 61 522 64q206 0 289 -136q45 -75 45 -190v-782h-144l-45 127
q-6 -6 -67 -38q-61 -33 -167 -67t-186 -34q-126 2 -204 76t-78 200zM690 1339q0 45 32 77t77 32t77 -32t32 -77t-32 -77t-77 -31q-45 -1 -77 31t-32 77zM168 1339q0 45 32 77t76 32t77 -32q32 -32 32 -77t-32 -77t-77 -31q-44 -1 -76 31t-32 77z" />
    <glyph glyph-name="aring" unicode="&#xe5;" horiz-adv-x="1062" 
d="M264 283q0 -123 117 -123q68 0 167 26t165 50l65 24v266l-401 -28q-113 -10 -113 -127v-88zM76 264v119q0 125 75 202t209 77q418 -2 418 0q2 117 1 136q-6 119 -106 136q-25 4 -125 4t-437 -23v129q201 61 522 64q206 0 289 -136q45 -75 45 -190v-782h-144l-45 127
q-6 -6 -67 -38q-61 -33 -167 -67t-186 -34q-126 2 -204 76t-78 200zM434 1388q0 -44 32 -74t75 -30t73 30t31 74q0 44 -31 74q-32 30 -74 31q-42 -1 -74 -31t-32 -74zM332 1374q0 135 105 196q49 28 105 28t103 -28t75 -76t28 -106t-28 -106t-75 -75t-119 -27t-133 60
q-61 62 -61 134z" />
    <glyph glyph-name="ae" unicode="&#xe6;" horiz-adv-x="1767" 
d="M977 631h407q119 0 119 94q0 76 -7 116q-14 78 -104 90q-40 5 -102 5h-81q-69 0 -89 -6t-44 -14t-33 -18q-9 -12 -23 -28q-43 -50 -43 -239zM264 291q0 -67 31 -93t93 -26t160 25q99 25 165 49l65 24v238l-401 -29q-113 -10 -113 -127v-61zM76 274v78q0 197 163 259
q54 22 121 22q418 -2 418 0q2 155 1 175t-8 46q-25 95 -167 96q-142 0 -493 -24v129q174 61 522 63q182 2 266 -110q72 75 211 91q62 7 146 7q250 0 326 -61t97 -172q12 -65 13 -152q0 -252 -287 -252h-428q0 -177 46 -237t167 -60q340 0 481 23v-138q-186 -57 -524 -57
q-119 0 -185 35t-126 108q-6 -8 -84 -43q-78 -34 -196 -68t-198 -34q-126 2 -204 78t-78 198z" />
    <glyph glyph-name="ccedilla" unicode="&#xe7;" horiz-adv-x="1019" 
d="M516 -76h154q0 -160 -45 -221t-168 -61h-109v90l105 30q39 16 51 56t12 106zM96 534q0 245 47 364t124 162q76 42 195 42q118 0 266 -24q147 -24 202 -38v-127q-441 24 -512 10q-27 -5 -56 -27q-77 -58 -77 -331q0 -180 20 -262q21 -82 63 -113q42 -30 122 -30
q201 1 382 16l72 4v-131q-139 -49 -337 -59q-198 -9 -258 6q-60 16 -108 52q-145 109 -145 486z" />
    <glyph glyph-name="egrave" unicode="&#xe8;" horiz-adv-x="1075" 
d="M285 616h407q119 0 119 95q0 79 -8 117t-36 62t-69 30t-151 6t-132 -10q-23 -10 -46 -19q-23 -11 -33 -27q-34 -56 -42 -107q-9 -53 -9 -147zM571 1096q207 0 284 -40t111 -123q33 -83 33 -224q0 -258 -286 -258h-428q0 -173 45 -231t168 -58q338 0 481 22v-137
q-188 -57 -524 -57q-207 0 -283 121t-76 405t47 388q27 60 62 98q87 94 366 94zM229 1495h211l209 -274h-153z" />
    <glyph glyph-name="eacute" unicode="&#xe9;" horiz-adv-x="1075" 
d="M285 616h407q119 0 119 95q0 79 -8 117t-36 62t-69 30t-151 6t-132 -10q-23 -10 -46 -19q-23 -11 -33 -27q-34 -56 -42 -107q-9 -53 -9 -147zM571 1096q207 0 284 -40t111 -123q33 -83 33 -224q0 -258 -286 -258h-428q0 -173 45 -231t168 -58q338 0 481 22v-137
q-188 -57 -524 -57q-207 0 -283 121t-76 405t47 388q27 60 62 98q87 94 366 94zM479 1221l209 274h211l-266 -274h-154z" />
    <glyph glyph-name="ecircumflex" unicode="&#xea;" horiz-adv-x="1075" 
d="M285 616h407q119 0 119 95q0 79 -8 117t-36 62t-69 30t-151 6t-132 -10q-23 -10 -46 -19q-23 -11 -33 -27q-34 -56 -42 -107q-9 -53 -9 -147zM571 1096q207 0 284 -40t111 -123q33 -83 33 -224q0 -258 -286 -258h-428q0 -173 45 -231t168 -58q338 0 481 22v-137
q-188 -57 -524 -57q-207 0 -283 121t-76 405t47 388q27 60 62 98q87 94 366 94zM254 1221l233 270h164l209 -270h-158l-139 139l-149 -139h-160z" />
    <glyph glyph-name="edieresis" unicode="&#xeb;" horiz-adv-x="1075" 
d="M285 616h407q119 0 119 95q0 79 -8 117t-36 62t-69 30t-151 6t-132 -10q-23 -10 -46 -19q-23 -11 -33 -27q-34 -56 -42 -107q-9 -53 -9 -147zM571 1096q207 0 284 -40t111 -123q33 -83 33 -224q0 -258 -286 -258h-428q0 -173 45 -231t168 -58q338 0 481 22v-137
q-188 -57 -524 -57q-207 0 -283 121t-76 405t47 388q27 60 62 98q87 94 366 94zM705 1329q0 45 31 77q32 32 77 32t77 -32t32 -77t-32 -77t-77 -32t-77 32q-31 32 -31 77zM182 1329q0 45 32 77t77 32t77 -32t32 -77t-32 -77t-77 -32t-77 32t-32 77z" />
    <glyph glyph-name="igrave" unicode="&#xec;" horiz-adv-x="417" 
d="M115 0v1087h188v-1087h-188zM-133 1495h209l211 -274h-154z" />
    <glyph glyph-name="iacute" unicode="&#xed;" horiz-adv-x="417" 
d="M115 0v1087h188v-1087h-188zM133 1221l209 274h211l-266 -274h-154z" />
    <glyph glyph-name="icircumflex" unicode="&#xee;" horiz-adv-x="417" 
d="M115 0v1087h188v-1087h-188zM-94 1221l233 270h164l209 -270h-158l-137 139l-151 -139h-160z" />
    <glyph glyph-name="idieresis" unicode="&#xef;" horiz-adv-x="417" 
d="M115 0v1087h188v-1087h-188zM362 1318q0 80 67 110q19 10 53 10t65 -32t31 -77t-31 -77t-76 -32t-77 32t-32 66zM-160 1329q0 45 32 77t77 32t76 -32t31 -77t-32 -77q-30 -32 -75 -32t-77 32t-32 77z" />
    <glyph glyph-name="eth" unicode="&#xf0;" horiz-adv-x="1101" 
d="M337 866q-73 -65 -73 -330t78 -320q43 -30 117 -30h182q115 0 156 85t41 286t-39 275t-158 73h-182q-80 0 -122 -39zM446 0q-206 0 -288 128t-82 406t85 416q85 137 285 137h181q115 0 145 -26q-47 158 -141 250l-281 -117l-51 121l203 86q-104 49 -264 41v162
q291 0 454 -121l228 94l53 -123l-172 -70q225 -274 225 -843q0 -289 -97 -415t-276 -126h-207z" />
    <glyph glyph-name="ntilde" unicode="&#xf1;" 
d="M834 750q0 184 -180 184q-90 0 -160 -25t-191 -86v-823h-188v1087h141l47 -124q58 44 146 84q87 41 137 50t104 9q160 0 246 -104t86 -252v-750h-188v750zM221 1321q113 101 186 125q74 24 163 -19q88 -43 112 -45q55 -2 188 76l45 -96q-36 -36 -82 -69q-46 -34 -82 -50
q-35 -16 -82 -13q-46 3 -111 37t-113 33t-102 -30q-54 -30 -77 -41z" />
    <glyph glyph-name="ograve" unicode="&#xf2;" horiz-adv-x="1157" 
d="M580 926q-182 0 -228 -61q-66 -89 -67 -255q0 -166 7 -227q12 -108 58 -158t139 -58q35 -3 129 -3q170 0 213 91t43 276q0 187 -22 247t-42 86q-48 62 -230 62zM96 528q0 223 47 346q47 124 149 174t288 50q276 0 379 -123t103 -437t-102 -432q-104 -116 -378 -116
t-380 120t-106 418zM254 1495h209l211 -274h-154z" />
    <glyph glyph-name="oacute" unicode="&#xf3;" horiz-adv-x="1157" 
d="M580 926q-182 0 -228 -61q-66 -89 -67 -255q0 -166 7 -227q12 -108 58 -158t139 -58q35 -3 129 -3q170 0 213 91t43 276q0 187 -22 247t-42 86q-48 62 -230 62zM96 528q0 223 47 346q47 124 149 174t288 50q276 0 379 -123t103 -437t-102 -432q-104 -116 -378 -116
t-380 120t-106 418zM502 1221l211 274h209l-267 -274h-153z" />
    <glyph glyph-name="ocircumflex" unicode="&#xf4;" horiz-adv-x="1157" 
d="M580 926q-182 0 -228 -61q-66 -89 -67 -255q0 -166 7 -227q12 -108 58 -158t139 -58q35 -3 129 -3q170 0 213 91t43 276q0 187 -22 247t-42 86q-48 62 -230 62zM96 528q0 223 47 346q47 124 149 174t288 50q276 0 379 -123t103 -437t-102 -432q-104 -116 -378 -116
t-380 120t-106 418zM285 1221l233 270h164l209 -270h-158l-137 139l-152 -139h-159z" />
    <glyph glyph-name="otilde" unicode="&#xf5;" horiz-adv-x="1157" 
d="M580 926q-182 0 -228 -61q-66 -89 -67 -255q0 -166 7 -227q12 -108 58 -158t139 -58q35 -3 129 -3q170 0 213 91t43 276q0 187 -22 247t-42 86q-48 62 -230 62zM96 528q0 223 47 346q47 124 149 174t288 50q276 0 379 -123t103 -437t-102 -432q-104 -116 -378 -116
t-380 120t-106 418zM585 1258q-65 34 -113 34t-102 -30q-55 -30 -77 -41l-45 92q92 81 146 107q94 45 181 6q41 -17 75 -33q34 -17 74 -19t173 76l45 -96q-136 -137 -252 -131q-40 1 -105 35z" />
    <glyph glyph-name="odieresis" unicode="&#xf6;" horiz-adv-x="1157" 
d="M580 926q-182 0 -228 -61q-66 -89 -67 -255q0 -166 7 -227q12 -108 58 -158t139 -58q35 -3 129 -3q170 0 213 91t43 276q0 187 -22 247t-42 86q-48 62 -230 62zM96 528q0 223 47 346q47 124 149 174t288 50q276 0 379 -123t103 -437t-102 -432q-104 -116 -378 -116
t-380 120t-106 418zM735 1329q0 45 32 77t77 32t76 -32q30 -32 30 -77t-30 -77t-76 -32q-45 0 -77 32t-32 77zM213 1329q0 45 32 77t77 32q46 0 76 -32t30 -77t-31 -77t-75 -32t-77 32q-32 32 -32 77z" />
    <glyph glyph-name="divide" unicode="&#xf7;" horiz-adv-x="1046" 
d="M420 971v116q0 51 49 52h115q49 0 49 -52v-116q0 -47 -49 -47h-115q-23 0 -36 13t-13 34zM420 344v119q0 49 49 49h115q49 0 49 -49v-119q0 -47 -49 -47h-115q-23 -1 -36 13t-13 34zM96 635v176h854v-176h-854z" />
    <glyph glyph-name="oslash" unicode="&#xf8;" horiz-adv-x="1169" 
d="M586 164q70 0 110 5q105 13 141 84q42 89 43 283q1 195 -40 273l-455 -606q53 -39 201 -39zM559 926q-155 0 -201 -61q-20 -26 -44 -88t-23 -280q0 -123 35 -198l442 598q-53 29 -209 29zM102 498q0 253 48 376q47 124 149 174t291 50t291 -54l32 43h142l-86 -114
q100 -121 100 -435t-103 -432q-103 -117 -380 -116q-205 0 -314 65l-43 -55h-131l95 129q-91 116 -91 369z" />
    <glyph glyph-name="ugrave" unicode="&#xf9;" 
d="M285 338q0 -182 180 -182q90 0 160 24t190 86v821h189v-1087h-142l-47 123q-12 -6 -49 -29q-37 -24 -52 -30t-76 -39q-82 -43 -227 -43t-230 103t-85 255v747h189v-749zM223 1495h211l209 -274h-154z" />
    <glyph glyph-name="uacute" unicode="&#xfa;" 
d="M285 338q0 -182 180 -182q90 0 160 24t190 86v821h189v-1087h-142l-47 123q-12 -6 -49 -29q-37 -24 -52 -30t-76 -39q-82 -43 -227 -43t-230 103t-85 255v747h189v-749zM473 1221l209 274h211l-266 -274h-154z" />
    <glyph glyph-name="ucircumflex" unicode="&#xfb;" 
d="M285 338q0 -182 180 -182q90 0 160 24t190 86v821h189v-1087h-142l-47 123q-12 -6 -49 -29q-37 -24 -52 -30t-76 -39q-82 -43 -227 -43t-230 103t-85 255v747h189v-749zM246 1221l233 270h164l209 -270h-158l-137 139l-151 -139h-160z" />
    <glyph glyph-name="udieresis" unicode="&#xfc;" 
d="M285 338q0 -182 180 -182q90 0 160 24t190 86v821h189v-1087h-142l-47 123q-12 -6 -49 -29q-37 -24 -52 -30t-76 -39q-82 -43 -227 -43t-230 103t-85 255v747h189v-749zM702 1329q0 45 32 77t77 32t76 -32t31 -77t-31 -77t-76 -32t-77 32t-32 77zM180 1329q0 45 32 77
t77 32t76 -32t31 -77t-32 -77q-30 -32 -75 -32t-77 32t-32 77z" />
    <glyph glyph-name="yacute" unicode="&#xfd;" horiz-adv-x="1146" 
d="M588 178q10 0 26 4l287 905h205l-453 -1431l-151 -209h-125l182 553q-197 0 -266 240l-252 847h203l241 -825q29 -84 103 -84zM496 1221l211 274h208l-266 -274h-153z" />
    <glyph glyph-name="thorn" unicode="&#xfe;" horiz-adv-x="1134" 
d="M682 150q61 0 100 30q90 70 88 365q0 186 -50 283t-138 98q-160 -8 -360 -95v-634q164 -47 360 -47zM133 -553v2155h189v-635q83 63 200 99q116 36 188 36q147 0 235 -111q114 -145 114 -446q0 -203 -29 -302q-28 -98 -66 -149t-105 -84t-151 -33t-192 22t-194 58v-610
h-189z" />
    <glyph glyph-name="ydieresis" unicode="&#xff;" horiz-adv-x="1146" 
d="M588 178q10 0 26 4l287 905h205l-453 -1431l-151 -209h-125l182 553q-197 0 -266 240l-252 847h203l241 -825q29 -84 103 -84zM725 1329q0 45 33 77t78 32q46 0 76 -32t30 -77t-32 -77t-76 -32t-76 32q-33 32 -33 77zM203 1329q0 45 33 77q34 32 78 32t75 -32t31 -77
t-32 -77t-76 -32t-76 32t-33 77z" />
    <glyph glyph-name="Amacron" unicode="&#x100;" horiz-adv-x="1384" 
d="M494 573h450l-221 656zM86 0l539 1499h198l516 -1499h-215l-123 395h-567l-129 -395h-219zM426 1632v137h598v-137h-598z" />
    <glyph glyph-name="amacron" unicode="&#x101;" horiz-adv-x="1062" 
d="M264 283q0 -123 117 -123q68 0 167 26t165 50l65 24v266l-401 -28q-113 -10 -113 -127v-88zM76 264v119q0 125 75 202t209 77q418 -2 418 0q2 117 1 136q-6 119 -106 136q-25 4 -125 4t-437 -23v129q201 61 522 64q206 0 289 -136q45 -75 45 -190v-782h-144l-45 127
q-6 -6 -67 -38q-61 -33 -167 -67t-186 -34q-126 2 -204 76t-78 200zM258 1231v137h598v-137h-598z" />
    <glyph glyph-name="Abreve" unicode="&#x102;" horiz-adv-x="1384" 
d="M494 573h450l-221 656zM86 0l539 1499h198l516 -1499h-215l-123 395h-567l-129 -395h-219zM489 1866h103q0 -55 39 -93t95 -38q56 -1 94 35t38 96h103q0 -109 -72 -171q-72 -63 -166 -63t-164 65t-70 169z" />
    <glyph glyph-name="abreve" unicode="&#x103;" horiz-adv-x="1062" 
d="M264 283q0 -123 117 -123q68 0 167 26t165 50l65 24v266l-401 -28q-113 -10 -113 -127v-88zM76 264v119q0 125 75 202t209 77q418 -2 418 0q2 117 1 136q-6 119 -106 136q-25 4 -125 4t-437 -23v129q201 61 522 64q206 0 289 -136q45 -75 45 -190v-782h-144l-45 127
q-6 -6 -67 -38q-61 -33 -167 -67t-186 -34q-126 2 -204 76t-78 200zM322 1464h102q0 -55 40 -93t95 -38t93 36t38 95h103q0 -109 -71 -171t-165 -62t-165 64q-70 65 -70 169z" />
    <glyph glyph-name="Aogonek" unicode="&#x104;" horiz-adv-x="1384" 
d="M494 573h450l-221 656zM86 0l539 1499h198l516 -1499h-57q-121 -100 -114 -170t124 -72v-131q-68 -12 -128 11q-60 24 -93 66q-80 103 -5 202q42 55 128 94h-70l-123 395h-567l-129 -395h-219z" />
    <glyph glyph-name="aogonek" unicode="&#x105;" horiz-adv-x="1062" 
d="M264 283q0 -123 117 -123q68 0 167 26t165 50l65 24v266l-401 -28q-113 -10 -113 -127v-88zM76 264v119q0 125 75 202t209 77q418 -2 418 0q2 117 1 136q-6 119 -106 136q-25 4 -125 4t-437 -23v129q201 61 522 64q206 0 289 -136q45 -75 45 -190v-782h-25
q-121 -100 -114 -170t124 -72v-131q-68 -13 -128 9t-93 66q-79 105 -5 204q42 55 128 94h-31l-45 127q-6 -6 -67 -38q-61 -33 -167 -67t-186 -34q-126 2 -204 76t-78 200z" />
    <glyph glyph-name="Cacute" unicode="&#x106;" horiz-adv-x="1179" 
d="M1114 37q-217 -49 -522 -49q-369 0 -461 455q-27 135 -27 299t14 276q30 250 143 374t345 124t508 -56v-149q-22 2 -40 3q-19 1 -45 3q-27 2 -57 3t-64 3t-70 4t-73 3l-72 2t-99 1q-152 0 -227 -114q-74 -114 -74 -469q0 -495 232 -566q46 -14 122 -14t197 4t196 6l74 4
v-147zM598 1638l211 275h209l-266 -275h-154z" />
    <glyph glyph-name="cacute" unicode="&#x107;" horiz-adv-x="1019" 
d="M285 564q0 -179 20 -260q21 -80 63 -110t149 -30t355 14l72 6v-133q-172 -58 -442 -60q-112 -1 -163 11q-50 12 -98 48q-145 109 -145 493q0 385 142 494q47 36 98 48q104 25 295 3q190 -21 299 -48v-127q-449 21 -517 7q-68 -13 -98 -95t-30 -261zM477 1225l209 274h211
l-266 -274h-154z" />
    <glyph glyph-name="Ccircumflex" unicode="&#x108;" horiz-adv-x="1179" 
d="M1114 37q-217 -49 -522 -49q-369 0 -461 455q-27 135 -27 299t14 276q30 250 143 374t345 124t508 -56v-149q-22 2 -40 3q-19 1 -45 3q-27 2 -57 3t-64 3t-70 4t-73 3l-72 2t-99 1q-152 0 -227 -114q-74 -114 -74 -469q0 -495 232 -566q46 -14 122 -14t197 4t196 6l74 4
v-147zM371 1638l235 271h164l209 -271h-158l-139 140l-152 -140h-159z" />
    <glyph glyph-name="ccircumflex" unicode="&#x109;" horiz-adv-x="1019" 
d="M285 564q0 -179 20 -260q21 -80 63 -110t149 -30t355 14l72 6v-133q-172 -58 -442 -60q-112 -1 -163 11q-50 12 -98 48q-145 109 -145 493q0 385 142 494q47 36 98 48q104 25 295 3q190 -21 299 -48v-127q-449 21 -517 7q-68 -13 -98 -95t-30 -261zM268 1225l236 268h164
l209 -268h-158l-139 139l-152 -139h-160z" />
    <glyph glyph-name="Cdotaccent" unicode="&#x10a;" horiz-adv-x="1179" 
d="M1114 37q-217 -49 -522 -49q-369 0 -461 455q-27 135 -27 299t14 276q30 250 143 374t345 124t508 -56v-149q-22 2 -40 3q-19 1 -45 3q-27 2 -57 3t-64 3t-70 4t-73 3l-72 2t-99 1q-152 0 -227 -114q-74 -114 -74 -469q0 -495 232 -566q46 -14 122 -14t197 4t196 6l74 4
v-147zM633 1642q-49 0 -49 48v122q0 51 49 52h115q45 0 47 -52v-122q0 -47 -47 -48h-115z" />
    <glyph glyph-name="cdotaccent" unicode="&#x10b;" horiz-adv-x="1019" 
d="M285 564q0 -179 20 -260q21 -80 63 -110t149 -30t355 14l72 6v-133q-172 -58 -442 -60q-112 -1 -163 11q-50 12 -98 48q-145 109 -145 493q0 385 142 494q47 36 98 48q104 25 295 3q190 -21 299 -48v-127q-449 21 -517 7q-68 -13 -98 -95t-30 -261zM653 1448q47 0 47 -51
v-123q0 -47 -47 -47h-114q-20 -1 -35 13t-15 34v123q0 51 50 51h114z" />
    <glyph glyph-name="Ccaron" unicode="&#x10c;" horiz-adv-x="1179" 
d="M1114 37q-217 -49 -522 -49q-369 0 -461 455q-27 135 -27 299t14 276q30 250 143 374t345 124t508 -56v-149q-22 2 -40 3q-19 1 -45 3q-27 2 -57 3t-64 3t-70 4t-73 3l-72 2t-99 1q-152 0 -227 -114q-74 -114 -74 -469q0 -495 232 -566q46 -14 122 -14t197 4t196 6l74 4
v-147zM383 1909h160l153 -140l135 140h158l-211 -271h-164z" />
    <glyph glyph-name="ccaron" unicode="&#x10d;" horiz-adv-x="1019" 
d="M285 564q0 -179 20 -260q21 -80 63 -110t149 -30t355 14l72 6v-133q-172 -58 -442 -60q-112 -1 -163 11q-50 12 -98 48q-145 109 -145 493q0 385 142 494q47 36 98 48q104 25 295 3q190 -21 299 -48v-127q-449 21 -517 7q-68 -13 -98 -95t-30 -261zM248 1493h158
l155 -139l135 139h158l-211 -268h-164z" />
    <glyph glyph-name="Dcaron" unicode="&#x10e;" horiz-adv-x="1347" 
d="M342 184h383q121 0 201 77q147 141 147 467t-88 458t-260 133h-383v-1135zM154 0v1499h577q131 0 229 -49t154 -123q144 -194 146 -576t-175 -595q-59 -72 -150 -114t-204 -42h-577zM348 1892h160l154 -139l135 139h157l-211 -268h-163z" />
    <glyph glyph-name="dcaron" unicode="&#x10f;" horiz-adv-x="1163" 
d="M1286 1597v-137l-22 -274h-121l-21 274l-2 137h166zM285 541q0 -377 188 -377q168 0 363 88v631q-178 49 -363 49q-63 0 -102 -30q-86 -66 -86 -361zM96 539q0 328 94 446q94 119 263 119q105 0 214 -28t169 -52v584h186v-1608h-143l-43 119q-53 -41 -172 -86t-211 -45
q-357 0 -357 551z" />
    <glyph glyph-name="Dcroat" unicode="&#x110;" horiz-adv-x="1347" 
d="M342 184h385q119 0 198 78q142 140 142 483q0 565 -340 566l-385 -2v-486h268v-118h-268v-521zM20 705v118h134v674q0 2 579 2q264 0 397 -195q107 -156 124 -390t-5 -364q-67 -395 -312 -508q-91 -42 -204 -42h-579v705h-134z" />
    <glyph glyph-name="dcroat" unicode="&#x111;" horiz-adv-x="1138" 
d="M283 541q0 -377 188 -377q168 0 363 88v631q-178 49 -363 49q-63 0 -102 -30q-86 -66 -86 -361zM94 539q0 328 94 446q94 119 263 119q105 0 214 -28t169 -52v231h-242v117h242v236h186v-236h143v-117h-143v-1255h-143l-43 119q-53 -41 -172 -86t-211 -45
q-357 0 -357 551z" />
    <glyph glyph-name="Emacron" unicode="&#x112;" horiz-adv-x="1161" 
d="M152 264v957q0 151 80 217t196 61q614 -29 651 -33v-151h-633q-77 0 -92 -33q-14 -33 -14 -82v-360l653 -21v-153l-653 -21v-360q0 -79 43 -96q28 -11 84 -11h612v-149l-630 -35q-297 -17 -297 270zM350 1628v139h598v-139h-598z" />
    <glyph glyph-name="emacron" unicode="&#x113;" horiz-adv-x="1075" 
d="M285 616h407q119 0 119 95q0 79 -8 117t-36 62t-69 30t-151 6t-132 -10q-23 -10 -46 -19q-23 -11 -33 -27q-34 -56 -42 -107q-9 -53 -9 -147zM571 1096q207 0 284 -40t111 -123q33 -83 33 -224q0 -258 -286 -258h-428q0 -173 45 -231t168 -58q338 0 481 22v-137
q-188 -57 -524 -57q-207 0 -283 121t-76 405t47 388q27 60 62 98q87 94 366 94zM262 1219v139h598v-139h-598z" />
    <glyph glyph-name="Edotaccent" unicode="&#x116;" horiz-adv-x="1161" 
d="M152 264v957q0 151 80 217t196 61q614 -29 651 -33v-151h-633q-77 0 -92 -33q-14 -33 -14 -82v-360l653 -21v-153l-653 -21v-360q0 -79 43 -96q28 -11 84 -11h612v-149l-630 -35q-297 -17 -297 270zM717 1847q47 0 47 -51v-123q0 -47 -47 -47h-115q-20 0 -35 13
q-14 14 -14 34v123q0 51 49 51h115z" />
    <glyph glyph-name="edotaccent" unicode="&#x117;" horiz-adv-x="1075" 
d="M285 616h407q119 0 119 95q0 79 -8 117t-36 62t-69 30t-151 6t-132 -10q-23 -10 -46 -19q-23 -11 -33 -27q-34 -56 -42 -107q-9 -53 -9 -147zM571 1096q207 0 284 -40t111 -123q33 -83 33 -224q0 -258 -286 -258h-428q0 -173 45 -231t168 -58q338 0 481 22v-137
q-188 -57 -524 -57q-207 0 -283 121t-76 405t47 388q27 60 62 98q87 94 366 94zM616 1442q46 0 48 -51v-123q0 -47 -48 -47h-114q-23 -1 -36 13t-13 34v123q0 51 49 51h114z" />
    <glyph glyph-name="Eogonek" unicode="&#x118;" horiz-adv-x="1161" 
d="M152 264v957q0 151 80 217t196 61q614 -29 651 -33v-151h-633q-77 0 -92 -33q-14 -33 -14 -82v-360l653 -21v-153l-653 -21v-360q0 -79 43 -96q28 -11 84 -11h612v-149q-123 -100 -115 -170t123 -72v-133q-68 -10 -128 12t-93 65q-79 106 -5 203q39 51 116 89l-528 -29
q-297 -17 -297 270z" />
    <glyph glyph-name="eogonek" unicode="&#x119;" horiz-adv-x="1075" 
d="M285 616h407q119 0 119 95q0 79 -8 117t-36 62t-69 30t-151 6t-132 -10q-23 -10 -46 -19q-23 -11 -33 -27q-34 -56 -42 -107q-9 -53 -9 -147zM571 1096q207 0 284 -40t111 -123q33 -83 33 -224q0 -258 -286 -258h-428q0 -173 45 -231t168 -58q338 0 481 22v-137
q-123 -100 -115 -170t123 -72v-133q-66 -10 -127 12t-94 66q-79 104 -5 203q25 33 67 61q-156 -24 -368 -24t-288 121t-76 405t47 388q27 60 62 98q87 94 366 94z" />
    <glyph glyph-name="Ecaron" unicode="&#x11a;" horiz-adv-x="1161" 
d="M152 264v957q0 151 80 217t196 61q614 -29 651 -33v-151h-633q-77 0 -92 -33q-14 -33 -14 -82v-360l653 -21v-153l-653 -21v-360q0 -79 43 -96q28 -11 84 -11h612v-149l-630 -35q-297 -17 -297 270zM344 1892h160l153 -139l136 139h157l-211 -268h-164z" />
    <glyph glyph-name="ecaron" unicode="&#x11b;" horiz-adv-x="1075" 
d="M285 616h407q119 0 119 95q0 79 -8 117t-36 62t-69 30t-151 6t-132 -10q-23 -10 -46 -19q-23 -11 -33 -27q-34 -56 -42 -107q-9 -53 -9 -147zM571 1096q207 0 284 -40t111 -123q33 -83 33 -224q0 -258 -286 -258h-428q0 -173 45 -231t168 -58q338 0 481 22v-137
q-188 -57 -524 -57q-207 0 -283 121t-76 405t47 388q27 60 62 98q87 94 366 94zM262 1481h158l155 -140l136 140h157l-211 -269h-163z" />
    <glyph glyph-name="Gcircumflex" unicode="&#x11c;" horiz-adv-x="1257" 
d="M239 131q-135 171 -135 618t137 621q115 146 347 146q106 0 260 -16t274 -42v-149q-2 0 -37 3t-173 13t-255 10t-165 -14q-90 -27 -144 -134q-55 -107 -55 -435q-1 -328 67 -453t248 -127q68 -2 157 22t144 48l56 24v371h-308v125q160 49 357 49q66 0 139 -4v-807h-139
l-45 100q-168 -107 -391 -110q-223 -4 -339 141zM383 1638l235 271h164l209 -271h-157l-140 140l-151 -140h-160z" />
    <glyph glyph-name="gcircumflex" unicode="&#x11d;" horiz-adv-x="1136" 
d="M467 918q-184 0 -184 -218t174 -221h176q110 0 149 76q53 103 23 240q-18 85 -85 109q-36 13 -89 14h-164zM369 8q-60 0 -90 15v-250q0 -100 52 -127t111 -27h269q81 0 113 40t32 112v108q0 69 -27 99t-104 30h-356zM92 229q0 59 31 111t90 66q-61 40 -90 122t-29 177
q0 193 94 289t267 98h645v-129l-154 -37q2 -4 14 -27q41 -75 43 -176q5 -301 -197 -389q-65 -29 -149 -29h-301q-84 0 -84 -57q0 -66 84 -66h408q133 0 207 -78t73 -215v-127q0 -311 -317 -315h-307q-203 0 -287 139q-43 72 -43 176v164l84 125q-82 55 -82 178zM262 1223
l234 268h163l209 -268h-157l-140 139l-149 -139h-160z" />
    <glyph glyph-name="Gbreve" unicode="&#x11e;" horiz-adv-x="1257" 
d="M239 131q-135 171 -135 618t137 621q115 146 347 146q106 0 260 -16t274 -42v-149q-2 0 -37 3t-173 13t-255 10t-165 -14q-90 -27 -144 -134q-55 -107 -55 -435q-1 -328 67 -453t248 -127q68 -2 157 22t144 48l56 24v371h-308v125q160 49 357 49q66 0 139 -4v-807h-139
l-45 100q-168 -107 -391 -110q-223 -4 -339 141zM446 1872h103q0 -55 40 -93t96 -38t93 36t37 95h103q0 -109 -71 -171q-71 -63 -165 -63t-165 65t-71 169z" />
    <glyph glyph-name="gbreve" unicode="&#x11f;" horiz-adv-x="1136" 
d="M467 918q-184 0 -184 -218t174 -221h176q110 0 149 76q53 103 23 240q-18 85 -85 109q-36 13 -89 14h-164zM369 8q-60 0 -90 15v-250q0 -100 52 -127t111 -27h269q81 0 113 40t32 112v108q0 69 -27 99t-104 30h-356zM92 229q0 59 31 111t90 66q-61 40 -90 122t-29 177
q0 193 94 289t267 98h645v-129l-154 -37q2 -4 14 -27q41 -75 43 -176q5 -301 -197 -389q-65 -29 -149 -29h-301q-84 0 -84 -57q0 -66 84 -66h408q133 0 207 -78t73 -215v-127q0 -311 -317 -315h-307q-203 0 -287 139q-43 72 -43 176v164l84 125q-82 55 -82 178zM328 1456
h102q0 -57 40 -94t95 -37t93 35t38 96h103q0 -74 -35 -128q-69 -107 -203 -105q-92 0 -163 64q-70 65 -70 169z" />
    <glyph glyph-name="Gdotaccent" unicode="&#x120;" horiz-adv-x="1257" 
d="M239 131q-135 171 -135 618t137 621q115 146 347 146q106 0 260 -16t274 -42v-149q-2 0 -37 3t-173 13t-255 10t-165 -14q-90 -27 -144 -134q-55 -107 -55 -435q-1 -328 67 -453t248 -127q68 -2 157 22t144 48l56 24v371h-308v125q160 49 357 49q66 0 139 -4v-807h-139
l-45 100q-168 -107 -391 -110q-223 -4 -339 141zM565 1686v122q0 51 49 52h115q19 0 33 -14t14 -38v-122q0 -47 -47 -48h-115q-23 0 -36 14t-13 34z" />
    <glyph glyph-name="gdotaccent" unicode="&#x121;" horiz-adv-x="1136" 
d="M467 918q-184 0 -184 -218t174 -221h176q110 0 149 76q53 103 23 240q-18 85 -85 109q-36 13 -89 14h-164zM369 8q-60 0 -90 15v-250q0 -100 52 -127t111 -27h269q81 0 113 40t32 112v108q0 69 -27 99t-104 30h-356zM92 229q0 59 31 111t90 66q-61 40 -90 122t-29 177
q0 193 94 289t267 98h645v-129l-154 -37q2 -4 14 -27q41 -75 43 -176q5 -301 -197 -389q-65 -29 -149 -29h-301q-84 0 -84 -57q0 -66 84 -66h408q133 0 207 -78t73 -215v-127q0 -311 -317 -315h-307q-203 0 -287 139q-43 72 -43 176v164l84 125q-82 55 -82 178zM514 1227
q-49 0 -49 47v123q0 51 49 51h115q23 0 35 -15t12 -36v-123q0 -47 -47 -47h-115z" />
    <glyph glyph-name="Gcommaaccent" unicode="&#x122;" horiz-adv-x="1257" 
d="M239 131q-135 171 -135 618t137 621q115 146 347 146q106 0 260 -16t274 -42v-149q-2 0 -37 3t-173 13t-255 10t-165 -14q-90 -27 -144 -134q-55 -107 -55 -435q-1 -328 67 -453t248 -127q68 -2 157 22t144 48l56 24v371h-308v125q160 49 357 49q66 0 139 -4v-807h-139
l-45 100q-168 -107 -391 -110q-223 -4 -339 141zM553 -319v114q0 51 47 51h111q43 0 43 -51v-182q0 -51 -24 -91q-37 -63 -167 -50v67q38 0 47 18t11 37v39h-21q-47 1 -47 48z" />
    <glyph glyph-name="gcommaaccent" unicode="&#x123;" horiz-adv-x="1136" 
d="M467 922q-184 0 -184 -222t174 -225h176q140 0 176 153q8 38 6 77q-4 113 -43 165t-141 52h-164zM279 -227q0 -100 52 -127t111 -27h269q81 0 113 40t32 112v53q0 119 -166 139l-303 39l-108 16v-245zM92 227q0 61 31 113t90 66q-41 26 -70 78q-49 87 -49 221
q0 193 94 289t267 98h645v-131l-154 -37q2 -2 14 -25q41 -75 43 -176q5 -301 -197 -389q-65 -29 -149 -29h-301q-84 0 -84 -61q0 -35 20 -47t64 -19l383 -47q193 -25 267 -146q39 -65 38 -155v-68q0 -311 -317 -315h-307q-203 0 -287 139q-43 72 -43 176v168l88 123
q-86 59 -86 174zM461 1264v182q0 51 19 85t47 45q61 24 106 15l18 -2v-67q-45 0 -54 -31q-3 -10 -3 -25v-41h20q47 0 48 -45v-116q0 -49 -48 -50h-110q-43 1 -43 50z" />
    <glyph glyph-name="Hcircumflex" unicode="&#x124;" horiz-adv-x="1304" 
d="M154 0v1499h188v-684h662v684h188v-1499h-188v635h-662v-635h-188zM369 1632l233 269h164l209 -269h-156l-139 140l-152 -140h-159z" />
    <glyph glyph-name="hcircumflex" unicode="&#x125;" 
d="M811 750q0 184 -181 184q-91 0 -161 -25t-188 -86v-823h-189v1606h187v-643q35 24 56 35q21 12 47 27t36 19t38 17q98 45 210 45q162 0 248 -104t85 -252v-750h-188v750zM-119 1729l234 268h164l208 -268h-157l-140 139l-149 -139h-160z" />
    <glyph glyph-name="Hbar" unicode="&#x126;" horiz-adv-x="1361" 
d="M350 815h662v242h-662v-242zM37 1057v117h125v325h188v-325h662v325h188v-325h123v-117h-123v-1057h-188v635h-662v-635h-188v1057h-125z" />
    <glyph glyph-name="hbar" unicode="&#x127;" horiz-adv-x="1124" 
d="M-29 1245v117h152v244h192v-244h265v-117h-265v-282q76 45 128 71t128 50q76 22 142 22q157 4 237 -98t80 -256v-752h-194v748q-4 94 -43 141t-131 47q-143 -6 -345 -113v-823h-194v1245h-152z" />
    <glyph glyph-name="Itilde" unicode="&#x128;" horiz-adv-x="454" 
d="M154 0v1499h188v-1499h-188zM253 1661q-81 43 -129 43t-102 -30l-77 -42l-45 92q118 105 190 127t159 -20q87 -43 113 -45q55 -2 187 76l45 -97q-32 -32 -82 -68t-67 -43t-41 -15q-70 -21 -151 22z" />
    <glyph glyph-name="itilde" unicode="&#x129;" horiz-adv-x="417" 
d="M115 0v1087h188v-1087h-188zM194 1259q-63 33 -110 33t-101 -30q-55 -30 -77 -41l-45 92q93 82 147 107q92 44 181 6q42 -17 76 -33q34 -17 74 -19t171 76l47 -96q-6 -4 -53 -46t-95 -65q-49 -24 -100 -20q-52 3 -115 36z" />
    <glyph glyph-name="Imacron" unicode="&#x12a;" horiz-adv-x="454" 
d="M154 0v1499h188v-1499h-188zM-51 1632v137h598v-137h-598z" />
    <glyph glyph-name="imacron" unicode="&#x12b;" horiz-adv-x="417" 
d="M115 0v1087h188v-1087h-188zM-90 1221v139h598v-139h-598z" />
    <glyph glyph-name="Iogonek" unicode="&#x12e;" horiz-adv-x="454" 
d="M154 0v1499h188v-1499h-43q-121 -100 -114 -170t124 -72v-131q-68 -13 -129 9t-93 66q-77 106 -5 204q41 55 129 94h-57z" />
    <glyph glyph-name="iogonek" unicode="&#x12f;" horiz-adv-x="419" 
d="M113 0v1087h188v-1087h-39q-123 -100 -115 -170t123 -72v-131q-66 -13 -127 9t-94 66q-79 105 -5 204q42 55 128 94h-59zM96 1260v129q0 53 49 53h134q45 0 47 -53v-129q0 -47 -47 -48h-134q-23 0 -36 14t-13 34z" />
    <glyph glyph-name="Idotaccent" unicode="&#x130;" horiz-adv-x="454" 
d="M154 0v1499h188v-1499h-188zM305 1853q47 0 47 -51v-123q0 -47 -47 -47h-115q-20 0 -34 14t-15 33v123q0 51 49 51h115z" />
    <glyph glyph-name="dotlessi" unicode="&#x131;" horiz-adv-x="417" 
d="M115 0v1087h188v-1087h-188z" />
    <glyph glyph-name="Jcircumflex" unicode="&#x134;" horiz-adv-x="733" 
d="M430 373v1126h188v-1161q0 -66 -4 -110t-30 -102t-72 -89q-82 -51 -223 -48t-221 56l6 141q25 -8 100 -18q74 -10 94 -7t50 8t47 21q47 47 56 91q9 45 9 92zM221 1632l236 269h164l208 -269h-157l-140 140l-151 -140h-160z" />
    <glyph glyph-name="jcircumflex" unicode="&#x135;" horiz-adv-x="458" 
d="M133 -553v1640h197v-1095q4 -322 -60 -545h-137zM-76 1225l234 321h164l208 -321h-139l-158 174l-167 -174h-142z" />
    <glyph glyph-name="Kcommaaccent" unicode="&#x136;" horiz-adv-x="1230" 
d="M154 0v1499h184v-659h156l446 659h225l-501 -747l501 -752h-225l-446 659h-154v-659h-186zM541 -451q55 0 55 54v41h-18q-48 0 -48 47v116q0 49 48 50h110q43 0 43 -50v-184q0 -145 -153 -145q-17 0 -37 4v67z" />
    <glyph glyph-name="kcommaaccent" unicode="&#x137;" horiz-adv-x="1054" 
d="M115 0v1602h188v-895h76l387 380h252l-463 -464l463 -623h-230l-409 537h-76v-537h-188zM440 -309v116q0 49 45 50h111q45 0 45 -50v-184q0 -103 -65 -127t-107 -16l-20 2v67q45 0 55 30q2 9 2 24v41h-21q-45 0 -45 47z" />
    <glyph glyph-name="kgreenlandic" unicode="&#x138;" horiz-adv-x="1087" 
d="M115 0v1087h188v-464h154l364 464h230l-424 -546l393 -541h-229l-340 455h-146l-2 -455h-188z" />
    <glyph glyph-name="Lacute" unicode="&#x139;" horiz-adv-x="1130" 
d="M154 266v1233h188v-1210q0 -82 40 -94q40 -13 87 -13h596v-182h-625q-208 0 -263 128q-23 56 -23 138zM170 1632l211 277h209l-266 -277h-154z" />
    <glyph glyph-name="lacute" unicode="&#x13a;" horiz-adv-x="620" 
d="M115 387v1217h188v-1205q0 -121 28 -168t83 -61q156 -43 170 -43v-127h-195q-274 0 -274 387zM186 1726l211 277h209l-266 -277h-154z" />
    <glyph glyph-name="Lcommaaccent" unicode="&#x13b;" horiz-adv-x="1130" 
d="M154 266v1233h188v-1210q0 -82 40 -94q40 -13 87 -13h596v-182h-625q-208 0 -263 128q-23 56 -23 138zM524 -307v114q0 51 47 52h111q43 0 43 -52v-182q0 -51 -19 -85q-20 -34 -48 -44q-69 -24 -123 -12v67q22 -3 35 7q22 16 22 47v41h-21q-47 0 -47 47z" />
    <glyph glyph-name="lcommaaccent" unicode="&#x13c;" horiz-adv-x="620" 
d="M115 387v1217h188v-1205q0 -121 28 -168t83 -61q156 -43 170 -43v-127h-195q-274 0 -274 387zM246 -309v116q0 49 47 50h110q43 0 43 -50v-182q0 -51 -19 -85q-40 -71 -153 -60l-18 4v67q40 -4 48 17q9 22 9 37v41h-20q-47 0 -47 45z" />
    <glyph glyph-name="Lcaron" unicode="&#x13d;" horiz-adv-x="1130" 
d="M492 1581h163v-137l-20 -275h-121l-22 275v137zM154 266v1233h188v-1210q0 -82 40 -94q40 -13 87 -13h596v-182h-625q-208 0 -263 128q-23 56 -23 138z" />
    <glyph glyph-name="lcaron" unicode="&#x13e;" horiz-adv-x="645" 
d="M453 1599h163v-137l-20 -274h-121l-22 274v137zM115 387v1217h188v-1205q0 -125 23 -167t88 -62q156 -43 170 -43v-127h-195q-147 0 -211 87q-63 87 -63 300z" />
    <glyph glyph-name="Lslash" unicode="&#x141;" horiz-adv-x="1144" 
d="M170 1499h188v-567l273 117l-2 -131l-271 -117v-512q0 -80 40 -94q40 -13 87 -13h596v-182h-622q-212 0 -265 128q-24 56 -24 138v453l-166 -72v131l166 72v649z" />
    <glyph glyph-name="lslash" unicode="&#x142;" horiz-adv-x="690" 
d="M182 1604h189v-578l276 121l-2 -131l-274 -119v-498q1 -121 27 -168t83 -61q156 -43 170 -43v-127h-196q-272 0 -273 387v428l-162 -70v132l162 67v660z" />
    <glyph glyph-name="Nacute" unicode="&#x143;" horiz-adv-x="1390" 
d="M154 0v1499h192l744 -1149v1149h188v-1499h-188l-746 1147v-1147h-190zM655 1632l211 277h209l-266 -277h-154z" />
    <glyph glyph-name="nacute" unicode="&#x144;" 
d="M834 750q0 184 -180 184q-90 0 -160 -25t-191 -86v-823h-188v1087h141l47 -124q58 44 146 84q87 41 137 50t104 9q160 0 246 -104t86 -252v-750h-188v750zM485 1229l211 274h209l-266 -274h-154z" />
    <glyph glyph-name="Ncommaaccent" unicode="&#x145;" horiz-adv-x="1390" 
d="M154 0v1499h192l744 -1149v1149h188v-1499h-188l-746 1147v-1147h-190zM659 -522q-18 0 -38 4v67q45 0 55 30q2 9 2 24v41h-21q-45 0 -45 47v116q0 49 45 50h111q45 0 45 -50v-184q0 -145 -154 -145z" />
    <glyph glyph-name="ncommaaccent" unicode="&#x146;" 
d="M834 750q0 184 -180 184q-90 0 -160 -25t-191 -86v-823h-188v1087h141l47 -124q58 44 146 84q87 41 137 50t104 9q160 0 246 -104t86 -252v-750h-188v750zM477 -451q54 0 58 54v41h-21q-45 0 -45 47v116q0 49 45 50h111q45 0 45 -50v-184q0 -51 -24 -91t-100 -52
q-28 -4 -48 0l-21 2v67z" />
    <glyph glyph-name="Ncaron" unicode="&#x147;" horiz-adv-x="1390" 
d="M154 0v1499h192l744 -1149v1149h188v-1499h-188l-746 1147v-1147h-190zM428 1901h160l155 -140l136 140h157l-211 -269h-163z" />
    <glyph glyph-name="ncaron" unicode="&#x148;" 
d="M834 750q0 184 -180 184q-90 0 -160 -25t-191 -86v-823h-188v1087h141l47 -124q58 44 146 84q87 41 137 50t104 9q160 0 246 -104t86 -252v-750h-188v750zM285 1499h159l154 -139l135 139h158l-211 -270h-164z" />
    <glyph glyph-name="Eng" unicode="&#x14a;" horiz-adv-x="1386" 
d="M154 0v1499h192l739 -1130v1130h189v-1665q0 -262 -195 -329q-100 -35 -266 -31v141q16 4 59 12q136 25 175 81q38 55 38 153v139l-739 1147l-4 -1147h-188z" />
    <glyph glyph-name="eng" unicode="&#x14b;" horiz-adv-x="1136" 
d="M115 0v1087h141l47 -122q14 6 39 21l40 24q15 8 38 21t40 21t40 17q23 10 43 15q20 6 51 14t96 8q160 0 246 -104t86 -252v-750l-2 -172q-4 -105 -49 -193q-46 -88 -178 -145q-41 -16 -63 -22t-62 -17l-64 98q6 5 26 15q115 59 148 101q52 70 56 155v930q0 135 -100 173
q-30 11 -100 11t-140 -25t-191 -86v-823h-188z" />
    <glyph glyph-name="Omacron" unicode="&#x14c;" horiz-adv-x="1380" 
d="M345 385q32 -102 66 -131q58 -50 126 -65t169 -15t162 13q139 30 189 152q51 122 51 349q0 228 -19 345t-41 154q-22 38 -41 65t-67 46t-95 24t-137 5q-92 0 -140 -6t-106 -36t-85 -90t-45 -173t-19 -324q0 -211 32 -313zM125 740q0 146 15 262t40 197t68 138t88 90
t132 57t208 25q121 0 181 -6q156 -16 234 -76q109 -81 157 -241q48 -159 48 -467t-70 -467q-36 -82 -82 -134q-84 -95 -259 -117q-72 -9 -166 -9q-93 0 -155 5q-160 13 -239 75q-108 81 -150 220q-50 165 -50 448zM414 1632v137h598v-137h-598z" />
    <glyph glyph-name="omacron" unicode="&#x14d;" horiz-adv-x="1157" 
d="M580 926q-182 0 -228 -61q-66 -89 -67 -255q0 -166 7 -227q12 -108 58 -158t139 -58q35 -3 129 -3q170 0 213 91t43 276q0 187 -22 247t-42 86q-48 62 -230 62zM96 528q0 223 47 346q47 124 149 174t288 50q276 0 379 -123t103 -437t-102 -432q-104 -116 -378 -116
t-380 120t-106 418zM281 1221v139h598v-139h-598z" />
    <glyph glyph-name="Ohungarumlaut" unicode="&#x150;" horiz-adv-x="1380" 
d="M345 385q32 -102 66 -131q58 -50 126 -65t169 -15t162 13q139 30 189 152q51 122 51 349q0 228 -19 345t-41 154q-22 38 -41 65t-67 46t-95 24t-137 5q-92 0 -140 -6t-106 -36t-85 -90t-45 -173t-19 -324q0 -211 32 -313zM125 740q0 146 15 262t40 197t68 138t88 90
t132 57t208 25q121 0 181 -6q156 -16 234 -76q109 -81 157 -241q48 -159 48 -467t-70 -467q-36 -82 -82 -134q-84 -95 -259 -117q-72 -9 -166 -9q-93 0 -155 5q-160 13 -239 75q-108 81 -150 220q-50 165 -50 448zM778 1632l211 277h211l-266 -277h-156zM492 1632l208 277
h211l-266 -277h-153z" />
    <glyph glyph-name="ohungarumlaut" unicode="&#x151;" horiz-adv-x="1157" 
d="M580 926q-182 0 -228 -61q-66 -89 -67 -255q0 -166 7 -227q12 -108 58 -158t139 -58q35 -3 129 -3q170 0 213 91t43 276q0 187 -22 247t-42 86q-48 62 -230 62zM96 528q0 223 47 346q47 124 149 174t288 50q276 0 379 -123t103 -437t-102 -432q-104 -116 -378 -116
t-380 120t-106 418zM647 1221l209 274h211l-266 -274h-154zM358 1221l211 274h209l-266 -274h-154z" />
    <glyph glyph-name="OE" unicode="&#x152;" horiz-adv-x="2134" 
d="M125 731q0 137 13 277t80 283q47 96 151 157t342 61q102 0 174 -9q169 -21 260 -128q61 138 239 127q610 -29 646 -33v-151h-627q-82 0 -94 -37q-13 -32 -13 -78v-360l650 -23v-151l-650 -21v-360q0 -85 58 -102q20 -5 31 -5h645v-149l-625 -35q-207 -12 -266 129
q-90 -101 -255 -122q-73 -9 -167 -9q-93 0 -155 5q-158 13 -237 75q-108 81 -150 220q-50 165 -50 439zM317 905q-4 -79 -4 -249q-1 -170 27 -258t56 -127q28 -37 91 -67t190 -30q128 0 189 13q141 30 191 152q51 122 51 349q0 228 -13 308q-13 79 -24 127t-62 124
q-21 33 -70 51q-49 19 -96 24t-113 5t-124 -2t-88 -13q-32 -12 -60 -26t-44 -37t-36 -55t-38 -120q-19 -89 -23 -169z" />
    <glyph glyph-name="oe" unicode="&#x153;" horiz-adv-x="1849" 
d="M1468 616q119 0 119 95q0 79 -8 117t-37 62q-28 24 -68 30t-137 6t-145 -14q-50 -14 -70 -33q-20 -20 -43 -67t-18 -196h407zM356 219q52 -57 230 -57t232 71t54 273q0 204 -26 282t-86 107q-59 29 -149 29t-128 -3q-95 -8 -131 -56q-66 -89 -67 -255q0 -166 10 -250
q9 -84 61 -141zM96 528q0 223 47 346q47 124 149 174t288 50q281 0 381 -131q67 102 215 119q118 16 221 11q104 -5 153 -15t80 -25q80 -41 112 -123t34 -227q0 -256 -287 -256h-428q-2 -109 17 -171q20 -62 66 -90t130 -28q338 0 481 20v-135q-188 -57 -524 -57
q-201 0 -277 121q-100 -121 -373 -121t-379 120t-106 418z" />
    <glyph glyph-name="Racute" unicode="&#x154;" horiz-adv-x="1220" 
d="M307 788h447q113 0 147 62q33 62 33 171q0 197 -52 247q-52 51 -128 51h-447v-531zM119 0v1499h643q362 0 362 -455q0 -110 -22 -192t-48 -123t-68 -70t-64 -35t-52 -14l308 -610h-207l-297 600l-367 29v-629h-188zM526 1624l209 274h211l-266 -274h-154z" />
    <glyph glyph-name="racute" unicode="&#x155;" horiz-adv-x="866" 
d="M115 0v1087h143l45 -137q78 52 124 77q131 73 248 73q118 0 152 -17v-184q-53 10 -157 10q-104 1 -182 -25q-77 -26 -185 -93v-791h-188zM428 1225l209 274h211l-266 -274h-154z" />
    <glyph glyph-name="Rcommaaccent" unicode="&#x156;" horiz-adv-x="1220" 
d="M307 788h447q113 0 147 62q33 62 33 171q0 197 -52 247q-52 51 -128 51h-447v-531zM119 0v1499h643q362 0 362 -455q0 -110 -22 -192t-48 -123t-68 -70t-64 -35t-52 -14l308 -610h-207l-297 600l-367 29v-629h-188zM522 -449q58 0 58 56v39h-21q-47 0 -47 47v117
q0 49 47 49h111q43 0 43 -49v-185q0 -97 -74 -132q-29 -13 -63 -13t-54 4v67z" />
    <glyph glyph-name="rcommaaccent" unicode="&#x157;" horiz-adv-x="866" 
d="M113 0v1087h143l45 -137q7 4 39 26t101 61t127 51q59 12 141 12t114 -17v-184q-51 10 -155 10q-104 1 -183 -25q-78 -26 -184 -93v-791h-188zM115 -451q57 0 57 54v41h-20q-48 0 -48 47v116q0 49 48 50h110q43 0 43 -50v-184q0 -51 -19 -84t-47 -44q-61 -24 -106 -15
l-18 2v67z" />
    <glyph glyph-name="Rcaron" unicode="&#x158;" horiz-adv-x="1220" 
d="M307 788h447q113 0 147 62q33 62 33 171q0 197 -52 247q-52 51 -128 51h-447v-531zM119 0v1499h643q362 0 362 -455q0 -110 -22 -192t-48 -123t-68 -70t-64 -35t-52 -14l308 -610h-207l-297 600l-367 29v-629h-188zM295 1901h160l153 -140l135 140h158l-211 -269h-164z
" />
    <glyph glyph-name="rcaron" unicode="&#x159;" horiz-adv-x="866" 
d="M115 0v1087h143l45 -137q78 52 124 77q131 73 248 73q118 0 152 -17v-184q-53 10 -157 10q-104 1 -182 -25q-77 -26 -185 -93v-791h-188zM168 1491h158l155 -139l135 139h158l-211 -268h-164z" />
    <glyph glyph-name="Sacute" unicode="&#x15a;" horiz-adv-x="1198" 
d="M1114 338q0 -354 -393 -354q-125 0 -295 17t-256 36v151q225 -22 387 -22t214 4t86 28q67 46 69 138v123q0 88 -35 136t-125 48h-270q-96 0 -168 24q-72 23 -110 57q-93 82 -93 284v133q0 217 112 293q112 77 293 77q94 0 272 -18t259 -33v-151q-191 13 -380 18
q-189 4 -226 0q-98 -11 -125 -83q-16 -42 -17 -109v-119q0 -117 46 -151t149 -34h276q330 0 330 -364v-129zM551 1634l211 277h209l-266 -277h-154z" />
    <glyph glyph-name="sacute" unicode="&#x15b;" horiz-adv-x="1036" 
d="M76 727v94q0 133 65 205q66 72 197 72t314 -12t253 -27v-135h-522q-87 0 -103 -29t-16 -78v-82q0 -70 29 -87t90 -17h305q90 0 152 -36q120 -69 121 -235v-102q0 -268 -267 -268q-104 0 -311 15t-262 30v131h549q102 0 102 98v86q0 53 -22 78q-23 25 -80 25h-305
q-150 0 -220 60q-69 60 -69 214zM438 1229l209 276h211l-266 -276h-154z" />
    <glyph glyph-name="Scircumflex" unicode="&#x15c;" horiz-adv-x="1198" 
d="M1114 338q0 -354 -393 -354q-125 0 -295 17t-256 36v151q225 -22 387 -22t214 4t86 28q67 46 69 138v123q0 88 -35 136t-125 48h-270q-96 0 -168 24q-72 23 -110 57q-93 82 -93 284v133q0 217 112 293q112 77 293 77q94 0 272 -18t259 -33v-151q-191 13 -380 18
q-189 4 -226 0q-98 -11 -125 -83q-16 -42 -17 -109v-119q0 -117 46 -151t149 -34h276q330 0 330 -364v-129zM336 1634l233 271h164l209 -271h-158l-137 140l-151 -140h-160z" />
    <glyph glyph-name="scircumflex" unicode="&#x15d;" horiz-adv-x="1036" 
d="M76 727v94q0 133 65 205q66 72 197 72t314 -12t253 -27v-135h-522q-87 0 -103 -29t-16 -78v-82q0 -70 29 -87t90 -17h305q90 0 152 -36q120 -69 121 -235v-102q0 -268 -267 -268q-104 0 -311 15t-262 30v131h549q102 0 102 98v86q0 53 -22 78q-23 25 -80 25h-305
q-150 0 -220 60q-69 60 -69 214zM215 1221l236 270h163l209 -270h-157l-140 139l-151 -139h-160z" />
    <glyph glyph-name="Scedilla" unicode="&#x15e;" horiz-adv-x="1198" 
d="M1114 338q0 -354 -393 -354q-125 0 -295 17t-256 36v151q225 -22 387 -22t214 4t86 28q67 46 69 138v123q0 88 -35 136t-125 48h-270q-96 0 -168 24q-72 23 -110 57q-93 82 -93 284v133q0 217 112 293q112 77 293 77q94 0 272 -18t259 -33v-151q-191 13 -380 18
q-189 4 -226 0q-98 -11 -125 -83q-16 -42 -17 -109v-119q0 -117 46 -151t149 -34h276q330 0 330 -364v-129zM569 -92h152q0 -158 -44 -219t-169 -62h-107v88l105 31q39 16 51 55t12 107z" />
    <glyph glyph-name="scedilla" unicode="&#x15f;" horiz-adv-x="1036" 
d="M76 727v94q0 133 65 205q66 72 197 72t314 -12t253 -27v-135h-522q-87 0 -103 -29t-16 -78v-82q0 -70 29 -87t90 -17h305q90 0 152 -36q120 -69 121 -235v-102q0 -268 -267 -268q-104 0 -311 15t-262 30v131h549q102 0 102 98v86q0 53 -22 78q-23 25 -80 25h-305
q-150 0 -220 60q-69 60 -69 214zM436 -80h152q0 -158 -44 -219t-169 -61h-107v88l103 30q41 16 53 56t12 106z" />
    <glyph glyph-name="Scaron" unicode="&#x160;" horiz-adv-x="1198" 
d="M1114 338q0 -354 -393 -354q-125 0 -295 17t-256 36v151q225 -22 387 -22t214 4t86 28q67 46 69 138v123q0 88 -35 136t-125 48h-270q-96 0 -168 24q-72 23 -110 57q-93 82 -93 284v133q0 217 112 293q112 77 293 77q94 0 272 -18t259 -33v-151q-191 13 -380 18
q-189 4 -226 0q-98 -11 -125 -83q-16 -42 -17 -109v-119q0 -117 46 -151t149 -34h276q330 0 330 -364v-129zM324 1905h159l154 -140l135 140h160l-213 -271h-164z" />
    <glyph glyph-name="scaron" unicode="&#x161;" horiz-adv-x="1036" 
d="M76 727v94q0 133 65 205q66 72 197 72t314 -12t253 -27v-135h-522q-87 0 -103 -29t-16 -78v-82q0 -70 29 -87t90 -17h305q90 0 152 -36q120 -69 121 -235v-102q0 -268 -267 -268q-104 0 -311 15t-262 30v131h549q102 0 102 98v86q0 53 -22 78q-23 25 -80 25h-305
q-150 0 -220 60q-69 60 -69 214zM223 1499h160l154 -139l135 139h157l-211 -270h-163z" />
    <glyph glyph-name="Tcommaaccent" unicode="&#x162;" horiz-adv-x="1191" 
d="M84 1317v182h1059v-182h-441v-1317h-188v1317h-430zM483 -96h152q0 -160 -44 -221t-169 -62h-107v90l103 31q41 16 53 55t12 107z" />
    <glyph glyph-name="tcommaaccent" unicode="&#x163;" horiz-adv-x="776" 
d="M39 920v127l194 43l41 303h148v-303h297v-170h-297v-519q0 -121 28 -168t82 -61q156 -43 170 -43v-127h-198q-270 0 -271 387v531h-194zM336 -100h153q0 -160 -45 -220t-168 -61h-108v88l104 31q39 16 52 55q12 39 12 107z" />
    <glyph glyph-name="Tcaron" unicode="&#x164;" horiz-adv-x="1191" 
d="M84 1317v182h1059v-182h-441v-1317h-188v1317h-430zM293 1901h160l153 -140l135 140h160l-213 -269h-164z" />
    <glyph glyph-name="tcaron" unicode="&#x165;" horiz-adv-x="778" 
d="M711 1638v-137l-23 -274h-121l-20 274l-2 137h166zM39 920v127l194 43l41 303h148v-303h297v-170h-297v-519q0 -121 28 -168t82 -61q156 -43 170 -43v-127h-198q-270 0 -271 387v531h-194z" />
    <glyph glyph-name="Tbar" unicode="&#x166;" horiz-adv-x="1185" 
d="M63 1317v182h1059v-182h-440v-414h233v-117h-233v-786h-188v786h-234v117h234v414h-431z" />
    <glyph glyph-name="tbar" unicode="&#x167;" horiz-adv-x="755" 
d="M39 920v127l194 43l41 303h148v-303h297v-170h-297v-261h203v-116h-203v-142q0 -172 45 -202q19 -14 117 -40t102 -26v-131h-182q-96 0 -155 37q-116 74 -116 350v154h-159v116h159v261h-194z" />
    <glyph glyph-name="Utilde" unicode="&#x168;" horiz-adv-x="1378" 
d="M154 655v844h188v-844q0 -161 13 -219t23 -95q12 -46 61 -105q53 -64 230 -64q95 0 129 2q127 7 202 102q75 94 75 379v844h191v-844q0 -251 -66 -422q-43 -113 -164 -190q-83 -53 -321 -53h-21q-252 0 -328 52q-36 24 -83 72q-129 132 -129 541zM360 1716
q125 105 169 119q43 14 87 13q44 0 112 -34q69 -34 95 -36q55 -2 187 75l47 -96q-6 -4 -61 -50t-101 -65q-45 -19 -89 -16q-44 2 -108 36t-114 33q-51 -1 -104 -32q-52 -31 -74 -39z" />
    <glyph glyph-name="utilde" unicode="&#x169;" 
d="M285 338q0 -182 180 -182q90 0 160 24t190 86v821h189v-1087h-142l-47 123q-12 -6 -49 -29q-37 -24 -52 -30t-76 -39q-82 -43 -227 -43t-230 103t-85 255v747h189v-749zM540 1258q-65 34 -114 34t-103 -30q-55 -30 -77 -41l-45 92q115 102 189 125t160 -19
q87 -43 114 -45q55 -2 186 76l47 -96q-6 -4 -34 -29t-86 -66q-57 -40 -114 -37q-58 2 -123 36z" />
    <glyph glyph-name="Umacron" unicode="&#x16a;" horiz-adv-x="1378" 
d="M154 655v844h188v-844q0 -161 13 -219t23 -95q12 -46 61 -105q53 -64 230 -64q95 0 129 2q127 7 202 102q75 94 75 379v844h191v-844q0 -251 -66 -422q-43 -113 -164 -190q-83 -53 -321 -53h-21q-252 0 -328 52q-36 24 -83 72q-129 132 -129 541zM410 1632v137h598v-137
h-598z" />
    <glyph glyph-name="umacron" unicode="&#x16b;" 
d="M285 338q0 -182 180 -182q90 0 160 24t190 86v821h189v-1087h-142l-47 123q-12 -6 -49 -29q-37 -24 -52 -30t-76 -39q-82 -43 -227 -43t-230 103t-85 255v747h189v-749zM250 1221v139h598v-139h-598z" />
    <glyph glyph-name="Ubreve" unicode="&#x16c;" horiz-adv-x="1378" 
d="M154 655v844h188v-844q0 -161 13 -219t23 -95q12 -46 61 -105q53 -64 230 -64q95 0 129 2q127 7 202 102q75 94 75 379v844h191v-844q0 -251 -66 -422q-43 -113 -164 -190q-83 -53 -321 -53h-21q-252 0 -328 52q-36 24 -83 72q-129 132 -129 541zM473 1866h102
q0 -55 40 -93q39 -38 95 -38q56 -1 94 35t38 96h102q0 -109 -71 -171q-71 -63 -165 -63t-164 65q-71 65 -71 169z" />
    <glyph glyph-name="ubreve" unicode="&#x16d;" 
d="M285 338q0 -182 180 -182q90 0 160 24t190 86v821h189v-1087h-142l-47 123q-12 -6 -49 -29q-37 -24 -52 -30t-76 -39q-82 -43 -227 -43t-230 103t-85 255v747h189v-749zM328 1454h102q0 -55 40 -93t95 -38t93 36t38 95h103q0 -109 -71 -171t-165 -62t-165 64
q-70 65 -70 169z" />
    <glyph glyph-name="Uring" unicode="&#x16e;" horiz-adv-x="1378" 
d="M154 655v844h188v-844q0 -161 13 -219t23 -95q12 -46 61 -105q53 -64 230 -64q95 0 129 2q127 7 202 102q75 94 75 379v844h191v-844q0 -251 -66 -422q-43 -113 -164 -190q-83 -53 -321 -53h-21q-252 0 -328 52q-36 24 -83 72q-129 132 -129 541zM604 1841q0 -43 31 -74
t75 -31t74 32q30 30 31 66q0 36 -14 60q-29 51 -82 53q-53 1 -84 -31t-31 -75zM502 1841q0 57 28 105t75 78q48 28 120 28t132 -61q61 -61 61 -134t-28 -121t-76 -76t-104 -28t-104 28q-104 60 -104 181z" />
    <glyph glyph-name="uring" unicode="&#x16f;" 
d="M285 338q0 -182 180 -182q90 0 160 24t190 86v821h189v-1087h-142l-47 123q-12 -6 -49 -29q-37 -24 -52 -30t-76 -39q-82 -43 -227 -43t-230 103t-85 255v747h189v-749zM444 1430q0 -43 31 -74t75 -31t75 31t31 67q0 37 -15 61q-31 52 -83 52t-83 -32t-31 -74zM342 1437
q0 50 28 98t75 77q49 28 105 28t104 -28t76 -77q28 -48 28 -105q0 -58 -28 -106t-76 -76t-97 -28t-88 17q-39 16 -67 44t-44 67t-16 89z" />
    <glyph glyph-name="Uhungarumlaut" unicode="&#x170;" horiz-adv-x="1378" 
d="M154 655v844h188v-844q0 -161 13 -219t23 -95q12 -46 61 -105q53 -64 230 -64q95 0 129 2q127 7 202 102q75 94 75 379v844h191v-844q0 -251 -66 -422q-43 -113 -164 -190q-83 -53 -321 -53h-21q-252 0 -328 52q-36 24 -83 72q-129 132 -129 541zM776 1632l211 277h209
l-266 -277h-154zM487 1632l211 277h209l-266 -277h-154z" />
    <glyph glyph-name="uhungarumlaut" unicode="&#x171;" 
d="M285 338q0 -182 180 -182q90 0 160 24t190 86v821h189v-1087h-142l-47 123q-12 -6 -49 -29q-37 -24 -52 -30t-76 -39q-82 -43 -227 -43t-230 103t-85 255v747h189v-749zM616 1221l211 274h209l-266 -274h-154zM328 1221l211 274h209l-267 -274h-153z" />
    <glyph glyph-name="Uogonek" unicode="&#x172;" horiz-adv-x="1378" 
d="M154 655v844h188v-844q0 -161 13 -219t23 -95q12 -46 61 -105q53 -64 230 -64q95 0 129 2q127 7 202 102q75 94 75 379v844h191v-844q0 -251 -66 -422q-43 -113 -164 -190q-83 -53 -291 -53q-116 -100 -109 -169t124 -69v-133q-68 -11 -129 11t-93 66q-77 106 -4 204
q40 53 119 90q-211 0 -287 52q-36 24 -83 72q-129 132 -129 541z" />
    <glyph glyph-name="uogonek" unicode="&#x173;" 
d="M285 338q0 -182 180 -182q90 0 160 24t190 86v821h189v-1087h-25q-123 -102 -115 -172t123 -70v-133q-66 -11 -127 11t-93 66q-78 108 -6 204q42 55 128 94h-27l-47 123q-12 -6 -49 -29q-37 -24 -52 -30t-76 -39q-82 -43 -227 -43t-230 103t-85 255v747h189v-749z" />
    <glyph glyph-name="Wcircumflex" unicode="&#x174;" horiz-adv-x="1986" 
d="M86 1499h203l409 -1202l342 1202h209l-129 -455l262 -757l355 1212h202l-452 -1499h-201l-260 725l-227 -725h-201zM729 1624l234 268h163l211 -268h-157l-140 139l-151 -139h-160z" />
    <glyph glyph-name="wcircumflex" unicode="&#x175;" horiz-adv-x="1652" 
d="M39 1087h203l295 -833l258 833h196l-100 -333l221 -500l301 833h203l-397 -1087h-199l-219 496l-164 -496h-207zM537 1212l233 269h164l209 -269h-158l-137 140l-152 -140h-159z" />
    <glyph glyph-name="Ycircumflex" unicode="&#x176;" horiz-adv-x="1304" 
d="M745 0h-188v514l-471 985h205l362 -768l400 768h204l-512 -985v-514zM350 1624l236 268h164l208 -268h-157l-139 139l-152 -139h-160z" />
    <glyph glyph-name="ycircumflex" unicode="&#x177;" horiz-adv-x="1146" 
d="M588 178q10 0 26 4l287 905h205l-453 -1431l-151 -209h-125l182 553q-197 0 -266 240l-252 847h203l241 -825q29 -84 103 -84zM270 1221l234 270h164l209 -270h-158l-137 139l-152 -139h-160z" />
    <glyph glyph-name="Ydieresis" unicode="&#x178;" horiz-adv-x="1304" 
d="M745 0h-188v514l-471 985h205l362 -768l400 768h204l-512 -985v-514zM825 1741q0 45 32 76t77 31t76 -32q30 -30 30 -75t-30 -77t-76 -32q-45 0 -77 32t-32 77zM303 1741q0 45 32 76t77 31q46 0 76 -32q30 -30 30 -75t-31 -77t-75 -32t-77 32q-32 32 -32 77z" />
    <glyph glyph-name="Zacute" unicode="&#x179;" horiz-adv-x="1148" 
d="M68 0v182l776 1135h-776v182h1015v-182l-768 -1135h768v-182h-1015zM498 1632l211 277h209l-267 -277h-153z" />
    <glyph glyph-name="zacute" unicode="&#x17a;" horiz-adv-x="942" 
d="M57 911v176h830v-176l-551 -733h551v-176h-799v176l563 733h-594zM395 1221l211 274h209l-266 -274h-154z" />
    <glyph glyph-name="Zdotaccent" unicode="&#x17b;" horiz-adv-x="1148" 
d="M68 0v182l776 1135h-776v182h1015v-182l-768 -1135h768v-182h-1015zM633 1853q47 0 47 -51v-123q0 -47 -47 -47h-115q-20 0 -34 14t-15 33v123q0 51 49 51h115z" />
    <glyph glyph-name="zdotaccent" unicode="&#x17c;" horiz-adv-x="942" 
d="M57 911v176h830v-176l-551 -733h551v-176h-799v176l563 733h-594zM530 1442q46 0 48 -51v-123q0 -47 -48 -47h-114q-23 -1 -36 13t-13 34v123q0 51 49 51h114z" />
    <glyph glyph-name="Zcaron" unicode="&#x17d;" horiz-adv-x="1148" 
d="M68 0v182l776 1135h-776v182h1015v-182l-768 -1135h768v-182h-1015zM270 1901h160l156 -140l135 140h158l-211 -269h-164z" />
    <glyph glyph-name="zcaron" unicode="&#x17e;" horiz-adv-x="942" 
d="M57 911v176h830v-176l-551 -733h551v-176h-799v176l563 733h-594zM168 1491h160l155 -139l135 139h158l-213 -270h-164z" />
    <glyph glyph-name="florin" unicode="&#x192;" horiz-adv-x="1212" 
d="M225 -246q156 0 217 426l97 621h-199l29 172h200l9 63q47 270 124 423q93 179 267 179q107 0 190 -44q14 -7 17 -7l-19 -121h-166q-70 0 -113 -71q-44 -71 -66 -164q-22 -92 -40 -195l-10 -65h274l-28 -170h-275l-96 -621q-36 -230 -74 -333q-39 -103 -78 -152
q-90 -113 -235 -113q-59 0 -126 20t-85 31l16 121h170z" />
    <glyph glyph-name="circumflex" unicode="&#x2c6;" horiz-adv-x="796" 
d="M96 1087l234 269h164l208 -269h-157l-139 140l-150 -140h-160z" />
    <glyph glyph-name="caron" unicode="&#x2c7;" horiz-adv-x="796" 
d="M96 1356h160l154 -139l135 139h157l-210 -269h-164z" />
    <glyph glyph-name="breve" unicode="&#x2d8;" horiz-adv-x="659" 
d="M323 1188q139 0 142 131h102q1 -109 -71 -171t-166 -62t-164 64q-70 65 -70 169h103q0 -55 39 -93t85 -38z" />
    <glyph glyph-name="dotaccent" unicode="&#x2d9;" horiz-adv-x="401" 
d="M260 1307q47 0 47 -52v-122q0 -47 -47 -48h-115q-23 0 -36 14t-13 34v122q0 51 49 52h115z" />
    <glyph glyph-name="ring" unicode="&#x2da;" horiz-adv-x="606" 
d="M199 1301q0 -35 14 -59q31 -52 83 -52t83 31t31 67t-15 60q-29 52 -99 52q-36 0 -66 -31q-30 -32 -31 -68zM96 1294q0 58 28 106t76 77t104 29t105 -29q103 -62 103 -183q0 -57 -28 -105t-76 -76t-104 -28t-104 28t-76 76t-28 105z" />
    <glyph glyph-name="ogonek" unicode="&#x2db;" horiz-adv-x="448" 
d="M256 0h90q-123 -100 -115 -170t123 -72v-131q-66 -13 -127 9t-94 66q-79 105 -5 204q42 55 128 94z" />
    <glyph glyph-name="tilde" unicode="&#x2dc;" horiz-adv-x="884" 
d="M433 1126q-65 34 -113 33t-103 -31t-76 -41l-45 93q141 133 242 133q55 -2 125 -36t94 -36q55 -2 188 76l46 -96q-37 -37 -85 -70q-49 -34 -82 -49t-79 -13q-47 3 -112 37z" />
    <glyph glyph-name="hungarumlaut" unicode="&#x2dd;" horiz-adv-x="788" 
d="M326 1087l211 277h208l-266 -277h-153zM39 1087l209 277h211l-266 -277h-154z" />
    <glyph glyph-name="uni0338" unicode="&#x338;" horiz-adv-x="1308" 
d="M809 182q178 0 178 170v762q0 80 -29 117l-524 -1036q37 -12 76 -13h299zM322 391q0 -63 18 -92l512 1014q-14 4 -41 4h-303q-96 0 -141 -49t-45 -121v-756zM133 340v815q0 166 100 255t261 89h335q265 0 328 -211q18 -59 19 -129v-819q0 -174 -92 -257t-257 -83h-335
q-160 0 -260 83q-99 83 -99 257z" />
    <glyph glyph-name="Omega" unicode="&#x3a9;" horiz-adv-x="1585" 
d="M125 699v108q0 396 257 591q154 117 413 115q418 0 571 -310q86 -174 86 -427q0 -254 -56 -373t-184 -219l250 -20v-164h-479v188q219 149 259 330q22 100 22 270q0 543 -469 543q-481 0 -482 -553q-1 -165 17 -240t49 -122q74 -113 221 -228v-188h-463v168l260 20
q-188 115 -239 286q-33 110 -33 225z" />
    <glyph glyph-name="pi" unicode="&#x3c0;" horiz-adv-x="1310" 
d="M39 905v182h1135v-182h-242v-553q0 -106 33 -147t108 -41h199v-111q-92 -63 -234 -63t-219 83q-76 83 -76 275v557h-346v-905h-188v905h-170z" />
    <glyph glyph-name="uni1E02" unicode="&#x1e02;" horiz-adv-x="1224" 
d="M737 1319h-393v-447h393q141 0 191 103q25 51 24 125q0 219 -215 219zM344 180h395q225 0 226 250q-1 115 -57 191t-169 75h-395v-516zM154 0v1499h587q109 0 190 -35t125 -94q83 -111 85 -264q0 -274 -195 -328q84 -18 146 -109t61 -245q0 -302 -213 -390
q-82 -34 -197 -34h-589zM686 1847q47 0 47 -51v-123q0 -47 -47 -47h-115q-21 0 -35 12t-14 35v123q0 51 49 51h115z" />
    <glyph glyph-name="uni1E03" unicode="&#x1e03;" horiz-adv-x="1134" 
d="M659 164q190 0 191 377q0 293 -86 361q-39 30 -105 30q-184 0 -360 -49v-631q193 -88 360 -88zM113 0v1608h184v-584q86 36 197 58q112 22 194 22t148 -32t104 -82q98 -131 98 -451q0 -551 -358 -551q-92 0 -210 45t-171 86l-43 -119h-143zM266 1968q47 0 47 -51v-123
q0 -47 -47 -47h-114q-20 0 -35 12t-15 35v123q0 51 50 51h114z" />
    <glyph glyph-name="uni1E0A" unicode="&#x1e0a;" horiz-adv-x="1347" 
d="M342 184h383q121 0 201 77q147 141 147 467t-88 458t-260 133h-383v-1135zM154 0v1499h577q131 0 229 -49t154 -123q144 -194 146 -576t-175 -595q-59 -72 -150 -114t-204 -42h-577zM709 1862q45 0 47 -52v-122q0 -47 -47 -48h-115q-23 0 -36 14t-13 34v122q0 51 49 52
h115z" />
    <glyph glyph-name="uni1E0B" unicode="&#x1e0b;" horiz-adv-x="1134" 
d="M285 541q0 -377 188 -377q168 0 363 88v631q-178 49 -363 49q-63 0 -102 -30q-86 -66 -86 -361zM96 539q0 328 94 446q94 119 263 119q105 0 214 -28t169 -52v584h186v-1608h-143l-43 119q-53 -41 -172 -86t-211 -45q-357 0 -357 551zM866 1733q-49 0 -49 47v123
q0 51 49 51h115q47 0 47 -51v-123q0 -47 -47 -47h-115z" />
    <glyph glyph-name="uni1E1E" unicode="&#x1e1e;" horiz-adv-x="1161" 
d="M152 0v1219q0 149 78 217t198 63q614 -29 651 -33v-151h-633q-77 0 -92 -33q-14 -33 -14 -82v-360l653 -21v-153l-653 -21v-645h-188zM590 1626q-49 0 -49 47v123q0 51 49 51h115q45 0 47 -51v-123q0 -47 -47 -47h-115z" />
    <glyph glyph-name="uni1E1F" unicode="&#x1e1f;" horiz-adv-x="821" 
d="M39 918v135l190 34v203q0 170 68 245t203 75t282 -49v-119l-235 2q-47 0 -74 -10t-41 -43t-14 -119v-185h287v-169h-287v-918h-189v918h-190zM465 1769q-49 0 -49 48v122q0 51 49 52h115q45 0 47 -52v-122q0 -47 -47 -48h-115z" />
    <glyph glyph-name="uni1E40" unicode="&#x1e40;" horiz-adv-x="1665" 
d="M104 0l109 1499h260l358 -1186l351 1186h258l121 -1499h-187l-94 1163l-346 -1163h-201l-356 1163l-84 -1163h-189zM885 1853q47 0 47 -51v-123q0 -47 -47 -47h-115q-23 0 -36 14t-13 33v123q0 51 49 51h115z" />
    <glyph glyph-name="uni1E41" unicode="&#x1e41;" horiz-adv-x="1824" 
d="M115 0v1087h141l47 -126q21 11 51 29q28 20 50 32t35 18t33 16q85 44 196 44q110 0 190 -41t115 -113q193 154 426 154q151 0 241 -100t91 -259v-741h-189v743q0 55 -22 99q-43 86 -150 86q-106 0 -188 -24t-170 -83v-821h-189v743q0 85 -47 135q-46 50 -110 50
q-116 0 -177 -22t-91 -38t-95 -49v-819h-188zM1065 1444q47 0 47 -51v-123q0 -47 -47 -47h-115q-23 -1 -36 13t-13 34v123q0 51 49 51h115z" />
    <glyph glyph-name="uni1E56" unicode="&#x1e56;" horiz-adv-x="1200" 
d="M307 774h428q144 0 176 134q13 58 13 146q-1 173 -69 225q-53 40 -120 40h-428v-545zM119 0v1499h622q375 0 375 -442q0 -325 -160 -418q-58 -34 -116 -39q-58 -6 -107 -5t-233 18t-193 22v-635h-188zM487 1692v123q0 51 50 51h114q47 0 47 -51v-123q0 -47 -47 -47h-114
q-20 -1 -35 13t-15 34z" />
    <glyph glyph-name="uni1E57" unicode="&#x1e57;" horiz-adv-x="1134" 
d="M664 156q63 0 102 30q86 65 86 359q0 379 -188 379q-170 0 -363 -88v-631q176 -49 363 -49zM115 -553v1640h143l43 -116q86 64 203 96q116 33 190 33t137 -32q209 -106 209 -519q0 -323 -93 -445t-263 -120q-76 0 -186 22t-199 55v-614h-184zM666 1464q45 0 47 -51v-123
q0 -47 -47 -47h-115q-23 -1 -36 13t-13 34v123q0 51 49 51h115z" />
    <glyph glyph-name="uni1E60" unicode="&#x1e60;" horiz-adv-x="1198" 
d="M1114 338q0 -354 -393 -354q-125 0 -295 17t-256 36v151q225 -22 387 -22t214 4t86 28q67 46 69 138v123q0 88 -35 136t-125 48h-270q-96 0 -168 24q-72 23 -110 57q-93 82 -93 284v133q0 217 112 293q112 77 293 77q94 0 272 -18t259 -33v-151q-191 13 -380 18
q-189 4 -226 0q-98 -11 -125 -83q-16 -42 -17 -109v-119q0 -117 46 -151t149 -34h276q330 0 330 -364v-129zM557 1653q-49 0 -49 47v123q0 51 49 51h115q20 0 32 -14t13 -37v-123q0 -47 -45 -47h-115z" />
    <glyph glyph-name="uni1E61" unicode="&#x1e61;" horiz-adv-x="1036" 
d="M76 727v94q0 133 65 205q66 72 197 72t314 -12t253 -27v-135h-522q-87 0 -103 -29t-16 -78v-82q0 -70 29 -87t90 -17h305q90 0 152 -36q120 -69 121 -235v-102q0 -268 -267 -268q-104 0 -311 15t-262 30v131h549q102 0 102 98v86q0 53 -22 78q-23 25 -80 25h-305
q-150 0 -220 60q-69 60 -69 214zM614 1462q46 0 48 -51v-123q0 -47 -48 -47h-114q-20 0 -35 13q-14 14 -14 34v123q0 51 49 51h114z" />
    <glyph glyph-name="uni1E6A" unicode="&#x1e6a;" horiz-adv-x="1191" 
d="M84 1317v182h1059v-182h-441v-1317h-188v1317h-430zM655 1853q47 0 47 -51v-123q0 -47 -47 -47h-114q-23 0 -36 14t-13 33v123q0 51 49 51h114z" />
    <glyph glyph-name="uni1E6B" unicode="&#x1e6b;" horiz-adv-x="776" 
d="M39 920v127l194 43l41 303h148v-303h297v-170h-297v-519q0 -121 28 -168t82 -61q156 -43 170 -43v-127h-198q-270 0 -271 387v531h-194zM287 1518q-49 0 -49 47v123q0 51 49 51h114q46 0 48 -51v-123q0 -47 -48 -47h-114z" />
    <glyph glyph-name="Wgrave" unicode="&#x1e80;" horiz-adv-x="1986" 
d="M86 1499h203l409 -1202l342 1202h209l-129 -455l262 -757l355 1212h202l-452 -1499h-201l-260 725l-227 -725h-201zM686 1898h211l209 -274h-154z" />
    <glyph glyph-name="wgrave" unicode="&#x1e81;" horiz-adv-x="1652" 
d="M39 1087h203l295 -833l258 833h196l-100 -333l221 -500l301 833h203l-397 -1087h-199l-219 496l-164 -496h-207zM494 1487h211l208 -275h-153z" />
    <glyph glyph-name="Wacute" unicode="&#x1e82;" horiz-adv-x="1986" 
d="M86 1499h203l409 -1202l342 1202h209l-129 -455l262 -757l355 1212h202l-452 -1499h-201l-260 725l-227 -725h-201zM954 1624l211 274h209l-266 -274h-154z" />
    <glyph glyph-name="wacute" unicode="&#x1e83;" horiz-adv-x="1652" 
d="M39 1087h203l295 -833l258 833h196l-100 -333l221 -500l301 833h203l-397 -1087h-199l-219 496l-164 -496h-207zM762 1212l209 275h211l-267 -275h-153z" />
    <glyph glyph-name="Wdieresis" unicode="&#x1e84;" horiz-adv-x="1986" 
d="M86 1499h203l409 -1202l342 1202h209l-129 -455l262 -757l355 1212h202l-452 -1499h-201l-260 725l-227 -725h-201zM1182 1733q0 45 32 75t76 31q45 0 76 -31q31 -32 31 -76t-31 -76t-76 -32t-77 32q-31 32 -31 77zM659 1733q0 45 32 75t77 31q45 0 76 -31q30 -32 30 -76
t-30 -76t-76 -32q-45 0 -77 32t-32 77z" />
    <glyph glyph-name="wdieresis" unicode="&#x1e85;" horiz-adv-x="1652" 
d="M39 1087h203l295 -833l258 833h196l-100 -333l221 -500l301 833h203l-397 -1087h-199l-219 496l-164 -496h-207zM991 1310q0 82 67 109q19 8 53 8q34 -1 65 -31q30 -30 30 -75t-30 -77t-76 -32q-45 0 -77 32t-32 66zM469 1321q0 45 32 76t77 31q46 0 76 -32
q30 -30 30 -75t-31 -77t-75 -32t-77 32q-32 32 -32 77z" />
    <glyph glyph-name="Ygrave" unicode="&#x1ef2;" horiz-adv-x="1304" 
d="M745 0h-188v514l-471 985h205l362 -768l400 768h204l-512 -985v-514zM328 1909h211l211 -277h-156z" />
    <glyph glyph-name="ygrave" unicode="&#x1ef3;" horiz-adv-x="1146" 
d="M588 178q10 0 26 4l287 905h205l-453 -1431l-151 -209h-125l182 553q-197 0 -266 240l-252 847h203l241 -825q29 -84 103 -84zM248 1495h209l211 -274h-154z" />
    <glyph glyph-name="endash" unicode="&#x2013;" horiz-adv-x="1050" 
d="M41 500v178h969v-178h-969z" />
    <glyph glyph-name="emdash" unicode="&#x2014;" horiz-adv-x="1507" 
d="M41 504v178h1425v-178h-1425z" />
    <glyph glyph-name="quoteleft" unicode="&#x2018;" horiz-adv-x="546" 
d="M154 1118v221q0 61 23 103q23 41 57 55q66 28 124 23l23 -4v-84q-68 2 -68 -68v-53h25q55 0 55 -56v-137q0 -61 -55 -61h-133q-51 0 -51 61z" />
    <glyph glyph-name="quoteright" unicode="&#x2019;" horiz-adv-x="546" 
d="M209 1266q-55 0 -55 57v137q0 59 55 60h133q51 0 51 -60v-221q0 -156 -147 -179q-33 -5 -58 -3l-22 4v82q68 -2 67 71v52h-24z" />
    <glyph glyph-name="quotesinglbase" unicode="&#x201a;" horiz-adv-x="546" 
d="M209 -2q-55 0 -55 57v138q0 61 55 61h133q51 0 51 -61v-222q1 -63 -23 -104t-58 -55q-67 -28 -124 -23l-22 4v84q68 -2 67 70v51h-24z" />
    <glyph glyph-name="quotedblleft" unicode="&#x201c;" horiz-adv-x="860" 
d="M139 1118v221q0 61 24 103q23 42 57 55q72 30 124 21l25 -2v-84q-70 2 -70 -68v-53h25q36 0 52 -31q5 -10 5 -25v-137q0 -61 -57 -61h-131q-54 0 -54 61zM481 1118v221q0 61 24 103q23 42 57 55q72 30 124 21l25 -2v-84q-70 2 -70 -68v-53h25q25 -1 40 -15t15 -41v-137
q0 -61 -55 -61h-131q-54 0 -54 61z" />
    <glyph glyph-name="quotedblright" unicode="&#x201d;" horiz-adv-x="860" 
d="M537 1266q-56 0 -56 55v137q0 61 56 62h131q53 0 53 -62v-221q0 -92 -50 -136t-133 -44q-19 0 -46 4v82q70 -2 69 69v54h-24zM194 1057q-20 0 -44 4v82q70 -2 69 69v54h-24q-56 0 -56 55v137q0 61 56 62h131q55 0 55 -62v-221q0 -91 -51 -135q-51 -45 -136 -45z" />
    <glyph glyph-name="quotedblbase" unicode="&#x201e;" horiz-adv-x="860" 
d="M537 -2q-56 0 -56 57v138q0 61 56 61h131q53 0 53 -61v-222q0 -94 -45 -134q-45 -39 -82 -43q-38 -5 -56 -5t-46 4v84q70 -2 69 70v51h-24zM195 -2q-56 0 -56 57v138q0 61 56 61h131q55 0 55 -61v-222q0 -93 -46 -133t-83 -44q-38 -5 -58 -5t-44 4v84q70 -2 69 70v51h-24
z" />
    <glyph glyph-name="dagger" unicode="&#x2020;" horiz-adv-x="817" 
d="M39 981v149l272 21l17 426h164l18 -426l270 -21v-149l-270 -23l-21 -1105h-163l-15 1105z" />
    <glyph glyph-name="daggerdbl" unicode="&#x2021;" horiz-adv-x="854" 
d="M39 340v149l274 23l-2 446l-272 23v149l272 21l19 426h162l18 -426l270 -21v-149l-270 -23l-6 -446l276 -23v-149l-282 -23l-9 -464h-163l-9 464z" />
    <glyph glyph-name="bullet" unicode="&#x2022;" horiz-adv-x="636" 
d="M162 688v184q0 72 67 72h174q72 0 72 -72v-184q0 -66 -72 -65h-174q-31 0 -49 17t-18 48z" />
    <glyph glyph-name="ellipsis" unicode="&#x2026;" horiz-adv-x="1665" 
d="M322 47v135q0 51 49 51h127q51 0 51 -51v-135q0 -47 -51 -47h-127q-20 0 -35 13q-14 14 -14 34zM713 47v135q0 51 49 51h127q51 0 51 -51v-135q0 -47 -51 -47h-127q-23 0 -36 14t-13 33zM1102 47v135q0 51 49 51h127q51 0 51 -51v-135q0 -47 -51 -47h-127q-20 0 -35 13
q-14 14 -14 34z" />
    <glyph glyph-name="perthousand" unicode="&#x2030;" horiz-adv-x="2826" 
d="M2161 272q0 -88 48 -106q26 -10 72 -10h191q80 0 98 21t22 41t3 54v248q0 70 -25 94t-94 23h-190q-99 0 -116 -46q-9 -24 -9 -71v-248zM2009 264v266q0 134 59 196t209 62h207q146 0 204 -61t58 -197v-266q0 -137 -58 -198t-208 -62h-207q-145 0 -205 62t-59 198z
M1294 272q0 -68 25 -92t94 -24h191q80 0 102 24t23 92v248q0 70 -26 94t-95 23h-191q-79 0 -101 -24t-22 -93v-248zM1143 264v266q0 134 57 196t209 62h207q148 0 206 -61t58 -197v-266q0 -137 -58 -198t-210 -62h-207q-145 0 -203 62t-59 198zM455 0l901 1499h162
l-900 -1499h-163zM231 983q0 -69 26 -93t95 -24h191q79 0 101 25t22 92v248q0 69 -25 93t-94 24h-191q-80 0 -102 -24t-23 -93v-248zM80 975v266q0 135 59 197t209 61h207q145 0 203 -61t59 -197v-266q0 -137 -58 -199t-208 -61h-207q-147 0 -206 61q-58 62 -58 199z" />
    <glyph glyph-name="guilsinglleft" unicode="&#x2039;" horiz-adv-x="729" 
d="M96 725l422 416l119 -119l-303 -297l313 -305l-119 -121z" />
    <glyph glyph-name="guilsinglright" unicode="&#x203a;" horiz-adv-x="729" 
d="M96 420l312 305l-304 297l121 119l422 -416l-432 -426z" />
    <glyph glyph-name="fraction" unicode="&#x2044;" horiz-adv-x="526" 
d="M-172 0l719 1511h151l-716 -1511h-154z" />
    <glyph glyph-name="zerosuperior" unicode="&#x2070;" horiz-adv-x="956" 
d="M270 1063q0 -59 23 -79t90 -21h197q70 -1 90 21t20 79v479q0 55 -22 78q-23 23 -86 22h-201q-70 0 -90 -26t-21 -74v-479zM115 1044v515q0 123 63 177t184 54h240q238 0 238 -229v-517q0 -133 -60 -181t-178 -48h-240q-148 0 -198 60q-49 60 -49 169z" />
    <glyph glyph-name="foursuperior" unicode="&#x2074;" horiz-adv-x="860" 
d="M565 1204v238l56 98h98v-336h115v-125l-115 -24v-238h-154v232h-489l-45 61l405 680h168l-350 -586h311z" />
    <glyph glyph-name="fivesuperior" unicode="&#x2075;" horiz-adv-x="856" 
d="M545 807h-186q-77 0 -255 29v120h422q100 0 101 105v131q0 40 -24 64t-75 24h-209q-86 0 -86 -92h-127l31 602h613v-148h-474l-14 -256q35 35 92 38q58 3 84 4t67 -1q42 -2 48 -2q115 -3 171 -69t56 -180v-132q0 -123 -63 -180t-172 -57z" />
    <glyph glyph-name="sixsuperior" unicode="&#x2076;" horiz-adv-x="899" 
d="M258 1251q0 -113 14 -157t28 -72q27 -58 91 -57h187q48 -1 70 21t22 73v110q0 49 -20 65t-70 17h-322zM788 1655h-399q-90 0 -111 -105q-20 -93 -20 -182q204 29 306 29q102 -1 148 -17q109 -39 109 -198v-146q0 -111 -60 -166t-165 -55h-217q-136 0 -196 95
q-79 125 -79 419q7 401 177 458q135 45 507 -11v-121z" />
    <glyph glyph-name="sevensuperior" unicode="&#x2077;" horiz-adv-x="768" 
d="M29 1647v147h669l39 -72l-372 -907h-170l344 832h-510z" />
    <glyph glyph-name="eightsuperior" unicode="&#x2078;" horiz-adv-x="952" 
d="M279 1485q0 -102 96 -103h203q81 0 94 67q2 15 2 36v59q0 66 -24 88t-81 23h-180q-63 0 -87 -23t-23 -88v-59zM279 1047q0 -49 20 -67t78 -19h207q90 0 90 86v92q0 98 -88 98h-211q-73 0 -90 -51q-6 -18 -6 -47v-92zM827 1483q0 -128 -100 -154q51 -8 76 -66t24 -114
v-117q0 -125 -61 -172t-162 -47h-244q-146 0 -189 63q-44 63 -44 154v111q0 119 113 149q-113 41 -113 189v82q0 133 64 186q65 53 182 53h225q153 0 203 -98q27 -53 26 -139v-80z" />
    <glyph glyph-name="ninesuperior" unicode="&#x2079;" horiz-adv-x="899" 
d="M240 1450q0 -48 20 -66t68 -18h323q0 289 -129 289h-192q-50 0 -70 -23t-20 -73v-109zM86 1436v147q0 111 61 166t164 55h217q162 0 225 -146q54 -126 50 -372q0 -399 -172 -458q-33 -11 -78 -15q-213 -18 -434 25v123h399q35 0 70 27t46 96q12 70 17 165
q-207 -31 -338 -31t-179 60t-48 158z" />
    <glyph glyph-name="zeroinferior" unicode="&#x2080;" horiz-adv-x="956" 
d="M270 -160q0 -59 23 -81t90 -21h197q70 0 90 22t20 80v477q0 55 -22 78q-23 23 -86 23h-201q-70 0 -90 -25t-21 -76v-477zM115 -178v512q0 125 63 179t184 54h240q238 0 238 -231v-514q0 -133 -60 -182t-178 -50h-240q-184 0 -228 112q-19 48 -19 120z" />
    <glyph glyph-name="oneinferior" unicode="&#x2081;" horiz-adv-x="552" 
d="M430 569v-977h-151v822l-248 -66v111l248 110h151z" />
    <glyph glyph-name="twoinferior" unicode="&#x2082;" horiz-adv-x="800" 
d="M721 -260v-148h-653v140q8 8 80 61q239 177 319 282q98 122 97 207q-1 84 -36 118t-120 34h-347q-2 0 -2 30v58q0 29 2 29q244 33 385 33q274 0 275 -285q0 -244 -391 -559h391z" />
    <glyph glyph-name="threeinferior" unicode="&#x2083;" horiz-adv-x="833" 
d="M57 426v109q92 33 253 37q44 1 164 1q120 -1 183 -69t64 -172v-70q0 -70 -30 -118t-75 -64q104 -57 105 -197v-53q-1 -119 -61 -182t-201 -64h-125q-54 0 -65 1t-40 3t-44 5t-39 7t-42 9q-18 6 -38 12l2 109l354 2q82 0 114 24t31 88v41q0 125 -137 129l-283 11v116
l283 15q139 6 139 118v41q0 111 -139 111h-373z" />
    <glyph glyph-name="fourinferior" unicode="&#x2084;" horiz-adv-x="862" 
d="M567 -20v237l56 100h98v-337h115v-125l-115 -23v-240h-154v234h-491l-45 61l405 680h170l-348 -587h309z" />
    <glyph glyph-name="fiveinferior" unicode="&#x2085;" horiz-adv-x="856" 
d="M428 -418q-167 0 -324 31v121h424q100 0 101 104v122q0 95 -99 95h-208q-86 0 -86 -88h-130l31 600h613v-149h-474l-14 -254q41 41 175 41l118 -4q115 0 171 -68t56 -182v-131q0 -121 -64 -179q-64 -59 -162 -59h-128z" />
    <glyph glyph-name="sixinferior" unicode="&#x2086;" horiz-adv-x="899" 
d="M258 29q0 -200 71 -266q26 -24 62 -23h187q48 0 70 22t22 74v109q0 49 -20 66t-70 18h-322zM788 432h-399q-89 0 -111 -106q-20 -94 -20 -181q204 29 306 29t148 -17q109 -40 109 -198v-147q0 -109 -60 -164t-165 -56h-217q-161 0 -223 145q-52 116 -52 369
q7 401 177 458q33 11 77 14q211 16 430 -25v-121z" />
    <glyph glyph-name="seveninferior" unicode="&#x2087;" horiz-adv-x="768" 
d="M29 422v149h669l39 -73l-372 -906h-170l344 830h-510z" />
    <glyph glyph-name="eightinferior" unicode="&#x2088;" horiz-adv-x="952" 
d="M279 260q0 -102 96 -102h203q96 0 96 102v62q0 66 -24 88t-81 22h-180q-63 0 -87 -24t-23 -86v-62zM279 -84v-94q0 -46 20 -66t78 -20h207q90 0 90 86v94q0 96 -88 96h-211q-49 0 -73 -21q-23 -22 -23 -75zM827 260q0 -132 -100 -154q51 -10 76 -67t24 -115v-117
q0 -123 -61 -171t-162 -48h-244q-192 0 -225 139q-8 34 -8 78v113q0 119 113 150q-113 39 -113 186v84q0 133 64 186q65 53 182 54h225q232 0 229 -240v-78z" />
    <glyph glyph-name="nineinferior" unicode="&#x2089;" horiz-adv-x="899" 
d="M240 225q0 -64 39 -78q18 -6 49 -6h323q0 291 -129 291h-192q-49 0 -70 -22q-20 -23 -20 -74v-111zM86 213v145q0 111 61 166t164 56h217q161 0 225 -146q54 -123 50 -371q0 -398 -172 -457q-33 -11 -78 -16q-207 -18 -434 25v121h399q115 0 129 217q2 31 4 72
q-207 -29 -338 -29t-179 58t-48 159z" />
    <glyph glyph-name="Euro" unicode="&#x20ac;" horiz-adv-x="1253" 
d="M213 1038q0 85 21 169t53 126q77 100 153 133q113 48 226 49q112 1 272 -19t270 -46v-143q-326 29 -452 29t-186 -18q-60 -17 -93 -46t-54 -92t-22 -213l480 -17v-106l-480 -13v-188l480 -16v-107q-34 -2 -260 -6t-220 -10q0 -190 87 -265t229 -75q202 0 418 29l82 8
v-140q-231 -74 -519 -73q-215 0 -350 126t-135 390l-174 16v107l174 16v188l-174 17v98l174 21v71z" />
    <glyph glyph-name="afii61289" unicode="&#x2113;" horiz-adv-x="831" 
d="M362 1262v-439q215 287 160 461q-6 25 -32 41q-61 38 -105 -2q-23 -20 -23 -61zM672 127v-127h-217q-153 2 -217 90t-64 293v84q-27 -20 -63 -41l-54 86q51 45 117 115v643q2 112 76 178t194 66t194 -86q73 -86 75 -230q1 -144 -97 -310t-254 -298v-184q2 -138 26 -180
t110 -58q0 -2 85 -22t89 -19z" />
    <glyph glyph-name="afii61352" unicode="&#x2116;" horiz-adv-x="2197" 
d="M137 0v1311q0 70 36 120q64 89 203 77q58 -5 108 -43t71 -99l479 -1165q10 -27 30 -23q19 4 19 29v956q-1 176 95 259t249 83l420 -2q154 -4 214 -90q61 -86 61 -272q0 -187 -62 -273t-219 -88h-123q-162 2 -220 100t-58 367h151q0 -252 56 -295q30 -24 84 -24h98
q67 0 95 25q46 41 46 165t-15 162q-15 36 -41 52t-89 16q-213 2 -355 2q-199 0 -198 -195v-967q0 -132 -136 -187q-71 -28 -156 1t-118 131l-485 1178q-8 23 -30 17t-21 -32v-1296h-189z" />
    <glyph glyph-name="trademark" unicode="&#x2122;" horiz-adv-x="1423" 
d="M649 784l62 715h145l172 -467l148 467h151l70 -715h-148l-35 404l-120 -404h-125l-144 406l-30 -406h-146zM39 1360v139h543v-139h-199v-576h-145v576h-199z" />
    <glyph glyph-name="estimated" unicode="&#x212e;" horiz-adv-x="1462" 
d="M342 582q0 -19 18 -19q374 0 564 -1t192 1t2 15v272q0 66 -129 134t-260 69q-79 0 -153 -23q-74 -22 -123 -54t-80 -64t-31 -50v-280zM348 528q-6 0 -6 -22v-273q0 -40 70 -91q133 -99 319 -99q113 0 218 48t173 124h115q-119 -125 -235 -170t-271 -45q-283 0 -449 154
t-167 388q0 234 172 396q175 154 439 154q140 0 240 -33t191 -103q178 -137 191 -428h-1000z" />
    <glyph glyph-name="partialdiff" unicode="&#x2202;" horiz-adv-x="1314" 
d="M297 468q0 -140 92 -218t229 -78q178 0 277 208q47 98 58 187q11 90 14 129q-133 74 -319 74t-268 -81q-83 -81 -83 -221zM109 464q0 154 60 264q122 224 460 224q205 0 340 -116q-15 368 -170 454q-75 43 -189 43q-114 1 -214 -31t-167 -73l-47 127q84 55 134 84
q50 28 128 52t160 24q555 0 555 -723q0 -332 -125 -556q-64 -114 -170 -181t-246 -66q-298 0 -436 210q-72 110 -73 264z" />
    <glyph glyph-name="uni2206" unicode="&#x2206;" horiz-adv-x="1476" 
d="M313 180h873l-428 1057zM39 0l637 1499h151l613 -1499h-1401z" />
    <glyph glyph-name="product" unicode="&#x220f;" horiz-adv-x="1320" 
d="M39 1317v182h1245v-182h-172v-1317h-188v1317h-527v-1317h-188v1317h-170z" />
    <glyph glyph-name="summation" unicode="&#x2211;" horiz-adv-x="1189" 
d="M76 1499h1077v-182h-848l436 -764l-436 -774h848v-189h-1077v189l438 774l-438 764v182z" />
    <glyph glyph-name="minus" unicode="&#x2212;" horiz-adv-x="933" 
d="M41 641v176h852v-176h-852z" />
    <glyph glyph-name="radical" unicode="&#x221a;" horiz-adv-x="1302" 
d="M39 557v182h289l241 -479l502 1378h195l-594 -1638h-176l-289 557h-168z" />
    <glyph glyph-name="infinity" unicode="&#x221e;" horiz-adv-x="1595" 
d="M1155 512q176 0 176 186q0 86 -21 123q-20 37 -58 51t-106 14t-142 -54q-74 -56 -123 -134q96 -138 187 -171q42 -15 87 -15zM266 676q0 -68 36 -116t131 -48t160 51t122 135q-49 78 -125 133t-142 55t-104 -13q-62 -21 -74 -101q-4 -28 -4 -96zM795 561
q-121 -215 -347 -215q-202 0 -281 106q-71 93 -71 246q0 255 168 326q70 29 158 29q231 0 375 -209q61 94 156 151t201 57t178 -28q169 -69 169 -326q1 -352 -353 -352q-230 0 -353 215z" />
    <glyph glyph-name="integral" unicode="&#x222b;" horiz-adv-x="903" 
d="M39 -246h168q57 0 84 41q54 77 61 238q4 90 4 147v856q0 441 148 556q59 46 163 46t176 -41q15 -8 23 -10v-121h-166q-155 0 -155 -430v-856q0 -353 -80 -485q-69 -113 -209 -113q-141 0 -217 51v121z" />
    <glyph glyph-name="approxequal" unicode="&#x2248;" horiz-adv-x="1075" 
d="M379 1028q79 0 171 -38t143 -38q52 0 84 10t81 34q49 26 76 36l45 -98q-10 -8 -56 -46q-121 -100 -218 -101q-66 -1 -158 38q-93 39 -147 39t-93 -12t-87 -34t-81 -32l-43 97q61 52 133 99q71 46 150 46zM693 588q52 0 84 9t81 35t76 36l45 -99q-10 -8 -56 -46
q-122 -101 -219 -101q-65 0 -157 39q-93 39 -147 39t-93 -12t-87 -34t-81 -32l-43 96q63 54 136 99t149 46q77 1 169 -37t143 -38z" />
    <glyph glyph-name="notequal" unicode="&#x2260;" horiz-adv-x="950" 
d="M39 418v186h303l143 238h-446v184h557l90 148h131l-90 -148h186v-184h-297l-143 -238h440v-186h-551l-102 -170h-131l102 170h-192z" />
    <glyph glyph-name="lessequal" unicode="&#x2264;" horiz-adv-x="958" 
d="M96 793v190l768 317v-192l-538 -219l538 -240v-194zM96 201v170h768v-170h-768z" />
    <glyph glyph-name="greaterequal" unicode="&#x2265;" horiz-adv-x="958" 
d="M98 455v194l537 240l-537 219v190l768 -315v-190zM96 201v170h770v-170h-770z" />
    <glyph glyph-name="lozenge" unicode="&#x25ca;" horiz-adv-x="1062" 
d="M248 764l291 -518l278 518l-278 498zM39 764l424 735h151l412 -735l-412 -764h-151z" />
    <glyph glyph-name="f_f" unicode="&#xfb00;" horiz-adv-x="1607" 
d="M39 918v135l203 34v183q0 319 264 319q135 0 287 -49v-119l-234 2q-91 0 -113 -49q-16 -36 -16 -121v-166h588v203q0 149 42 210q68 107 215 109q148 1 296 -48v-119l-236 2q-69 0 -97 -25t-30 -66q-2 -42 -2 -81v-185h283v-169h-287v-918h-188v918h-588v-918h-188v918
h-199z" />
    <glyph glyph-name="f_f_i" unicode="&#xfb03;" horiz-adv-x="2009" 
d="M39 918v135l203 34v183q0 319 264 319q135 0 287 -49v-119l-234 2q-121 0 -127 -90q-2 -40 -2 -80l-4 -166h553v101q0 186 113 304t301 118q75 0 205 -22t204 -46v-119l-356 21q-205 10 -261 -149q-17 -48 -18 -109v-99l729 -20v-1067h-190v918h-541v-918h-188v918h-551
v-918h-188v918h-199z" />
    <glyph glyph-name="ffl" unicode="&#xfb04;" horiz-adv-x="2217" 
d="M39 918v135l203 34v183q0 319 264 319q135 0 287 -49v-119l-234 2q-66 0 -96 -27q-29 -27 -31 -65t-2 -78l-4 -166h555v105q0 260 153 360q81 53 199 54h568v-1207q1 -125 23 -167t87 -62q156 -43 170 -43v-127h-194q-147 0 -211 87q-63 87 -64 300v1057h-338
q-68 0 -110 -20q-94 -43 -95 -232v-105h285v-169h-289v-918h-188v918h-551v-918h-188v918h-199z" />
    <glyph glyph-name="s_t" unicode="&#xfb06;" horiz-adv-x="1812" 
d="M76 815q0 275 286 275h918l39 303h149v-303h297v-166h-297v-523q0 -137 20 -171t38 -42t110 -32t97 -23v-131h-183q-145 0 -208 87q-62 87 -62 300v531l-897 -2q-78 0 -98 -25t-21 -84v-84q0 -74 30 -89t89 -15h305q90 0 152 -36q120 -69 121 -235v-92q0 -268 -267 -268
q-94 0 -306 15t-267 30v131h549q102 0 102 98v76q0 70 -40 90q-24 12 -62 12h-305q-149 0 -219 60t-70 215v98z" />
    <glyph glyph-name="exclamdown.alt" horiz-adv-x="552" 
d="M170 0l18 1096h174l19 -1096h-211zM209 1264q-47 0 -47 51v135q0 47 47 47h131q20 0 34 -13t15 -34v-135q0 -51 -49 -51h-131z" />
    <glyph glyph-name="zero.oldstyle" horiz-adv-x="1308" 
d="M322 354q0 -92 54 -132t134 -40h299q178 0 178 170v588q0 170 -176 170h-303q-96 0 -141 -48t-45 -122v-586zM133 340v608q0 166 100 255t261 89h335q266 0 328 -207q18 -59 19 -133v-612q0 -174 -92 -257t-257 -83h-335q-160 0 -260 83q-99 83 -99 257z" />
    <glyph glyph-name="one.oldstyle" horiz-adv-x="735" 
d="M575 1294v-1294h-188v1092l-330 -101v129l330 174h188z" />
    <glyph glyph-name="two.oldstyle" horiz-adv-x="1216" 
d="M78 1124v140q352 53 620 45q216 1 320 -101t104 -286q0 -96 -58 -202t-140 -188t-208 -180t-257 -170h655v-182h-1024v170q61 35 96 54t116 67t198 126q117 77 165 119t103 94q164 155 164 288q0 110 -62 160t-198 46h-594z" />
    <glyph glyph-name="three.oldstyle" horiz-adv-x="1247" 
d="M582 -209q-313 0 -473 57l2 127h585q102 0 160 36q57 36 57 141v106q0 193 -204 201l-473 12v152l473 20q209 8 209 186v123q0 62 -31 102q-55 73 -178 72h-613v125q146 54 417 59q110 1 237 -1q166 -1 261 -97t95 -247v-134q0 -225 -141 -280q141 -80 141 -299v-111
q0 -350 -371 -350h-153z" />
    <glyph glyph-name="four.oldstyle" horiz-adv-x="1243" 
d="M844 352v404l71 153h117v-557h174v-147l-174 -41v-365h-188v365h-735l-70 90l623 1040h217l-560 -942h525z" />
    <glyph glyph-name="five.oldstyle" horiz-adv-x="1263" 
d="M930 390q0 144 -170 149h-283q-67 0 -111 -36t-44 -108h-172l45 899h876v-182h-700l-23 -453q61 64 227 64q165 0 207 -6q117 0 194 -46q142 -85 142 -302v-228q0 -266 -233 -338q-55 -16 -113 -16q-208 0 -320 8t-307 41v144h611q94 0 134 52t40 126v232z" />
    <glyph glyph-name="six.oldstyle" horiz-adv-x="1267" 
d="M313 707q0 -236 35 -349q55 -178 189 -178h264q82 0 113 22q51 35 53 134v223q0 84 -44 116t-120 32h-490zM125 790q0 540 223 679q59 38 129 40q311 8 627 -39v-141h-569q-90 0 -140 -87t-66 -205t-16 -193q295 41 435 41q140 1 192 -11q153 -33 189 -148
q24 -70 24 -157v-258q0 -313 -338 -313h-303q-72 0 -127 20q-193 70 -241 440q-18 140 -19 332z" />
    <glyph glyph-name="seven.oldstyle" horiz-adv-x="1122" 
d="M57 1112v182h947l61 -106l-530 -1393h-218l510 1317h-770z" />
    <glyph glyph-name="eight.oldstyle" horiz-adv-x="1292" 
d="M332 1012q0 -59 30 -98q51 -62 142 -62h293q166 0 166 160v127q0 104 -41 148t-127 44h-271q-102 0 -147 -37t-45 -155v-127zM332 328q0 -148 192 -148h269q73 0 121 38t49 110v194q1 76 -47 116t-117 40h-295q-76 0 -124 -37t-48 -119v-194zM143 324v186q0 172 170 223
q-63 23 -102 73q-66 84 -68 216v133q1 195 97 275t270 79h303q170 0 254 -84t84 -270v-127q0 -133 -70 -195q-35 -32 -84 -42q39 -8 81 -49t57 -114q16 -73 16 -110v-192q0 -220 -161 -290q-79 -36 -179 -36h-301q-102 0 -175 27t-109 61t-56 84q-20 51 -24 82q-3 31 -3 70z
" />
    <glyph glyph-name="nine.oldstyle" horiz-adv-x="1267" 
d="M301 733q0 -82 44 -115t122 -32h489q0 262 -44 372q-26 74 -56 102q-57 52 -123 52h-266q-81 0 -112 -22q-54 -36 -54 -134v-223zM115 725v256q0 313 340 313h301q72 0 128 -19t106 -73q152 -163 154 -698q1 -536 -224 -681q-59 -38 -127 -40q-373 -8 -629 39v141h571
q53 0 93 36q74 66 99 191t29 261q-295 -43 -450 -43t-225 24q-166 58 -166 293z" />
    <glyph glyph-name="questiondown.alt" horiz-adv-x="1107" 
d="M543 1319v135q0 47 49 47h129q23 0 36 -13t13 -34v-135q0 -51 -49 -51h-129q-49 0 -49 51zM76 373v190q0 201 133 284t356 54v201h174v-350q-181 2 -247 0q-226 -7 -230 -189v-180q0 -113 64 -163t202 -50l543 2v-141q-335 -56 -577 -43q-314 0 -396 238q-22 67 -22 147z
" />
    <glyph glyph-name="at.alt" horiz-adv-x="1744" 
d="M641 424q0 -35 35 -66t82 -30q127 -2 317 104v227l-319 -28q-55 -6 -85 -40t-30 -85v-82zM920 1223q125 0 226 -63t99 -234v-752h-133l-33 127l-19 -14q-178 -131 -333 -131q-115 -2 -189 70t-73 177v103q0 129 72 203t202 73h336q2 137 0 138q0 76 -38 102t-122 27h-423
q-145 0 -178 -86q-15 -39 -15 -99v-678q0 -215 193 -215h706q155 0 194 97q17 45 17 118v1018q0 115 -57 175t-154 61h-827v116q276 57 598 56l229 -2q174 -2 278 -104t105 -302v-1018q0 -389 -381 -389h-708q-166 -1 -266 97t-99 286l-2 688q0 212 144 302q81 51 223 53
h428z" />
    <glyph glyph-name="g.salt" horiz-adv-x="1136" 
d="M285 627v-165q0 -129 38 -210q15 -35 37 -52q56 -44 130 -44q127 0 197 14q71 14 147 35v727h-340q-78 0 -125 -47t-66 -125q-18 -77 -18 -133zM472 1102q183 0 550 -51v-1239q0 -186 -106 -284t-246 -85l-520 49v125h509q110 0 153 86q22 43 22 109v251
q-84 -37 -182 -59q-409 -89 -512 206q-44 127 -44 368q0 240 96 382t280 142z" />
    <glyph glyph-name="ampersand.salt" horiz-adv-x="1955" 
d="M590 487h399q68 -1 87 9t24 26q4 16 4 61t-20 61t-95 15h-229q-86 0 -118 -19q-32 -20 -42 -56t-10 -97zM1130 174q135 0 221 57q85 57 85 170v553h-895q-84 0 -127 -4t-80 -21t-49 -51t-13 -94v-178q0 -59 37 -89t92 -30q0 181 88 261t269 79h233q170 0 235 -63
q66 -63 66 -205q0 -141 -68 -190t-235 -50h-399q0 -84 40 -112q40 -29 91 -29l76 -4h333zM84 604v180q0 246 170 309q94 35 285 35h897l37 291h151v-295h293v-129l-293 -41v-553q0 -260 -222 -353q-115 -48 -272 -48h-335q-184 0 -280 58q-114 69 -114 261q-118 0 -213 63
q-47 32 -75 89q-29 57 -29 133z" />
    <glyph glyph-name="a.superior" horiz-adv-x="761" 
d="M209 979q0 -76 84 -76q51 1 111 17t96 34l35 17v159l-244 -22q-82 -8 -82 -80v-49zM688 1296v-522h-106l-45 98q-35 -35 -125 -70q-90 -36 -162 -36t-132 51t-59 133v88q-1 84 55 136t156 51q264 0 265 2q2 53 0 55q0 100 -114 99t-337 -17v100q137 41 352 49
q112 2 182 -51t70 -166z" />
    <glyph glyph-name="b.superior" horiz-adv-x="817" 
d="M442 1376q-86 0 -217 -33v-378q12 -4 54 -21q84 -35 176 -35q141 0 141 230q0 141 -34 189t-120 48zM72 774v1073h153v-391q139 60 231 60q151 1 221 -78q70 -78 73 -301q0 -371 -269 -371q-69 0 -139 32t-117 66l-45 -90h-108z" />
    <glyph glyph-name="c.superior" horiz-adv-x="737" 
d="M219 779q-160 53 -160 347t128 356q58 27 172 27t305 -45v-106q-166 10 -252 10t-102 -2q-56 -7 -76 -58q-21 -52 -21 -160t15 -158t46 -67q60 -33 353 -8l47 5v-109q-84 -29 -159 -37q-211 -23 -296 5z" />
    <glyph glyph-name="d.superior" horiz-adv-x="811" 
d="M352 1376q-74 0 -106 -47t-33 -190q0 -229 139 -230q116 0 228 56v378q-69 23 -90 23l-38 6l-43 4h-57zM59 1137q0 268 112 340q61 39 167 40q107 1 244 -59v393h149v-1077h-106l-45 90q-45 -34 -116 -66t-138 -32q-267 0 -267 371z" />
    <glyph glyph-name="e.superior" horiz-adv-x="800" 
d="M496 1200q88 0 88 55q0 89 -72 105q-37 8 -127 8t-132 -35t-40 -133h283zM59 1114q0 118 13 179q29 145 149 190q101 37 285 20q116 -11 172 -67q57 -57 57 -195q0 -86 -56 -132t-161 -46h-305q0 -96 29 -127t120 -31q268 0 357 13v-107q-154 -47 -391 -47q-96 0 -154 34
q-115 68 -115 316z" />
    <glyph glyph-name="f.superior" horiz-adv-x="663" 
d="M49 1364v113l146 18v137q0 217 208 217q94 0 211 -34v-101l-172 2q-65 4 -79 -25q-15 -29 -15 -81v-107h205v-139h-209v-590h-151v590h-144z" />
    <glyph glyph-name="g.superior" horiz-adv-x="854" 
d="M348 1092h117q117 0 117 145q0 57 -30 93t-87 36h-113q-72 0 -102 -33t-31 -96q-2 -145 129 -145zM213 623q0 -72 34 -87q26 -14 75 -14h190q53 0 75 20t21 70v11q0 59 -66 79q-19 6 -46 11l-226 26l-57 6v-122zM61 598v88l62 82q-59 39 -60 129q0 43 23 82t72 43
q-92 50 -92 198t67 215q68 67 184 66h480v-90l-99 -43q18 -23 28 -69q9 -45 9 -77q0 -129 -77 -204q-60 -62 -173 -64h-221q-53 0 -53 -40t53 -46l287 -32q98 -10 152 -66t55 -147v-17q0 -223 -215 -223h-250q-104 1 -168 55t-64 160z" />
    <glyph glyph-name="h.superior" horiz-adv-x="825" 
d="M72 774v1071h153v-438q10 6 78 49t116 51t85 9q121 0 184 -70t64 -172v-500h-154v479q0 59 -35 90t-105 31t-118 -20t-115 -51v-529h-153z" />
    <glyph glyph-name="i.superior" horiz-adv-x="309" 
d="M74 774v729h153v-729h-153zM66 1622v102q0 39 36 39h105q35 0 35 -39v-102q0 -35 -35 -35h-105q-36 0 -36 35z" />
    <glyph glyph-name="j.superior" horiz-adv-x="313" 
d="M74 401v1100h157v-733q4 -215 -43 -367h-114zM68 1630v101q0 39 36 38h105q35 0 35 -38v-101q0 -37 -35 -37h-105q-36 0 -36 37z" />
    <glyph glyph-name="k.superior" horiz-adv-x="806" 
d="M72 774v1067h153v-598h49l279 252h203l-348 -315l346 -406h-189l-278 334h-62v-334h-153z" />
    <glyph glyph-name="l.superior" horiz-adv-x="475" 
d="M72 1032v811h151v-786q-1 -82 15 -111t63 -41q111 -29 121 -28v-103h-148q-111 0 -156 58q-46 57 -46 200z" />
    <glyph glyph-name="m.superior" horiz-adv-x="1359" 
d="M1135 1247q0 119 -145 119q-118 0 -234 -68v-524h-154v473q0 53 -37 86t-87 33q-95 0 -161 -29q-25 -10 -92 -41v-522h-153v725h112l39 -98q10 6 49 31q40 26 54 32t54 24t115 19q75 -1 134 -31t86 -85q143 117 319 116q112 -1 182 -67t70 -172v-494h-151v473z" />
    <glyph glyph-name="n.superior" horiz-adv-x="825" 
d="M72 774v725h106l45 -92q32 24 93 55t97 41t89 10q123 -1 186 -69t64 -170v-500h-154v479q0 59 -34 90t-85 31t-95 -10t-66 -19t-93 -42v-529h-153z" />
    <glyph glyph-name="o.superior" horiz-adv-x="815" 
d="M383 909q75 0 105 6t57 28q49 40 49 185q0 144 -41 190t-149 46t-150 -46t-41 -189q0 -144 47 -182t123 -38zM59 1132q0 190 77 282q76 91 268 91t267 -91t75 -279t-73 -278q-72 -89 -265 -89q-192 0 -271 87q-78 87 -78 277z" />
    <glyph glyph-name="p.superior" horiz-adv-x="811" 
d="M457 895q69 0 101 49t32 193q0 233 -133 233q-100 0 -236 -57v-385q119 -33 236 -33zM72 397v1108h108l41 -88q37 29 118 63q160 67 271 2q133 -80 133 -351t-128 -345q-54 -31 -132 -30q-133 0 -262 59v-418h-149z" />
    <glyph glyph-name="q.superior" horiz-adv-x="817" 
d="M402 891q66 0 184 33v450h-215q-85 0 -119 -53q-35 -53 -37 -101t-2 -81v-47q0 -70 8 -92q8 -21 20 -45q30 -64 161 -64zM59 1139q0 182 73 278t207 96t398 -36v-1080h-151v416q-132 -61 -220 -61q-155 0 -219 72t-80 196q-8 53 -8 119z" />
    <glyph glyph-name="r.superior" horiz-adv-x="671" 
d="M72 774v725h118l33 -104q110 74 167 93q56 19 121 19t93 -12v-147q-39 8 -115 8t-129 -16t-135 -60v-506h-153z" />
    <glyph glyph-name="s.superior" horiz-adv-x="768" 
d="M494 897h12q18 0 32 15t15 46v46q0 33 -15 48t-57 15h-227q-100 0 -148 44q-47 45 -47 149v69q0 188 195 189q68 0 208 -10t197 -21v-113h-370q-53 0 -67 -15t-13 -52v-43q0 -40 19 -52t61 -12h227q92 0 138 -51t46 -135v-76q0 -184 -182 -184q-106 0 -252 15
q-147 15 -172 22v108h387q7 -2 13 -2z" />
    <glyph glyph-name="t.superior" horiz-adv-x="624" 
d="M51 1364v106l146 27l32 209h119v-203h213v-139h-213v-311q0 -90 13 -113q13 -22 91 -40t83 -17v-107h-136q-109 0 -155 58t-47 196v334h-146z" />
    <glyph glyph-name="u.superior" horiz-adv-x="813" 
d="M70 1010v489h151v-479q0 -55 35 -87t106 -32q71 -1 112 17t108 49v532h151v-725h-106l-45 94q-14 -10 -36 -24t-34 -22q-87 -62 -200 -62q-114 0 -178 74t-64 176z" />
    <glyph glyph-name="v.superior" horiz-adv-x="856" 
d="M47 1499h164l219 -520l213 520h164l-309 -725h-136z" />
    <glyph glyph-name="w.superior" horiz-adv-x="1249" 
d="M47 1499h164l219 -518l209 518h160l-99 -231l125 -289l209 520h164l-307 -725h-133l-135 301l-127 -301h-134z" />
    <glyph glyph-name="x.superior" horiz-adv-x="833" 
d="M49 774l283 367l-283 358h178l191 -244l180 244h180l-272 -358l276 -367h-178l-184 254l-191 -254h-180z" />
    <glyph glyph-name="y.superior" horiz-adv-x="897" 
d="M47 1501h160l199 -532q25 -59 69 -60l209 592h162l-332 -960l-119 -140h-110l141 369q-55 4 -96 46t-62 102z" />
    <glyph glyph-name="z.superior" horiz-adv-x="765" 
d="M59 1358v141h637v-131l-409 -450h407v-142h-612v142l410 440h-433z" />
    <glyph glyph-name="zero.tnum" horiz-adv-x="1265" 
d="M299 354q0 -92 54 -132t134 -40h299q180 0 181 170v795q0 170 -179 170h-303q-96 0 -141 -49t-45 -121v-793zM111 340v815q0 166 100 255t260 89h336q263 0 330 -211q18 -59 18 -129v-819q0 -174 -92 -257t-256 -83h-336q-218 0 -310 144q-50 79 -50 196z" />
    <glyph glyph-name="one.tnum" horiz-adv-x="1251" 
d="M791 1499v-1323h323v-176h-852v176h338v1120l-352 -104v129l354 178h189z" />
    <glyph glyph-name="two.tnum" horiz-adv-x="1259" 
d="M106 1335v140q317 45 623 45q247 0 362 -190q62 -102 62 -230t-59 -252q-58 -124 -138 -219q-195 -235 -489 -447h686v-182h-1032v170q394 260 670 568q170 189 172 345q1 115 -63 184t-198 68h-596z" />
    <glyph glyph-name="three.tnum" horiz-adv-x="1259" 
d="M610 -14q-306 0 -471 57v127h586q166 0 201 82q16 37 16 94v107q0 193 -205 198l-471 17v147l471 21q209 10 209 188v123q0 61 -31 101q-57 73 -178 73h-610v125q151 56 417 58q110 1 236 -1q166 -2 260 -97t95 -247v-133q0 -225 -142 -281q141 -80 142 -299v-110
q0 -350 -371 -350h-154z" />
    <glyph glyph-name="four.tnum" horiz-adv-x="1275" 
d="M860 557v404l72 153h117v-557h176v-147l-176 -41v-365h-189v365h-737l-70 90l627 1040h217l-561 -942h524z" />
    <glyph glyph-name="five.tnum" horiz-adv-x="1263" 
d="M145 184h611q94 0 134 52t40 126v233q0 55 -22 85q-47 63 -148 63h-283q-67 1 -111 -35t-44 -108h-172l45 899h876v-182h-700l-23 -453q68 72 324 63q98 -3 110 -5q175 0 256 -96q80 -96 80 -253v-227q0 -100 -34 -173t-89 -111q-101 -70 -223 -70q-208 0 -320 8t-307 41
v143z" />
    <glyph glyph-name="six.tnum" horiz-adv-x="1261" 
d="M305 707q0 -242 35 -352q56 -175 188 -175h265q82 0 113 22q52 37 52 134v223q0 84 -43 116t-120 32h-490zM270 91q-153 156 -153 699t224 679q60 38 128 40q301 8 627 -39v-141h-570q-92 0 -139 -87t-65 -202q-17 -114 -17 -196q295 41 435 41q140 1 193 -11
q148 -32 188 -148q24 -70 24 -157v-258q0 -313 -338 -313h-301q-74 0 -129 20t-107 73z" />
    <glyph glyph-name="seven.tnum" horiz-adv-x="1263" 
d="M129 1317v182h946l62 -106l-533 -1393h-215l510 1317h-770z" />
    <glyph glyph-name="eight.tnum" horiz-adv-x="1265" 
d="M319 1012q1 -86 53 -123t120 -37h292q164 0 164 160v127q0 104 -41 148t-127 44h-270q-102 0 -146 -37t-45 -155v-127zM492 678q-171 0 -173 -156v-194q0 -148 191 -148h268q72 0 121 38t49 110v194q0 76 -46 116t-118 40h-292zM131 324v186q0 172 170 223
q-63 23 -103 73q-67 84 -67 216v133q0 195 96 275t271 79h301q170 0 254 -84t84 -270v-127q0 -132 -69 -195q-34 -32 -85 -42q41 -8 73 -39t55 -92t26 -142v-192q0 -219 -160 -290q-77 -36 -180 -36h-301q-100 0 -174 27t-110 61t-55 84q-19 51 -23 82q-3 31 -3 70z" />
    <glyph glyph-name="nine.tnum" horiz-adv-x="1261" 
d="M303 948q0 -82 44 -114t122 -33h487v70q0 456 -221 456h-266q-79 0 -111 -20q-54 -34 -55 -136v-223zM117 940v256q0 313 338 313h303q72 0 127 -19q55 -18 106 -72t84 -141q68 -179 70 -556q0 -539 -223 -683q-59 -38 -129 -40q-365 -8 -627 39v141h569q53 0 94 36
q74 65 101 197q26 131 26 255q-295 -43 -450 -43q-155 1 -224 25q-165 58 -165 292z" />
    <glyph glyph-name="zero.tosf" horiz-adv-x="1265" 
d="M299 354q0 -92 54 -132t134 -40h299q180 0 181 170v588q0 170 -179 170h-303q-96 0 -141 -48t-45 -122v-586zM111 340v608q0 166 100 255t260 89h336q180 0 264 -93t84 -247v-612q0 -174 -92 -257t-256 -83h-336q-218 0 -310 144q-50 79 -50 196z" />
    <glyph glyph-name="one.tosf" horiz-adv-x="1255" 
d="M786 1294v-1118h308v-176h-818v176h322v916l-330 -101v129l330 174h188z" />
    <glyph glyph-name="two.tosf" horiz-adv-x="1257" 
d="M106 1124v140q352 53 623 45q213 1 317 -101t105 -286q0 -96 -58 -202q-57 -106 -139 -188t-211 -182t-256 -168h656v-182h-1024v170q299 168 402 240q226 157 333 277t107 230q1 111 -61 161t-200 46h-594z" />
    <glyph glyph-name="three.tosf" horiz-adv-x="1259" 
d="M1135 831q0 -227 -142 -282q141 -80 142 -297v-113q0 -350 -371 -350h-112q-98 0 -138 2t-82 3q-128 3 -293 52v127h586q166 0 201 82q16 37 16 95v106q0 193 -205 201l-471 14v150l471 20q209 8 209 186v123q0 60 -31 102q-53 72 -178 72h-610v125q156 58 417 60
q110 0 236 -2q166 -1 260 -97t95 -247v-132z" />
    <glyph glyph-name="four.tosf" horiz-adv-x="1275" 
d="M860 352v404l72 153h117v-557h176v-147l-176 -41v-365h-189v365h-737l-70 90l627 1040h217l-561 -942h524z" />
    <glyph glyph-name="five.tosf" horiz-adv-x="1263" 
d="M594 723q164 0 209 -6q117 0 193 -46q142 -86 143 -302v-228q0 -267 -234 -338q-55 -16 -112 -16q-209 0 -321 8t-306 41v144h610q94 0 134 52t40 126v232q0 56 -22 86q-22 29 -53 45t-95 18h-282q-66 0 -111 -36t-45 -108h-172l45 899h877v-182h-701l-22 -453
q61 64 225 64z" />
    <glyph glyph-name="six.tosf" horiz-adv-x="1261" 
d="M305 707q0 -242 35 -352q56 -175 188 -175h265q82 0 113 22q52 37 52 134v223q0 84 -43 116t-120 32h-490zM270 91q-153 156 -153 699t224 679q60 38 128 40q301 8 627 -39v-141h-570q-92 0 -139 -87t-65 -202q-17 -114 -17 -196q295 41 435 41q140 1 193 -11
q148 -32 188 -148q24 -70 24 -157v-258q0 -313 -338 -313h-301q-74 0 -129 20t-107 73z" />
    <glyph glyph-name="seven.tosf" horiz-adv-x="1263" 
d="M129 1112v182h946l62 -106l-533 -1393h-215l510 1317h-770z" />
    <glyph glyph-name="eight.tosf" horiz-adv-x="1265" 
d="M319 1012q1 -86 53 -123t120 -37h292q164 0 164 160v127q0 104 -41 148t-127 44h-270q-102 0 -146 -37t-45 -155v-127zM492 678q-171 0 -173 -156v-194q0 -148 191 -148h268q72 0 121 38t49 110v194q0 76 -46 116t-118 40h-292zM131 324v186q0 172 170 223
q-63 23 -103 73q-67 84 -67 216v133q0 195 96 275t271 79h301q170 0 254 -84t84 -270v-127q0 -132 -69 -195q-34 -32 -85 -42q41 -8 73 -39t55 -92t26 -142v-192q0 -219 -160 -290q-77 -36 -180 -36h-301q-100 0 -174 27t-110 61t-55 84q-19 51 -23 82q-3 31 -3 70z" />
    <glyph glyph-name="nine.tosf" horiz-adv-x="1261" 
d="M303 733q0 -82 44 -115t122 -32h487q0 354 -85 457q-55 69 -136 69h-266q-81 0 -112 -22q-54 -36 -54 -134v-223zM117 725v256q0 313 338 313h303q72 0 127 -19t106 -73t84 -140q68 -179 70 -556q0 -539 -223 -683q-59 -38 -129 -40q-373 -8 -627 39v141h569q53 0 94 36
q74 65 101 197q26 131 26 255q-295 -43 -450 -43t-224 24q-165 58 -165 293z" />
    <glyph glyph-name="gbreve.salt" horiz-adv-x="1136" 
d="M285 627v-165q0 -129 38 -210q41 -96 182 -96q89 0 153 9t176 40v727h-340q-78 0 -125 -47t-66 -125q-18 -77 -18 -133zM472 1102q183 0 550 -51v-1239q0 -186 -106 -284t-246 -85l-520 49v125h509q110 0 153 86q22 43 22 109v251q-84 -37 -182 -59q-409 -89 -512 206
q-44 127 -44 368q0 240 96 382t280 142zM365 1450h102q0 -55 39 -93t95 -38t94 36t38 95h103q0 -109 -72 -171t-165 -62t-164 64q-70 65 -70 169z" />
    <glyph glyph-name="gdotaccent.salt" horiz-adv-x="1136" 
d="M285 627v-165q0 -129 38 -210q41 -96 182 -96q89 0 153 9t176 40v727h-340q-78 0 -125 -47t-66 -125q-18 -77 -18 -133zM472 1102q183 0 550 -51v-1239q0 -186 -106 -284t-246 -85l-520 49v125h509q110 0 153 86q22 43 22 109v251q-84 -37 -182 -59q-409 -89 -512 206
q-44 127 -44 368q0 240 96 382t280 142zM657 1442q46 0 48 -51v-123q0 -47 -48 -47h-114q-23 -1 -36 13t-13 34v123q0 51 49 51h114z" />
    <glyph glyph-name="gcircumflex.salt" horiz-adv-x="1136" 
d="M285 627v-165q0 -129 38 -210q41 -96 182 -96q89 0 153 9t176 40v727h-340q-78 0 -125 -47t-66 -125q-18 -77 -18 -133zM472 1102q183 0 550 -51v-1239q0 -186 -106 -284t-246 -85l-520 49v125h509q110 0 153 86q22 43 22 109v251q-84 -37 -182 -59q-409 -89 -512 206
q-44 127 -44 368q0 240 96 382t280 142zM305 1217l236 270h164l208 -270h-157l-140 139l-151 -139h-160z" />
    <glyph glyph-name="c_t" horiz-adv-x="1755" 
d="M76 546q0 380 146 486q79 58 216 60h795l39 301h149v-303h297v-175h-297v-514q0 -169 45 -203q20 -15 118 -40t102 -25v-131h-183q-143 0 -207 87q-63 87 -63 300v526h-762q-43 0 -69 -4t-56 -24q-82 -56 -82 -338q0 -175 22 -255t64 -107q42 -28 151 -27q110 1 353 14
l72 6v-133q-197 -59 -490 -61q-183 0 -257 96q-30 39 -54 98q-49 116 -49 366z" />
    <glyph glyph-name="t_t" horiz-adv-x="1519" 
d="M39 920v127l194 43l41 303h148v-303h575l41 303h148v-303h297v-170h-297v-519q0 -170 46 -202q19 -14 117 -40t101 -26v-131h-180q-145 0 -209 87q-63 87 -64 300v531h-575v-519q0 -172 45 -202q19 -14 117 -40t102 -26v-131h-182q-96 0 -155 37q-116 74 -116 350v531
h-194z" />
    <glyph glyph-name="f_t" horiz-adv-x="1564" 
d="M39 918v135l194 34v203q0 146 42 210q68 107 216 109q148 1 295 -48v-119l-235 2q-95 0 -112 -43t-17 -129v-182h620l39 303h150v-303h297v-170h-297v-519q0 -172 45 -202q20 -14 117 -40t102 -26v-131h-182q-143 0 -207 87q-63 87 -64 300v531h-624v-920h-189v918h-190z
" />
    <glyph glyph-name="t_y" horiz-adv-x="1947" 
d="M711 920h-289v-519q0 -172 45 -202q19 -14 117 -40t102 -26v-131h-182q-96 0 -155 37q-116 74 -116 350v531h-194v127l194 43l41 303h148v-303h311q177 0 244 -55q39 -33 59 -71t45 -110l209 -592q34 -80 104 -80h25l285 905h207l-449 -1431l-155 -209h-131l194 553
q-129 0 -214 118q-36 50 -60 122l-197 551q-23 69 -63 99t-125 30z" />
    <glyph glyph-name="f_y" horiz-adv-x="1996" 
d="M39 918v135l194 34v203q0 146 42 210q68 107 229 110q75 0 124 -16q50 -16 63 -19q13 -4 49 -16t46 -15v-121l-235 21q-94 8 -114 -45q-15 -40 -15 -127v-185h342q217 0 290 -96q34 -45 66 -137l219 -590q20 -82 114 -82q5 0 13 2l285 906h207l-449 -1432l-157 -209h-131
l196 553q-62 0 -102 22q-126 67 -172 218l-205 549q-23 67 -66 97t-129 30h-325v-918h-189v918h-190z" />
    <glyph glyph-name="gcommaaccent.salt" horiz-adv-x="1136" 
d="M285 627v-165q0 -129 38 -210q15 -35 37 -52q56 -44 130 -44q127 0 197 14q71 14 147 35v727h-340q-78 0 -125 -47t-66 -125q-18 -77 -18 -133zM472 1102q183 0 550 -51v-1239q0 -186 -106 -284t-246 -85l-520 49v125h509q110 0 153 86q22 43 22 109v251
q-84 -37 -182 -59q-409 -89 -512 206q-44 127 -44 368q0 240 96 382t280 142zM682 1522q-57 0 -57 -56v-41h20q47 0 47 -45v-116q0 -49 -47 -50h-110q-43 1 -43 50v182q0 51 19 85t48 45q61 23 105 15l18 -2v-67z" />
    <glyph glyph-name="exclam.smcp" horiz-adv-x="552" 
d="M168 1167h211l-19 -815h-176zM340 233q47 0 47 -51v-135q0 -47 -47 -47h-131q-23 0 -36 14t-13 33v135q0 51 49 51h131z" />
    <glyph glyph-name="quotedbl.smcp" horiz-adv-x="811" 
d="M465 1284h184v-137l-20 -275h-142l-22 275v137zM162 1284h186v-137l-20 -275h-142l-24 275v137z" />
    <glyph glyph-name="numbersign.smcp" horiz-adv-x="1181" 
d="M442 473h238l37 227h-238zM39 344l18 129h252l39 227h-254l19 129h256l59 345h131l-59 -345h239l56 345h131l-56 -345h277l-19 -129h-278l-39 -227h279l-19 -129h-280l-60 -346h-131l57 346h-235l-60 -346h-131l58 346h-250z" />
    <glyph glyph-name="dollar.smcp" horiz-adv-x="1036" 
d="M748 362q0 95 -88 122q-28 9 -60 10h-174q-174 0 -252 80t-78 212v66q0 319 348 326v137h146v-144q68 -4 305 -32v-142q-397 2 -459 2q-62 1 -106 -29q-45 -30 -45 -118v-59q0 -125 159 -125h177q157 0 237 -91t80 -210v-76q0 -160 -100 -236t-248 -69v-133h-146v139
q-293 29 -311 33v139l455 -2q61 0 110 30t50 101v69z" />
    <glyph glyph-name="percent.smcp" horiz-adv-x="1726" 
d="M1184 268q0 -70 24 -94t95 -22h94q79 0 101 24t22 92v123q0 69 -26 93t-93 24h-94q-78 0 -101 -24t-22 -93v-123zM1032 258v143q0 135 58 197t208 61h109q147 0 205 -61t59 -197v-143q0 -134 -58 -196t-210 -62h-109q-189 0 -238 113q-24 55 -24 145zM440 0l682 1167h162
l-680 -1167h-164zM207 774q1 -68 25 -92t94 -25h94q80 0 102 25t21 92v125q0 90 -47 108q-25 9 -72 9h-94q-78 0 -101 -24t-22 -93v-125zM55 766v143q1 135 59 197t210 61h108q146 0 204 -61t58 -197v-143q0 -136 -58 -198t-208 -62h-109q-147 0 -205 62t-59 198z" />
    <glyph glyph-name="ampersand.smcp" horiz-adv-x="1175" 
d="M246 332q6 -96 98 -150q35 -20 84 -17t90 46l129 125l-190 233l-138 -108q-77 -62 -73 -129zM852 999h-352q-166 0 -56 -135l336 -409l178 153l64 -71l-86 -172l-49 -48l243 -317h-215l-159 199l-133 -129q-63 -60 -151 -78t-180 16q-94 34 -157 121q-88 127 -68 247
q19 120 138 218l139 117l-82 102q-114 142 -28 270q47 68 131 82q211 33 487 -32v-134z" />
    <glyph glyph-name="quotesingle.smcp" horiz-adv-x="509" 
d="M162 1284h186v-137l-20 -275h-144l-22 275v137z" />
    <glyph glyph-name="asterisk.smcp" horiz-adv-x="890" 
d="M508 844l244 153l47 -77l-189 -199zM416 641l88 135l225 -188l-49 -74zM354 1143l88 33l150 -244l-146 -62zM227 520l52 279l153 -37l-121 -268zM96 831v91l285 57l8 -158z" />
    <glyph glyph-name="zero.smcp" horiz-adv-x="1185" 
d="M322 348q0 -88 52 -127t130 -39h190q170 0 170 166v469q0 76 -37 122t-135 46h-190q-180 0 -180 -168v-469zM133 332v504q0 112 49 188q93 146 303 143h226q228 0 307 -159q35 -72 35 -172v-504q0 -332 -342 -332h-226q-245 0 -323 177q-29 67 -29 155z" />
    <glyph glyph-name="one.smcp" horiz-adv-x="696" 
d="M545 1171v-1171h-189v969l-280 -101v129l280 174h189z" />
    <glyph glyph-name="two.smcp" horiz-adv-x="1048" 
d="M549 1171q406 0 405 -389q0 -90 -42 -179t-99 -151t-154 -136t-217 -134h504v-182h-856v170q45 35 202 125t287 191q179 140 179 296q0 109 -56 160t-192 47l-434 -2v133q57 8 174 30q118 22 299 21z" />
    <glyph glyph-name="three.smcp" horiz-adv-x="1042" 
d="M422 -10q-232 0 -354 43v137h481q72 0 116 27t44 104v47q0 80 -41 111t-111 33l-391 10v160l391 8q82 0 119 28t37 107v61q0 127 -156 127h-500v135q158 55 566 46q87 -2 151 -46q128 -86 127 -249v-66q0 -120 -48 -186q-24 -33 -58 -45q106 -61 106 -242v-51
q0 -187 -125 -260q-66 -39 -164 -39h-190z" />
    <glyph glyph-name="four.smcp" horiz-adv-x="1118" 
d="M721 461v313l76 160h112v-473h172v-150l-172 -37v-270h-188v270h-608l-74 95l444 798h215l-387 -706h410z" />
    <glyph glyph-name="five.smcp" horiz-adv-x="1103" 
d="M145 188h502q93 0 125 37t31 103v104q-1 73 -15 86q-14 12 -37 28t-102 17h-188q-61 0 -101 -34t-41 -103h-172l35 741h756v-182h-580l-14 -317q57 66 133 65h189q172 0 248 -77t77 -222v-123q0 -163 -91 -237q-92 -74 -250 -76t-272 7t-233 42v141z" />
    <glyph glyph-name="six.smcp" horiz-adv-x="1118" 
d="M313 537v-41q0 -84 5 -107l13 -62q7 -39 19 -59t28 -44q28 -44 95 -44h232q83 0 104 51q8 23 8 56v159q0 53 -26 72q-27 18 -86 19h-392zM125 592q0 245 51 370q89 213 273 218q262 2 520 -31v-152h-502q-47 0 -87 -41t-61 -181q-6 -46 -6 -91q184 25 416 25
q276 0 277 -263v-176q0 -139 -82 -205q-82 -67 -201 -67h-262q-124 0 -198 69q-138 125 -138 525z" />
    <glyph glyph-name="seven.smcp" horiz-adv-x="974" 
d="M57 985v182h799l62 -106l-406 -1061h-207l379 985h-627z" />
    <glyph glyph-name="eight.smcp" horiz-adv-x="1173" 
d="M332 788q0 -111 117 -110h282q77 0 97 36q18 28 18 72v86q0 78 -26 103t-91 24h-264q-73 0 -96 -13q-25 -13 -31 -40t-6 -74v-84zM332 279q0 -57 28 -79t107 -22h258q119 0 119 101v116q0 111 -115 111h-280q-55 0 -87 -24t-30 -85v-118zM143 266v144q0 84 44 114
q44 31 94 45q-132 43 -138 230v88q0 163 70 227t213 64h340q266 0 266 -291v-88q0 -168 -119 -191q41 -8 69 -44q50 -64 50 -154v-144q0 -214 -192 -259q-35 -7 -72 -7h-344q-163 0 -222 74t-59 192z" />
    <glyph glyph-name="nine.smcp" horiz-adv-x="1118" 
d="M303 731q0 -53 26 -71t87 -19h391v41q0 80 -5 105q-5 26 -13 69t-36 82t-52 49t-54 10h-231q-57 1 -85 -21t-28 -87v-158zM115 729v178q0 204 175 257q50 15 107 16h262q192 0 272 -178q64 -143 64 -439q0 -361 -143 -494q-76 -71 -174 -71q-336 -4 -526 31v151h501
q47 0 87 41t61 181q6 46 6 92q-186 -25 -416 -25q-276 0 -276 260z" />
    <glyph glyph-name="question.smcp" horiz-adv-x="946" 
d="M279 47v135q0 51 49 51h127q51 0 51 -51v-135q0 -47 -51 -47h-127q-23 0 -36 14t-13 33zM39 989v150q299 43 471 35q115 0 198 -41q164 -81 164 -291v-84q0 -156 -116 -236t-277 -51v-119h-174v271q139 -2 209 1t120 35q50 33 50 97v80q0 154 -186 153h-459z" />
    <glyph glyph-name="at.smcp" horiz-adv-x="1740" 
d="M639 376q0 -40 2 -42q0 -33 35 -64t82 -30q125 -2 315 104v227l-319 -28q-55 -6 -85 -40t-28 -87q-2 0 -2 -40zM1077 213q-181 -145 -350 -145q-117 -4 -191 68t-71 179v103q0 129 71 203t201 73h336q2 137 0 137q0 76 -38 103t-122 27h-424q-144 0 -177 -87
q-15 -39 -15 -98v-678q0 -215 192 -215h707q155 0 194 97q17 45 17 118v1018q0 115 -57 174t-154 60h-827v118q276 57 598 56h229q174 -2 278 -104t105 -304v-1018q0 -389 -381 -389h-709q-166 -1 -265 97t-99 286v688q0 166 88 259q37 38 109 67t167 29h429q125 0 225 -63
t100 -234v-752h-133z" />
    <glyph glyph-name="a.smcp" horiz-adv-x="1218" 
d="M453 465h331l-157 448zM68 0l458 1167h203l424 -1167h-203l-112 291h-449l-119 -291h-202z" />
    <glyph glyph-name="b.smcp" horiz-adv-x="1118" 
d="M342 688h348q113 0 137 66q12 33 13 94q0 145 -150 145h-348v-305zM342 178h348q114 0 140 76q14 34 14 104t-35 116t-119 46q-287 -2 -348 0v-342zM1028 850q0 -193 -137 -254q59 -24 101 -90t42 -174q0 -332 -338 -332h-542v1169h542q252 0 316 -198q16 -53 16 -121z
" />
    <glyph glyph-name="c.smcp" horiz-adv-x="1060" 
d="M229 1069q106 115 303 115q88 0 236 -16t227 -38v-143q-27 6 -189 15t-255 10q-147 0 -203 -100t-55 -332q0 -231 64 -322q64 -92 194 -94l444 24v-139q-233 -57 -463 -57q-110 0 -190 37t-124 92q-114 142 -114 476q0 333 125 472z" />
    <glyph glyph-name="d.smcp" horiz-adv-x="1224" 
d="M342 180h322q157 0 213 115q55 115 55 305q0 191 -73 291t-195 100h-322v-811zM154 0v1171h518q104 -3 185 -39t129 -94q134 -163 134 -449q0 -285 -88 -418q-57 -87 -120 -120q-97 -51 -240 -51h-518z" />
    <glyph glyph-name="e.smcp" horiz-adv-x="1054" 
d="M154 182v791q0 96 60 146t165 50q561 -20 590 -26v-150h-561q-42 0 -54 -14t-12 -53v-252l561 -17v-149l-561 -14v-252q0 -42 17 -54t57 -12h553v-149q-23 -7 -482 -25l-149 -6q-84 0 -134 50t-50 136z" />
    <glyph glyph-name="f.smcp" horiz-adv-x="1054" 
d="M154 0v973q0 96 59 146t166 50q561 -20 590 -26v-152h-561q-45 0 -54 -14t-12 -51v-264l561 -17v-149l-561 -15v-481h-188z" />
    <glyph glyph-name="g.smcp" horiz-adv-x="1177" 
d="M194 1031q90 155 341 155q159 0 305 -20q147 -20 204 -31v-148q-256 25 -479 25q-104 0 -159 -32q-113 -66 -113 -378q0 -313 147 -405q49 -31 133 -31q85 0 181 35t131 69v213h-322v117q174 47 373 47q63 0 137 -6v-641h-143l-39 90q-147 -104 -359 -104
q-303 0 -396 332q-32 114 -32 337q0 221 90 376z" />
    <glyph glyph-name="h.smcp" horiz-adv-x="1218" 
d="M154 -2v1169h188v-512h576v512h188v-1169h-188v473h-576v-473h-188z" />
    <glyph glyph-name="i.smcp" horiz-adv-x="454" 
d="M154 0v1167h188v-1167h-188z" />
    <glyph glyph-name="j.smcp" horiz-adv-x="681" 
d="M381 1167h188v-829q0 -231 -118 -301q-99 -51 -201 -46t-182 52l6 141q100 -14 167 -11q136 6 140 189v805z" />
    <glyph glyph-name="k.smcp" horiz-adv-x="1153" 
d="M154 -2v1169h184v-508h141l381 508h227l-444 -594l444 -575h-227l-385 485h-137v-485h-184z" />
    <glyph glyph-name="l.smcp" horiz-adv-x="1019" 
d="M154 195v972h188v-917q-2 -45 18 -56t72 -12h522v-182h-606q-90 0 -142 50t-52 145z" />
    <glyph glyph-name="m.smcp" horiz-adv-x="1519" 
d="M104 0l113 1169h238l309 -874l309 874h234l108 -1169h-184l-80 858l-297 -858h-174l-303 858l-90 -858h-183z" />
    <glyph glyph-name="n.smcp" horiz-adv-x="1232" 
d="M154 0v1169h182l598 -823v823h186v-1169h-180l-598 831v-831h-188z" />
    <glyph glyph-name="o.smcp" horiz-adv-x="1241" 
d="M339 284q46 -88 159 -105q48 -7 106 -7t114 2t81 19q26 16 53 34q27 19 41 51q41 95 48 164q7 70 7 138t-3 118q-3 49 -11 88t-15 69q-7 29 -25 51t-30 37t-37 25t-41 16q-35 11 -87 11h-112q-61 0 -103 -7t-95 -43q-96 -65 -96 -319t46 -342zM205 130q-101 127 -101 467
t133 466q69 67 157 91t243 24q154 0 241 -29q86 -29 126 -70t72 -105q58 -120 60 -394q1 -274 -81 -419q-100 -171 -418 -171q-172 0 -268 27q-96 28 -164 113z" />
    <glyph glyph-name="p.smcp" horiz-adv-x="1081" 
d="M305 612h357q110 0 135 86q12 40 13 104t-22 107q-43 80 -126 80h-357v-377zM115 0v1165h559q124 0 218 -75q106 -87 106 -273q0 -96 -24 -171q-22 -75 -52 -114q-30 -38 -77 -60q-48 -22 -83 -26q-36 -4 -64 -5t-211 13l-182 13v-467h-190z" />
    <glyph glyph-name="q.smcp" horiz-adv-x="1241" 
d="M563 -68h123q99 -87 222 -73q52 6 118 28v-182q-110 -46 -282 11q-69 24 -120 81t-61 135zM339 284q46 -88 159 -105q48 -7 106 -7t114 2t81 19q26 16 53 34q27 19 41 51q41 95 48 164q7 70 7 138t-3 118q-3 49 -11 88t-15 69q-7 29 -25 51t-30 37t-37 25t-41 16
q-35 11 -87 11h-112q-61 0 -103 -7t-95 -43q-96 -65 -96 -319t46 -342zM205 130q-101 127 -101 467t133 466q69 67 157 91t243 24q154 0 241 -29q86 -29 126 -70t72 -105q58 -120 60 -394q1 -274 -81 -419q-100 -171 -418 -171q-172 0 -268 27q-96 28 -164 113z" />
    <glyph glyph-name="r.smcp" 
d="M662 612q147 0 147 209q0 126 -88 161q-31 11 -59 11h-359v-381h359zM115 0v1169h553q121 0 216 -63q114 -77 114 -303q0 -127 -52 -225q-51 -98 -162 -111l267 -467h-209l-244 446q-291 22 -295 29v-475h-188z" />
    <glyph glyph-name="s.smcp" horiz-adv-x="1118" 
d="M1014 254q0 -274 -273 -274q-111 0 -325 13t-266 34v137q373 -8 571 -8q35 0 61 24t35 51l8 25v125q0 53 -22 78q-23 25 -82 24h-328q-153 0 -221 67t-68 212v115q0 297 293 297q89 0 275 -14t286 -30v-141q-340 10 -546 10q-119 0 -119 -125v-106q0 -78 35 -93
q24 -11 84 -11h329q137 0 205 -77t68 -202v-131z" />
    <glyph glyph-name="t.smcp" horiz-adv-x="1058" 
d="M68 985v182h925v-182h-368v-985h-189v985h-368z" />
    <glyph glyph-name="u.smcp" horiz-adv-x="1247" 
d="M154 1167h190v-635q-7 -243 93 -314q46 -33 105 -39q58 -7 120 -7q134 0 208 70t74 290v635h191v-635q0 -380 -210 -488q-107 -54 -269 -54q-228 0 -322 60t-139 172t-41 310v635z" />
    <glyph glyph-name="v.smcp" horiz-adv-x="1226" 
d="M68 1167h202l351 -903l337 903h203l-438 -1167h-205z" />
    <glyph glyph-name="w.smcp" horiz-adv-x="1740" 
d="M68 1167h202l318 -907l301 907h203l-127 -379l211 -528l307 907h192l-399 -1167h-203l-199 510l-176 -510h-211z" />
    <glyph glyph-name="x.smcp" horiz-adv-x="1167" 
d="M68 0l399 584l-395 583h237l277 -422l278 422h240l-402 -583l396 -584h-230l-284 422l-285 -422h-231z" />
    <glyph glyph-name="y.smcp" horiz-adv-x="1173" 
d="M684 -2h-188v395l-428 774h204l320 -575l309 575h207l-424 -774v-395z" />
    <glyph glyph-name="z.smcp" horiz-adv-x="1017" 
d="M68 0v182l637 803h-637v182h884v-182l-626 -803h626v-182h-884z" />
    <glyph glyph-name="grave.smcp" horiz-adv-x="495" 
d="M39 1364h209l211 -277h-154z" />
    <glyph glyph-name="aogonek.smcp" horiz-adv-x="1241" 
d="M453 465h331l-157 448zM68 0l458 1167h203l424 -1167h-51q-121 -100 -114 -170t124 -72v-131q-68 -12 -129 11q-61 24 -93 66q-78 103 -5 202q41 55 129 94h-64l-112 291h-449l-119 -291h-202z" />
    <glyph glyph-name="rcommaaccent.smcp" 
d="M303 612h359q63 0 105 44t42 167t-88 159q-31 11 -59 11h-359v-381zM115 0v1169h553q121 0 216 -63q114 -77 114 -303q0 -127 -52 -225q-51 -98 -160 -111l265 -467h-209l-244 446q-47 2 -170 14t-125 15v-475h-188zM465 -451q57 0 57 54v41h-20q-45 0 -45 47v116
q0 49 45 50h110q45 0 45 -50v-184q0 -51 -23 -91q-36 -63 -169 -50v67z" />
    <glyph glyph-name="itilde.smcp" horiz-adv-x="454" 
d="M154 0v1167h188v-1167h-188zM216 1328q-65 34 -113 34t-103 -30t-76 -42l-45 92q109 103 185 126q77 23 165 -20q87 -42 111 -44q55 -2 188 76l45 -97q-32 -32 -106 -84q-73 -52 -129 -49q-57 4 -122 38z" />
    <glyph glyph-name="lcommaaccent.smcp" horiz-adv-x="1019" 
d="M154 195v972h188v-917q-2 -45 18 -56t72 -12h522v-182h-606q-90 0 -142 50t-52 145zM475 -309v116q0 49 45 50h111q45 0 45 -50v-184q0 -51 -25 -92t-100 -51q-29 -4 -47 0l-21 2v67q38 0 48 16t10 38v41h-21q-45 0 -45 47z" />
    <glyph glyph-name="dieresis.smcp" horiz-adv-x="927" 
d="M618 1179q0 119 120 119q34 0 65 -32t31 -76q0 -45 -31 -77t-76 -32t-77 32t-32 66zM96 1190q0 45 32 77q32 31 77 31t76 -32t31 -76q0 -45 -32 -77q-30 -32 -75 -32t-77 32t-32 77z" />
    <glyph glyph-name="scaron.smcp" horiz-adv-x="1118" 
d="M1014 254q0 -274 -273 -274q-111 0 -325 13t-266 34v137q373 -8 571 -8q35 0 61 24t35 51l8 25v125q0 53 -22 78q-23 25 -82 24h-328q-153 0 -221 67t-68 212v115q0 297 293 297q111 0 303 -16q191 -16 258 -28v-141q-340 10 -546 10q-119 0 -119 -125v-104
q0 -89 48 -101q19 -5 31 -5h369q137 0 205 -77t68 -202v-131zM252 1565h160l155 -140l135 140h158l-213 -269h-164z" />
    <glyph glyph-name="emacron.smcp" horiz-adv-x="1054" 
d="M154 182v791q0 129 105 175q50 22 120 21q561 -20 590 -26v-152h-561q-42 0 -54 -13t-12 -52v-252l561 -17v-149l-561 -14v-252q0 -42 17 -54t57 -12h553v-149q-23 -7 -482 -25l-149 -6q-84 0 -134 50t-50 136zM287 1294v138h598v-138h-598z" />
    <glyph glyph-name="gcommaaccent.smcp" horiz-adv-x="1177" 
d="M518 -309v114q0 51 45 52h111q45 0 45 -52v-182q0 -130 -124 -144q-28 -3 -48 -1l-21 4v67q58 -4 58 54v41h-21q-45 0 -45 47zM1073 0h-143l-39 74q-123 -88 -346 -88q-441 2 -441 600q0 454 235 560q89 40 195 41t264 -15q157 -16 246 -37v-148l-444 27q-86 0 -139 -16
q-118 -35 -150 -190q-16 -83 -16 -227q0 -238 77 -323t203 -88q221 -10 310 72v239h-348v119q176 47 399 47q63 0 137 -6v-641z" />
    <glyph glyph-name="tbar.smcp" horiz-adv-x="1001" 
d="M39 985v182h926v-182h-369v-276h195v-117h-195v-592h-188v592h-203v117h203v276h-369z" />
    <glyph glyph-name="zcaron.smcp" horiz-adv-x="1017" 
d="M68 0v182l637 803h-637v182h884v-182l-626 -803h626v-182h-884zM205 1561h160l155 -140l135 140h158l-211 -271h-164z" />
    <glyph glyph-name="macron.smcp" horiz-adv-x="788" 
d="M96 1071v137h598v-137h-598z" />
    <glyph glyph-name="degree.smcp" horiz-adv-x="604" 
d="M199 956q1 -44 31 -74t73 -30t74 31t31 73t-31 74q-31 31 -74 31t-73 -31t-31 -74zM96 956q0 88 60 150t147 61q87 0 147 -61q60 -62 60 -150t-60 -149t-146 -61t-148 60q-60 62 -60 150z" />
    <glyph glyph-name="acute.smcp" horiz-adv-x="495" 
d="M39 1087l209 277h211l-266 -277h-154z" />
    <glyph glyph-name="caron.smcp" horiz-adv-x="796" 
d="M96 1409h137l158 -174l170 174h141l-233 -322h-164z" />
    <glyph glyph-name="eng.smcp" horiz-adv-x="1232" 
d="M152 0v1169h182l598 -823v823h186v-1290q-4 -151 -114 -233t-291 -80v147q85 0 153 46t68 130v117l-594 825v-831h-188z" />
    <glyph glyph-name="amacron.smcp" horiz-adv-x="1218" 
d="M453 465h331l-157 448zM68 0l458 1167h203l424 -1167h-203l-112 291h-449l-119 -291h-202zM328 1290v140h598v-140h-598z" />
    <glyph glyph-name="aacute.smcp" horiz-adv-x="1218" 
d="M453 465h331l-157 448zM68 0l458 1167h203l424 -1167h-203l-112 291h-449l-119 -291h-202zM551 1290l211 275h209l-266 -275h-154z" />
    <glyph glyph-name="acircumflex.smcp" horiz-adv-x="1218" 
d="M453 465h331l-157 448zM68 0l458 1167h203l424 -1167h-203l-112 291h-449l-119 -291h-202zM324 1290l235 271h164l209 -271h-158l-139 140l-152 -140h-159z" />
    <glyph glyph-name="atilde.smcp" horiz-adv-x="1218" 
d="M453 465h331l-157 448zM68 0l458 1167h203l424 -1167h-203l-112 291h-449l-119 -291h-202zM617 1328q-65 34 -112 34t-76 -16q-76 -43 -103 -56l-45 92q110 104 186 126q76 23 163 -20q87 -42 111 -44q55 -2 189 76l45 -97q-7 -7 -59 -49q-107 -89 -175 -82
q-59 2 -124 36z" />
    <glyph glyph-name="adieresis.smcp" horiz-adv-x="1218" 
d="M453 465h331l-157 448zM68 0l458 1167h203l424 -1167h-203l-112 291h-449l-119 -291h-202zM780 1399q0 45 33 77t77 32t76 -32t32 -77t-32 -77t-76 -32t-77 32t-33 77zM258 1399q0 45 33 77t77 32t76 -32t31 -77q0 -45 -32 -77q-31 -32 -75 -32t-77 32t-33 77z" />
    <glyph glyph-name="aring.smcp" horiz-adv-x="1218" 
d="M453 465h331l-157 448zM422 1373q0 50 29 98q64 106 181 106q56 0 103 -29t75 -77t28 -105t-34 -115t-107 -84h32l424 -1167h-203l-112 291h-449l-119 -291h-202l458 1167h41q-91 33 -128 117q-17 38 -17 89zM524 1359q0 -36 32 -67q32 -30 76 -30t74 30t29 73
q0 44 -30 76q-31 32 -67 32t-60 -15q-54 -30 -54 -99z" />
    <glyph glyph-name="ae.smcp" horiz-adv-x="1605" 
d="M723 477v486l-238 -486h238zM1528 991h-547q-43 0 -54 -14t-16 -53v-260l549 -15v-149l-549 -17v-245q1 -40 19 -52t59 -12l539 -2v-147q-27 -7 -463 -25l-145 -4q-125 -4 -175 80q-25 41 -24 100v135h-313l-156 -311h-207l475 975q41 87 112 129t152 52q81 11 168 11
q547 -20 576 -26v-150z" />
    <glyph glyph-name="iogonek.smcp" horiz-adv-x="454" 
d="M154 0v1167h188v-1167h-37q-123 -100 -115 -170t123 -72v-131q-66 -12 -127 11q-61 22 -94 66q-78 103 -5 203q42 56 128 93h-61z" />
    <glyph glyph-name="ccaron.smcp" horiz-adv-x="1060" 
d="M229 1069q106 115 303 115q88 0 236 -16t227 -38v-143q-27 6 -189 15t-255 10q-147 0 -203 -100t-55 -332q0 -231 64 -322q64 -92 194 -94l444 24v-139q-233 -57 -463 -57q-110 0 -190 37t-124 92q-114 142 -114 476q0 333 125 472zM291 1585h160l153 -139l137 139h158
l-213 -268h-164z" />
    <glyph glyph-name="eacute.smcp" horiz-adv-x="1054" 
d="M154 182v791q0 129 105 175q50 22 120 21q561 -20 590 -26v-152h-561q-42 0 -54 -13t-12 -52v-252l561 -17v-149l-561 -14v-252q0 -42 17 -54t57 -12h553v-149q-23 -7 -482 -25l-149 -6q-84 0 -134 50t-50 136zM508 1294l211 275h209l-266 -275h-154z" />
    <glyph glyph-name="eogonek.smcp" horiz-adv-x="1054" 
d="M154 182v791q0 129 105 175q50 22 120 21q561 -20 590 -26v-152h-561q-42 0 -54 -13t-12 -52v-252l561 -17v-149l-561 -14v-252q0 -42 17 -54t57 -12h553v-149q-121 -102 -114 -172t124 -70v-133q-68 -10 -129 12t-93 65q-78 107 -4 203q38 50 111 87q-72 -5 -377 -17
l-149 -6q-84 0 -134 50t-50 136z" />
    <glyph glyph-name="edieresis.smcp" horiz-adv-x="1054" 
d="M154 182v791q0 129 105 175q50 22 120 21q561 -20 590 -26v-152h-561q-42 0 -54 -13t-12 -52v-252l561 -17v-149l-561 -14v-252q0 -42 17 -54t57 -12h553v-149q-23 -7 -482 -25l-149 -6q-84 0 -134 50t-50 136zM735 1411q0 37 32 68t77 31t77 -32q31 -30 31 -67t-14 -63
q-29 -52 -93 -54q-30 0 -55 15q-55 30 -55 102zM213 1403q0 45 32 76t77 31q44 0 76 -32q32 -30 32 -67t-14 -63q-29 -52 -83 -53t-87 31t-33 77z" />
    <glyph glyph-name="edotaccent.smcp" horiz-adv-x="1054" 
d="M154 182v791q0 129 105 175q50 22 120 21q561 -20 590 -26v-152h-561q-42 0 -54 -13t-12 -52v-252l561 -17v-149l-561 -14v-252q0 -42 17 -54t57 -12h553v-149q-23 -7 -482 -25l-149 -6q-84 0 -134 50t-50 136zM545 1294q-49 0 -49 47v123q0 51 49 52h114q19 0 33 -14
t15 -38v-123q0 -47 -48 -47h-114z" />
    <glyph glyph-name="iacute.smcp" horiz-adv-x="454" 
d="M154 0v1167h188v-1167h-188zM182 1290l209 275h211l-266 -275h-154z" />
    <glyph glyph-name="icircumflex.smcp" horiz-adv-x="454" 
d="M154 0v1167h188v-1167h-188zM-45 1290l233 271h164l209 -271h-158l-137 140l-151 -140h-160z" />
    <glyph glyph-name="imacron.smcp" horiz-adv-x="454" 
d="M154 0v1167h188v-1167h-188zM-37 1290v140h598v-140h-598z" />
    <glyph glyph-name="dcroat.smcp" horiz-adv-x="1216" 
d="M367 180h264q158 0 215 112t57 288q0 406 -262 405h-274v-332h192v-116h-192v-357zM1104 610q0 -365 -139 -504q-45 -43 -80 -62q-81 -44 -219 -44h-494v537h-133v116h133v518h130l372 -2q100 -1 178 -37t124 -94t87 -168q41 -109 41 -260z" />
    <glyph glyph-name="ncommaaccent.smcp" horiz-adv-x="1232" 
d="M154 0v1169h182l598 -823v823h186v-1169h-180l-598 831v-831h-188zM545 -451q57 0 57 54v41h-20q-45 0 -45 47v116q0 49 45 50h110q45 0 45 -50v-184q0 -51 -19 -84t-48 -44q-64 -24 -105 -15l-20 2v67z" />
    <glyph glyph-name="omacron.smcp" horiz-adv-x="1241" 
d="M339 284q46 -88 159 -105q48 -7 106 -7t114 2t81 19q26 16 53 34q27 19 41 51q41 95 48 164q7 70 7 138t-3 118q-3 49 -11 88t-15 69q-7 29 -25 51t-30 37t-37 25t-41 16q-35 11 -87 11h-112q-61 0 -103 -7t-95 -43q-96 -65 -96 -319t46 -342zM205 130q-101 127 -101 467
t133 466q69 67 157 91t243 24q154 0 241 -29q86 -29 126 -70t72 -105q58 -120 60 -394q1 -274 -81 -419q-100 -171 -418 -171q-172 0 -268 27q-96 28 -164 113zM324 1319v139h598v-139h-598z" />
    <glyph glyph-name="kcommaaccent.smcp" horiz-adv-x="1153" 
d="M154 -2v1169h184v-508h141l381 508h227l-444 -594l444 -575h-227l-385 485h-137v-485h-184zM496 -453q57 0 57 56v39h-21q-45 0 -45 47v114q0 51 45 52h111q45 0 45 -52v-182q0 -51 -19 -84t-48 -44q-62 -24 -105 -15l-20 2v67z" />
    <glyph glyph-name="ocircumflex.smcp" horiz-adv-x="1241" 
d="M339 284q46 -88 159 -105q48 -7 106 -7t114 2t81 19q26 16 53 34q27 19 41 51q41 95 48 164q7 70 7 138t-3 118q-3 49 -11 88t-15 69q-7 29 -25 51t-30 37t-37 25t-41 16q-35 11 -87 11h-112q-61 0 -103 -7t-95 -43q-96 -65 -96 -319t46 -342zM205 130q-101 127 -101 467
t133 466q69 67 157 91t243 24q154 0 241 -29q86 -29 126 -70t72 -105q58 -120 60 -394q1 -274 -81 -419q-100 -171 -418 -171q-172 0 -268 27q-96 28 -164 113zM311 1292l234 269h164l209 -269h-158l-137 140l-152 -140h-160z" />
    <glyph glyph-name="otilde.smcp" horiz-adv-x="1241" 
d="M339 284q46 -88 159 -105q48 -7 106 -7t114 2t81 19q26 16 53 34q27 19 41 51q41 95 48 164q7 70 7 138t-3 118q-3 49 -11 88t-15 69q-7 29 -25 51t-30 37t-37 25t-41 16q-35 11 -87 11h-112q-61 0 -103 -7t-95 -43q-96 -65 -96 -319t46 -342zM205 130q-101 127 -101 467
t133 466q69 67 157 91t243 24q154 0 241 -29q86 -29 126 -70t72 -105q58 -120 60 -394q1 -274 -81 -419q-100 -171 -418 -171q-172 0 -268 27q-96 28 -164 113zM533 1526q55 0 84 -14q41 -18 77 -36t66 -22q55 -2 188 76l45 -96q-39 -39 -86 -71q-47 -33 -80 -48t-79 -13
q-47 2 -112 36t-114 34t-103 -30q-55 -30 -75 -42l-45 93q152 133 234 133z" />
    <glyph glyph-name="odieresis.smcp" horiz-adv-x="1241" 
d="M339 284q46 -88 159 -105q48 -7 106 -7t114 2t81 19q26 16 53 34q27 19 41 51q41 95 48 164q7 70 7 138t-3 118q-3 49 -11 88t-15 69q-7 29 -25 51t-30 37t-37 25t-41 16q-35 11 -87 11h-112q-61 0 -103 -7t-95 -43q-96 -65 -96 -319t46 -342zM205 130q-101 127 -101 467
t133 466q69 67 157 91t243 24q154 0 241 -29q86 -29 126 -70t72 -105q58 -120 60 -394q1 -274 -81 -419q-100 -171 -418 -171q-172 0 -268 27q-96 28 -164 113zM768 1409q0 45 32 76t77 31t75 -31t31 -76q0 -45 -31 -77q-32 -32 -76 -32t-76 32t-32 77zM461 1409
q0 -45 -31 -77t-76 -32q-44 0 -76 32t-32 86t53 84q20 11 60 13q40 1 71 -30t31 -76z" />
    <glyph glyph-name="oslash.smcp" horiz-adv-x="1216" 
d="M891 879q-272 -347 -508 -656q59 -51 215 -51t197 25q20 12 45 30t50 76q42 97 42 291q0 193 -41 285zM573 995q-80 0 -127 -16t-61 -33q-13 -18 -31 -40t-26 -52t-20 -82q-12 -51 -13 -209q0 -157 33 -244q84 111 259 335t240 309q-56 32 -137 32h-117zM1022 1047
q98 -129 98 -440t-75 -441q-75 -131 -247 -162q-77 -14 -186 -14q-242 0 -346 78q-29 -39 -51 -68h-127q102 139 105 141q-86 133 -87 432q0 366 126 490q67 67 155 91t225 24q233 0 330 -62l41 51h133q-28 -32 -94 -120z" />
    <glyph glyph-name="uogonek.smcp" horiz-adv-x="1167" 
d="M154 1167h190v-635q-7 -243 93 -314q46 -33 105 -39q58 -7 120 -7q134 0 208 70t74 290v635h191v-635q0 -380 -210 -488q-67 -34 -121 -42t-110 -11q-116 -97 -108 -166t123 -71v-131q-66 -13 -127 9q-119 42 -135 162q-7 52 33 106t119 90q-179 5 -269 63t-135 169
q-45 112 -41 310v635z" />
    <glyph glyph-name="uacute.smcp" horiz-adv-x="1247" 
d="M154 1167h190v-635q-7 -243 93 -314q46 -33 105 -39q58 -7 120 -7q134 0 208 70t74 290v635h191v-635q0 -380 -210 -488q-107 -54 -269 -54q-228 0 -322 60t-139 172t-41 310v635zM567 1290l209 275h211l-266 -275h-154z" />
    <glyph glyph-name="ucircumflex.smcp" horiz-adv-x="1247" 
d="M154 1167h190v-635q-7 -243 93 -314q46 -33 105 -39q58 -7 120 -7q134 0 208 70t74 290v635h191v-635q0 -380 -210 -488q-107 -54 -269 -54q-228 0 -322 60t-139 172t-41 310v635zM336 1290l233 271h164l209 -271h-158l-137 140l-151 -140h-160z" />
    <glyph glyph-name="udieresis.smcp" horiz-adv-x="1247" 
d="M154 1167h190v-635q-7 -243 93 -314q46 -33 105 -39q58 -7 120 -7q134 0 208 70t74 290v635h191v-635q0 -380 -210 -488q-107 -54 -269 -54q-228 0 -322 60t-139 172t-41 310v635zM791 1399q0 45 31 77q32 32 77 32t76 -32t31 -77t-31 -77t-76 -32t-77 32q-31 32 -31 77z
M268 1399q0 45 32 77t77 32t76 -32t31 -77t-32 -77q-30 -32 -75 -32t-77 32t-32 77z" />
    <glyph glyph-name="utilde.smcp" horiz-adv-x="1247" 
d="M154 1167h190v-635q-7 -243 93 -314q46 -33 105 -39q58 -7 120 -7q134 0 208 70t74 290v635h191v-635q0 -380 -210 -488q-107 -54 -269 -54q-228 0 -322 60t-139 172t-41 310v635zM630 1328q-65 34 -114 34t-77 -16q-67 -41 -103 -56l-45 92q117 104 190 127t160 -20
q86 -43 113 -45q55 -2 186 76l47 -97q-6 -3 -33 -27q-85 -74 -132 -90q-48 -16 -88 -14t-104 36z" />
    <glyph glyph-name="umacron.smcp" horiz-adv-x="1247" 
d="M154 1167h190v-635q-7 -243 93 -314q46 -33 105 -39q58 -7 120 -7q134 0 208 70t74 290v635h191v-635q0 -380 -210 -488q-107 -54 -269 -54q-228 0 -322 60t-139 172t-41 310v635zM340 1290v140h598v-140h-598z" />
    <glyph glyph-name="germandbls.smcp" horiz-adv-x="2088" 
d="M1421 999q-120 0 -118 -110v-119q0 -80 29 -93t89 -13h314q137 0 205 -77t67 -202v-131q0 -219 -177 -263q-44 -11 -124 -11t-288 13t-259 34v137q354 -8 553 -8q106 0 107 100v127q0 51 -24 76t-83 24h-309q-198 0 -258 119q-31 61 -31 160v129q0 137 68 210t225 73
q82 0 261 -14t284 -30v-141q-324 10 -531 10zM72 762v129q0 137 66 210q67 73 224 73q82 0 262 -14t283 -30v-141l-528 10q-67 -1 -93 -29t-26 -81v-119q0 -89 46 -101q18 -5 30 -5h354q92 0 154 -38q118 -72 119 -241v-131q0 -218 -177 -263q-43 -11 -124 -11
q-80 0 -288 13t-257 34v137l553 -8q104 0 104 100v127q0 67 -42 88q-24 12 -62 12h-310q-154 0 -221 67t-67 212z" />
    <glyph glyph-name="agrave.smcp" horiz-adv-x="1218" 
d="M453 465h331l-157 448zM68 0l458 1167h203l424 -1167h-203l-112 291h-449l-119 -291h-202zM258 1565h209l211 -275h-154z" />
    <glyph glyph-name="ccedilla.smcp" horiz-adv-x="1060" 
d="M229 1069q106 115 303 115q88 0 236 -16t227 -38v-143q-27 6 -189 15t-255 10q-147 0 -203 -100t-55 -332q0 -231 64 -322q64 -92 194 -94l444 24v-139q-233 -57 -463 -57q-110 0 -190 37t-124 92q-114 142 -114 476q0 333 125 472zM551 -76h151q0 -160 -44 -220
t-169 -60h-106v88l102 30q41 16 53 56t13 106z" />
    <glyph glyph-name="eth.smcp" horiz-adv-x="1216" 
d="M367 180h264q158 0 215 112t57 288q0 406 -262 405h-274v-332h192v-116h-192v-357zM1104 610q0 -365 -139 -504q-45 -43 -80 -62q-81 -44 -219 -44h-494v537h-133v116h133v518h130l372 -2q100 -1 178 -37t124 -94t87 -168q41 -109 41 -260z" />
    <glyph glyph-name="egrave.smcp" horiz-adv-x="1054" 
d="M154 182v791q0 129 105 175q50 22 120 21q561 -20 590 -26v-152h-561q-42 0 -54 -13t-12 -52v-252l561 -17v-149l-561 -14v-252q0 -42 17 -54t57 -12h553v-149q-23 -7 -482 -25l-149 -6q-84 0 -134 50t-50 136zM281 1569h211l208 -275h-153z" />
    <glyph glyph-name="ecircumflex.smcp" horiz-adv-x="1054" 
d="M154 182v791q0 129 105 175q50 22 120 21q561 -20 590 -26v-152h-561q-42 0 -54 -13t-12 -52v-252l561 -17v-149l-561 -14v-252q0 -42 17 -54t57 -12h553v-149q-23 -7 -482 -25l-149 -6q-84 0 -134 50t-50 136zM289 1294l233 269h164l209 -269h-158l-137 140l-151 -140
h-160z" />
    <glyph glyph-name="igrave.smcp" horiz-adv-x="454" 
d="M154 0v1167h188v-1167h-188zM-82 1565h209l211 -275h-154z" />
    <glyph glyph-name="idieresis.smcp" horiz-adv-x="454" 
d="M154 0v1167h188v-1167h-188zM412 1399q0 45 31 77q32 32 77 32t76 -32t31 -77t-31 -77t-76 -32t-77 32q-31 32 -31 77zM-111 1399q0 45 32 77t77 32t76 -32q30 -32 30 -77t-30 -77t-76 -32q-45 0 -77 32t-32 77z" />
    <glyph glyph-name="ntilde.smcp" horiz-adv-x="1232" 
d="M154 0v1169h182l598 -823v823h186v-1169h-180l-598 831v-831h-188zM625 1321q-80 43 -129 43t-94 -27q-44 -27 -87 -45l-45 92q117 104 190 127t160 -20t113 -45q55 -2 187 76l47 -97q-6 -4 -61 -50t-81 -57t-50 -19q-70 -21 -150 22z" />
    <glyph glyph-name="ograve.smcp" horiz-adv-x="1241" 
d="M339 284q46 -88 159 -105q48 -7 106 -7t114 2t81 19q26 16 53 34q27 19 41 51q41 95 48 164q7 70 7 138t-3 118q-3 49 -11 88t-15 69q-7 29 -25 51t-30 37t-37 25t-41 16q-35 11 -87 11h-112q-61 0 -103 -7t-95 -43q-96 -65 -96 -319t46 -342zM205 130q-101 127 -101 467
t133 466q69 67 157 91t243 24q154 0 241 -29q86 -29 126 -70t72 -105q58 -120 60 -394q1 -274 -81 -419q-100 -171 -418 -171q-172 0 -268 27q-96 28 -164 113zM303 1577h211l209 -277h-154z" />
    <glyph glyph-name="oacute.smcp" horiz-adv-x="1241" 
d="M339 284q46 -88 159 -105q48 -7 106 -7t114 2t81 19q26 16 53 34q27 19 41 51q41 95 48 164q7 70 7 138t-3 118q-3 49 -11 88t-15 69q-7 29 -25 51t-30 37t-37 25t-41 16q-35 11 -87 11h-112q-61 0 -103 -7t-95 -43q-96 -65 -96 -319t46 -342zM205 130q-101 127 -101 467
t133 466q69 67 157 91t243 24q154 0 241 -29q86 -29 126 -70t72 -105q58 -120 60 -394q1 -274 -81 -419q-100 -171 -418 -171q-172 0 -268 27q-96 28 -164 113zM567 1300l211 277h209l-266 -277h-154z" />
    <glyph glyph-name="ugrave.smcp" horiz-adv-x="1247" 
d="M154 1167h190v-635q-7 -243 93 -314q46 -33 105 -39q58 -7 120 -7q134 0 208 70t74 290v635h191v-635q0 -380 -210 -488q-107 -54 -269 -54q-228 0 -322 60t-139 172t-41 310v635zM317 1565h211l209 -275h-153z" />
    <glyph glyph-name="yacute.smcp" horiz-adv-x="1173" 
d="M684 -2h-188v395l-428 774h204l320 -575l309 575h207l-424 -774v-395zM485 1290l209 275h211l-266 -275h-154z" />
    <glyph glyph-name="thorn.smcp" horiz-adv-x="1097" 
d="M330 406h319q51 0 79 15q56 30 56 185q0 92 -34 130q-35 38 -101 46h-319v-376zM143 0v1165h187v-207h332q54 0 110 -18q197 -64 201 -334q0 -176 -51 -259t-115 -105q-64 -21 -133 -21q-225 0 -344 33v-254h-187z" />
    <glyph glyph-name="quotesinglbase.smcp" horiz-adv-x="542" 
d="M211 -2q-59 0 -59 61v150q0 66 59 65h143q57 0 58 -65v-240q0 -67 -26 -111t-62 -60q-73 -34 -136 -25l-24 4v88q76 -2 76 76v57h-29z" />
    <glyph glyph-name="quotedblleft.smcp" horiz-adv-x="890" 
d="M137 754v239q0 68 26 113q27 45 63 60q76 31 134 22l25 -2v-90q-74 2 -74 -76v-55h27q27 1 44 -15t17 -47v-149q0 -66 -61 -66h-143q-58 0 -58 66zM666 965h30q25 1 41 -15t17 -45v-151q0 -66 -58 -66h-143q-61 0 -61 66l2 239q0 68 25 113q26 45 63 60q77 31 135 22
l26 -2v-90q-78 2 -77 -76v-55z" />
    <glyph glyph-name="quotedblright.smcp" horiz-adv-x="890" 
d="M492 975v149q0 66 61 66h143q57 0 58 -66v-239q0 -68 -26 -113t-62 -60q-78 -33 -134 -24l-26 4v88q74 -2 74 76v57h-27q-35 0 -48 21t-13 41zM198 688q-21 0 -51 4v88q78 -2 78 76v57h-28q-60 0 -60 62v149q0 66 60 66h143q59 0 59 -66v-239q0 -100 -49 -143t-90 -48
q-41 -6 -62 -6z" />
    <glyph glyph-name="quotedblbase.smcp" horiz-adv-x="890" 
d="M492 59v150q0 66 61 65h143q57 0 58 -65v-240q0 -67 -26 -111t-62 -60q-74 -34 -134 -25l-26 4v88q74 -2 74 76v57h-27q-25 0 -43 15t-18 46zM197 -2q-60 0 -60 61v150q0 66 60 65h143q59 0 59 -65v-240q0 -98 -49 -142q-49 -45 -90 -50q-41 -4 -62 -4t-51 4v88
q78 -2 78 76v57h-28z" />
    <glyph glyph-name="exclamdown.smcp" horiz-adv-x="552" 
d="M170 0l16 815h176l19 -815h-211zM160 985v135q0 47 47 47h131q23 0 36 -13t13 -34v-135q0 -51 -49 -51h-131q-20 0 -34 14q-13 14 -13 37z" />
    <glyph glyph-name="ordmasculine.smcp" horiz-adv-x="860" 
d="M240 798q0 -64 11 -111q18 -74 98 -92q28 -5 72 -5t61 1t41 5q76 13 89 115q6 53 9 100q0 86 -10 136q-9 50 -38 73t-57 28t-74 5q-47 0 -86 -2t-54 -16q-16 -13 -30 -29t-19 -43t-9 -64t-4 -101zM111 264v125h637v-125h-637zM86 821q0 209 74 291t270 82t270 -82
q72 -82 72 -292t-73 -291t-269 -81t-270 82t-74 291z" />
    <glyph glyph-name="ordfeminine.smcp" horiz-adv-x="845" 
d="M377 760h176l-82 272zM123 465l252 702h188l223 -702h-143l-53 176h-258l-58 -176h-151zM117 268v125h674v-125h-674z" />
    <glyph glyph-name="Euro.smcp" horiz-adv-x="1056" 
d="M565 1182q79 0 227 -20t193 -27v-152q-274 23 -393 23t-166 -38t-60 -94q-12 -56 -12 -118l373 -13v-102l-373 -10v-109l373 -10v-106q-25 0 -63 -2t-175 -4q-136 -3 -135 -7q0 -221 226 -221q187 0 346 21l65 6v-152q-184 -57 -426 -57q-98 0 -173 32q-76 32 -121 73
q-44 42 -75 119q-32 77 -32 179l-133 13v106l133 10v109l-133 12v98l133 15q0 426 401 426z" />
    <glyph glyph-name="lcaron.smcp" horiz-adv-x="1015" 
d="M475 1251h164v-137l-21 -274h-120l-23 274v137zM147 195v972h189v-917q0 -45 20 -56t70 -12h522v-182h-606q-88 0 -142 50t-53 145z" />
    <glyph glyph-name="sacute.smcp" horiz-adv-x="1118" 
d="M1014 254q0 -274 -273 -274q-111 0 -325 13t-266 34v137q373 -8 571 -8q35 0 61 24t35 51l8 25v125q0 53 -22 78q-23 25 -82 24h-328q-153 0 -221 67t-68 212v115q0 297 293 297q111 0 303 -16q191 -16 258 -28v-141q-340 10 -546 10q-119 0 -119 -125v-104
q0 -89 48 -101q19 -5 31 -5h369q137 0 205 -77t68 -202v-131zM461 1307l211 276h209l-267 -276h-153z" />
    <glyph glyph-name="scedilla.smcp" horiz-adv-x="1118" 
d="M1014 254q0 -274 -273 -274q-111 0 -325 13t-266 34v137q373 -8 571 -8q35 0 61 24t35 51l8 25v125q0 53 -22 78q-23 25 -82 24h-328q-153 0 -221 67t-68 212v115q0 297 293 297q111 0 303 -16q191 -16 258 -28v-141q-340 10 -546 10q-119 0 -119 -125v-104
q0 -89 48 -101q19 -5 31 -5h369q137 0 205 -77t68 -202v-131zM428 -82h152q0 -158 -44 -219t-169 -61h-107v88l102 30q38 18 52 56t14 106z" />
    <glyph glyph-name="tcaron.smcp" horiz-adv-x="1230" 
d="M219 985v182h926v-182h-369v-985h-188v985h-369zM377 1583h160l153 -139l135 139h158l-211 -270h-164z" />
    <glyph glyph-name="zacute.smcp" horiz-adv-x="1017" 
d="M68 0v182l637 803h-637v182h884v-182l-626 -803h626v-182h-884zM436 1290l211 275h209l-266 -275h-154z" />
    <glyph glyph-name="zdotaccent.smcp" horiz-adv-x="1017" 
d="M68 0v182l637 803h-637v182h884v-182l-626 -803h626v-182h-884zM567 1511q47 0 47 -51v-123q0 -47 -47 -47h-114q-20 0 -35 14t-15 33v123q0 51 50 51h114z" />
    <glyph glyph-name="racute.smcp" 
d="M303 612h359q63 0 105 44t42 167t-88 159q-31 11 -59 11h-359v-381zM115 0v1169h553q121 0 216 -63q114 -77 114 -303q0 -127 -52 -225q-51 -98 -160 -111l265 -467h-209l-244 446q-47 2 -170 14t-125 15v-475h-188zM465 1292l209 275h211l-267 -275h-153z" />
    <glyph glyph-name="abreve.smcp" horiz-adv-x="1218" 
d="M453 465h331l-157 448zM68 0l458 1167h203l424 -1167h-203l-112 291h-449l-119 -291h-202zM393 1524h103q0 -55 39 -93t95 -38q56 -1 94 35t38 96h102q0 -109 -72 -171q-72 -63 -165 -63q-94 0 -164 65t-70 169z" />
    <glyph glyph-name="lacute.smcp" horiz-adv-x="1019" 
d="M154 195v972h188v-917q-2 -45 18 -56t72 -12h522v-182h-606q-90 0 -142 50t-52 145zM184 1290l209 275h211l-266 -275h-154z" />
    <glyph glyph-name="cacute.smcp" horiz-adv-x="1060" 
d="M229 1069q106 115 303 115q88 0 236 -16t227 -38v-143q-27 6 -189 15t-255 10q-147 0 -203 -100t-55 -332q0 -231 64 -322q64 -92 194 -94l444 24v-139q-233 -57 -463 -57q-110 0 -190 37t-124 92q-114 142 -114 476q0 333 125 472zM496 1317l211 276h208l-266 -276h-153
z" />
    <glyph glyph-name="ecaron.smcp" horiz-adv-x="1054" 
d="M154 182v791q0 129 105 175q50 22 120 21q561 -20 590 -26v-152h-561q-42 0 -54 -13t-12 -52v-252l561 -17v-149l-561 -14v-252q0 -42 17 -54t57 -12h553v-149q-23 -7 -482 -25l-149 -6q-84 0 -134 50t-50 136zM268 1561h160l156 -140l135 140h158l-211 -269h-164z" />
    <glyph glyph-name="dcaron.smcp" horiz-adv-x="1226" 
d="M446 180h320q159 0 215 115q55 115 55 305q0 191 -72 291t-198 100h-320v-811zM258 0v1171h518q104 -3 186 -39t129 -94q48 -58 90 -169q42 -110 43 -247q2 -316 -87 -451q-93 -141 -237 -161q-68 -10 -124 -10h-518zM393 1563h160l154 -140l135 140h157l-211 -269h-163z
" />
    <glyph glyph-name="nacute.smcp" horiz-adv-x="1232" 
d="M154 0v1169h182l598 -823v823h186v-1169h-180l-598 831v-831h-188zM590 1292l209 277h211l-267 -277h-153z" />
    <glyph glyph-name="ncaron.smcp" horiz-adv-x="1232" 
d="M154 0v1169h182l598 -823v823h186v-1169h-180l-598 831v-831h-188zM338 1561h160l155 -140l135 140h158l-211 -269h-164z" />
    <glyph glyph-name="ohungarumlaut.smcp" horiz-adv-x="1241" 
d="M339 284q46 -88 159 -105q48 -7 106 -7t114 2t81 19q26 16 53 34q27 19 41 51q41 95 48 164q7 70 7 138t-3 118q-3 49 -11 88t-15 69q-7 29 -25 51t-30 37t-37 25t-41 16q-35 11 -87 11h-112q-61 0 -103 -7t-95 -43q-96 -65 -96 -319t46 -342zM205 130q-101 127 -101 467
t133 466q69 67 157 91t243 24q154 0 241 -29q86 -29 126 -70t72 -105q58 -120 60 -394q1 -274 -81 -419q-100 -171 -418 -171q-172 0 -268 27q-96 28 -164 113zM688 1300l211 277h209l-266 -277h-154zM401 1300l209 277h211l-266 -277h-154z" />
    <glyph glyph-name="rcaron.smcp" 
d="M303 612h359q63 0 105 44t42 167t-88 159q-31 11 -59 11h-359v-381zM115 0v1169h553q121 0 216 -63q114 -77 114 -303q0 -127 -52 -225q-51 -98 -160 -111l265 -467h-209l-244 446q-47 2 -170 14t-125 15v-475h-188zM227 1561h158l156 -140l135 140h158l-211 -269h-164z
" />
    <glyph glyph-name="uring.smcp" horiz-adv-x="1247" 
d="M154 1167h190v-635q-7 -243 93 -314q46 -33 105 -39q58 -7 120 -7q134 0 208 70t74 290v635h191v-635q0 -380 -210 -488q-107 -54 -269 -54q-228 0 -322 60t-139 172t-41 310v635zM539 1447q1 -44 31 -74t74 -30t74 30t30 74t-30 75q-30 30 -74 30t-75 -30
q-30 -31 -30 -75zM436 1448q0 57 28 105t76 77t104 29t104 -29t76 -77t28 -106q0 -57 -28 -105t-76 -76t-104 -29q-56 0 -104 28t-76 77t-28 106z" />
    <glyph glyph-name="uhungarumlaut.smcp" horiz-adv-x="1247" 
d="M154 1167h190v-635q-7 -243 93 -314q46 -33 105 -39q58 -7 120 -7q134 0 208 70t74 290v635h191v-635q0 -380 -210 -488q-107 -54 -269 -54q-228 0 -322 60t-139 172t-41 310v635zM702 1290l211 275h209l-266 -275h-154zM414 1290l211 275h209l-267 -275h-153z" />
    <glyph glyph-name="tcommaaccent.smcp" horiz-adv-x="1058" 
d="M68 985v182h925v-182h-368v-985h-189v985h-368zM393 -94h152q0 -158 -44 -219t-169 -62h-107v88l103 31q51 21 61 91q4 28 4 71z" />
    <glyph glyph-name="lslash.smcp" horiz-adv-x="1007" 
d="M170 1167h188v-440l230 92v-137l-230 -94v-338q0 -45 20 -56t71 -12h522v-182h-606q-88 0 -142 50q-53 50 -53 145v317l-131 -53v139l131 53v516z" />
    <glyph glyph-name="questiondown.smcp" horiz-adv-x="1007" 
d="M473 987v135q0 47 51 47h127q23 0 36 -13t13 -34v-135q0 -51 -49 -51h-127q-51 0 -51 51zM106 326v86q0 154 115 234t279 52v119h174v-272q-138 4 -208 1t-120 -36t-51 -96v-82q0 -156 186 -156h459v-147q-299 -43 -471 -35q-233 0 -321 157q-42 75 -42 175z" />
    <glyph glyph-name="oe.smcp" horiz-adv-x="1804" 
d="M360 945q-96 -65 -96 -317q0 -251 49 -349q42 -83 156 -100q47 -7 105 -7t113 2q54 2 82 19q29 16 55 34q26 19 40 51q41 95 48 164q21 208 -7 344q-8 39 -15 69q-6 29 -24 51t-30 37t-37 25t-41 16q-35 11 -87 11h-113q-60 0 -102 -7t-96 -43zM176 130
q-100 126 -100 466q0 341 132 467q69 67 158 91t224 24t222 -20t144 -77q51 88 189 88q561 -20 590 -26v-152h-561q-56 0 -63 -26q-3 -12 -3 -39v-252l561 -17v-149l-561 -14v-252q0 -42 18 -54t56 -12h553v-149q-24 -7 -482 -25l-149 -6q-113 0 -156 92q-73 -73 -210 -90
q-62 -8 -143 -8q-245 0 -345 69q-39 27 -74 71z" />
    <glyph glyph-name="ydieresis.smcp" horiz-adv-x="1173" 
d="M684 -2h-188v395l-428 774h204l320 -575l309 575h207l-424 -774v-395zM741 1399q0 45 32 77t77 32t76 -32q30 -32 30 -77t-30 -77t-76 -32q-45 0 -77 32t-32 77zM217 1399q0 45 33 77t78 32q46 0 76 -32t30 -77t-31 -77t-75 -32t-78 32q-33 32 -33 77z" />
    <glyph glyph-name="sterling.smcp" horiz-adv-x="1054" 
d="M96 0v127l115 41v336h-115v102l117 33v152q0 379 403 378l347 -26v-152h-334q-135 0 -183 -47t-47 -158v-139l437 -31v-116h-437v-324h562v-176h-865z" />
    <glyph glyph-name="yen.smcp" horiz-adv-x="1073" 
d="M932 528v-122h-301v-60h301v-121h-301v-225h-189v225h-284v121h284v60h-284v122h252l-371 641h211l287 -499l286 499h213l-377 -641h273z" />
    <glyph glyph-name="perthousand.smcp" horiz-adv-x="2508" 
d="M1946 268q0 -69 25 -92q25 -24 95 -24h93q81 0 103 24t22 92v123q0 69 -26 93t-95 24h-92q-102 0 -117 -46q-8 -24 -8 -71v-123zM1794 258v143q0 203 138 243q52 15 130 15h109q145 0 205 -61t59 -197v-143q0 -134 -59 -196t-209 -62h-109q-147 0 -206 61q-58 62 -58 197
zM1186 268q0 -70 26 -94t95 -22h94q79 0 101 24t22 92v123q0 69 -26 93t-93 24h-94q-80 0 -103 -24t-22 -93v-123zM1034 258v143q0 135 60 197t209 61h108q145 0 205 -61t59 -197v-143q0 -134 -59 -196t-209 -62h-109q-144 0 -204 62t-60 196zM440 0l682 1167h162
l-680 -1167h-164zM207 774q1 -68 25 -92t94 -25h94q80 0 102 25t21 92v125q0 90 -47 108q-25 9 -72 9h-94q-78 0 -101 -24t-22 -93v-125zM55 766v143q1 135 59 197t210 61h108q146 0 204 -61t58 -197v-143q0 -136 -58 -198t-208 -62h-109q-147 0 -205 62t-59 198z" />
    <glyph glyph-name="circumflex.smcp" horiz-adv-x="796" 
d="M96 1087l234 269h164l208 -269h-157l-139 140l-150 -140h-160z" />
    <glyph glyph-name="tilde.smcp" horiz-adv-x="884" 
d="M433 1126q-65 34 -113 33t-103 -31t-76 -41l-45 93q141 133 242 133q55 -2 125 -36t94 -36q55 -2 188 76l46 -96q-37 -37 -85 -70q-49 -34 -82 -49t-79 -13q-47 3 -112 37z" />
    <glyph glyph-name="ring.smcp" horiz-adv-x="604" 
d="M303 1399q-43 0 -73 -31q-30 -30 -31 -62q0 -32 8 -52q26 -65 96 -64q43 0 74 31t31 73t-31 74q-31 31 -74 31zM96 1294q0 88 60 150t132 61q135 0 194 -105q28 -48 28 -121t-60 -134t-146 -61t-148 60q-60 62 -60 150z" />
    <glyph glyph-name="hbar.smcp" horiz-adv-x="1243" 
d="M352 655h576v164h-576v-164zM63 819v111h101v237h188v-237h576v237h188v-237h96v-111h-96v-821h-188v475h-576v-475h-188v821h-101z" />
    <glyph glyph-name="hcircumflex.smcp" horiz-adv-x="1218" 
d="M154 -2v1169h188v-512h576v512h188v-1169h-188v473h-576v-473h-188zM315 1290l236 271h164l209 -271h-158l-139 140l-152 -140h-160z" />
    <glyph glyph-name="gbreve.smcp" horiz-adv-x="1177" 
d="M194 1031q90 155 341 155q85 2 253 -14t256 -37v-148q-256 25 -479 25q-104 0 -159 -32q-113 -66 -113 -378q0 -313 147 -405q49 -31 133 -31q85 0 181 35t131 69v213h-322v117q174 47 373 47q63 0 137 -6v-641h-143l-39 90q-147 -104 -359 -104q-303 0 -396 332
q-32 114 -32 337q0 221 90 376zM414 1542h102q0 -78 68 -115q30 -16 76 -16t84 36t38 95h103q0 -109 -71 -171t-165 -62t-165 64q-70 65 -70 169z" />
    <glyph glyph-name="jcircumflex.smcp" horiz-adv-x="681" 
d="M206 172q120 0 153 75q19 42 22 115v805h188v-829q0 -231 -118 -301q-99 -51 -201 -46t-182 52l6 141q82 -12 132 -12zM145 1290l234 271h164l209 -271h-158l-137 140l-152 -140h-160z" />
    <glyph glyph-name="cdotaccent.smcp" horiz-adv-x="1060" 
d="M229 1069q106 115 303 115q88 0 236 -16t227 -38v-143q-27 6 -189 15t-255 10q-147 0 -203 -100t-55 -332q0 -231 64 -322q64 -92 194 -94l444 24v-139q-233 -57 -463 -57q-110 0 -190 37t-124 92q-114 142 -114 476q0 333 125 472zM522 1364v123q0 51 49 51h115
q20 0 34 -14t13 -37v-123q0 -47 -47 -47h-115q-23 -1 -36 13t-13 34z" />
    <glyph glyph-name="ccircumflex.smcp" horiz-adv-x="1060" 
d="M229 1069q106 115 303 115q88 0 236 -16t227 -38v-143q-27 6 -189 15t-255 10q-147 0 -203 -100t-55 -332q0 -231 64 -322q64 -92 194 -94l444 24v-139q-233 -57 -463 -57q-110 0 -190 37t-124 92q-114 142 -114 476q0 333 125 472zM322 1317l233 268h164l209 -268h-158
l-139 139l-150 -139h-159z" />
    <glyph glyph-name="gdotaccent.smcp" horiz-adv-x="1177" 
d="M194 1031q90 155 341 155q85 2 253 -14t256 -37v-148q-256 25 -479 25q-104 0 -159 -32q-113 -66 -113 -378q0 -313 147 -405q49 -31 133 -31q85 0 181 35t131 69v213h-322v117q174 47 373 47q63 0 137 -6v-641h-143l-39 90q-147 -104 -359 -104q-303 0 -396 332
q-32 114 -32 337q0 221 90 376zM702 1530q46 0 48 -51v-123q0 -47 -48 -47h-114q-23 -1 -36 13t-13 34v123q0 51 49 51h114z" />
    <glyph glyph-name="gcircumflex.smcp" horiz-adv-x="1177" 
d="M194 1031q90 155 341 155q85 2 253 -14t256 -37v-148q-256 25 -479 25q-104 0 -159 -32q-113 -66 -113 -378q0 -313 147 -405q49 -31 133 -31q85 0 181 35t131 69v213h-322v117q174 47 373 47q63 0 137 -6v-641h-143l-39 90q-147 -104 -359 -104q-303 0 -396 332
q-32 114 -32 337q0 221 90 376zM342 1307l233 270h164l209 -270h-157l-140 139l-149 -139h-160z" />
    <glyph glyph-name="ubreve.smcp" horiz-adv-x="1247" 
d="M154 1167h190v-635q-7 -243 93 -314q46 -33 105 -39q58 -7 120 -7q134 0 208 70t74 290v635h191v-635q0 -380 -210 -488q-107 -54 -269 -54q-228 0 -322 60t-139 172t-41 310v635zM410 1524h102q0 -55 39 -93t95 -38q56 -1 94 35t38 96h103q0 -74 -36 -128
q-71 -106 -202 -106q-94 0 -164 65q-69 65 -69 169z" />
    <glyph glyph-name="scircumflex.smcp" horiz-adv-x="1118" 
d="M1014 254q0 -274 -273 -274q-111 0 -325 13t-266 34v137q373 -8 571 -8q35 0 61 24t35 51l8 25v125q0 53 -22 78q-23 25 -82 24h-328q-153 0 -221 67t-68 212v115q0 297 293 297q111 0 303 -16q191 -16 258 -28v-141q-340 10 -546 10q-119 0 -119 -125v-104
q0 -89 48 -101q19 -5 31 -5h369q137 0 205 -77t68 -202v-131zM225 1307l236 270h164l209 -270h-158l-139 139l-152 -139h-160z" />
    <glyph glyph-name="Idotaccent.smcp" horiz-adv-x="423" 
d="M106 1354v123q0 51 50 51h114q47 0 47 -51v-123q0 -47 -47 -47h-114q-20 0 -35 12t-15 35zM113 0v1167h188v-1167h-188z" />
    <glyph glyph-name="periodcentered.smcp" horiz-adv-x="550" 
d="M170 532v136q0 51 49 51h127q51 0 51 -51v-136q0 -47 -51 -47h-127q-21 -1 -35 13t-14 34z" />
    <glyph glyph-name="bullet.smcp" horiz-adv-x="636" 
d="M162 569v187q0 72 67 71h174q72 0 72 -71v-187q0 -66 -72 -65h-174q-37 0 -52 22t-15 43z" />
    <glyph glyph-name="quoteleft.smcp" horiz-adv-x="565" 
d="M152 754v239q0 68 25 113q26 45 63 60q76 31 137 22l24 -2v-90q-76 2 -75 -76v-57h28q57 0 58 -58v-151q0 -66 -58 -66h-143q-59 0 -59 66z" />
    <glyph glyph-name="quoteright.smcp" horiz-adv-x="565" 
d="M152 975v149q0 66 59 66h143q57 0 58 -66v-239q0 -68 -26 -113t-62 -60q-77 -33 -136 -24l-24 4v88q76 -2 76 76v57h-29q-59 0 -59 62z" />
    <glyph glyph-name="uni1E03.smcp" horiz-adv-x="1118" 
d="M342 688h348q113 0 137 66q12 33 13 94q0 145 -150 145h-348v-305zM342 178h348q114 0 140 76q14 34 14 104t-35 116t-119 46q-287 -2 -348 0v-342zM1028 850q0 -193 -137 -254q59 -24 101 -90t42 -174q0 -332 -338 -332h-542v1169h542q252 0 316 -198q16 -53 16 -121z
M623 1513q47 0 49 -51v-123q0 -47 -49 -47h-115q-20 0 -34 14t-15 33v123q0 51 49 51h115z" />
    <glyph glyph-name="uni1E0B.smcp" horiz-adv-x="1224" 
d="M342 180h322q157 0 213 115q55 115 55 305q0 191 -73 291t-195 100h-322v-811zM154 0v1171h518q104 -3 185 -39t129 -94q134 -163 134 -449q0 -285 -88 -418q-57 -87 -120 -120q-97 -51 -240 -51h-518zM621 1516q45 0 47 -52v-123q0 -47 -47 -47h-115q-23 0 -36 14
t-13 33v123q0 51 49 52h115z" />
    <glyph glyph-name="uni1E1F.smcp" horiz-adv-x="1054" 
d="M154 0v973q0 96 59 146t166 50q561 -20 590 -26v-152h-561q-45 0 -54 -14t-12 -51v-264l561 -17v-149l-561 -15v-481h-188zM516 1294q-49 0 -49 47v123q0 51 49 52h115q47 0 47 -52v-123q0 -47 -47 -47h-115z" />
    <glyph glyph-name="uni1E41.smcp" horiz-adv-x="1519" 
d="M104 0l113 1169h238l309 -874l309 874h234l108 -1169h-184l-80 858l-297 -858h-174l-303 858l-90 -858h-183zM842 1513q47 0 47 -51v-123q0 -47 -47 -47h-115q-21 0 -35 14t-14 33v123q0 51 49 51h115z" />
    <glyph glyph-name="wgrave.smcp" horiz-adv-x="1740" 
d="M68 1167h202l318 -907l301 907h201l-125 -379l211 -528l307 907h192l-399 -1167h-203l-199 510l-176 -510h-211zM537 1567h211l208 -275h-153z" />
    <glyph glyph-name="uni1E57.smcp" horiz-adv-x="1081" 
d="M305 610h359q107 0 133 88q12 41 13 119t-43 125t-103 47h-359v-379zM115 0v1165h559q124 0 224 -81q101 -81 99 -261q-1 -102 -23 -177t-52 -114q-30 -38 -77 -60q-48 -22 -83 -26q-36 -4 -64 -5t-211 13l-182 13v-467h-190zM612 1509q47 0 47 -51v-123q0 -47 -47 -47
h-114q-23 0 -36 14t-13 33v123q0 51 49 51h114z" />
    <glyph glyph-name="wacute.smcp" horiz-adv-x="1740" 
d="M68 1167h202l318 -907l301 907h201l-125 -379l211 -528l307 907h192l-399 -1167h-203l-199 510l-176 -510h-211zM803 1292l211 275h209l-267 -275h-153z" />
    <glyph glyph-name="ygrave.smcp" horiz-adv-x="1173" 
d="M684 -2h-188v395l-428 774h204l320 -575l309 575h207l-424 -774v-395zM250 1565h211l211 -275h-156z" />
    <glyph glyph-name="wdieresis.smcp" horiz-adv-x="1740" 
d="M68 1167h202l318 -907l301 907h201l-125 -379l211 -528l307 907h192l-399 -1167h-203l-199 510l-176 -510h-211zM1032 1401q0 45 32 76t77 31t77 -32q32 -30 31 -72t-29 -77q-29 -35 -77 -35q-47 0 -79 32t-32 77zM510 1401q0 45 32 76t76 31t77 -32q32 -30 32 -75
t-32 -77t-77 -32q-44 0 -76 32t-32 77z" />
    <glyph glyph-name="uni1E61.smcp" horiz-adv-x="1118" 
d="M1014 254q0 -274 -273 -274q-111 0 -325 13t-266 34v137q373 -8 571 -8q35 0 61 24t35 51l8 25v125q0 53 -22 78q-23 25 -82 24h-328q-153 0 -221 67t-68 212v115q0 297 293 297q111 0 303 -16q191 -16 258 -28v-141q-340 10 -546 10q-119 0 -119 -125v-104
q0 -89 48 -101q19 -5 31 -5h369q137 0 205 -77t68 -202v-131zM606 1518q47 0 47 -52v-123q0 -47 -47 -47h-114q-22 0 -36 14t-14 33v123q0 51 50 52h114z" />
    <glyph glyph-name="wcircumflex.smcp" horiz-adv-x="1740" 
d="M68 1167h202l318 -907l301 907h201l-125 -379l211 -528l307 907h192l-399 -1167h-203l-199 510l-176 -510h-211zM582 1292l235 269h164l209 -269h-158l-139 140l-152 -140h-159z" />
    <glyph glyph-name="uni1E6B.smcp" horiz-adv-x="1058" 
d="M68 985v182h925v-182h-368v-985h-189v985h-368zM588 1511q47 0 47 -51v-123q0 -47 -47 -47h-115q-23 0 -36 14t-13 33v123q0 51 49 51h115z" />
    <glyph glyph-name="ycircumflex.smcp" horiz-adv-x="1173" 
d="M684 -2h-188v395l-428 774h204l320 -575l309 575h207l-424 -774v-395zM287 1290l233 271h164l209 -271h-158l-137 140l-152 -140h-159z" />
    <glyph glyph-name="c_k" horiz-adv-x="2131" 
d="M1378 0h-188v285q-360 -299 -623 -299t-384 155q-107 137 -107 404q0 386 143 496q80 61 215 61q84 0 225 -18t252 -42v-129q-437 27 -513 12q-26 -5 -54 -27q-80 -61 -80 -365q0 -205 77 -290t228 -85q217 0 621 360v1084h188v-920l455 408l262 -3l-518 -473l516 -614
h-227l-424 494q-2 0 -32 -27t-32 -29v-438z" />
    <glyph glyph-name="N.salt" horiz-adv-x="1411" 
d="M154 0v1311q0 70 35 120q64 89 202 77q57 -5 109 -43t71 -99l490 -1165q10 -27 30 -23q19 4 19 29v1292h188v-1311q0 -53 -26 -96q-26 -44 -64 -68q-39 -24 -87 -32t-93 3t-83 46t-56 92l-494 1178q-10 23 -30 17t-21 -32v-1296h-190z" />
    <glyph glyph-name="M.salt" horiz-adv-x="1671" 
d="M104 0l80 1319q0 68 38 116q67 85 208 73q58 -5 104 -45t60 -101l215 -789q8 -27 28 -24q19 2 23 24l197 791q12 63 59 102q48 39 106 44q140 12 210 -73q39 -48 41 -114l96 -1323h-191l-94 1278q0 27 -24 31q-25 4 -31 -21l-195 -782q-14 -66 -71 -102t-123 -36t-124 36
t-75 104l-219 782q-4 14 -16 18t-24 -6q-12 -9 -13 -26l-78 -1276h-187z" />
    <glyph glyph-name="uni1E40.salt" horiz-adv-x="1671" 
d="M104 0l80 1319q0 68 38 116q67 85 208 73q58 -5 104 -45t60 -101l215 -789q8 -27 28 -24q19 2 23 24l197 791q10 53 46 89t81 49q101 29 189 -17q42 -23 70 -65t30 -97l96 -1323h-191l-94 1278q0 27 -24 31q-25 4 -31 -21l-195 -782q-14 -66 -71 -102t-123 -36t-124 36
t-75 104l-219 782q-4 14 -16 18t-24 -6q-12 -9 -13 -26l-78 -1276h-187zM741 1686v122q0 51 50 52h114q21 0 33 -16t12 -36v-122q0 -47 -45 -48h-114q-50 0 -50 48z" />
    <glyph glyph-name="Ntilde.salt" horiz-adv-x="1411" 
d="M154 0v1311q0 70 35 120q64 89 202 77q57 -5 109 -43t71 -99l490 -1165q10 -27 30 -23q19 4 19 29v1292h188v-1311q0 -63 -34 -112q-63 -89 -198 -87q-56 1 -105 39t-72 105l-494 1178q-10 23 -30 17t-21 -32v-1296h-190zM399 1724q120 107 192 130q72 22 158 -22
q87 -44 113 -44q55 -2 187 76l47 -97q-21 -14 -51 -41q-103 -92 -172 -90q-70 2 -135 36t-115 32t-87 -24q-38 -23 -92 -46z" />
    <glyph glyph-name="Nacute.salt" horiz-adv-x="1411" 
d="M154 0v1311q0 70 35 120q64 89 202 77q57 -5 109 -43t71 -99l490 -1165q10 -27 30 -23q19 4 19 29v1292h188v-1311q0 -63 -34 -112q-63 -89 -198 -87q-56 1 -105 39t-72 105l-494 1178q-10 23 -30 17t-21 -32v-1296h-190zM680 1634l211 275h209l-266 -275h-154z" />
    <glyph glyph-name="Ncaron.salt" horiz-adv-x="1411" 
d="M154 0v1311q0 70 35 120q64 89 202 77q57 -5 109 -43t71 -99l490 -1165q10 -27 30 -23q19 4 19 29v1292h188v-1311q0 -63 -34 -112q-63 -89 -198 -87q-56 1 -105 39t-72 105l-494 1178q-10 23 -30 17t-21 -32v-1296h-190zM444 1903h160l156 -140l135 140h158l-213 -269
h-164z" />
    <glyph glyph-name="Ncommaaccent.salt" horiz-adv-x="1411" 
d="M154 0v1311q0 70 35 120q64 89 202 77q57 -5 109 -43t71 -99l490 -1165q10 -27 30 -23q19 4 19 29v1292h188v-1311q0 -63 -34 -112q-63 -89 -198 -87q-56 1 -105 39t-72 105l-494 1178q-10 23 -30 17t-21 -32v-1296h-190zM606 -465q58 0 58 55v41h-21q-45 0 -45 45v117
q0 49 45 49h111q45 0 45 -49v-182q1 -51 -19 -85t-49 -45q-64 -24 -104 -16l-21 3v67z" />
    <glyph glyph-name="zero.numerator" horiz-adv-x="956" 
d="M270 772q0 -59 23 -81t90 -21h197q70 0 90 22t20 80v477q0 55 -22 78q-23 23 -86 23h-201q-70 0 -90 -25t-21 -76v-477zM115 754v512q0 125 63 179t184 54h240q238 0 238 -231v-514q0 -132 -60 -182t-178 -50h-240q-110 0 -160 32q-49 32 -68 80t-19 120z" />
    <glyph glyph-name="one.numerator" horiz-adv-x="552" 
d="M430 1503v-979h-151v822l-248 -66v109l248 114h151z" />
    <glyph glyph-name="two.numerator" horiz-adv-x="800" 
d="M61 1366q-2 0 -2 30v58q0 29 2 29q244 33 385 33q274 0 275 -285q0 -211 -277 -460q-58 -52 -114 -99h391v-148h-653v140q16 12 59 45t75 57q361 276 361 455q0 77 -35 111t-120 34h-347z" />
    <glyph glyph-name="three.numerator" horiz-adv-x="833" 
d="M57 1358v108q94 34 253 38q42 1 163 1q121 1 184 -69t64 -172v-70q0 -70 -30 -118t-75 -64q104 -57 105 -197v-53q-1 -119 -61 -182t-201 -64h-125q-54 0 -65 1t-40 3t-44 5t-39 6t-42 9t-38 13l2 109l354 2q82 0 114 24t31 88v41q0 125 -137 129l-283 10v117l283 14
q139 6 139 119v41q0 111 -139 111h-373z" />
    <glyph glyph-name="four.numerator" horiz-adv-x="862" 
d="M567 911v238l56 100h98v-338h115v-125l-115 -22v-240h-154v234h-491l-45 61l405 680h170l-348 -588h309z" />
    <glyph glyph-name="five.numerator" horiz-adv-x="856" 
d="M547 514q-276 0 -443 31v121h424q100 0 101 104v100q1 70 -15 86q-32 32 -84 31h-208q-86 0 -86 -94h-130l31 606h613v-149h-474l-14 -254q41 41 175 41l118 -4q151 0 204 -120q24 -54 23 -130v-131q0 -121 -64 -180q-65 -58 -171 -58z" />
    <glyph glyph-name="six.numerator" horiz-adv-x="899" 
d="M258 961q0 -115 14 -159t28 -72q27 -58 91 -58h187q48 0 70 22t22 74v109q0 49 -20 66t-70 18h-322zM788 1364h-399q-89 0 -110 -101t-21 -186q204 29 306 29t148 -17q109 -40 109 -198v-148q0 -109 -60 -163t-165 -56h-217q-161 0 -223 145q-52 116 -52 369
q4 202 31 274q26 72 48 107q49 78 175 92q180 12 430 -26v-121z" />
    <glyph glyph-name="seven.numerator" horiz-adv-x="768" 
d="M29 1354v149h669l41 -73l-374 -906h-170l344 830h-510z" />
    <glyph glyph-name="eight.numerator" horiz-adv-x="952" 
d="M279 1192q0 -102 96 -102h203q96 0 96 102v61q0 67 -24 89t-81 22h-180q-63 0 -87 -24t-23 -87v-61zM279 754q0 -46 20 -66t78 -20h207q90 0 90 86v94q0 96 -88 96h-211q-49 0 -73 -22t-23 -74v-94zM827 1192q0 -132 -100 -154q51 -10 76 -67t24 -115v-117
q0 -123 -61 -171t-162 -48h-244q-202 0 -229 154q-4 28 -4 63v113q0 119 113 149q-113 39 -113 187v84q0 133 64 186q65 53 182 53h225q232 0 229 -239v-78z" />
    <glyph glyph-name="nine.numerator" horiz-adv-x="899" 
d="M240 1157q0 -49 20 -66t68 -18h323q0 291 -129 291h-192q-50 0 -70 -23t-20 -73v-111zM86 1145v145q0 111 61 166t164 55h217q162 0 225 -145q54 -123 52 -356q-2 -232 -52 -351q-42 -93 -122 -121q-33 -11 -78 -16q-229 -20 -434 25v121h399q115 0 129 217q2 31 4 71
q-207 -28 -338 -28t-179 58t-48 159z" />
    <glyph glyph-name="zero.denominator" horiz-adv-x="956" 
d="M270 250q0 -59 23 -81t90 -22h197q70 0 90 23t20 80v477q0 37 -8 57q-17 43 -100 43h-201q-70 -1 -90 -25t-21 -75v-477zM115 231v512q0 125 63 179t184 55h240q238 0 238 -232v-514q0 -133 -60 -182t-178 -49h-240q-110 0 -160 32q-49 32 -68 80t-19 119z" />
    <glyph glyph-name="one.denominator" horiz-adv-x="552" 
d="M430 981v-979h-151v821l-248 -65v110l248 113h151z" />
    <glyph glyph-name="two.denominator" horiz-adv-x="800" 
d="M61 844q-2 0 -2 30v58q0 29 2 29q244 33 385 32q274 0 275 -284q0 -121 -85 -241t-164 -194q-80 -74 -142 -124h391v-148h-653v139q22 19 144 112t209 183t115 156q27 66 27 126q0 126 -155 126h-347z" />
    <glyph glyph-name="three.denominator" horiz-adv-x="833" 
d="M567 295q0 125 -137 129l-283 10v117l283 14q139 6 139 119v41q0 111 -139 111h-373v108q95 34 253 38q44 1 164 1t183 -69t64 -173v-69q0 -70 -30 -118t-75 -65q104 -57 105 -196v-53q-1 -118 -61 -182t-201 -64h-180q-108 0 -213 37l2 108l354 2q82 0 114 25t31 88v41z
" />
    <glyph glyph-name="four.denominator" horiz-adv-x="862" 
d="M567 389v238l56 100h98v-338h115v-125l-115 -28v-234h-154v234h-491l-45 61l405 680h170l-348 -588h309z" />
    <glyph glyph-name="five.denominator" horiz-adv-x="856" 
d="M547 -8q-276 0 -443 31v120h424q100 0 101 103v102q1 69 -15 83q-34 32 -84 32h-208q-86 0 -86 -90h-130l31 604h613v-150h-474l-14 -256q35 35 92 38q58 3 84 4t68 -1q41 -2 49 -2q115 -2 171 -68t56 -182v-131q0 -121 -64 -179t-171 -58z" />
    <glyph glyph-name="six.denominator" horiz-adv-x="899" 
d="M258 438q0 -202 71 -265q26 -24 62 -23h187q48 0 70 22t22 74v108q0 48 -20 66t-70 18h-322zM788 842h-399q-89 0 -110 -101t-21 -186q204 29 306 29t148 -18q109 -41 109 -197v-148q0 -109 -60 -164t-165 -55h-217q-161 0 -223 144q-52 116 -52 370q7 401 177 458
q33 11 77 13q209 16 430 -24v-121z" />
    <glyph glyph-name="seven.denominator" horiz-adv-x="768" 
d="M29 831v150h669l41 -74l-374 -905h-170l344 829h-510z" />
    <glyph glyph-name="eight.denominator" horiz-adv-x="952" 
d="M279 670q0 -102 96 -103h203q96 0 96 103v61q0 67 -24 89t-81 22h-180q-63 0 -87 -24t-23 -87v-61zM279 231q0 -47 20 -66t78 -20h207q90 0 90 86v95q0 96 -88 96h-211q-49 0 -73 -22t-23 -74v-95zM827 670q0 -132 -100 -154q51 -10 76 -67t24 -115v-117q0 -123 -61 -171
t-162 -48h-244q-192 0 -225 138q-8 34 -8 79v113q0 119 113 149q-113 39 -113 187v84q0 133 64 186q65 53 182 53h225q232 0 229 -239v-78z" />
    <glyph glyph-name="nine.denominator" horiz-adv-x="899" 
d="M240 633q0 -49 20 -67t68 -17h323q0 291 -129 291h-192q-50 0 -70 -23t-20 -74v-110zM86 621v145q0 148 109 199q49 23 116 22h217q163 0 225 -144q54 -126 52 -376q-2 -251 -78 -374q-31 -53 -109 -80q-29 -9 -65 -11q-219 -20 -434 23v120h399q89 0 112 106
q17 78 21 183q-203 -31 -336 -31t-181 60t-48 158z" />
    <glyph glyph-name="c_h" horiz-adv-x="2150" 
d="M76 544q0 385 143 495q82 63 215 63q84 0 225 -18t252 -44v-127q-442 24 -513 10q-26 -5 -54 -27q-80 -61 -80 -369q0 -209 47 -288t160 -79q39 0 117 -2q292 -7 401 32q108 39 141 128q18 50 19 120v1168h188v-643q4 4 35 22t56 34t76 38t69 26q18 3 52 13t99 10
q160 0 246 -104t86 -252v-750h-188v750q0 92 -45 138t-122 46t-147 -18t-104 -35q-34 -16 -113 -58v-391q0 -222 -117 -322q-117 -99 -282 -113q-225 -19 -320 -12q-96 7 -167 1q-68 0 -118 12q-257 62 -257 546z" />
    <glyph glyph-name="m.salt" horiz-adv-x="1820" 
d="M834 745q0 185 -182 185q-90 0 -164 -14t-185 -60v-856h-188v983q209 93 326 108t255 15t228 -88q129 51 229 69q100 19 249 19q148 0 236 -101t88 -247v-758h-188v745q0 185 -181 185q-91 0 -163 -14t-186 -58q14 -45 14 -110v-748h-188v745z" />
    <glyph glyph-name="n.salt" 
d="M834 745q0 185 -182 185q-90 0 -164 -14t-185 -60v-856h-188v983q167 75 279 99t279 24t258 -101t91 -247v-758h-188v745z" />
    <glyph glyph-name="ntilde.salt" 
d="M115 0v983q167 75 279 99t279 24t258 -101t91 -247v-758h-188v745q0 182 -168 185q-104 0 -178 -14t-185 -60v-856h-188zM221 1321q113 101 186 125q74 24 163 -19q88 -43 112 -45q55 -2 188 76l45 -96q-36 -36 -82 -69q-46 -34 -82 -50q-35 -16 -82 -13q-46 3 -111 37
t-113 33t-102 -30q-54 -30 -77 -41z" />
    <glyph glyph-name="ncommaaccent.salt" 
d="M115 0v983q167 75 279 99t279 24t258 -101t91 -247v-758h-188v745q0 182 -168 185q-104 0 -178 -14t-185 -60v-856h-188zM469 -309v116q0 49 47 50h111q43 0 43 -50v-184q0 -51 -24 -91q-37 -63 -167 -50v67q37 0 47 19q11 19 11 35v41h-21q-47 0 -47 47z" />
    <glyph glyph-name="ncaron.salt" 
d="M115 0v983q167 75 279 99t279 24t258 -101t91 -247v-758h-188v745q0 182 -168 185q-104 0 -178 -14t-185 -60v-856h-188zM266 1499h160l156 -139l135 139h157l-210 -270h-164z" />
    </font>
</defs>
</svg>
