<?xml version="1.0" standalone="no"?>
<!DOCTYPE svg PUBLIC "-//W3C//DTD SVG 1.1//EN" "http://www.w3.org/Graphics/SVG/1.1/DTD/svg11.dtd" >
<svg xmlns="http://www.w3.org/2000/svg">
<metadata>
Created by FontPrep 20130207 at Sat Jan 14 23:01:53 2017
 By Predrag Jevtic
Copyright (c) 2011 Natanael Gama (exo@ndiscovered.com), with Reserved Font Name "Exo"
</metadata>
<defs>
<font id="0983e2c147ce324a28b88a591460a72a" horiz-adv-x='1024' >
  <font-face 
    font-family="Exo-ExtraLightItalic"
    font-weight="200"
    font-style="italic"
    font-stretch="normal"
    units-per-em="2048"
    panose-1="2 0 3 3 0 0 0 0 0 0"
    ascent="1638"
    descent="-410"
    x-height="1087"
    cap-height="1499"
    bbox="-78.3704 -561 2727.71 2052"
    underline-thickness="102"
    underline-position="-102"
    unicode-range="U+000D-FB06"
  />
<missing-glyph horiz-adv-x="1552" 
d="M803 545l516 -494v985zM260 27h1038l-518 497zM254 1061l526 -496l520 496h-1046zM233 45l525 500l-525 493v-993zM205 0v1087h1143v-1087h-1143z" />
    <glyph glyph-name="fi" unicode="fi" horiz-adv-x="1144" 
d="M792 1610q179 0 371 -49l-8 -52l-346 19q-135 6 -239 -76t-130 -256l-18 -115l749 -16l-170 -1065h-83l157 997h-667l-160 -997h-84l160 997h-201l8 58l207 26l18 115q31 190 144 302t292 112z" />
    <glyph glyph-name="fl" unicode="fl" horiz-adv-x="1421" 
d="M834 1608h507l-192 -1217q-30 -171 7 -233q13 -23 26 -39t38 -22q177 -36 197 -36l-10 -57h-133q-270 0 -209 387l180 1135h-411q-196 0 -284 -184q-32 -67 -46 -158l-15 -97h314l-15 -83h-313l-162 -1004h-84l160 1004h-201l9 57l209 26l14 97q31 200 134 312t280 112z
" />
    <glyph glyph-name=".notdef" horiz-adv-x="1552" 
d="M803 545l516 -494v985zM260 27h1038l-518 497zM254 1061l526 -496l520 496h-1046zM233 45l525 500l-525 493v-993zM205 0v1087h1143v-1087h-1143z" />
    <glyph glyph-name=".notdef" horiz-adv-x="1552" 
d="M803 545l516 -494v985zM260 27h1038l-518 497zM254 1061l526 -496l520 496h-1046zM233 45l525 500l-525 493v-993zM205 0v1087h1143v-1087h-1143z" />
    <glyph glyph-name=".null" horiz-adv-x="0" 
 />
    <glyph glyph-name="uni000D" unicode="&#xd;" horiz-adv-x="2048" 
 />
    <glyph glyph-name="space" unicode=" " horiz-adv-x="489" 
 />
    <glyph glyph-name="exclam" unicode="!" horiz-adv-x="501" 
d="M252 403l162 1094h92l-184 -1094h-70zM283 188q33 0 28 -32l-20 -123q-4 -33 -37 -33h-53q-14 0 -23 9q-8 10 -6 24l21 123q4 33 38 32h52z" />
    <glyph glyph-name="quotedbl" unicode="&#x22;" horiz-adv-x="651" 
d="M500 1087l26 275l23 137h86l-23 -137l-57 -275h-55zM270 1087l27 275l22 137h87l-23 -137l-57 -275h-56z" />
    <glyph glyph-name="numbersign" unicode="#" horiz-adv-x="1331" 
d="M537 551l364 -2l123 395h-365zM115 500l16 51h352l123 393h-352l18 51h353l159 504h52l-160 -504h366l160 504h51l-157 -504h362l-18 -51h-363l-123 -395h363l-17 -51h-362l-160 -498h-51l158 498l-367 2l-158 -500h-53l158 500h-350z" />
    <glyph glyph-name="dollar" unicode="$" horiz-adv-x="1175" 
d="M641 66q322 0 360 253l21 140q24 127 -20 180t-187 53h-227q-145 0 -220 54t-86 121q-7 38 -8 72q0 34 7 73l22 135q32 215 151 290q119 74 320 74l27 177h65l-28 -181q152 -8 366 -39l-8 -57l-426 19q-166 8 -261 -52t-122 -231l-22 -135q-20 -131 36 -184
q57 -52 197 -52h231q198 0 252 -94t25 -223l-21 -140q-42 -299 -357 -331q-58 -6 -132 -4l-27 -166h-63l26 170q-278 18 -368 32l10 58q195 -12 467 -12z" />
    <glyph glyph-name="percent" unicode="%" horiz-adv-x="2000" 
d="M1372 70h207q111 0 161 39t68 151l43 272q16 106 -17 149q-34 42 -148 42h-207q-113 0 -162 -39t-66 -152l-43 -272q-18 -110 20 -150t144 -40zM1694 788q141 0 192 -60t31 -196l-43 -272q-23 -139 -87 -198q-65 -58 -216 -58h-207q-137 0 -189 62t-32 194l43 272
q14 92 43 144q63 113 258 112h207zM461 0l1134 1499h78l-1134 -1499h-78zM467 780h207q74 0 118 16q86 30 109 175l43 272q17 110 -16 149q-33 40 -148 42h-207q-113 0 -161 -40t-68 -151l-43 -272q-18 -111 20 -151t146 -40zM582 1499h206q142 0 192 -60t30 -196l-43 -272
q-14 -93 -44 -147q-62 -110 -257 -109h-207q-137 0 -191 62q-52 63 -32 194l43 272q20 137 85 197t218 59z" />
    <glyph glyph-name="ampersand" unicode="&#x26;" horiz-adv-x="1363" 
d="M256 211q72 -117 209 -137t256 76l176 145l-309 532l-180 -135q-148 -114 -188 -238t36 -243zM762 1421q-186 0 -260 -80t16 -237l436 -760l340 289l25 -25l-160 -196l-160 -138l162 -274h-84l-137 227l-164 -137q-84 -72 -196 -92t-218 22q-108 42 -174 146
q-90 156 -43 310t205 274l199 149l-100 174q-51 86 -56 161q-7 132 116 210q52 33 118 43q258 32 573 -14l-8 -52h-430z" />
    <glyph glyph-name="quotesingle" unicode="'" horiz-adv-x="307" 
d="M225 1087l27 275l22 137h86l-22 -137l-57 -275h-56z" />
    <glyph glyph-name="parenleft" unicode="(" horiz-adv-x="604" 
d="M234 499q9 308 104 579t267 550q65 104 106 160l41 55h96q-6 -8 -15 -19t-38 -52q-368 -520 -455 -1022q-72 -470 75 -893q34 -98 60 -152l27 -53h-92q-4 8 -14 26q-70 140 -118 362t-44 459z" />
    <glyph glyph-name="parenright" unicode=")" horiz-adv-x="606" 
d="M-27 -348q50 57 137 190q87 134 149 254t128 300q186 505 81 992q-55 255 -122 398l-27 57h91q11 -22 42 -103q95 -251 122 -516t-7 -463q-64 -381 -211 -659t-243 -401l-41 -49h-99z" />
    <glyph glyph-name="asterisk" unicode="*" horiz-adv-x="958" 
d="M709 1143l260 166l18 -41l-231 -189zM604 1477l47 16l105 -248l-86 -37zM596 1001l57 74l207 -176l-31 -37zM385 842l104 274l84 -16l-147 -273zM285 1194l6 47l295 25l-11 -82z" />
    <glyph glyph-name="plus" unicode="+" horiz-adv-x="1067" 
d="M205 688l14 82h363l57 365h84l-57 -365h364l-14 -82h-365l-57 -364h-84l57 364h-362z" />
    <glyph glyph-name="comma" unicode="," horiz-adv-x="415" 
d="M186 0q-35 0 -28 35l18 121q6 37 41 37h49q31 0 27 -37l-35 -213q-8 -53 -39 -78t-57 -21l-27 2l4 31q43 0 49 41l15 82h-17z" />
    <glyph glyph-name="hyphen" unicode="-" horiz-adv-x="694" 
d="M123 553l14 82h602l-14 -82h-602z" />
    <glyph glyph-name="period" unicode="." horiz-adv-x="419" 
d="M266 188q35 0 29 -32l-21 -123q-4 -33 -36 -33h-52q-33 0 -28 33l18 123q6 33 39 32h51z" />
    <glyph glyph-name="slash" unicode="/" horiz-adv-x="671" 
d="M16 -147l848 1724h84l-848 -1724h-84z" />
    <glyph glyph-name="zero" unicode="0" horiz-adv-x="1323" 
d="M528 84h295q258 0 297 248l133 835q20 123 -32 186q-53 62 -187 62h-295q-129 -1 -209 -67t-98 -181l-133 -835q-37 -248 229 -248zM752 1499h295q177 0 245 -93t45 -239l-133 -835q-53 -332 -395 -332h-295q-154 0 -240 80t-59 252l133 835q27 164 135 248
q109 84 269 84z" />
    <glyph glyph-name="one" unicode="1" horiz-adv-x="798" 
d="M274 1257l11 58q145 0 342 120q45 28 69 46l25 18h80l-234 -1499h-84l224 1393q-66 -47 -185 -91t-248 -45z" />
    <glyph glyph-name="two" unicode="2" horiz-adv-x="1189" 
d="M883 1434h-574l8 59q221 27 588 27q209 0 292 -119t54 -314q-33 -264 -550 -689q-212 -176 -429 -314h818l-13 -84h-981l13 78q302 200 442 314q327 264 427 380q165 191 187 320q29 180 -43 261t-239 81z" />
    <glyph glyph-name="three" unicode="3" horiz-adv-x="1196" 
d="M666 72q114 0 206 58q93 58 117 206l21 121q37 236 -238 245l-455 15l9 59l460 15q121 4 211 65t107 174l22 141q20 131 -46 190q-67 58 -187 58h-604l8 51q166 41 618 33q166 -2 242 -96t53 -242l-22 -141q-10 -70 -42 -125t-90 -99t-120 -52q61 -21 104 -69
q79 -89 58 -228l-21 -121q-53 -344 -418 -344q-462 -1 -579 34l10 52h576z" />
    <glyph glyph-name="four" unicode="4" horiz-adv-x="1191" 
d="M113 477l798 1022h103l-774 -995h702l74 463l65 153h45l-98 -616h184l-8 -60l-188 -26l-66 -414h-86l66 414h-787z" />
    <glyph glyph-name="five" unicode="5" horiz-adv-x="1265" 
d="M784 78q109 0 196 74t105 192l33 201q43 264 -203 264h-311q-92 0 -174 -65t-96 -156h-80l188 911h867l-13 -84h-786l-131 -633q31 39 93 75t146 37t126 1l178 -2q162 0 232 -93t48 -251l-35 -209q-20 -138 -89 -217q-69 -80 -144 -106q-75 -25 -156 -25q-419 -3 -616 28
l8 58h614z" />
    <glyph glyph-name="six" unicode="6" horiz-adv-x="1290" 
d="M532 80h265q240 0 276 225l35 230q22 131 -30 178t-181 47h-563q-109 -680 198 -680zM721 1511q381 0 573 -24l-10 -60h-559q-82 0 -152 -63q-71 -62 -115 -164q-89 -203 -116 -385q244 29 559 31q98 0 165 -26q68 -26 94 -68q62 -99 34 -207l-37 -242
q-35 -220 -188 -277q-72 -28 -172 -28h-269q-70 0 -122 22q-258 108 -152 766q88 547 328 685q68 40 139 40z" />
    <glyph glyph-name="seven" unicode="7" horiz-adv-x="1110" 
d="M274 1415l15 84h911l29 -65l-733 -1434h-99l725 1415h-848z" />
    <glyph glyph-name="eight" unicode="8" horiz-adv-x="1308" 
d="M903 807q123 0 193 63t82 142l22 139q26 150 -28 212t-185 62h-256q-153 -1 -223 -65t-92 -209l-21 -139q-20 -132 59 -172q63 -33 162 -33h287zM535 84h247q137 0 222 92q49 53 61 133l35 215q21 141 -81 183q-48 18 -120 18h-291q-128 0 -222 -82q-54 -47 -64 -119
l-35 -215q-21 -119 47 -172t201 -53zM1001 1509q222 0 276 -161q28 -82 9 -203l-22 -133q-13 -105 -109 -185q-49 -41 -108 -49q172 -53 137 -262l-31 -201q-51 -315 -375 -315h-256q-201 0 -271 92t-48 223l30 203q15 106 89 166t149 64q-57 14 -94 46t-50 70
q-30 89 -14 168l21 133q31 195 131 270t276 74h260z" />
    <glyph glyph-name="nine" unicode="9" horiz-adv-x="1290" 
d="M580 743h557q109 680 -193 680h-264q-250 0 -285 -225l-37 -240q-20 -127 38 -171t184 -44zM745 76q68 0 127 44q105 79 167 240q61 161 89 328q-244 -29 -567 -31q-334 -2 -285 310l37 239q27 164 124 232t255 67h258q393 0 269 -800q-87 -541 -329 -675
q-67 -38 -138 -38q-408 -1 -576 24l8 60h561z" />
    <glyph glyph-name="colon" unicode=":" horiz-adv-x="428" 
d="M410 1087q33 0 28 -34l-20 -125q-6 -31 -39 -31h-51q-33 0 -29 31l20 125q4 35 37 34h54zM274 188q33 0 27 -32l-18 -123q-6 -33 -39 -33h-51q-14 0 -23 9q-8 10 -6 24l20 123q4 33 37 32h53z" />
    <glyph glyph-name="semicolon" unicode=";" horiz-adv-x="421" 
d="M410 1087q35 0 28 -32l-18 -125q-6 -31 -39 -31h-51q-33 0 -29 31l18 125q6 33 39 32h52zM186 0q-14 0 -22 10t-6 25l18 121q6 37 41 37h49q31 0 27 -37l-35 -213q-8 -53 -39 -78t-57 -21l-27 2l4 31q43 0 49 41l15 82h-17z" />
    <glyph glyph-name="less" unicode="&#x3c;" horiz-adv-x="966" 
d="M203 684l12 84l789 373l-17 -92l-680 -326l574 -350l-13 -84z" />
    <glyph glyph-name="equal" unicode="=" horiz-adv-x="948" 
d="M186 930l15 84h874l-14 -84h-875zM109 434l14 84h874l-14 -84h-874z" />
    <glyph glyph-name="greater" unicode="&#x3e;" horiz-adv-x="968" 
d="M147 289l15 92l690 348l-584 332l15 80l667 -373l-12 -84z" />
    <glyph glyph-name="question" unicode="?" horiz-adv-x="1107" 
d="M463 188q33 0 29 -32l-21 -123q-4 -33 -39 -33h-51q-14 0 -23 9q-8 10 -6 24l21 123q4 33 39 32h51zM508 399h-88l43 279q160 -4 237 0q297 2 338 250l33 207q25 161 -42 229t-249 68h-524l8 55q272 31 535 26q416 2 354 -378l-31 -207q-33 -209 -173 -281t-408 -39
l-17 -103q-16 -103 -16 -106z" />
    <glyph glyph-name="at" unicode="@" horiz-adv-x="1820" 
d="M608 520q-30 -186 12 -315q39 -129 209 -129q233 -4 404 123l115 766q-156 70 -365 65q-314 -8 -375 -510zM1485 1432q169 0 241 -94t46 -271l-109 -725q-25 -162 -99 -243q-34 -37 -99 -65t-148 -28h-78l-12 123q-65 -74 -236 -117q-241 -62 -379 45q-84 66 -100 268
q-8 99 14 233q59 358 242 488q86 59 208 68q122 8 253 -24t205 -103l-131 -899q129 0 193 63t83 191l109 725q22 114 -15 196t-192 85h-772q-221 0 -299 -180q-20 -46 -29 -101l-166 -1049q-23 -137 39 -219t195 -82h788l-8 -51q-162 -33 -596 -33h-201q-158 -1 -243 109
t-58 276l166 1049q36 219 192 312q84 51 228 53h768z" />
    <glyph glyph-name="A" unicode="A" horiz-adv-x="1327" 
d="M487 567h596l-159 828zM92 0l795 1499h98l295 -1499h-84l-96 483h-658l-256 -483h-94z" />
    <glyph glyph-name="B" unicode="B" horiz-adv-x="1212" 
d="M836 827q183 0 282 139q49 69 68 162q12 86 5 142q-18 145 -263 145h-455l-92 -588h455zM717 86q311 0 364 334q14 86 -13 161q-28 75 -94 119t-153 43h-454l-105 -657h455zM940 1499q385 0 332 -369q-20 -143 -106 -236t-189 -110q70 -17 135 -106q33 -45 49 -117
t4 -155q-59 -406 -463 -406h-538l237 1499h539z" />
    <glyph glyph-name="C" unicode="C" horiz-adv-x="1163" 
d="M890 1516q138 0 417 -54l-9 -59q-433 54 -584 17t-238 -175q-99 -160 -154 -495q-109 -670 305 -678q133 -2 465 22l-9 -61q-213 -45 -467 -45q-112 0 -192 42q-279 146 -186 734q62 397 181 554q103 134 251 175q82 23 220 23z" />
    <glyph glyph-name="D" unicode="D" horiz-adv-x="1353" 
d="M713 86q96 0 180 40t143 104q171 187 226 515q111 670 -344 670h-447l-209 -1329h451zM932 1499q225 0 325 -136q99 -136 108 -309q10 -174 -22 -321q-95 -526 -389 -677q-111 -56 -249 -56h-541l237 1499h531z" />
    <glyph glyph-name="E" unicode="E" horiz-adv-x="1153" 
d="M643 1415q-174 0 -203 -182l-71 -447l712 -14l-10 -59l-715 -15l-71 -446q-16 -115 36 -144q52 -30 132 -30h602l-11 -60l-606 -24q-113 -4 -187 52t-50 212l155 981q23 141 104 203t195 57l619 -24l-8 -60h-623z" />
    <glyph glyph-name="F" unicode="F" horiz-adv-x="1144" 
d="M643 1415q-135 0 -178 -101q-14 -34 -23 -81l-69 -447l712 -14l-10 -59l-717 -15l-110 -698h-84l192 1227q25 156 104 216t197 56l619 -24l-8 -60h-625z" />
    <glyph glyph-name="G" unicode="G" horiz-adv-x="1288" 
d="M614 72q70 0 187 26t198 54l80 26l86 533h-405l8 53q125 33 356 33q66 0 140 -6l-125 -791h-60l-6 113q-61 -39 -207 -82t-254 -43t-181 28q-129 50 -183 210q-54 159 2 540q49 309 132 477q138 271 449 273q81 0 235 -18t261 -40l-10 -67q-307 39 -502 40t-309 -153
t-169 -516q-56 -362 3 -526t274 -164z" />
    <glyph glyph-name="H" unicode="H" horiz-adv-x="1327" 
d="M174 0l238 1499h84l-117 -733h838l116 733h84l-237 -1499h-84l108 684h-837l-109 -684h-84z" />
    <glyph glyph-name="I" unicode="I" horiz-adv-x="415" 
d="M184 0l238 1499h84l-238 -1499h-84z" />
    <glyph glyph-name="J" unicode="J" horiz-adv-x="679" 
d="M78 43l16 57q203 -62 316 0q43 25 79 85q37 60 52 153l184 1161h84l-184 -1161q-33 -225 -154 -301q-77 -49 -199 -48t-194 54z" />
    <glyph glyph-name="K" unicode="K" horiz-adv-x="1110" 
d="M164 0l237 1499h84l-112 -704h268l588 704h106l-620 -749l383 -750h-101l-360 709h-275l-112 -709h-86z" />
    <glyph glyph-name="L" unicode="L" horiz-adv-x="1110" 
d="M455 84h585l-12 -84h-582q-205 0 -240 126q-15 54 -3 132l198 1241h82l-196 -1241q-20 -113 35 -144q55 -30 133 -30z" />
    <glyph glyph-name="M" unicode="M" horiz-adv-x="1617" 
d="M145 0l381 1499h113l213 -1358l631 1358h123l-86 -1499h-84l77 1364l-634 -1364h-93l-206 1358l-349 -1358h-86z" />
    <glyph glyph-name="N" unicode="N" horiz-adv-x="1327" 
d="M164 0l237 1499h84l641 -1345l213 1345h84l-237 -1499h-80l-643 1346l-215 -1346h-84z" />
    <glyph glyph-name="O" unicode="O" horiz-adv-x="1388" 
d="M700 76q100 0 173 14q173 33 262 181q89 147 139 468q51 340 17 465q-13 51 -28 87q-26 61 -91 94t-136 36q-70 4 -128 4q-97 0 -176 -10t-135 -46t-83 -71q-75 -97 -103 -185q-97 -297 -116 -625q-11 -200 49 -300q50 -85 194 -104q62 -8 162 -8zM929 1509
q254 0 344 -85q89 -85 108 -247q20 -161 -19 -422t-86 -378t-80 -172q-55 -91 -162 -152t-362 -61t-346 83t-111 240q-20 156 23 424q42 268 89 385q48 117 82 174q58 97 162 154t358 57z" />
    <glyph glyph-name="P" unicode="P" horiz-adv-x="1202" 
d="M854 729q62 0 108 12q182 47 224 342q16 86 -2 196q-9 55 -58 94q-49 40 -163 40h-502l-109 -684h502zM977 1499q356 0 295 -418q-40 -260 -151 -353q-39 -32 -67 -48t-84 -26t-125 -11q-69 0 -281 11t-220 16l-106 -670h-84l237 1499h586z" />
    <glyph glyph-name="Q" unicode="Q" horiz-adv-x="1398" 
d="M647 -68h55q55 -141 240 -121q47 5 98 23l-14 -88q-120 -47 -245 -2q-56 20 -94 69t-40 119zM708 76q100 0 174 14q171 33 253 168q129 212 171 675q7 87 7 172t-42 186q-26 61 -91 94t-136 36q-71 4 -186 4t-161 -16q-108 -37 -138 -71q-31 -34 -61 -70
q-85 -105 -132 -348q-120 -555 -14 -732q50 -85 194 -104q62 -8 162 -8zM1281 1423q90 -86 110 -248t-20 -422q-39 -259 -87 -376q-47 -117 -80 -172q-55 -91 -162 -152t-362 -61t-346 83t-111 240q-20 156 23 424q42 268 108 429q66 160 142 224q45 38 104 70q85 47 338 47
t343 -86z" />
    <glyph glyph-name="R" unicode="R" horiz-adv-x="1251" 
d="M856 729q204 0 281 169q33 73 47 177q6 76 7 144t-42 131t-180 63h-506l-109 -684h502zM981 1499q348 0 289 -428q-42 -300 -204 -384q-50 -26 -85 -32t-80 -8l221 -647h-92l-217 641q-464 15 -469 23l-106 -664h-84l237 1499h590z" />
    <glyph glyph-name="S" unicode="S" horiz-adv-x="1161" 
d="M518 68q209 0 260 9q210 37 242 242l20 140q18 121 -26 177q-45 56 -180 56h-248q-183 0 -253 68t-63 163q4 46 9 95l22 135q32 220 162 295q114 67 293 63q80 0 234 -14t233 -29l-9 -57l-471 16q-157 6 -245 -55t-113 -225l-23 -135q-2 -41 -7 -78t14 -73q17 -35 37 -47
q51 -30 105 -34q53 -4 85 -4h252q328 0 276 -323l-20 -140q-48 -296 -340 -324q-51 -5 -129 -5t-244 12t-229 24l8 62q139 -14 348 -14z" />
    <glyph glyph-name="T" unicode="T" horiz-adv-x="1255" 
d="M285 1415l14 84h1081l-14 -84h-506l-223 -1415h-84l223 1415h-491z" />
    <glyph glyph-name="U" unicode="U" horiz-adv-x="1376" 
d="M708 74q76 0 138 10t126 44q66 34 110 94q97 131 145 421l135 856h84l-135 -856q-61 -392 -215 -527q-144 -128 -369 -126q-267 1 -356 68q-91 69 -117 207t12 378l135 856h84l-135 -856q-53 -334 18 -449q26 -42 54 -66t76 -36q49 -12 91 -15q43 -3 119 -3z" />
    <glyph glyph-name="V" unicode="V" horiz-adv-x="1368" 
d="M307 1499h88l273 -1380l731 1380h96l-795 -1499h-98z" />
    <glyph glyph-name="W" unicode="W" horiz-adv-x="2021" 
d="M307 1499h84l275 -1380l708 1380h94l-294 -581l174 -805l708 1386h92l-768 -1499h-98l-172 797l-410 -797h-98z" />
    <glyph glyph-name="X" unicode="X" horiz-adv-x="1150" 
d="M78 0l563 748l-332 751h92l299 -676l519 676h102l-582 -762l330 -737h-92l-295 659l-500 -659h-104z" />
    <glyph glyph-name="Y" unicode="Y" horiz-adv-x="1286" 
d="M307 1499h90l301 -860l615 860h100l-684 -967l-84 -532h-84l84 532z" />
    <glyph glyph-name="Z" unicode="Z" horiz-adv-x="1077" 
d="M72 0l14 84l1067 1331h-858l14 84h969l-14 -84l-1067 -1331h858l-15 -84h-968z" />
    <glyph glyph-name="bracketleft" unicode="[" horiz-adv-x="581" 
d="M723 1806h121l-13 -84h-122q-195 0 -236 -256l-231 -1462q-23 -133 12 -201t139 -67h125l-14 -84h-123q-233 0 -233 267q2 42 10 85l231 1462q22 152 83 227t125 94t126 19z" />
    <glyph glyph-name="backslash" unicode="\" horiz-adv-x="856" 
d="M289 1577h76l303 -1724h-76z" />
    <glyph glyph-name="bracketright" unicode="]" horiz-adv-x="587" 
d="M111 -264q193 0 235 254l232 1464q24 144 -16 206t-138 62h-123l14 84h123q72 0 120 -26q139 -77 104 -326l-232 -1464q-36 -192 -115 -265t-219 -73h-123l15 84h123z" />
    <glyph glyph-name="asciicircum" unicode="^" horiz-adv-x="849" 
d="M274 1087l304 267h77l191 -267h-72l-164 211l-254 -211h-82z" />
    <glyph glyph-name="underscore" unicode="_" horiz-adv-x="1343" 
d="M39 -2l14 84h1258l-15 -84h-1257z" />
    <glyph glyph-name="grave" unicode="`" horiz-adv-x="471" 
d="M256 1360h96l209 -273h-67z" />
    <glyph glyph-name="a" unicode="a" horiz-adv-x="1112" 
d="M461 965q-143 -95 -203 -472q-68 -427 234 -425q143 0 268 50q45 16 95 38t60 26l113 776q-211 92 -391 66q-109 -14 -176 -59zM524 -14q-226 0 -301 111q-95 143 -35 489q59 346 238 456q57 34 101 46q45 12 133 23t235 -24t221 -106l-143 -981h-55l-7 123
q-69 -43 -187 -90t-200 -47z" />
    <glyph glyph-name="b" unicode="b" horiz-adv-x="1122" 
d="M618 72q131 0 229 116q97 117 134 351q31 177 8 285t-76 152t-145 44q-176 0 -410 -59l-125 -783q209 -106 385 -106zM780 1104q326 0 299 -439q-4 -65 -14 -137q-115 -699 -678 -492q-125 46 -164 85l-45 -121h-55l254 1608h80l-92 -586q98 38 219 60t196 22z" />
    <glyph glyph-name="c" unicode="c" horiz-adv-x="1007" 
d="M631 1100q166 0 418 -56l-11 -57q-240 29 -358 29t-157 -9q-97 -23 -158 -128q-61 -106 -99 -342q-18 -113 -18 -196q0 -155 57 -212t151 -57q194 0 388 28l69 9l-8 -62q-160 -42 -259 -49q-98 -8 -174 -8q-230 0 -283 169q-50 170 -5 396q64 395 225 494q54 33 103 42
t119 9z" />
    <glyph glyph-name="d" unicode="d" horiz-adv-x="1087" 
d="M1022 961q-195 59 -397 59q-281 0 -359 -481q-40 -236 24 -352q64 -115 184 -115t215 28t208 78zM636 1104q83 0 197 -23t201 -59l92 586h80l-254 -1608h-55l-8 121q-53 -41 -187 -87t-223 -46q-241 0 -295 256q-28 132 -8 265q52 345 183 481q48 50 121 82t156 32z" />
    <glyph glyph-name="e" unicode="e" horiz-adv-x="1089" 
d="M973 953q-63 71 -253 71t-273 -60q-31 -24 -53 -41t-57 -87t-46 -133q-13 -63 -19 -93t-7 -36t-3 -12q-2 -7 -2 -13q364 -52 577 39q62 27 110 80q47 52 57 116q18 116 -31 169zM438 -14q-193 0 -252 140q-72 170 14 546q48 227 129 306q39 36 75 60q104 70 306 70
t302 -72t80 -241q-14 -107 -76 -181t-152 -106q-235 -84 -528 -35q-61 10 -84 19q-33 -226 8 -324t182 -100q180 -6 496 38l-10 -61q-217 -59 -490 -59z" />
    <glyph glyph-name="f" unicode="f" horiz-adv-x="763" 
d="M700 1526q-102 0 -141 -66q-38 -66 -61 -213l-25 -160h356l-14 -83h-356l-160 -1004h-84l160 1004h-187l9 57l192 26l25 160q8 43 17 98t37 115q28 61 49 80q21 18 58 41t130 29q51 0 141 -10t131 -23l-6 -51h-271z" />
    <glyph glyph-name="g" unicode="g" horiz-adv-x="1103" 
d="M651 1016q-230 6 -338 -292q-29 -80 -46 -198t-13 -227q9 -234 231 -236q105 -1 187 13t233 53l142 881zM344 962q117 138 297 138t329 -16t169 -17l-203 -1280q-30 -180 -140 -269t-241 -75l-479 49l8 53l485 -20q90 -5 176 63t107 199l43 272q-209 -79 -414 -79
q-115 0 -187 46t-98 125q-55 166 -10 412q41 261 158 399z" />
    <glyph glyph-name="h" unicode="h" horiz-adv-x="1107" 
d="M815 1106q155 0 227 -102t50 -246l-121 -758h-84l121 758q18 120 -38 192t-175 72t-213 -28t-232 -95l-143 -899h-84l254 1606h84l-103 -645q258 145 457 145z" />
    <glyph glyph-name="i" unicode="i" horiz-adv-x="329" 
d="M418 1425q29 0 24 -34l-14 -95q-4 -33 -37 -32h-49q-33 -1 -29 32l15 95q4 35 39 34h51zM123 0l172 1087h84l-172 -1087h-84z" />
    <glyph glyph-name="j" unicode="j" horiz-adv-x="354" 
d="M438 1425q31 0 27 -34l-16 -95q-4 -33 -37 -32h-50q-14 0 -22 9t-6 23l16 95q4 35 37 34h51zM57 -553l260 1640h84l-174 -1095q-51 -344 -118 -545h-52z" />
    <glyph glyph-name="k" unicode="k" horiz-adv-x="980" 
d="M123 0l254 1602h84l-156 -981q127 6 240 52q113 45 191 115q159 142 202 299h92q-65 -226 -255 -373q-100 -79 -214 -118l371 -596h-101l-354 571q-98 -23 -180 -14l-90 -557h-84z" />
    <glyph glyph-name="l" unicode="l" horiz-adv-x="624" 
d="M389 0q-135 0 -187 94t-20 293l193 1217h84l-193 -1217q-30 -171 7 -233q13 -23 21 -34t31 -20q22 -9 111 -26q88 -17 99 -17l-11 -57h-135z" />
    <glyph glyph-name="m" unicode="m" horiz-adv-x="1869" 
d="M815 1104q88 0 158 -47t96 -123q101 68 239 119t274 51t214 -102t53 -246l-118 -756h-84l118 756q18 112 -39 188t-170 76q-215 0 -471 -133q14 -47 2 -133l-120 -754h-84l121 756q18 112 -40 188t-176 76t-209 -28t-231 -93l-141 -899h-84l172 1087h55l8 -129
q78 45 141 74q154 72 316 72z" />
    <glyph glyph-name="n" unicode="n" horiz-adv-x="1107" 
d="M811 1106q155 0 229 -102t52 -246l-121 -758h-84l121 758q18 116 -38 190t-175 74t-213 -28t-232 -95l-143 -899h-84l172 1087h55l8 -126q258 145 453 145z" />
    <glyph glyph-name="o" unicode="o" horiz-adv-x="1148" 
d="M569 74q104 0 170 16t124 62q107 86 157 376q59 379 -99 452q-75 34 -172 34q-96 0 -142 -5t-95 -23t-82 -50q-32 -33 -64 -86q-61 -103 -98 -322q-24 -175 -14 -245t30 -104t47 -54q26 -19 80 -35t158 -16zM731 1098q256 0 338 -140t34 -441q-48 -300 -163 -414
q-115 -113 -376 -113t-344 125t-36 424q27 168 68 274q82 211 262 260q88 25 217 25z" />
    <glyph glyph-name="p" unicode="p" horiz-adv-x="1099" 
d="M772 1014h-401l-144 -891q240 -66 396 -58q157 7 243 119t124 348q77 482 -218 482zM782 1098q102 0 172 -45t100 -123q65 -168 23 -402q-35 -238 -137 -392q-103 -154 -322 -154q-80 0 -198 20t-205 57l-96 -612h-84l264 1628q162 23 483 23z" />
    <glyph glyph-name="q" unicode="q" horiz-adv-x="1130" 
d="M641 1016q-191 0 -291 -204q-58 -116 -80 -265q-20 -147 -16 -255q9 -227 235 -229q109 1 190 13t222 47l141 893h-401zM653 1100q270 0 482 -29l-256 -1624h-84l96 612q-215 -79 -410 -79q-115 0 -187 45t-96 123q-58 178 -10 413q86 539 465 539z" />
    <glyph glyph-name="r" unicode="r" horiz-adv-x="827" 
d="M828 1100q96 0 135 -17l-15 -82q-149 35 -288 -1q-38 -9 -72 -16t-133 -54q-100 -46 -109 -49l-139 -881h-84l172 1087h53l8 -137q100 51 146 74q46 24 138 50t188 26z" />
    <glyph glyph-name="s" unicode="s" horiz-adv-x="1034" 
d="M662 70q103 0 147 40q45 40 59 126l19 102q10 74 -27 117t-127 43h-280q-194 0 -233 73t-19 177l16 98q20 131 95 193t229 63q81 0 247 -8t244 -17l-10 -57h-494q-162 0 -206 -108q-14 -32 -21 -74l-16 -99q-15 -110 26 -135q28 -17 56 -19q27 -1 40 -2t30 -1h300
q123 0 187 -69t47 -183l-19 -109q-27 -175 -156 -216q-61 -19 -143 -19q-83 0 -273 10t-249 16l8 58h523z" />
    <glyph glyph-name="t" unicode="t" horiz-adv-x="727" 
d="M483 -2q-137 0 -189 94t-22 293l99 621h-183l11 61l186 23l70 303h61l-47 -303h344l-14 -84h-344l-99 -621q-25 -176 9 -233q12 -23 21 -34t32 -21t110 -26q86 -16 97 -16l-9 -57h-133z" />
    <glyph glyph-name="u" unicode="u" 
d="M454 -16q-174 0 -248 100t-52 248l120 758h84l-120 -758q-18 -121 38 -193q56 -71 176 -71t213 28t232 92l141 902h84l-172 -1088h-55l-8 127q-259 -145 -433 -145z" />
    <glyph glyph-name="v" unicode="v" horiz-adv-x="1077" 
d="M193 1087h86l245 -978l457 811q59 111 68 170h61q20 -68 -43 -189l-504 -901h-102z" />
    <glyph glyph-name="w" unicode="w" horiz-adv-x="1644" 
d="M193 1087h83l242 -976l453 802q63 117 71 170h58q20 -63 -43 -188l-107 -193l144 -591l460 807q63 117 72 172h57q23 -72 -43 -189l-516 -901h-88l-145 600l-338 -600h-92z" />
    <glyph glyph-name="x" unicode="x" horiz-adv-x="964" 
d="M49 0l479 547l-307 540h103l268 -471l414 471h108l-479 -546l305 -541h-102l-265 467l-411 -467h-113z" />
    <glyph glyph-name="y" unicode="y" 
d="M193 1087h86l155 -849q27 -137 141 -150h35l412 842q43 90 55 168h62q23 -76 -33 -191l-442 -905q-2 -6 -13 -25q-258 -514 -452 -528v55q74 15 168 146t144 237t56 113q-49 0 -98 28q-97 57 -121 197z" />
    <glyph glyph-name="z" unicode="z" horiz-adv-x="923" 
d="M92 2l12 84l811 918h-694l12 83h811l-12 -83l-809 -918h662l-13 -84h-780z" />
    <glyph glyph-name="braceleft" unicode="{" horiz-adv-x="573" 
d="M137 729l13 84q105 7 152 38q46 30 54 91l78 492q27 174 122 273t286 99l-15 -84q-86 0 -146 -26q-132 -58 -165 -271l-76 -483q-16 -99 -106 -146q-41 -22 -90 -30q70 -10 110 -58t29 -112l-90 -563q-27 -168 29 -235t192 -64l-14 -82q-352 0 -289 389l86 547
q12 66 -40 106t-120 35z" />
    <glyph glyph-name="bar" unicode="|" horiz-adv-x="460" 
d="M152 -147l272 1724h84l-272 -1724h-84z" />
    <glyph glyph-name="braceright" unicode="}" horiz-adv-x="567" 
d="M-27 -348l15 82q133 0 209 62t100 216l88 555q9 68 65 114t128 58q-70 11 -110 59t-30 115l80 492q28 176 -28 250t-189 71l14 80q100 0 167 -36q66 -36 92 -94q57 -130 26 -279l-76 -479q-18 -88 74 -125q44 -19 88 -19l-14 -84q-70 4 -131 -28t-74 -99l-88 -557
q-40 -259 -224 -327q-78 -27 -182 -27z" />
    <glyph glyph-name="asciitilde" unicode="~" horiz-adv-x="964" 
d="M748 1174q26 0 62 8t66 29q30 20 42 27t29 19t26 17l16 -39q-6 -7 -24 -21q-17 -14 -25 -21t-26 -21q-91 -70 -169 -70q-45 0 -119 61t-105 61q-32 0 -66 -10q-34 -11 -85 -43q-51 -31 -67 -38l-16 38q43 32 68 53t44 30q19 10 47 26t79 16q50 0 124 -61q73 -61 99 -61z
" />
    <glyph glyph-name="exclamdown" unicode="&#xa1;" horiz-adv-x="509" 
d="M293 791l20 122q4 29 37 31h51q31 -2 27 -33l-20 -120q-6 -31 -35 -35h-56q-28 2 -24 35zM92 -553l189 1096h67l-160 -1096h-96z" />
    <glyph glyph-name="cent" unicode="&#xa2;" horiz-adv-x="985" 
d="M662 1016q-118 0 -157 -9q-38 -9 -80 -37q-114 -76 -177 -433q-53 -353 63 -429q55 -36 138 -36q182 0 376 28l72 9l-10 -62q-180 -49 -350 -55l-27 -170h-66l25 168q-115 -4 -197 40q-176 94 -108 525q41 253 110 366q37 58 74 96q81 83 297 83l29 176h65l-28 -182
q158 -12 319 -50l-10 -57q-240 29 -358 29z" />
    <glyph glyph-name="sterling" unicode="&#xa3;" horiz-adv-x="1169" 
d="M938 1499q100 0 170 -6t112 -9t66 -5l27 -2l-13 -60h-350q-112 0 -180 -12t-127 -51t-92 -116t-53 -204l-41 -258l579 -22l-10 -52h-582l-96 -618h742l-15 -84h-973l9 59l153 25l96 618h-147l8 52l152 22l41 258q41 272 160 370q42 34 79 52q88 43 285 43z" />
    <glyph glyph-name="currency" unicode="&#xa4;" horiz-adv-x="956" 
d="M512 356q118 0 206 82q89 82 109 199t-47 197q-68 80 -184 80t-206 -80q-89 -78 -107 -193q-17 -115 47 -200t182 -85zM600 975q125 0 203 -76l110 92l37 -45l-110 -92q68 -94 48 -217t-106 -217l74 -88l-49 -39l-70 86q-102 -86 -232 -86t-208 92l-98 -86l-37 45l100 86
q-61 102 -41 221q18 119 109 207l-80 94l45 37l78 -94q102 80 227 80z" />
    <glyph glyph-name="yen" unicode="&#xa5;" horiz-adv-x="1206" 
d="M217 375l8 59h381l25 164h-379l10 59h373l-346 842h92l311 -754l600 754h103l-668 -842h410l-11 -59h-411l-25 -164h410l-8 -59h-410l-55 -375h-84l55 375h-381z" />
    <glyph glyph-name="brokenbar" unicode="&#xa6;" horiz-adv-x="462" 
d="M313 879l111 698h84l-111 -698h-84zM152 -147l106 671h84l-106 -671h-84z" />
    <glyph glyph-name="section" unicode="&#xa7;" horiz-adv-x="1138" 
d="M420 590h379q88 0 128 11t55 37t26 87l20 127q20 109 -47 131q-37 12 -117 12h-327q-100 0 -135 -16q-36 -16 -49 -47t-21 -84l-21 -125q-12 -89 17 -111t92 -22zM705 68q98 0 153 34t70 123l24 150q12 81 -18 105t-148 24h-323q-209 0 -235 107q-11 46 1 118l19 131
q12 80 43 124t92 56q-98 35 -78 168l23 146q39 252 305 252q122 0 301 -12q178 -12 215 -15l-8 -57h-520q-182 0 -209 -170l-23 -144q-12 -78 28 -104t134 -27h326q153 0 203 -57t32 -178l-20 -127q-22 -121 -70 -152q-25 -16 -57 -20q41 -10 59 -39t16 -62t-4 -67l-24 -150
q-24 -157 -117 -203q-74 -38 -187 -38t-297 11t-221 15l9 58h506z" />
    <glyph glyph-name="dieresis" unicode="&#xa8;" horiz-adv-x="915" 
d="M876 1249q60 0 54 -57q-10 -59 -68 -59q-25 0 -40 17t-11 42q5 25 25 41t40 16zM354 1249q20 0 38 -10t16 -35q-3 -37 -23 -54q-19 -17 -45 -17t-40 17q-15 17 -11 42t24 41q21 16 41 16z" />
    <glyph glyph-name="copyright" unicode="&#xa9;" horiz-adv-x="1730" 
d="M952 1194q143 0 357 -39l-6 -49q-170 25 -361 24q-231 0 -293 -389q-51 -275 66 -350q41 -27 104 -26q221 0 383 32l-8 -49q-178 -47 -383 -47q-297 1 -225 447t366 446zM602 63h533q104 0 200 76t172 236t113 379q70 489 -92 625q-68 56 -172 57h-537q-174 0 -310 -140
q-156 -159 -218 -542q-33 -228 3 -377q22 -90 58 -160t101 -112q66 -42 149 -42zM827 1499h529q154 0 246 -103q133 -157 96 -526q-22 -226 -86 -406q-103 -293 -279 -404q-96 -60 -207 -60h-528q-108 0 -188 55t-120 137q-80 166 -78 370t59 406q104 368 350 486
q94 45 206 45z" />
    <glyph glyph-name="ordfeminine" unicode="&#xaa;" horiz-adv-x="712" 
d="M374 1356q-64 -72 -82 -194t-1 -190q36 -136 170 -134q115 0 268 114l64 424q-37 27 -108 45t-138 13q-109 -6 -173 -78zM465 772q-116 0 -187 77q-84 88 -55 304q25 147 83 222t120 98q175 64 345 -13q54 -25 87 -59l-94 -621h-39l-4 115q-43 -51 -119 -87t-137 -36z
M147 580l9 57h589l-8 -57h-590z" />
    <glyph glyph-name="guillemotleft" unicode="&#xab;" horiz-adv-x="1144" 
d="M600 725l485 418l54 -62l-426 -362l313 -369l-63 -53zM217 725l485 418l54 -62l-422 -364l307 -365l-61 -55z" />
    <glyph glyph-name="logicalnot" unicode="&#xac;" horiz-adv-x="1089" 
d="M1032 643q-6 -38 -49 -317h-84l35 231h-750l15 86h833z" />
    <glyph glyph-name="uni00AD" unicode="&#xad;" horiz-adv-x="733" 
d="M123 553l14 82h643l-14 -82h-643z" />
    <glyph glyph-name="registered" unicode="&#xae;" horiz-adv-x="1730" 
d="M1028 750q102 0 150 34q47 35 59 119t7 122t-39 68t-115 31h-312l-61 -374h311zM1085 1188q258 0 220 -268q-15 -109 -64 -166q-49 -62 -190 -62l155 -379h-71l-154 379l-270 15l-62 -394h-63l137 875h362zM1135 63q162 -1 297 181t188 510q70 488 -91 625
q-67 56 -173 57h-537q-174 0 -310 -140q-156 -159 -218 -542q-29 -164 -10 -320t99 -263q80 -108 218 -108h537zM827 1499h529q154 0 246 -103q133 -157 96 -526q-22 -226 -86 -406q-103 -293 -279 -404q-96 -60 -207 -60h-528q-108 0 -188 54t-120 137q-117 242 -63 565
q32 228 127 422t267 276q94 45 206 45z" />
    <glyph glyph-name="macron" unicode="&#xaf;" horiz-adv-x="802" 
d="M274 1087l11 64h542l-8 -64h-545z" />
    <glyph glyph-name="degree" unicode="&#xb0;" horiz-adv-x="688" 
d="M495 1139q65 0 115 45t56 99q14 103 -59 149q-34 20 -76 20q-92 0 -145 -78q-26 -38 -32 -92t35 -98t106 -45zM532 1505q86 0 142 -61q56 -62 46 -150q-9 -88 -74 -148q-64 -60 -150 -60t-144 60q-58 62 -48 149q9 87 76 149q66 62 152 61z" />
    <glyph glyph-name="plusminus" unicode="&#xb1;" horiz-adv-x="1056" 
d="M233 825l13 84h362l60 363h84l-60 -363h365l-13 -84h-364l-57 -364h-84l57 364h-363zM141 246l15 84h811l-15 -84h-811z" />
    <glyph glyph-name="twosuperior" unicode="&#xb2;" horiz-adv-x="802" 
d="M678 1716q92 0 148 -45q101 -81 75 -244q-31 -188 -369 -453q-74 -58 -150 -114t-85 -63h500l-11 -68h-632l8 59q10 6 70 50t96 68t104 75q66 51 110 88q269 226 285 363q18 106 -18 161q-37 55 -158 56h-358q-4 4 3 37q3 12 5 10q166 20 377 20z" />
    <glyph glyph-name="threesuperior" unicode="&#xb3;" horiz-adv-x="856" 
d="M522 788q109 0 166 41t74 144l8 47q12 82 -39 125t-131 45l-291 8l8 47l285 10q90 2 157 45t77 111l6 66q16 90 -29 126t-133 35h-391l6 45q100 25 403 23q121 0 174 -67t37 -164l-12 -76q-11 -74 -67 -124t-105 -58q66 -24 100 -100q20 -44 13 -95l-9 -59
q-18 -119 -86 -181t-211 -61q-278 0 -376 27l6 40h360z" />
    <glyph glyph-name="acute" unicode="&#xb4;" horiz-adv-x="434" 
d="M213 1087l281 273h102l-315 -273h-68z" />
    <glyph glyph-name="uni00B5" unicode="&#xb5;" horiz-adv-x="1200" 
d="M516 -16q-162 0 -231 120l-105 -657h-84l260 1643h84l-121 -758q-18 -117 38 -191q56 -73 175 -73t213 28t234 92l141 902h84l-172 -1088h-55l-8 127q-258 -145 -453 -145z" />
    <glyph glyph-name="paragraph" unicode="&#xb6;" horiz-adv-x="1159" 
d="M526 811h113l96 606h-110q-117 0 -187 -57t-84 -150l-28 -184q-21 -147 98 -196q48 -19 102 -19zM637 1499h709l-15 -88h-141l-223 -1411h-84l223 1415h-287l-313 -1968h-84l209 1305q-45 -25 -119 -23q-152 0 -220 90t-50 213l30 191q20 149 137 217q99 59 228 59z" />
    <glyph glyph-name="periodcentered" unicode="&#xb7;" horiz-adv-x="567" 
d="M332 844h53q33 0 29 -33l-11 -55q-4 -33 -36 -33h-54q-14 -1 -22 9t-6 24l10 55q4 33 37 33z" />
    <glyph glyph-name="cedilla" unicode="&#xb8;" horiz-adv-x="540" 
d="M123 -354h-78l6 35l84 18q78 14 115 59t55 166h70q-27 -158 -78 -218t-174 -60z" />
    <glyph glyph-name="onesuperior" unicode="&#xb9;" horiz-adv-x="565" 
d="M236 1526l6 45q117 0 251 88q32 20 48 35l16 14h66l-156 -979h-68l142 891q-41 -34 -122 -64t-183 -30z" />
    <glyph glyph-name="ordmasculine" unicode="&#xba;" horiz-adv-x="765" 
d="M595 1446q-71 0 -116 -10q-105 -23 -144 -141q-43 -124 -49 -266t71 -179q49 -21 135 -22q86 -2 129 8t81 41q69 55 97 234q27 178 14 230q-14 52 -42 70q-29 19 -67 27t-109 8zM494 764q-182 0 -238 84t-25 285q18 115 42 183q51 142 171 176q63 17 164 17
q184 2 240 -83t20 -306q-24 -141 -50 -196q-61 -130 -184 -149q-73 -11 -140 -11zM170 582l8 57h592l-8 -57h-592z" />
    <glyph glyph-name="guillemotright" unicode="&#xbb;" horiz-adv-x="1138" 
d="M551 360l432 369l-303 361l61 53l357 -422l-494 -424zM166 360l432 371l-303 356l61 56l357 -422l-494 -424z" />
    <glyph glyph-name="onequarter" unicode="&#xbc;" horiz-adv-x="1873" 
d="M1040 340l502 633h82l-465 -592h465l39 248l49 98h35l-55 -346h120l-6 -47l-125 -25l-49 -307h-67l49 307h-557zM403 0l1096 1577h70l-1096 -1577h-70zM236 1321l6 45q117 0 251 88q32 20 48 35l16 14h66l-156 -979h-68l142 891q-41 -33 -122 -63t-183 -31z" />
    <glyph glyph-name="onehalf" unicode="&#xbd;" horiz-adv-x="1966" 
d="M1702 989q92 0 147 -45q98 -80 76 -239q-36 -228 -517 -575q-79 -56 -85 -60h498l-11 -68h-632l8 59q10 6 150 105t206 156q158 136 229 224q72 88 84 176q12 89 -24 144q-37 55 -156 56h-358q-4 4 6 47q168 20 379 20zM334 0l1096 1577h69l-1096 -1577h-69zM236 1321
l6 45q117 0 251 88q32 20 48 35l16 14h66l-156 -979h-68l142 891q-41 -33 -122 -63t-183 -31z" />
    <glyph glyph-name="threequarters" unicode="&#xbe;" horiz-adv-x="2103" 
d="M1212 340l504 633h82l-467 -592h467l39 248l49 98h35l-55 -346h121l-7 -47l-125 -25l-49 -307h-67l49 307h-557zM614 0l1098 1577h70l-1098 -1577h-70zM522 584q109 0 166 41t74 143l8 47q8 55 -15 94q-44 71 -155 76l-291 8l8 47l285 11q90 2 157 45t77 110l6 66
q16 90 -29 126t-133 36h-391l6 45q100 25 403 22q121 -1 174 -67t37 -164l-12 -76q-11 -74 -67 -124t-105 -58q45 -18 85 -70t28 -125l-9 -59q-18 -119 -86 -180t-211 -62q-278 0 -376 27l6 41h360z" />
    <glyph glyph-name="questiondown" unicode="&#xbf;" horiz-adv-x="1103" 
d="M784 963h54q14 1 22 -9t6 -24l-18 -123q-4 -35 -39 -35h-53q-31 0 -27 35l19 123q4 33 36 33zM424 -469h528l-8 -53q-272 -33 -543 -29q-407 -4 -346 383l33 207q33 203 174 275t406 42l17 103q17 102 15 104h88l-43 -276q-162 2 -241 0q-292 -4 -332 -252l-33 -207
q-27 -164 39 -230t246 -67z" />
    <glyph glyph-name="Agrave" unicode="&#xc0;" horiz-adv-x="1327" 
d="M487 567h596l-159 828zM92 0l795 1499h98l295 -1499h-84l-96 483h-658l-256 -483h-94zM686 1905h96l209 -273h-67z" />
    <glyph glyph-name="Aacute" unicode="&#xc1;" horiz-adv-x="1327" 
d="M487 567h596l-159 828zM92 0l795 1499h98l295 -1499h-84l-96 483h-658l-256 -483h-94zM924 1632l280 273h103l-316 -273h-67z" />
    <glyph glyph-name="Acircumflex" unicode="&#xc2;" horiz-adv-x="1327" 
d="M487 567h596l-159 828zM92 0l795 1499h98l295 -1499h-84l-96 483h-658l-256 -483h-94zM672 1632l303 266h78l190 -266h-67l-168 213l-256 -213h-80z" />
    <glyph glyph-name="Atilde" unicode="&#xc3;" horiz-adv-x="1327" 
d="M487 567h596l-159 828zM92 0l795 1499h98l295 -1499h-84l-96 483h-658l-256 -483h-94zM1086 1632q-46 0 -88 32t-78 62t-63 29q-71 0 -132 -39q-73 -42 -88 -53l-14 39q155 120 248 122q42 0 118 -60t105 -60q80 -2 213 94l18 -39q-6 -4 -30 -22q-23 -17 -31 -23l-28 -21
t-32 -21q-10 -6 -42 -22q-30 -18 -76 -18z" />
    <glyph glyph-name="Adieresis" unicode="&#xc4;" horiz-adv-x="1327" 
d="M487 567h596l-159 828zM92 0l795 1499h98l295 -1499h-84l-96 483h-658l-256 -483h-94zM1239 1749q25 0 38 -16t9 -41t-23 -42q-19 -18 -44 -18t-39 18t-11 42q5 25 25 41t45 16zM717 1749q25 0 38 -16t9 -41t-24 -42q-20 -18 -44 -18q-25 0 -39 18t-10 42q5 25 25 41
t45 16z" />
    <glyph glyph-name="Aring" unicode="&#xc5;" horiz-adv-x="1327" 
d="M487 567h596l-159 828zM92 0l795 1499h16q-89 19 -126 99q-22 48 -13 106q12 88 82 149t156 61t138 -60q52 -62 40 -150t-72 -142t-123 -63l295 -1499h-84l-96 483h-658l-256 -483h-94zM994 1862q-65 0 -117 -46t-61 -110t31 -112q40 -46 93 -46q98 0 157 79q27 35 33 89
t-32 100q-39 46 -104 46z" />
    <glyph glyph-name="AE" unicode="&#xc6;" horiz-adv-x="1851" 
d="M596 586h444l119 747zM1427 1415q-90 0 -113 -14q-24 -13 -34 -19t-17 -19t-16 -26t-14 -60q-6 -47 -8 -56l-70 -439l672 -12l-10 -61l-676 -13l-72 -446q-16 -115 36 -144q52 -30 132 -30h561l-8 -58l-555 -26q-110 -4 -192 48t-58 208l41 254h-491l-373 -502h-101
l910 1219q88 119 154 179q67 60 139 83t178 18l577 -24l-8 -60h-584z" />
    <glyph glyph-name="Ccedilla" unicode="&#xc7;" horiz-adv-x="1163" 
d="M471 -352h-78l6 35l82 16q78 14 116 59t54 168h70q-25 -160 -76 -219t-174 -59zM616 -12q-112 0 -192 42q-279 146 -186 734q39 233 75 335q35 101 69 161q74 131 186 192q112 62 286 63t453 -53l-9 -59q-434 54 -590 14q-58 -14 -120 -56q-190 -128 -264 -611
q-109 -670 303 -678q133 -2 465 22l-9 -61q-213 -45 -467 -45z" />
    <glyph glyph-name="Egrave" unicode="&#xc8;" horiz-adv-x="1153" 
d="M643 1415q-174 0 -203 -182l-71 -447l712 -14l-10 -59l-715 -15l-71 -446q-16 -115 36 -144q52 -30 132 -30h602l-11 -60l-606 -24q-113 -4 -187 52t-50 212l155 981q23 141 104 203t195 57l619 -24l-8 -60h-623zM612 1894h97l209 -272h-66z" />
    <glyph glyph-name="Eacute" unicode="&#xc9;" horiz-adv-x="1153" 
d="M643 1415q-174 0 -203 -182l-71 -447l712 -14l-10 -59l-715 -15l-71 -446q-16 -115 36 -144q52 -30 132 -30h602l-11 -60l-606 -24q-113 -4 -187 52t-50 212l155 981q23 141 104 203t195 57l619 -24l-8 -60h-623zM829 1622l281 272h100l-315 -272h-66z" />
    <glyph glyph-name="Ecircumflex" unicode="&#xca;" horiz-adv-x="1153" 
d="M643 1415q-174 0 -203 -182l-71 -447l712 -14l-10 -59l-715 -15l-71 -446q-16 -115 36 -144q52 -30 132 -30h602l-11 -60l-606 -24q-113 -4 -187 52t-50 212l155 981q23 141 104 203t195 57l619 -24l-8 -60h-623zM596 1622l303 266h78l190 -266h-71l-164 211l-254 -211
h-82z" />
    <glyph glyph-name="Edieresis" unicode="&#xcb;" horiz-adv-x="1153" 
d="M643 1415q-174 0 -203 -182l-71 -447l712 -14l-10 -59l-715 -15l-71 -446q-16 -115 36 -144q52 -30 132 -30h602l-11 -60l-606 -24q-113 -4 -187 52t-50 212l155 981q23 141 104 203t195 57l619 -24l-8 -60h-623zM1133 1667q-25 0 -41 17t-11 42t25 41q20 17 45 17
t39 -16t10 -42q-4 -25 -23 -42t-44 -17zM610 1667q-25 0 -40 17t-11 42q5 25 25 41q20 17 45 17t39 -16t10 -42q-4 -25 -24 -42t-44 -17z" />
    <glyph glyph-name="Igrave" unicode="&#xcc;" horiz-adv-x="415" 
d="M184 0l238 1499h84l-238 -1499h-84zM215 1905h94l209 -273h-65z" />
    <glyph glyph-name="Iacute" unicode="&#xcd;" horiz-adv-x="415" 
d="M184 0l238 1499h84l-238 -1499h-84zM453 1632l280 273h101l-316 -273h-65z" />
    <glyph glyph-name="Icircumflex" unicode="&#xce;" horiz-adv-x="415" 
d="M184 0l238 1499h84l-238 -1499h-84zM201 1632l301 266h78l190 -266h-68l-165 213l-256 -213h-80z" />
    <glyph glyph-name="Idieresis" unicode="&#xcf;" horiz-adv-x="415" 
d="M184 0l238 1499h84l-238 -1499h-84zM766 1749q25 0 43 -21t3 -49q-15 -29 -33 -38q-19 -9 -37 -9t-34 18t-12 42q4 25 24 41t46 16zM237 1749q32 0 51 -22t-5 -59q-24 -36 -53 -36q-30 0 -50 23t2 59q23 35 55 35z" />
    <glyph glyph-name="Eth" unicode="&#xd0;" horiz-adv-x="1390" 
d="M711 86q96 0 180 40t143 104q167 183 226 515q111 670 -345 670h-446l-98 -622h313l-10 -58h-312l-102 -649h451zM930 1499q224 0 324 -133t109 -314q10 -180 -20 -319q-95 -525 -391 -677q-111 -56 -250 -56h-540l117 735h-134l9 58h133l112 706h531z" />
    <glyph glyph-name="Ntilde" unicode="&#xd1;" horiz-adv-x="1327" 
d="M164 0l237 1499h84l641 -1345l213 1345h84l-237 -1499h-80l-643 1346l-215 -1346h-84zM1065 1700q80 0 213 96l18 -39q-8 -6 -34 -26t-45 -34q-19 -13 -28 -19t-44 -26q-35 -19 -56 -20q-21 -2 -49 -2t-70 31t-79 61t-63 30q-74 -3 -132 -40q-73 -42 -88 -53l-14 41
q156 121 244 123q47 -3 123 -63t104 -60z" />
    <glyph glyph-name="Ograve" unicode="&#xd2;" horiz-adv-x="1388" 
d="M952 1425q-96 0 -163 -2t-138 -27t-101 -59q-30 -33 -60 -69q-99 -121 -166 -529q-47 -294 -21 -431q14 -75 41 -120q67 -112 347 -112q175 0 258 35t126 82q139 152 199 546q67 401 -6 542q-27 50 -56 78t-96 47q-68 19 -164 19zM929 1509q254 0 344 -85
q167 -160 95 -621q-54 -350 -124 -508q-96 -220 -286 -272q-114 -31 -236 -31t-181 6t-119 24t-96 53q-91 84 -111 240t23 424q42 268 89 385q48 117 82 174q58 97 162 154t358 57zM666 1905h94l209 -273h-66z" />
    <glyph glyph-name="Oacute" unicode="&#xd3;" horiz-adv-x="1388" 
d="M952 1425q-96 0 -163 -2t-138 -27t-101 -59q-30 -33 -60 -69q-99 -121 -166 -529q-47 -294 -21 -431q14 -75 41 -120q67 -112 347 -112q175 0 258 35t126 82q139 152 199 546q67 401 -6 542q-27 50 -56 78t-96 47q-68 19 -164 19zM929 1509q254 0 344 -85
q167 -160 95 -621q-54 -350 -124 -508q-96 -220 -286 -272q-114 -31 -236 -31t-181 6t-119 24t-96 53q-91 84 -111 240t23 424q42 268 89 385q48 117 82 174q58 97 162 154t358 57zM903 1632l281 273h100l-315 -273h-66z" />
    <glyph glyph-name="Ocircumflex" unicode="&#xd4;" horiz-adv-x="1388" 
d="M952 1425q-96 0 -163 -2t-138 -27t-101 -59q-30 -33 -60 -69q-99 -121 -166 -529q-47 -294 -21 -431q14 -75 41 -120q67 -112 347 -112q175 0 258 35t126 82q139 152 199 546q67 401 -6 542q-27 50 -56 78t-96 47q-68 19 -164 19zM929 1509q254 0 344 -85
q167 -160 95 -621q-54 -350 -124 -508q-96 -220 -286 -272q-114 -31 -236 -31t-181 6t-119 24t-96 53q-91 84 -111 240t23 424q42 268 89 385q48 117 82 174q58 97 162 154t358 57zM651 1632l303 266h78l189 -266h-68l-166 213l-256 -213h-80z" />
    <glyph glyph-name="Otilde" unicode="&#xd5;" horiz-adv-x="1388" 
d="M952 1425q-96 0 -163 -2t-138 -27t-101 -59q-30 -33 -60 -69q-99 -121 -166 -529q-47 -294 -21 -431q14 -75 41 -120q67 -112 347 -112q175 0 258 35t126 82q139 152 199 546q67 401 -6 542q-27 50 -56 78t-96 47q-68 19 -164 19zM929 1509q254 0 344 -85
q167 -160 95 -621q-54 -350 -124 -508q-96 -220 -286 -272q-114 -31 -236 -31t-181 6t-119 24t-96 53q-91 84 -111 240t23 424q42 268 89 385q48 117 82 174q58 97 162 154t358 57zM1048 1632q-28 0 -70 32t-79 62t-63 29q-76 0 -133 -39q-13 -8 -44 -26t-43 -27l-16 39
q154 121 246 123q45 -1 121 -61t104 -60q82 -2 215 94l17 -39q-33 -22 -53 -38t-68 -48q-49 -31 -78 -36q-28 -5 -56 -5z" />
    <glyph glyph-name="Odieresis" unicode="&#xd6;" horiz-adv-x="1388" 
d="M952 1425q-96 0 -163 -2t-138 -27t-101 -59q-30 -33 -60 -69q-99 -121 -166 -529q-47 -294 -21 -431q14 -75 41 -120q67 -112 347 -112q175 0 258 35t126 82q139 152 199 546q67 401 -6 542q-27 50 -56 78t-96 47q-68 19 -164 19zM929 1509q254 0 344 -85
q167 -160 95 -621q-54 -350 -124 -508q-96 -220 -286 -272q-114 -31 -236 -31t-181 6t-119 24t-96 53q-91 84 -111 240t23 424q42 268 89 385q48 117 82 174q58 97 162 154t358 57zM1216 1749q26 0 40 -16t10 -41t-24 -42q-20 -18 -44 -18q-25 0 -40 18t-11 42q4 25 24 41
q19 16 45 16zM694 1749q25 0 39 -16t10 -41t-23 -42q-19 -18 -44 -18t-40 18t-11 42q4 25 24 41t45 16z" />
    <glyph glyph-name="multiply" unicode="&#xd7;" horiz-adv-x="917" 
d="M190 473l297 256l-215 256l64 55l215 -256l305 263l49 -60l-303 -264l217 -258l-65 -53l-215 258l-297 -258z" />
    <glyph glyph-name="Oslash" unicode="&#xd8;" horiz-adv-x="1388" 
d="M360 164q75 -88 324 -88q118 0 190 14q172 33 259 179q87 145 145 508q57 363 -14 513zM1176 1384q-75 41 -260 41t-230 -16q-108 -38 -138 -72q-30 -33 -60 -69q-99 -121 -163 -522q-64 -400 7 -537l901 1128q-25 29 -57 47zM928 1509q265 0 362 -104l74 94h68
l-109 -135q106 -172 33 -635q-48 -328 -162 -524q-55 -91 -162 -152t-350 -61q-141 0 -231 20t-148 80l-74 -92h-65l106 133q-102 164 -32 610q40 263 87 378q46 116 78 173q55 95 158 155q102 60 367 60z" />
    <glyph glyph-name="Ugrave" unicode="&#xd9;" horiz-adv-x="1376" 
d="M708 74q76 0 138 10t126 44q66 34 110 94q97 131 145 421l135 856h84l-135 -856q-61 -392 -215 -527q-144 -128 -369 -126q-267 1 -356 68q-91 69 -117 207t12 378l135 856h84l-135 -856q-53 -334 18 -449q26 -42 54 -66t76 -36q49 -12 91 -15q43 -3 119 -3zM674 1905h96
l209 -273h-68z" />
    <glyph glyph-name="Uacute" unicode="&#xda;" horiz-adv-x="1376" 
d="M708 74q76 0 138 10t126 44q66 34 110 94q97 131 145 421l135 856h84l-135 -856q-61 -392 -215 -527q-144 -128 -369 -126q-267 1 -356 68q-91 69 -117 207t12 378l135 856h84l-135 -856q-53 -334 18 -449q26 -42 54 -66t76 -36q49 -12 91 -15q43 -3 119 -3zM911 1632
l281 273h102l-315 -273h-68z" />
    <glyph glyph-name="Ucircumflex" unicode="&#xdb;" horiz-adv-x="1376" 
d="M708 74q76 0 138 10t126 44q66 34 110 94q97 131 145 421l135 856h84l-135 -856q-61 -392 -215 -527q-144 -128 -369 -126q-267 1 -356 68q-91 69 -117 207t12 378l135 856h84l-135 -856q-53 -334 18 -449q26 -42 54 -66t76 -36q49 -12 91 -15q43 -3 119 -3zM659 1632
l304 266h77l191 -266h-70l-166 213l-256 -213h-80z" />
    <glyph glyph-name="Udieresis" unicode="&#xdc;" horiz-adv-x="1376" 
d="M708 74q76 0 138 10t126 44q66 34 110 94q97 131 145 421l135 856h84l-135 -856q-61 -392 -215 -527q-144 -128 -369 -126q-267 1 -356 68q-91 69 -117 207t12 378l135 856h84l-135 -856q-53 -334 18 -449q26 -42 54 -66t76 -36q49 -12 91 -15q43 -3 119 -3zM1233 1749
q19 0 32 -16q25 -31 0 -66q-26 -35 -55 -35t-43 18t-10 42q10 57 76 57zM709 1749q21 0 33 -16t9 -46q-4 -29 -43 -49q-11 -6 -30 -6t-33 18t-10 46q4 29 29 41q24 12 45 12z" />
    <glyph glyph-name="Yacute" unicode="&#xdd;" horiz-adv-x="1286" 
d="M307 1499h90l301 -860l615 860h100l-684 -967l-84 -532h-84l84 532zM848 1632l280 273h103l-316 -273h-67z" />
    <glyph glyph-name="Thorn" unicode="&#xde;" horiz-adv-x="1132" 
d="M698 393q211 0 289 191q31 76 47 188q19 89 -3 205q-10 54 -59 94t-90 43q-41 4 -69 6h-430l-115 -727h430zM827 1204q150 0 224 -84q73 -84 76 -197q3 -69 -7 -161q-49 -332 -228 -415q-56 -26 -100 -32t-102 -6q-338 4 -430 27l-53 -336h-84l235 1493h84l-45 -289h430z
" />
    <glyph glyph-name="germandbls" unicode="&#xdf;" horiz-adv-x="1136" 
d="M776 68q123 0 188 61t76 141l17 88q8 53 -24 84t-84 41q-136 26 -208 49q-145 46 -120 185q14 90 67 139t242 162q57 34 108 100t72 133q43 133 -36 195t-259 61q-369 0 -424 -348l-184 -1159h-84l184 1159q31 193 156 313t359 119q234 0 325 -101q120 -135 7 -347
q-67 -124 -177 -191q-33 -24 -80 -50q-141 -80 -171 -129q-15 -25 -22 -67q-8 -42 24 -73t85 -41t115 -24t113 -29q52 -17 82 -63t20 -116l-15 -100q-16 -94 -70 -159q-99 -119 -294 -117q-158 0 -352 32l8 62q295 -10 356 -10z" />
    <glyph glyph-name="agrave" unicode="&#xe0;" horiz-adv-x="1112" 
d="M461 965q-143 -95 -203 -472q-68 -427 234 -425q143 0 268 50q45 16 95 38t60 26l113 776q-211 92 -391 66q-109 -14 -176 -59zM524 -14q-226 0 -301 111q-95 143 -35 489q59 346 238 456q57 34 101 46q45 12 133 23t235 -24t221 -106l-143 -981h-55l-7 123
q-69 -43 -187 -90t-200 -47zM457 1507h94l209 -272h-66z" />
    <glyph glyph-name="aacute" unicode="&#xe1;" horiz-adv-x="1112" 
d="M461 965q-143 -95 -203 -472q-68 -427 234 -425q143 0 268 50q45 16 95 38t60 26l113 776q-211 92 -391 66q-109 -14 -176 -59zM524 -14q-226 0 -301 111q-95 143 -35 489q59 346 238 456q57 34 101 46q45 12 133 23t235 -24t221 -106l-143 -981h-55l-7 123
q-69 -43 -187 -90t-200 -47zM700 1235l281 272h102l-315 -272h-68z" />
    <glyph glyph-name="acircumflex" unicode="&#xe2;" horiz-adv-x="1112" 
d="M461 965q-143 -95 -203 -472q-68 -427 234 -425q143 0 268 50q45 16 95 38t60 26l113 776q-211 92 -391 66q-109 -14 -176 -59zM524 -14q-226 0 -301 111q-95 143 -35 489q59 346 238 456q57 34 101 46q45 12 133 23t235 -24t221 -106l-143 -981h-55l-7 123
q-69 -43 -187 -90t-200 -47zM442 1235l303 266h78l189 -266h-68l-166 213l-256 -213h-80z" />
    <glyph glyph-name="atilde" unicode="&#xe3;" horiz-adv-x="1112" 
d="M461 965q-143 -95 -203 -472q-68 -427 234 -425q143 0 268 50q45 16 95 38t60 26l113 776q-211 92 -391 66q-109 -14 -176 -59zM524 -14q-226 0 -301 111q-95 143 -35 489q59 346 238 456q57 34 101 46q45 12 133 23t235 -24t221 -106l-143 -981h-55l-7 123
q-69 -43 -187 -90t-200 -47zM642 1427q38 -1 81 -31t81 -60t64 -29q82 -2 215 94l17 -39q-6 -4 -30 -22t-32 -25l-28 -21q-20 -14 -30 -19t-43 -23q-32 -18 -72 -17q-69 1 -129 61t-96 61q-61 2 -93 -15q-33 -16 -56 -28t-77 -48l-17 39q156 122 245 122z" />
    <glyph glyph-name="adieresis" unicode="&#xe4;" horiz-adv-x="1112" 
d="M461 965q-143 -95 -203 -472q-68 -427 234 -425q143 0 268 50q45 16 95 38t60 26l113 776q-211 92 -391 66q-109 -14 -176 -59zM524 -14q-226 0 -301 111q-95 143 -35 489q59 346 238 456q57 34 101 46q45 12 133 23t235 -24t221 -106l-143 -981h-55l-7 123
q-69 -43 -187 -90t-200 -47zM992 1235q-28 0 -43 17t-11 42t24 41t50 17q29 1 42 -30q12 -30 -10 -59q-24 -28 -52 -28zM460 1235q-18 0 -33 17t-11 42t33 48t58 6q30 -17 28 -41q-6 -72 -75 -72z" />
    <glyph glyph-name="aring" unicode="&#xe5;" horiz-adv-x="1112" 
d="M461 965q-143 -95 -203 -472q-68 -427 234 -425q143 0 268 50q45 16 95 38t60 26l113 776q-211 92 -391 66q-109 -14 -176 -59zM524 -14q-226 0 -301 111q-95 143 -35 489q59 346 238 456q57 34 101 46q45 12 133 23t235 -24t221 -106l-143 -981h-55l-7 123
q-69 -43 -187 -90t-200 -47zM748 1288q64 0 114 45t58 93t0 78q-26 96 -144 98q-48 0 -101 -48t-62 -110q-9 -64 31 -110t104 -46zM740 1235q-87 1 -139 61t-41 148t81 149t156 61t138 -60q52 -62 41 -150t-80 -148t-156 -61z" />
    <glyph glyph-name="ae" unicode="&#xe6;" horiz-adv-x="1929" 
d="M1649 974q-76 50 -249 50t-254 -60q-32 -24 -55 -43t-69 -115q-27 -64 -44 -156q-18 -93 -20 -101q244 -35 425 -4q297 51 323 250q18 129 -57 179zM379 964q-143 -93 -203 -472q-34 -210 22 -316t212 -108q195 0 452 137q-26 129 18 369t113 360q-400 170 -614 30z
M1382 1108q228 0 329 -72t79 -241q-12 -107 -76 -181t-150 -106q-229 -83 -529 -35q-62 10 -85 19q-33 -226 9 -324t203 -102t476 40l-10 -61q-217 -59 -489 -59q-203 0 -260 157q-260 -157 -461 -157t-277 113q-95 144 -39 470q66 353 229 465q57 41 118 54q61 14 133 23
t220 -27t236 -97q116 121 344 121z" />
    <glyph glyph-name="ccedilla" unicode="&#xe7;" horiz-adv-x="1013" 
d="M334 -352h-78l6 37l84 16q51 11 81 29q67 41 89 196h70q-27 -158 -78 -218t-174 -60zM635 1100q166 0 418 -56l-11 -57q-240 29 -358 29t-156 -9q-97 -23 -159 -128q-61 -106 -99 -342q-18 -113 -18 -196q0 -155 57 -212t151 -57q194 0 388 28l70 9l-9 -62
q-223 -57 -411 -57q-98 0 -148 15q-122 37 -156 154q-50 172 -6 396q64 393 225 494q54 33 103 42t119 9z" />
    <glyph glyph-name="egrave" unicode="&#xe8;" horiz-adv-x="1089" 
d="M950 974q-74 50 -247 50t-256 -60q-31 -24 -53 -41t-57 -87t-46 -133q-13 -62 -21 -102t-10 -52q364 -52 577 39q62 27 110 80t59 127q18 129 -56 179zM438 -14q-193 0 -252 140t-6 443q36 231 105 347q64 103 163 148q99 44 282 44q182 0 282 -72t80 -241
q-14 -107 -76 -181t-152 -106q-235 -84 -528 -35q-61 10 -84 19q-33 -226 8 -324t182 -100q180 -6 496 38l-10 -61q-217 -59 -490 -59zM453 1503h96l209 -272h-68z" />
    <glyph glyph-name="eacute" unicode="&#xe9;" horiz-adv-x="1089" 
d="M950 974q-74 50 -247 50t-256 -60q-31 -24 -53 -41t-57 -87t-46 -133q-13 -62 -21 -102t-10 -52q364 -52 577 39q62 27 110 80t59 127q18 129 -56 179zM438 -14q-193 0 -252 140t-6 443q36 231 105 347q64 103 163 148q99 44 282 44q182 0 282 -72t80 -241
q-14 -107 -76 -181t-152 -106q-235 -84 -528 -35q-61 10 -84 19q-33 -226 8 -324t182 -100q180 -6 496 38l-10 -61q-217 -59 -490 -59zM690 1231l281 272h102l-315 -272h-68z" />
    <glyph glyph-name="ecircumflex" unicode="&#xea;" horiz-adv-x="1089" 
d="M950 974q-74 50 -247 50t-256 -60q-31 -24 -53 -41t-57 -87t-46 -133q-13 -62 -21 -102t-10 -52q364 -52 577 39q62 27 110 80t59 127q18 129 -56 179zM438 -14q-193 0 -252 140t-6 443q36 231 105 347q64 103 163 148q99 44 282 44q182 0 282 -72t80 -241
q-14 -107 -76 -181t-152 -106q-235 -84 -528 -35q-61 10 -84 19q-33 -226 8 -324t182 -100q180 -6 496 38l-10 -61q-217 -59 -490 -59zM438 1231l303 266h78l191 -266h-68l-168 213l-256 -213h-80z" />
    <glyph glyph-name="edieresis" unicode="&#xeb;" horiz-adv-x="1089" 
d="M950 974q-74 50 -247 50t-256 -60q-31 -24 -53 -41t-57 -87t-46 -133q-13 -62 -21 -102t-10 -52q364 -52 577 39q62 27 110 80t59 127q18 129 -56 179zM438 -14q-193 0 -252 140t-6 443q36 231 105 347q64 103 163 148q99 44 282 44q182 0 282 -72t80 -241
q-14 -107 -76 -181t-152 -106q-235 -84 -528 -35q-61 10 -84 19q-33 -226 8 -324t182 -100q180 -6 496 38l-10 -61q-217 -59 -490 -59zM978 1231q-18 0 -32 17t-10 42t24 41q20 17 46 17t38 -16t10 -34q-10 -66 -76 -67zM456 1231q-18 0 -32 17t-10 42t24 41q20 17 45 17
t42 -22t-3 -58q-20 -37 -66 -37z" />
    <glyph glyph-name="igrave" unicode="&#xec;" horiz-adv-x="358" 
d="M123 0l172 1087h84l-172 -1087h-84zM31 1493h96l209 -272h-68z" />
    <glyph glyph-name="iacute" unicode="&#xed;" horiz-adv-x="358" 
d="M123 0l172 1087h84l-172 -1087h-84zM266 1221l281 272h102l-315 -272h-68z" />
    <glyph glyph-name="icircumflex" unicode="&#xee;" horiz-adv-x="358" 
d="M123 0l172 1087h84l-172 -1087h-84zM12 1221l303 266h78l191 -266h-68l-166 213l-256 -213h-82z" />
    <glyph glyph-name="idieresis" unicode="&#xef;" horiz-adv-x="358" 
d="M123 0l172 1087h84l-172 -1087h-84zM578 1337q26 0 42 -22q17 -22 -3 -58t-53 -36q-32 0 -46 17t-10 42t24 41t46 16zM55 1337q25 0 42 -21t-3 -58q-19 -37 -52 -37q-32 0 -46 17t-10 42t24 41t45 16z" />
    <glyph glyph-name="eth" unicode="&#xf0;" horiz-adv-x="1112" 
d="M453 86h170q220 0 308 258q46 135 61 313t-35 262q-50 85 -191 85h-164q-68 0 -118 -20q-175 -68 -231 -417t37 -434q32 -29 70 -38t93 -9zM612 1087h166q84 -1 146 -33t77 -67q-16 258 -127 389l-339 -127l-13 60l301 114q-127 106 -329 107l10 74q264 -2 411 -148
l273 100l16 -59l-246 -90q199 -270 103 -879q-45 -284 -155 -406t-296 -122h-170q-137 0 -209 67t-83 187t16 291q45 281 146 411t302 131z" />
    <glyph glyph-name="ntilde" unicode="&#xf1;" horiz-adv-x="1107" 
d="M811 1106q155 0 229 -102t52 -246l-121 -758h-84l121 758q18 116 -38 190t-175 74t-213 -28t-232 -95l-143 -899h-84l172 1087h55l8 -126q258 145 453 145zM660 1421q38 0 114 -60t105 -61q80 -2 213 95l18 -39q-17 -8 -60 -44q-43 -35 -57 -41q-14 -7 -44 -25t-77 -17
q-47 0 -89 32q-43 31 -79 61t-76 30q-68 0 -206 -92l-14 38q57 46 119 84q61 39 133 39z" />
    <glyph glyph-name="ograve" unicode="&#xf2;" horiz-adv-x="1148" 
d="M561 74q112 0 178 16t124 62q107 86 157 376q59 379 -99 452q-75 34 -172 34q-96 0 -142 -5t-95 -23t-82 -50q-32 -33 -64 -86q-61 -103 -102 -352q-40 -248 41 -348q62 -76 256 -76zM358 985q83 83 222 102q66 10 151 11q256 0 338 -140t34 -441q-48 -300 -163 -414
q-115 -113 -376 -113t-344 125t-33 435q49 310 171 435zM481 1493h94l209 -272h-65z" />
    <glyph glyph-name="oacute" unicode="&#xf3;" horiz-adv-x="1148" 
d="M561 74q112 0 178 16t124 62q107 86 157 376q59 379 -99 452q-75 34 -172 34q-96 0 -142 -5t-95 -23t-82 -50q-32 -33 -64 -86q-61 -103 -102 -352q-40 -248 41 -348q62 -76 256 -76zM358 985q83 83 222 102q66 10 151 11q256 0 338 -140t34 -441q-48 -300 -163 -414
q-115 -113 -376 -113t-344 125t-33 435q49 310 171 435zM719 1221l280 272h101l-316 -272h-65z" />
    <glyph glyph-name="ocircumflex" unicode="&#xf4;" horiz-adv-x="1148" 
d="M561 74q112 0 178 16t124 62q107 86 157 376q59 379 -99 452q-75 34 -172 34q-96 0 -142 -5t-95 -23t-82 -50q-32 -33 -64 -86q-61 -103 -102 -352q-40 -248 41 -348q62 -76 256 -76zM358 985q83 83 222 102q66 10 151 11q256 0 338 -140t34 -441q-48 -300 -163 -414
q-115 -113 -376 -113t-344 125t-33 435q49 310 171 435zM467 1221l303 266h78l188 -266h-67l-166 213l-256 -213h-80z" />
    <glyph glyph-name="otilde" unicode="&#xf5;" horiz-adv-x="1148" 
d="M561 74q112 0 178 16t124 62q107 86 157 376q59 379 -99 452q-75 34 -172 34q-96 0 -142 -5t-95 -23t-82 -50q-32 -33 -64 -86q-61 -103 -102 -352q-40 -248 41 -348q62 -76 256 -76zM358 985q83 83 222 102q66 10 151 11q256 0 338 -140t34 -441q-48 -300 -163 -414
q-115 -113 -376 -113t-344 125t-33 435q49 310 171 435zM665 1413q41 0 117 -60t105 -61q82 -2 215 94l16 -38q-6 -4 -30 -22t-30 -24q-7 -4 -29 -20t-32 -21t-40 -23t-76 -17q-45 -1 -87 31t-79 62t-64 30q-72 -1 -132 -39q-13 -9 -44 -27t-43 -27l-16 39q55 43 86 64
q91 59 163 59z" />
    <glyph glyph-name="odieresis" unicode="&#xf6;" horiz-adv-x="1148" 
d="M561 74q112 0 178 16t124 62q107 86 157 376q59 379 -99 452q-75 34 -172 34q-96 0 -142 -5t-95 -23t-82 -50q-32 -33 -64 -86q-61 -103 -102 -352q-40 -248 41 -348q62 -76 256 -76zM358 985q83 83 222 102q66 10 151 11q256 0 338 -140t34 -441q-48 -300 -163 -414
q-115 -113 -376 -113t-344 125t-33 435q49 310 171 435zM1036 1337q21 0 39 -21t-2 -58t-52 -37t-47 17q-15 18 -11 38q12 62 73 61zM505 1337q30 0 48 -21t-2 -58t-52 -37t-47 17q-29 30 8 78q15 20 45 21z" />
    <glyph glyph-name="divide" unicode="&#xf7;" horiz-adv-x="1110" 
d="M733 1126q31 0 27 -34l-15 -95q-4 -33 -36 -32h-50q-32 -1 -28 32l14 95q4 35 39 34h49zM580 463h51q29 0 24 -33l-14 -94q-4 -33 -37 -33h-49q-34 0 -29 33l15 94q4 33 39 33zM205 680l14 86h852l-14 -86h-852z" />
    <glyph glyph-name="oslash" unicode="&#xf8;" horiz-adv-x="1124" 
d="M562 74q102 0 164 15q64 15 124 61t96 139q37 92 62 239q45 272 -17 381l-692 -768q37 -39 99 -53t164 -14zM694 1014q-196 0 -277 -81t-118 -216q-23 -80 -41 -189q-39 -246 10 -344l688 764q-66 66 -262 66zM721 1098q201 0 293 -84l65 73h72l-102 -112
q96 -133 45 -447t-163 -426q-111 -112 -355 -112t-336 86l-68 -76h-68l101 113q-80 121 -31 430q27 168 67 274q78 206 262 257q87 24 218 24z" />
    <glyph glyph-name="ugrave" unicode="&#xf9;" 
d="M454 -16q-174 0 -248 100t-52 248l120 758h84l-120 -758q-18 -121 38 -193q56 -71 176 -71t213 28t232 92l141 902h84l-172 -1088h-55l-8 127q-259 -145 -433 -145zM449 1493h96l209 -272h-68z" />
    <glyph glyph-name="uacute" unicode="&#xfa;" 
d="M454 -16q-174 0 -248 100t-52 248l120 758h84l-120 -758q-18 -121 38 -193q56 -71 176 -71t213 28t232 92l141 902h84l-172 -1088h-55l-8 127q-259 -145 -433 -145zM686 1221l281 272h102l-315 -272h-68z" />
    <glyph glyph-name="ucircumflex" unicode="&#xfb;" 
d="M454 -16q-174 0 -248 100t-52 248l120 758h84l-120 -758q-18 -121 38 -193q56 -71 176 -71t213 28t232 92l141 902h84l-172 -1088h-55l-8 127q-259 -145 -433 -145zM434 1221l303 266h78l191 -266h-68l-168 213l-256 -213h-80z" />
    <glyph glyph-name="udieresis" unicode="&#xfc;" 
d="M454 -16q-174 0 -248 100t-52 248l120 758h84l-120 -758q-18 -121 38 -193q56 -71 176 -71t213 28t232 92l141 902h84l-172 -1088h-55l-8 127q-259 -145 -433 -145zM1001 1337q25 0 43 -22t-3 -58q-20 -36 -53 -36q-32 0 -46 17t-10 42t24 41t45 16zM479 1337
q25 0 42 -21t-3 -58q-19 -37 -52 -37q-32 0 -46 17t-10 42t24 41t45 16z" />
    <glyph glyph-name="yacute" unicode="&#xfd;" 
d="M193 1087h86l155 -849q27 -137 141 -150h35l412 842q43 90 55 168h62q23 -76 -33 -191l-442 -905q-2 -6 -13 -25q-258 -514 -452 -528v55q74 15 168 146t144 237t56 113q-49 0 -98 28q-97 57 -121 197zM645 1210l281 273h100l-315 -273h-66z" />
    <glyph glyph-name="thorn" unicode="&#xfe;" horiz-adv-x="1099" 
d="M246 121q141 -45 235 -50t178 -8q143 0 230 115q86 114 123 360q38 246 -18 367t-181 117q-137 0 -442 -115zM830 1106q94 0 158 -51t90 -133q59 -189 20 -385q-47 -312 -158 -437q-45 -51 -120 -86q-75 -34 -163 -34t-213 22t-208 57l-97 -612h-84l342 2155h84
l-102 -637q57 37 207 89t244 52z" />
    <glyph glyph-name="ydieresis" unicode="&#xff;" 
d="M193 1087h86l155 -849q27 -137 141 -150h35l412 842q43 90 55 168h62q23 -76 -33 -191l-442 -905q-2 -6 -13 -25q-258 -514 -452 -528v55q74 15 168 146t144 237t56 113q-49 0 -98 28q-97 57 -121 197zM922 1356q20 16 49 16t38 -20q20 -46 -19 -79q-19 -17 -44 -17
t-39 16q-14 18 -10 43q5 25 25 41zM440 1372q20 0 39 -11t14 -41t-25 -47t-44 -17q-25 0 -39 16q-14 18 -10 43t24 41q21 16 41 16z" />
    <glyph glyph-name="Amacron" unicode="&#x100;" horiz-adv-x="1327" 
d="M487 567h596l-159 828zM92 0l795 1499h98l295 -1499h-84l-96 483h-658l-256 -483h-94zM686 1632l10 64h543l-10 -64h-543z" />
    <glyph glyph-name="amacron" unicode="&#x101;" horiz-adv-x="1112" 
d="M461 965q-143 -95 -203 -472q-68 -427 234 -425q143 0 268 50q45 16 95 38t60 26l113 776q-211 92 -391 66q-109 -14 -176 -59zM524 -14q-226 0 -301 111q-95 143 -35 489q59 346 238 456q57 34 101 46q45 12 133 23t235 -24t221 -106l-143 -981h-55l-7 123
q-69 -43 -187 -90t-200 -47zM455 1235l10 63h545l-11 -63h-544z" />
    <glyph glyph-name="Abreve" unicode="&#x102;" horiz-adv-x="1327" 
d="M487 567h596l-159 828zM92 0l795 1499h98l295 -1499h-84l-96 483h-658l-256 -483h-94zM760 1866h51q-12 -78 33 -131t124 -53t138 50t72 134h51q-16 -113 -92 -173q-76 -61 -170 -61t-157 64q-62 64 -50 170z" />
    <glyph glyph-name="abreve" unicode="&#x103;" horiz-adv-x="1112" 
d="M461 965q-143 -95 -203 -472q-68 -427 234 -425q143 0 268 50q45 16 95 38t60 26l113 776q-211 92 -391 66q-109 -14 -176 -59zM524 -14q-226 0 -301 111q-95 143 -35 489q59 346 238 456q57 34 101 46q45 12 133 23t235 -24t221 -106l-143 -981h-55l-7 123
q-69 -43 -187 -90t-200 -47zM743 1235q-94 -1 -156 63t-50 170h51q-12 -80 33 -132t109 -51q123 2 185 86q31 42 39 97h52q-16 -113 -92 -173t-171 -60z" />
    <glyph glyph-name="Aogonek" unicode="&#x104;" horiz-adv-x="1773" 
d="M696 567h596l-159 828zM301 0l795 1499h98l295 -1499h-16q-109 -53 -153 -129t-4 -130t152 -50l-8 -62q-118 -15 -188 49t-32 161t190 161h-25l-96 483h-658l-256 -483h-94z" />
    <glyph glyph-name="aogonek" unicode="&#x105;" horiz-adv-x="1075" 
d="M444 965q-142 -94 -202 -472q-68 -427 233 -425q146 0 268 50q80 30 156 64l115 776q-211 92 -393 66q-109 -14 -177 -59zM507 -14q-83 0 -131 10q-115 24 -167 101q-64 97 -62 262q3 93 25 218t60 223t79 153q41 54 99 89q58 34 103 46q44 12 131 23q86 11 234 -24
t224 -106l-144 -981h-6q-108 -53 -152 -128t-4 -130t152 -51l-8 -62q-118 -17 -188 49t-32 163t189 159h-8l-6 123q-65 -43 -185 -90t-203 -47z" />
    <glyph glyph-name="Cacute" unicode="&#x106;" horiz-adv-x="1163" 
d="M890 1516q138 0 417 -54l-9 -59q-433 54 -584 17t-238 -175q-99 -160 -154 -495q-109 -670 305 -678q133 -2 465 22l-9 -61q-213 -45 -467 -45q-112 0 -192 42q-279 146 -186 734q62 397 181 554q103 134 251 175q82 23 220 23zM852 1638l283 273h100l-315 -273h-68z" />
    <glyph glyph-name="cacute" unicode="&#x107;" horiz-adv-x="1007" 
d="M680 1016q-118 0 -156 -9q-95 -22 -156 -126q-60 -104 -102 -344q-29 -192 -15 -266q13 -74 31 -109q32 -60 111 -82q33 -8 146 -8t307 28l69 9l-10 -62q-219 -57 -410 -57q-97 0 -147 15q-120 36 -157 154q-49 167 -8 402t109 352q34 59 69 98q84 89 261 89t427 -56
l-9 -57q-242 29 -360 29zM680 1223l283 272h100l-315 -272h-68z" />
    <glyph glyph-name="Ccircumflex" unicode="&#x108;" horiz-adv-x="1163" 
d="M890 1516q138 0 417 -54l-9 -59q-433 54 -584 17t-238 -175q-99 -160 -154 -495q-109 -670 305 -678q133 -2 465 22l-9 -61q-213 -45 -467 -45q-112 0 -192 42q-279 146 -186 734q62 397 181 554q103 134 251 175q82 23 220 23zM602 1638l303 267h78l191 -267h-70
l-166 213l-256 -213h-80z" />
    <glyph glyph-name="ccircumflex" unicode="&#x109;" horiz-adv-x="1007" 
d="M680 1016q-118 0 -157 -9q-97 -23 -158 -128q-61 -106 -99 -342q-64 -364 80 -439q50 -26 128 -26q177 0 370 28l69 9l-8 -62q-160 -42 -259 -49q-98 -8 -174 -8q-230 0 -283 169q-50 170 -5 396q36 238 107 358q35 59 69 98q82 89 259 89q178 0 430 -56l-11 -57
q-240 29 -358 29zM397 1223l303 266h78l191 -266h-70l-166 213l-256 -213h-80z" />
    <glyph glyph-name="Cdotaccent" unicode="&#x10a;" horiz-adv-x="1163" 
d="M890 1516q138 0 417 -54l-9 -59q-433 54 -584 17t-238 -175q-99 -160 -154 -495q-109 -670 305 -678q133 -2 465 22l-9 -61q-213 -45 -467 -45q-112 0 -192 42q-279 146 -186 734q62 397 181 554q103 134 251 175q82 23 220 23zM864 1825h51q31 0 27 -33l-20 -121
q-4 -33 -37 -33h-49q-14 0 -22 10t-7 23l20 121q4 33 37 33z" />
    <glyph glyph-name="cdotaccent" unicode="&#x10b;" horiz-adv-x="1007" 
d="M680 1016q-118 0 -157 -9q-97 -23 -158 -128q-61 -106 -99 -342q-64 -364 80 -439q50 -26 128 -26q177 0 370 28l69 9l-8 -62q-160 -42 -259 -49q-98 -8 -174 -8q-230 0 -283 169q-50 170 -5 396q36 238 107 358q35 59 69 98q82 89 259 89q178 0 430 -56l-11 -57
q-240 29 -358 29zM696 1384q31 0 27 -34l-21 -121q-4 -33 -36 -33h-50q-14 0 -22 10t-6 23l20 121q4 35 39 34h49z" />
    <glyph glyph-name="Ccaron" unicode="&#x10c;" horiz-adv-x="1163" 
d="M890 1516q138 0 417 -54l-9 -59q-433 54 -584 17t-238 -175q-99 -160 -154 -495q-109 -670 305 -678q133 -2 465 22l-9 -61q-213 -45 -467 -45q-112 0 -192 42q-279 146 -186 734q62 397 181 554q103 134 251 175q82 23 220 23zM649 1905h68l166 -213l256 213h80
l-304 -267h-77z" />
    <glyph glyph-name="ccaron" unicode="&#x10d;" horiz-adv-x="1007" 
d="M680 1016q-118 0 -157 -9q-97 -23 -158 -128q-61 -106 -99 -342q-64 -364 80 -439q50 -26 128 -26q177 0 370 28l69 9l-8 -62q-160 -42 -259 -49q-98 -8 -174 -8q-230 0 -283 169q-50 170 -5 396q36 238 107 358q35 59 69 98q82 89 259 89q178 0 430 -56l-11 -57
q-240 29 -358 29zM512 1489h68l165 -213l256 213h80l-303 -266h-78z" />
    <glyph glyph-name="Dcaron" unicode="&#x10e;" horiz-adv-x="1353" 
d="M723 86q165 0 282 104q203 185 269 555q111 670 -346 670h-445l-211 -1329h451zM944 1499q223 0 322 -133t109 -307q18 -318 -96 -608q-113 -291 -314 -395q-111 -56 -250 -56h-541l238 1499h532zM678 1894h70l165 -213l256 213h80l-303 -266h-78z" />
    <glyph glyph-name="dcaron" unicode="&#x10f;" horiz-adv-x="1183" 
d="M1294 1188l27 274l20 137h86l-22 -137l-57 -274h-54zM1022 961q-195 59 -397 59q-281 0 -359 -481q-40 -236 24 -352q64 -115 184 -115t215 28t208 78zM636 1104q83 0 197 -23t201 -59l92 586h80l-254 -1608h-55l-8 121q-53 -41 -187 -87t-223 -46q-241 0 -295 256
q-28 132 -8 265q52 345 183 481q48 50 121 82t156 32z" />
    <glyph glyph-name="Dcroat" unicode="&#x110;" horiz-adv-x="1390" 
d="M729 86q96 0 180 40t144 104q170 188 225 515q111 670 -344 670h-447l-98 -622h311l-8 -58h-311l-102 -649h450zM948 1499q225 0 325 -134t108 -306q18 -318 -96 -609t-315 -394q-112 -56 -249 -56h-541l117 735h-133l8 58h133l113 706h530z" />
    <glyph glyph-name="dcroat" unicode="&#x111;" horiz-adv-x="1087" 
d="M633 1020q-211 0 -304 -242q-38 -98 -61 -239q-38 -229 24 -349t191 -118q178 0 418 106l123 783q-215 59 -391 59zM638 1104q83 0 197 -23t199 -59l45 272h-264l8 58h264l41 256h80l-41 -256h164l-10 -58h-162l-207 -1294h-53l-8 121q-53 -39 -186 -86t-223 -47
q-246 0 -297 258q-41 206 33 475q74 270 265 352q72 31 155 31z" />
    <glyph glyph-name="Emacron" unicode="&#x112;" horiz-adv-x="1153" 
d="M643 1415q-174 0 -203 -182l-71 -447l712 -14l-10 -59l-715 -15l-71 -446q-16 -115 36 -144q52 -30 132 -30h602l-11 -60l-606 -24q-113 -4 -187 52t-50 212l155 981q23 141 104 203t195 57l619 -24l-8 -60h-623zM602 1628l8 66h545l-10 -66h-543z" />
    <glyph glyph-name="emacron" unicode="&#x113;" horiz-adv-x="1089" 
d="M950 974q-74 50 -247 50t-256 -60q-31 -24 -53 -41t-57 -87t-46 -133q-13 -62 -21 -102t-10 -52q364 -52 577 39q62 27 110 80t59 127q18 129 -56 179zM438 -14q-193 0 -252 140t-6 443q36 231 105 347q64 103 163 148q99 44 282 44q182 0 282 -72t80 -241
q-14 -107 -76 -181t-152 -106q-235 -84 -528 -35q-61 10 -84 19q-33 -226 8 -324t182 -100q180 -6 496 38l-10 -61q-217 -59 -490 -59zM453 1231l8 63h545l-11 -63h-542z" />
    <glyph glyph-name="Edotaccent" unicode="&#x116;" horiz-adv-x="1153" 
d="M643 1415q-174 0 -203 -182l-71 -447l712 -14l-10 -59l-715 -15l-71 -446q-16 -115 36 -144q52 -30 132 -30h602l-11 -60l-606 -24q-113 -4 -187 52t-50 212l155 981q23 141 104 203t195 57l619 -24l-8 -60h-623zM877 1819h49q33 0 26 -33l-18 -121q-6 -33 -37 -33h-51
q-32 0 -27 33l19 121q6 33 39 33z" />
    <glyph glyph-name="edotaccent" unicode="&#x117;" horiz-adv-x="1089" 
d="M950 974q-74 50 -247 50t-256 -60q-31 -24 -53 -41t-57 -87t-46 -133q-13 -62 -21 -102t-10 -52q364 -52 577 39q62 27 110 80t59 127q18 129 -56 179zM438 -14q-193 0 -252 140t-6 443q36 231 105 347q64 103 163 148q99 44 282 44q182 0 282 -72t80 -241
q-14 -107 -76 -181t-152 -106q-235 -84 -528 -35q-61 10 -84 19q-33 -226 8 -324t182 -100q180 -6 496 38l-10 -61q-217 -59 -490 -59zM729 1417h49q33 0 27 -33l-19 -120q-4 -33 -36 -33h-50q-14 -1 -22 9t-6 24l18 120q6 33 39 33z" />
    <glyph glyph-name="Eogonek" unicode="&#x118;" horiz-adv-x="1148" 
d="M647 1415q-174 0 -203 -182l-71 -447l712 -14l-10 -59l-717 -15l-69 -446q-2 -41 -3 -75t34 -66q35 -33 137 -33h602l-10 -60h-3q-108 -51 -152 -127t-4 -131t152 -51l-8 -61q-118 -16 -188 50t-32 162t185 156l-557 -22q-113 -4 -187 52t-50 212l155 981q23 141 104 203
t195 57l619 -24l-8 -60h-623z" />
    <glyph glyph-name="eogonek" unicode="&#x119;" horiz-adv-x="1089" 
d="M974 953q-66 71 -254 71q-189 0 -270 -60q-32 -24 -54 -41q-63 -49 -111 -255q-19 -86 -21 -100q-2 -13 -4 -19q366 -52 579 39q62 27 110 80q47 52 57 116q18 116 -32 169zM450 -14q-205 0 -264 140t-10 419t114 377q64 99 161 143q96 43 279 43q182 0 283 -72t79 -241
q-12 -107 -74 -181t-152 -106q-235 -84 -528 -35q-61 10 -86 19q-31 -226 9 -324q39 -98 201 -102t476 40l-8 -61q-2 -1 -5 -1q-107 -54 -151 -128t-3 -129q40 -55 153 -51l-9 -62q-119 -16 -189 50t-34 154q34 88 143 145q-180 -37 -385 -37z" />
    <glyph glyph-name="Ecaron" unicode="&#x11a;" horiz-adv-x="1153" 
d="M643 1415q-174 0 -203 -182l-71 -447l712 -14l-10 -59l-715 -15l-71 -446q-16 -115 36 -144q52 -30 132 -30h602l-11 -60l-606 -24q-113 -4 -187 52t-50 212l155 981q23 141 104 203t195 57l619 -24l-8 -60h-623zM651 1898h68l168 -212l256 212h80l-303 -266h-78z" />
    <glyph glyph-name="ecaron" unicode="&#x11b;" horiz-adv-x="1089" 
d="M950 974q-74 50 -247 50t-256 -60q-31 -24 -53 -41t-57 -87t-46 -133q-13 -62 -21 -102t-10 -52q364 -52 577 39q62 27 110 80t59 127q18 129 -56 179zM438 -14q-193 0 -252 140t-6 443q36 231 105 347q64 103 163 148q99 44 282 44q182 0 282 -72t80 -241
q-14 -107 -76 -181t-152 -106q-235 -84 -528 -35q-61 10 -84 19q-33 -226 8 -324t182 -100q180 -6 496 38l-10 -61q-217 -59 -490 -59zM487 1497h68l168 -213l256 213h80l-303 -266h-78z" />
    <glyph glyph-name="Gcircumflex" unicode="&#x11c;" horiz-adv-x="1288" 
d="M814 1516q98 0 252 -18t261 -40l-10 -67q-307 39 -502 40t-309 -153t-169 -516q-56 -362 3 -526t274 -164q70 0 187 26t198 54l80 26l86 533h-405l8 53q125 33 356 33q66 0 140 -6l-125 -791h-60l-6 113q-61 -39 -207 -82t-254 -43t-181 28q-129 50 -183 210
q-54 159 2 540q25 143 49 246q61 248 174 366q59 62 151 100t190 38zM571 1638l303 267h78l191 -267h-70l-166 213l-256 -213h-80z" />
    <glyph glyph-name="gcircumflex" unicode="&#x11d;" horiz-adv-x="1103" 
d="M651 1016q-230 6 -338 -292q-29 -80 -46 -198t-13 -227q9 -234 231 -236q128 -1 222 19t198 47l142 881zM344 962q117 138 297 138t329 -16t169 -17l-203 -1280q-30 -180 -140 -269t-241 -75l-479 49l8 53l485 -20q90 -5 176 63t107 199l43 272q-209 -79 -414 -79
q-115 0 -187 46t-98 125q-55 166 -10 412q41 261 158 399zM455 1223l303 266h78l190 -266h-68l-167 213l-256 -213h-80z" />
    <glyph glyph-name="Gbreve" unicode="&#x11e;" horiz-adv-x="1288" 
d="M814 1516q98 0 252 -18t261 -40l-10 -67q-307 39 -502 40t-309 -153t-169 -516q-56 -362 3 -526t274 -164q70 0 187 26t198 54l80 26l86 533h-405l8 53q125 33 356 33q66 0 140 -6l-125 -791h-60l-6 113q-61 -39 -207 -82t-254 -43t-181 28q-129 50 -183 210
q-54 159 2 540q25 143 49 246q61 248 174 366q59 62 151 100t190 38zM659 1872h52q-11 -80 33 -132t123 -51t138 50q58 49 72 133h51q-18 -115 -94 -174q-76 -60 -170 -60t-156 64t-49 170z" />
    <glyph glyph-name="gbreve" unicode="&#x11f;" horiz-adv-x="1103" 
d="M651 1016q-230 6 -338 -292q-29 -80 -46 -198t-13 -227q9 -234 231 -236q128 -1 222 19t198 47l142 881zM344 962q117 138 297 138t329 -16t169 -17l-203 -1280q-30 -180 -140 -269t-241 -75l-479 49l8 53l485 -20q90 -5 176 63t107 199l43 272q-209 -79 -414 -79
q-115 0 -187 46t-98 125q-55 166 -10 412q41 261 158 399zM743 1223q-94 -1 -156 63t-50 170h51q-12 -78 33 -131t123 -52t139 50q59 49 71 133h52q-16 -113 -92 -173t-171 -60z" />
    <glyph glyph-name="Gdotaccent" unicode="&#x120;" horiz-adv-x="1288" 
d="M814 1516q98 0 252 -18t261 -40l-10 -67q-307 39 -502 40t-309 -153t-169 -516q-56 -362 3 -526t274 -164q70 0 187 26t198 54l80 26l86 533h-405l8 53q125 33 356 33q66 0 140 -6l-125 -791h-60l-6 113q-61 -39 -207 -82t-254 -43t-181 28q-129 50 -183 210
q-54 159 2 540q25 143 49 246q61 248 174 366q59 62 151 100t190 38zM891 1825h49q33 0 29 -33l-21 -121q-4 -33 -37 -33h-49q-14 0 -22 10t-6 23l18 121q6 33 39 33z" />
    <glyph glyph-name="gdotaccent" unicode="&#x121;" horiz-adv-x="1103" 
d="M651 1016q-230 6 -338 -292q-29 -80 -46 -198t-13 -227q9 -234 231 -236q128 -1 222 19t198 47l142 881zM344 962q117 138 297 138t329 -16t169 -17l-203 -1280q-30 -180 -140 -269t-241 -75l-479 49l8 53l485 -20q90 -5 176 63t107 199l43 272q-209 -79 -414 -79
q-115 0 -187 46t-98 125q-55 166 -10 412q41 261 158 399zM760 1409h49q33 0 27 -33l-19 -121q-6 -33 -37 -32h-51q-17 0 -23 12t-4 20l19 121q6 33 39 33z" />
    <glyph glyph-name="Gcommaaccent" unicode="&#x122;" horiz-adv-x="1288" 
d="M814 1516q98 0 252 -18t261 -40l-10 -67q-307 39 -502 40t-309 -153t-169 -516q-56 -362 3 -526t274 -164q70 0 187 26t198 54l80 26l86 533h-405l8 53q125 33 356 33q66 0 140 -6l-125 -791h-60l-6 113q-61 -39 -207 -82t-254 -43t-181 28q-129 50 -183 210
q-54 159 2 540q25 143 49 246q61 248 174 366q59 62 151 100t190 38zM633 -307q-31 0 -27 31l17 110q6 33 36 33h46q29 0 22 -33l-31 -194q-11 -77 -76 -86q-15 -2 -24 0h-10l4 28q39 0 45 37l10 74h-12z" />
    <glyph glyph-name="gcommaaccent" unicode="&#x123;" horiz-adv-x="1077" 
d="M821 1397q31 0 27 -31l-17 -115q-6 -33 -36 -32h-43q-29 -1 -25 32l29 189q8 48 36 70t52 20l24 -2l-6 -29q-37 2 -45 -37l-10 -65h14zM528 991q-205 -97 -260 -473q-42 -289 48 -391q56 -63 166 -63t192 12q82 14 233 53l142 881l-396 6q-68 2 -125 -25zM638 1100
q175 0 396 -23l107 -10l-203 -1280q-30 -180 -140 -269t-241 -75l-479 49l8 53l485 -20q90 -4 177 63q86 68 106 199l43 272q-96 -37 -216 -59q-121 -22 -217 -20q-96 0 -168 46t-98 125q-55 166 -10 412q41 261 158 399t292 138z" />
    <glyph glyph-name="Hcircumflex" unicode="&#x124;" horiz-adv-x="1327" 
d="M174 0l238 1499h84l-117 -733h838l116 733h84l-237 -1499h-84l108 684h-837l-109 -684h-84zM651 1632l303 266h78l191 -266h-70l-166 213l-256 -213h-80z" />
    <glyph glyph-name="hcircumflex" unicode="&#x125;" horiz-adv-x="1107" 
d="M834 1106q156 0 228 -102t48 -246l-121 -758h-84l121 758q18 120 -38 192t-175 72t-213 -28t-233 -95l-142 -899h-84l254 1606h84l-102 -645q258 145 457 145zM160 1729l303 266h78l190 -266h-67l-168 213l-256 -213h-80z" />
    <glyph glyph-name="Hbar" unicode="&#x126;" horiz-adv-x="1263" 
d="M379 768h813l49 317h-811zM174 0l172 1085h-131l8 60h131l58 354h84l-58 -354h811l58 354h84l-58 -354h129l-8 -60h-129l-172 -1085h-84l111 684h-813l-109 -684h-84z" />
    <glyph glyph-name="hbar" unicode="&#x127;" horiz-adv-x="1101" 
d="M792 1106q172 0 244 -102q74 -102 51 -246l-120 -758h-84l121 758q18 120 -38 192t-170 72t-212 -29t-232 -94l-143 -899h-86l203 1278h-148l8 55h148l43 273h86l-43 -273h289l-9 -55h-288l-52 -317q260 145 432 145z" />
    <glyph glyph-name="Itilde" unicode="&#x128;" horiz-adv-x="415" 
d="M211 0l238 1499h83l-237 -1499h-84zM655 1710q82 0 215 96l17 -39q-6 -6 -30 -24l-32 -24q-8 -5 -28 -20q-21 -15 -31 -21t-37 -20q-27 -15 -76 -16q-49 -2 -91 29t-79 62t-63 29q-76 -4 -133 -40q-64 -37 -86 -53l-17 41q162 121 244 123q39 -2 82 -32q43 -31 82 -61
t63 -30z" />
    <glyph glyph-name="itilde" unicode="&#x129;" horiz-adv-x="358" 
d="M137 0l172 1087h84l-172 -1087h-84zM480 1229q-28 0 -69 31q-42 32 -79 62q-65 54 -148 14q-83 -39 -135 -79l-16 41q165 123 243 123q47 -2 123 -62t105 -61q82 0 215 97l16 -39q-26 -26 -48 -40q-21 -12 -41 -28t-32 -21q-10 -5 -39 -21t-95 -17z" />
    <glyph glyph-name="Imacron" unicode="&#x12a;" horiz-adv-x="415" 
d="M152 0l237 1499h84l-237 -1499h-84zM172 1628l10 66h543l-8 -66h-545z" />
    <glyph glyph-name="imacron" unicode="&#x12b;" horiz-adv-x="358" 
d="M123 0l172 1087h84l-172 -1087h-84zM80 1221l10 63h543l-8 -63h-545z" />
    <glyph glyph-name="Iogonek" unicode="&#x12e;" horiz-adv-x="415" 
d="M184 0l238 1499h84l-238 -1499h-16q-109 -53 -154 -128t-5 -130t155 -51l-10 -62q-119 -17 -189 49t-32 163t192 159h-25z" />
    <glyph glyph-name="iogonek" unicode="&#x12f;" horiz-adv-x="329" 
d="M418 1425q29 0 24 -34l-14 -95q-4 -33 -37 -32h-49q-33 -1 -29 32l15 95q4 35 39 34h51zM123 3l172 1084h84l-172 -1087h-46q-102 -50 -146 -124t-4 -130q40 -55 155 -51l-10 -62q-119 -16 -189 50q-70 67 -32 163t188 157z" />
    <glyph glyph-name="Idotaccent" unicode="&#x130;" horiz-adv-x="415" 
d="M184 0l238 1499h84l-238 -1499h-84zM492 1819h49q31 0 26 -33l-20 -121q-4 -33 -37 -33h-49q-14 0 -23 9q-8 10 -6 24l21 121q4 33 39 33z" />
    <glyph glyph-name="dotlessi" unicode="&#x131;" horiz-adv-x="358" 
d="M123 0l172 1087h84l-172 -1087h-84z" />
    <glyph glyph-name="Jcircumflex" unicode="&#x134;" horiz-adv-x="679" 
d="M78 43l16 57q203 -62 316 0q43 25 79 85q37 60 52 153l184 1161h84l-184 -1161q-33 -225 -154 -301q-77 -49 -199 -48t-194 54zM504 1632l303 266h78l190 -266h-69l-166 213l-256 -213h-80z" />
    <glyph glyph-name="jcircumflex" unicode="&#x135;" horiz-adv-x="315" 
d="M78 1221l303 270h78l190 -270h-71l-164 213l-254 -213h-82zM53 -553l260 1640h88l-174 -1095q-53 -344 -118 -545h-56z" />
    <glyph glyph-name="Kcommaaccent" unicode="&#x136;" horiz-adv-x="1110" 
d="M164 0l237 1499h84l-112 -704h268l588 704h106l-620 -749l383 -750h-101l-360 709h-275l-112 -709h-86zM551 -297q-31 0 -25 31l17 110q4 33 35 33h45q29 0 24 -33l-31 -194q-8 -47 -36 -69t-52 -19l-24 2l4 28q39 0 45 37l12 74h-14z" />
    <glyph glyph-name="kcommaaccent" unicode="&#x137;" horiz-adv-x="980" 
d="M123 -4l254 1601h84l-156 -981q127 6 240 52t191 116q159 142 202 299h92q-65 -226 -255 -373q-100 -79 -214 -118l371 -596h-101l-354 571q-98 -23 -180 -14l-90 -557h-84zM434 -297q-31 0 -24 31l16 110q6 33 37 33h43q29 0 24 -33l-30 -194q-8 -47 -36 -69t-52 -19
l-25 2l4 28q39 0 45 37l13 74h-15z" />
    <glyph glyph-name="kgreenlandic" unicode="&#x138;" horiz-adv-x="964" 
d="M123 0l172 1087h84l-80 -501h221l471 501h109l-502 -546l309 -541h-100l-291 502h-229l-80 -502h-84z" />
    <glyph glyph-name="Lacute" unicode="&#x139;" horiz-adv-x="1110" 
d="M403 0q-205 0 -240 126q-15 54 -3 132l198 1241h82l-196 -1241q-11 -47 0 -85q10 -37 25 -51q29 -26 63 -32t80 -6h585l-12 -84h-582zM393 1628l281 273h100l-315 -273h-66z" />
    <glyph glyph-name="lacute" unicode="&#x13a;" horiz-adv-x="624" 
d="M371 0q-135 0 -188 94q-52 94 -19 293l192 1217h84l-192 -1217q-30 -171 7 -233q13 -23 25 -39t38 -22q178 -36 196 -36l-8 -57h-135zM385 1726l281 273h100l-315 -273h-66z" />
    <glyph glyph-name="Lcommaaccent" unicode="&#x13b;" horiz-adv-x="1110" 
d="M455 84h585l-12 -84h-582q-205 0 -240 126q-15 54 -3 132l198 1241h82l-196 -1241q-20 -113 35 -144q55 -30 133 -30zM563 -297q-31 0 -26 31l18 110q4 33 35 33h45q29 0 22 -33l-30 -194q-11 -78 -77 -86q-15 -2 -24 0h-10l4 28q39 0 45 37l10 74h-12z" />
    <glyph glyph-name="lcommaaccent" unicode="&#x13c;" horiz-adv-x="624" 
d="M408 0q-137 0 -189 94q-51 94 -18 293l192 1217h84l-192 -1217q-30 -172 6 -233q12 -23 25 -39t38 -21q162 -37 197 -37l-8 -57h-135zM270 -297q-31 0 -24 31l16 110q6 33 37 33h43q29 0 25 -33l-31 -194q-8 -47 -36 -69t-52 -19l-25 2l6 28q37 0 43 37l13 74h-15z" />
    <glyph glyph-name="Lcaron" unicode="&#x13d;" horiz-adv-x="1110" 
d="M612 1169l29 275l21 137h86l-23 -137l-59 -275h-54zM455 84h585l-12 -84h-588q-202 0 -235 126q-14 54 -2 132l198 1241h82l-196 -1241q-20 -113 35 -144q55 -30 133 -30z" />
    <glyph glyph-name="lcaron" unicode="&#x13e;" horiz-adv-x="628" 
d="M598 1190l29 274l20 138h86l-22 -138l-60 -274h-53zM389 0q-271 0 -207 387l193 1217h84l-193 -1217q-30 -171 7 -233q13 -23 21 -34t31 -20q22 -9 111 -26q88 -17 99 -17l-11 -57h-135z" />
    <glyph glyph-name="Lslash" unicode="&#x141;" horiz-adv-x="1110" 
d="M444 0q-203 0 -238 126q-15 54 -3 132l84 526l-183 -75l11 71l182 74l102 645h84l-96 -610l277 112l-13 -67l-276 -113l-88 -563q-20 -115 35 -144q55 -30 133 -30h585l-12 -84h-584z" />
    <glyph glyph-name="lslash" unicode="&#x142;" horiz-adv-x="675" 
d="M424 0q-127 0 -180 90t-21 297l76 483l-160 -73l13 69l159 72l105 666h86l-99 -623l302 135l-15 -69l-297 -138l-86 -522q-12 -74 -12 -152t34 -109t135 -50t111 -19l-8 -57h-143z" />
    <glyph glyph-name="Nacute" unicode="&#x143;" horiz-adv-x="1327" 
d="M164 0l237 1499h84l641 -1345l213 1345h84l-237 -1499h-80l-643 1346l-215 -1346h-84zM901 1632l281 273h100l-315 -273h-66z" />
    <glyph glyph-name="nacute" unicode="&#x144;" horiz-adv-x="1107" 
d="M811 1106q155 0 229 -102t52 -246l-121 -758h-84l121 758q18 116 -38 190t-175 74t-213 -28t-232 -95l-143 -899h-84l172 1087h55l8 -126q258 145 453 145zM709 1229l280 272h103l-316 -272h-67z" />
    <glyph glyph-name="Ncommaaccent" unicode="&#x145;" horiz-adv-x="1327" 
d="M164 0l237 1499h84l641 -1345l213 1345h84l-237 -1499h-80l-643 1346l-215 -1346h-84zM639 -297q-31 0 -25 31l17 110q6 33 37 33h43q29 0 24 -33l-30 -194q-11 -77 -77 -86q-15 -2 -26 0h-8l4 28q37 0 45 37l10 74h-14z" />
    <glyph glyph-name="ncommaaccent" unicode="&#x146;" horiz-adv-x="1107" 
d="M811 1106q155 0 229 -102t52 -246l-121 -758h-84l121 758q18 116 -38 190t-175 74t-213 -28t-232 -95l-143 -899h-84l172 1087h55l8 -126q258 145 453 145zM492 -297q-31 0 -27 31l18 110q4 33 35 33h45q29 0 23 -33l-29 -194q-8 -47 -37 -69t-51 -19l-25 2l5 28
q39 0 45 37l12 74h-14z" />
    <glyph glyph-name="Ncaron" unicode="&#x147;" horiz-adv-x="1327" 
d="M164 0l237 1499h84l641 -1345l213 1345h84l-237 -1499h-80l-643 1346l-215 -1346h-84zM690 1898h70l166 -212l256 212h80l-304 -266h-77z" />
    <glyph glyph-name="ncaron" unicode="&#x148;" horiz-adv-x="1107" 
d="M811 1106q155 0 229 -102t52 -246l-121 -758h-84l121 758q18 116 -38 190t-175 74t-213 -28t-232 -95l-143 -899h-84l172 1087h55l8 -126q258 145 453 145zM502 1495h69l166 -213l256 213h80l-303 -266h-78z" />
    <glyph glyph-name="Eng" unicode="&#x14a;" horiz-adv-x="1298" 
d="M164 0l237 1499h84l617 -1337l211 1337h84l-238 -1497l-26 -174q-35 -219 -131 -287t-297 -67l10 63q142 18 165 28q63 29 76 47q14 18 30 38q34 43 65 186l24 168l-614 1333l-211 -1337h-86z" />
    <glyph glyph-name="eng" unicode="&#x14b;" horiz-adv-x="1134" 
d="M799 1106q155 0 235 -104t58 -244l-150 -942q-25 -132 -95 -203t-138 -94q-68 -22 -140 -37l-28 47q129 28 196 84t90 106t31 95l150 944q16 108 -46 186t-191 78t-278 -60q-52 -22 -143 -67l-143 -895h-84l172 1087h53l10 -126q222 117 325 135q56 10 116 10z" />
    <glyph glyph-name="Omacron" unicode="&#x14c;" horiz-adv-x="1388" 
d="M952 1425q-96 0 -163 -2t-138 -27t-101 -59q-30 -33 -60 -69q-99 -121 -166 -529q-47 -294 -21 -431q14 -75 41 -120q67 -112 347 -112q175 0 258 35t126 82q139 152 199 546q67 401 -6 542q-27 50 -56 78t-96 47q-68 19 -164 19zM929 1509q254 0 344 -85
q167 -160 95 -621q-54 -350 -124 -508q-96 -220 -286 -272q-114 -31 -236 -31t-181 6t-119 24t-96 53q-91 84 -111 240t23 424q42 268 89 385q48 117 82 174q58 97 162 154t358 57zM670 1628l10 66h543l-11 -66h-542z" />
    <glyph glyph-name="omacron" unicode="&#x14d;" horiz-adv-x="1148" 
d="M561 74q112 0 178 16t124 62q107 86 157 376q59 379 -99 452q-75 34 -172 34q-96 0 -142 -5t-95 -23t-82 -50q-32 -33 -64 -86q-61 -103 -102 -352q-40 -248 41 -348q62 -76 256 -76zM358 985q83 83 222 102q66 10 151 11q256 0 338 -140t34 -441q-48 -300 -163 -414
q-115 -113 -376 -113t-344 125t-33 435q49 310 171 435zM479 1221l10 63h545l-10 -63h-545z" />
    <glyph glyph-name="Ohungarumlaut" unicode="&#x150;" horiz-adv-x="1388" 
d="M952 1425q-96 0 -163 -2t-138 -27t-101 -59q-30 -33 -60 -69q-99 -121 -166 -529q-47 -294 -21 -431q14 -75 41 -120q67 -112 347 -112q175 0 258 35t126 82q139 152 199 546q67 401 -6 542q-27 50 -56 78t-96 47q-68 19 -164 19zM929 1509q254 0 344 -85
q167 -160 95 -621q-54 -350 -124 -508q-96 -220 -286 -272q-114 -31 -236 -31t-181 6t-119 24t-96 53q-91 84 -111 240t23 424q42 268 89 385q48 117 82 174q58 97 162 154t358 57zM1042 1632l283 273h100l-315 -273h-68zM762 1632l280 273h103l-316 -273h-67z" />
    <glyph glyph-name="ohungarumlaut" unicode="&#x151;" horiz-adv-x="1148" 
d="M561 74q112 0 178 16t124 62q107 86 157 376q59 379 -99 452q-75 34 -172 34q-96 0 -142 -5t-95 -23t-82 -50q-32 -33 -64 -86q-61 -103 -102 -352q-40 -248 41 -348q62 -76 256 -76zM358 985q83 83 222 102q66 10 151 11q256 0 338 -140t34 -441q-48 -300 -163 -414
q-115 -113 -376 -113t-344 125t-33 435q49 310 171 435zM860 1221l281 272h100l-315 -272h-66zM578 1221l280 272h103l-316 -272h-67z" />
    <glyph glyph-name="OE" unicode="&#x152;" horiz-adv-x="2134" 
d="M690 76q100 0 173 14q175 34 255 168q97 160 147 483t21 447t-68 157q-40 32 -68 46t-83 24t-137 10q-204 0 -255 -18q-102 -36 -133 -69q-81 -86 -107 -147q-83 -193 -120 -452q-70 -406 20 -551q53 -85 195 -104q60 -8 160 -8zM1632 1415q-174 0 -202 -182l-72 -447
l672 -14l-9 -59l-678 -15l-69 -446q-20 -114 34 -144t134 -30h561l-10 -60l-566 -24q-111 -6 -181 49t-54 184q-80 -143 -200 -189t-316 -46q-268 0 -359 82q-176 159 -86 676q42 272 103 414q33 77 65 134q54 93 159 152q106 59 330 59t309 -45q122 -61 155 -213
q41 258 295 248l575 -24l-8 -60h-582z" />
    <glyph glyph-name="oe" unicode="&#x153;" horiz-adv-x="1951" 
d="M1551 1024q-303 0 -387 -222q-37 -99 -60 -253q27 -7 190 -17q163 -11 342 38q84 24 144 82q59 58 69 143q18 129 -55 179q-74 50 -243 50zM259 230q15 -50 40 -80t84 -53q59 -22 172 -23q112 0 178 16t124 62q107 86 157 376q33 209 5 313q-27 104 -104 138
q-76 35 -172 35t-142 -5q-113 -12 -176 -73q-118 -114 -161 -408q-33 -205 -5 -298zM746 1098q301 0 354 -246q53 126 156 190t300 66t299 -71t80 -242q-14 -107 -76 -181q-63 -74 -151 -106q-233 -83 -527 -35q-62 10 -85 19q-37 -222 7 -322t183 -102q213 -2 496 38
l-10 -61q-217 -59 -490 -59q-124 0 -190 56t-82 175q-58 -123 -164 -175t-287 -52q-262 0 -344 126t-35 425q25 168 66 274q79 205 263 258q87 25 237 25z" />
    <glyph glyph-name="Racute" unicode="&#x154;" horiz-adv-x="1251" 
d="M856 729q204 0 281 169q33 73 47 177q6 76 7 144t-42 131t-180 63h-506l-109 -684h502zM981 1499q348 0 289 -428q-24 -187 -95 -282t-141 -117t-133 -25l221 -647h-92l-217 641q-464 15 -469 23l-106 -664h-84l237 1499h590zM811 1632l281 273h102l-315 -273h-68z" />
    <glyph glyph-name="racute" unicode="&#x155;" horiz-adv-x="827" 
d="M898 1100q81 0 120 -17l-14 -82q-145 34 -307 -4q-73 -13 -139 -44t-103 -47t-54 -25l-139 -881h-84l172 1087h51l11 -137q189 99 243 114q54 16 108 26t135 10zM672 1223l282 272h101l-316 -272h-67z" />
    <glyph glyph-name="Rcommaaccent" unicode="&#x156;" horiz-adv-x="1251" 
d="M856 729q204 0 281 169q33 73 47 177q6 76 7 144t-42 131t-180 63h-506l-109 -684h502zM981 1499q348 0 289 -428q-24 -187 -95 -282t-141 -117t-133 -25l221 -647h-92l-217 641q-464 15 -469 23l-106 -664h-84l237 1499h590zM584 -297q-31 0 -25 31l16 110q6 33 35 33
h45q29 0 25 -33l-31 -194q-11 -77 -78 -86q-14 -2 -24 0h-10l4 28q39 0 45 37l12 74h-14z" />
    <glyph glyph-name="rcommaaccent" unicode="&#x157;" horiz-adv-x="827" 
d="M926 1100q96 0 135 -17l-12 -82q-230 53 -485 -66q-15 -7 -59 -27t-61 -27l-139 -881h-84l172 1087h53l9 -137q100 51 146 74q46 24 137 50q92 26 188 26zM197 -297q-31 0 -27 31l18 110q4 33 35 33h45q29 0 23 -33l-31 -194q-6 -47 -35 -69t-51 -19l-24 2l4 28
q39 0 45 37l10 74h-12z" />
    <glyph glyph-name="Rcaron" unicode="&#x158;" horiz-adv-x="1251" 
d="M856 729q204 0 281 169q33 73 47 177q6 76 7 144t-42 131t-180 63h-506l-109 -684h502zM981 1499q348 0 289 -428q-24 -187 -95 -282t-141 -117t-133 -25l221 -647h-92l-217 641q-464 15 -469 23l-106 -664h-84l237 1499h590zM604 1898h68l168 -212l256 212h80l-304 -266
h-77z" />
    <glyph glyph-name="rcaron" unicode="&#x159;" horiz-adv-x="827" 
d="M828 1100q96 0 135 -17l-15 -82q-149 35 -288 -1q-38 -9 -72 -16t-133 -54q-100 -46 -109 -49l-139 -881h-84l172 1087h53l8 -137q100 51 146 74q46 24 138 50t188 26zM408 1489h67l168 -213l256 213h80l-303 -266h-78z" />
    <glyph glyph-name="Sacute" unicode="&#x15a;" horiz-adv-x="1161" 
d="M510 68q208 0 260 9q130 23 194 112q36 52 48 130l20 140q18 121 -26 177q-45 56 -181 56h-247q-279 0 -310 171q-10 66 2 155l23 135q32 220 162 295q114 67 293 63q112 0 264 -17q151 -17 202 -26l-8 -57l-471 16q-158 6 -246 -55t-112 -225l-23 -135q-4 -41 -8 -78
t15 -73q18 -35 37 -47q53 -32 105 -34t85 -2h252q328 0 276 -325l-20 -140q-48 -295 -340 -324q-51 -5 -129 -5t-244 12t-229 24l8 62q140 -14 348 -14zM803 1634l280 273h101l-316 -273h-65z" />
    <glyph glyph-name="sacute" unicode="&#x15b;" horiz-adv-x="1034" 
d="M674 70q102 0 148 39t59 127l18 102q10 74 -27 118t-127 44h-280q-156 0 -215 50t-37 198l16 98q19 131 95 193t229 63q82 0 248 -8t243 -17l-10 -57h-493q-144 0 -197 -85q-23 -38 -31 -97l-16 -99q-15 -110 27 -135q31 -18 57 -19q25 -1 38 -2t31 -1h300q124 0 188 -69
t45 -183l-18 -109q-27 -177 -156 -216q-63 -19 -144 -19q-83 0 -273 10t-249 16l9 58h522zM651 1225l281 272h102l-315 -272h-68z" />
    <glyph glyph-name="Scircumflex" unicode="&#x15c;" horiz-adv-x="1161" 
d="M518 68q209 0 260 9q210 37 242 242l20 140q18 121 -26 177q-45 56 -180 56h-248q-150 0 -228 50q-69 47 -81 119q-12 71 2 157l22 135q32 220 162 295q114 67 293 63q112 0 264 -17q151 -17 203 -26l-9 -57l-471 16q-157 6 -245 -55t-113 -225l-23 -135q-2 -41 -7 -78
t14 -73q17 -35 37 -47q55 -32 107 -34q51 -2 83 -2h252q328 0 276 -325l-20 -140q-48 -296 -340 -324q-52 -5 -114 -5t-237 11t-251 25l8 62q139 -14 348 -14zM512 1634l303 267h78l190 -267h-67l-168 213l-256 -213h-80z" />
    <glyph glyph-name="scircumflex" unicode="&#x15d;" horiz-adv-x="1034" 
d="M662 70q103 0 147 40q45 40 59 126l19 102q10 74 -27 118t-127 44h-280q-156 0 -215 50t-37 198l16 98q20 131 95 193t229 63q81 0 247 -8t244 -17l-10 -57h-494q-114 0 -164 -46t-63 -136l-16 -99q-15 -110 26 -135q28 -17 56 -19q27 -1 40 -2t30 -1h300q123 0 187 -69
t47 -183l-19 -109q-27 -175 -156 -216q-61 -19 -143 -19q-83 0 -273 10t-249 16l8 58h523zM393 1225l303 266h78l191 -266h-68l-168 213l-256 -213h-80z" />
    <glyph glyph-name="Scedilla" unicode="&#x15e;" horiz-adv-x="1161" 
d="M518 68q209 0 260 9q210 37 242 242l20 140q18 121 -26 177q-45 56 -180 56h-248q-150 0 -228 50q-69 47 -81 119q-12 71 2 157l22 135q32 220 162 295q114 67 293 63q112 0 264 -17q151 -17 203 -26l-9 -57l-471 16q-157 6 -245 -55t-113 -225l-23 -135q-2 -41 -7 -78
t14 -73q17 -35 37 -47q55 -32 107 -34q51 -2 83 -2h252q328 0 276 -325l-20 -140q-48 -296 -340 -324q-52 -5 -114 -5t-237 11t-251 25l8 62q139 -14 348 -14zM344 -371l4 35l86 19q78 14 115 59t53 166h70q-25 -158 -76 -218t-174 -61h-78z" />
    <glyph glyph-name="scedilla" unicode="&#x15f;" horiz-adv-x="1034" 
d="M662 70q103 0 147 40q45 40 59 126l19 102q10 74 -27 118t-127 44h-280q-156 0 -215 50t-37 198l16 98q20 131 95 193t229 63q81 0 247 -8t244 -17l-10 -57h-494q-114 0 -164 -46t-63 -136l-16 -99q-15 -110 26 -135q28 -17 56 -19q27 -1 40 -2t30 -1h300q123 0 187 -69
t47 -183l-19 -109q-27 -175 -156 -216q-61 -19 -143 -19q-83 0 -273 10t-249 16l8 58h523zM336 -360h-78l6 34l84 19q78 14 116 59t54 166h70q-25 -158 -77 -218t-175 -60z" />
    <glyph glyph-name="Scaron" unicode="&#x160;" horiz-adv-x="1161" 
d="M518 68q209 0 260 9q210 37 242 242l20 140q18 121 -26 177q-45 56 -180 56h-248q-150 0 -228 50q-69 47 -81 119q-12 71 2 157l22 135q32 220 162 295q114 67 293 63q112 0 264 -17q151 -17 203 -26l-9 -57l-471 16q-157 6 -245 -55t-113 -225l-23 -135q-2 -41 -7 -78
t14 -73q17 -35 37 -47q55 -32 107 -34q51 -2 83 -2h252q328 0 276 -325l-20 -140q-48 -296 -340 -324q-52 -5 -114 -5t-237 11t-251 25l8 62q139 -14 348 -14zM610 1901h68l168 -213l256 213h80l-303 -267h-78z" />
    <glyph glyph-name="scaron" unicode="&#x161;" horiz-adv-x="1034" 
d="M662 70q103 0 147 40q45 40 59 126l19 102q10 74 -27 118t-127 44h-280q-156 0 -215 50t-37 198l16 98q20 131 95 193t229 63q81 0 247 -8t244 -17l-10 -57h-494q-114 0 -164 -46t-63 -136l-16 -99q-15 -110 26 -135q28 -17 56 -19q27 -1 40 -2t30 -1h300q123 0 187 -69
t47 -183l-19 -109q-27 -175 -156 -216q-61 -19 -143 -19q-83 0 -273 10t-249 16l8 58h523zM440 1491h68l168 -213l256 213h80l-303 -266h-78z" />
    <glyph glyph-name="Tcommaaccent" unicode="&#x162;" horiz-adv-x="1255" 
d="M270 1415l13 84h1081l-14 -84h-504l-223 -1415h-84l223 1415h-492zM270 -379l6 35l84 18q78 14 116 60t54 166h70q-25 -158 -77 -218t-175 -61h-78z" />
    <glyph glyph-name="tcommaaccent" unicode="&#x163;" horiz-adv-x="727" 
d="M483 -2q-137 0 -189 94t-22 293l99 621h-183l11 61l186 23l70 303h61l-47 -303h344l-14 -84h-344l-99 -621q-25 -176 9 -233q12 -23 21 -34t32 -21t110 -26q86 -16 97 -16l-9 -57h-133zM186 -362h-77l6 34l84 17q79 16 115 60t55 167h69q-25 -160 -77 -219t-175 -59z" />
    <glyph glyph-name="Tcaron" unicode="&#x164;" horiz-adv-x="1255" 
d="M285 1415l14 84h1081l-14 -84h-506l-223 -1415h-84l223 1415h-491zM616 1898h70l166 -212l256 212h80l-303 -266h-78z" />
    <glyph glyph-name="tcaron" unicode="&#x165;" horiz-adv-x="749" 
d="M639 1225l27 274l20 137h86l-22 -137l-60 -274h-51zM463 0q-270 0 -209 387l98 619h-184l12 61l185 23l71 303h60l-47 -303h346l-15 -84h-344l-98 -619q-41 -239 57 -288q21 -9 29 -10t89 -17t91 -17l-8 -55h-133z" />
    <glyph glyph-name="Tbar" unicode="&#x166;" horiz-adv-x="1200" 
d="M285 1415l14 84h1026l-14 -84h-477l-84 -532h260l-11 -58h-258l-131 -825h-84l131 825h-260l9 58h260l84 532h-465z" />
    <glyph glyph-name="tbar" unicode="&#x167;" horiz-adv-x="720" 
d="M471 2q-127 0 -178 90t-19 297l35 227h-166l9 58h165l54 332h-183l11 61l186 23l70 303h61l-47 -303h344l-14 -84h-344l-54 -332h244l-10 -58h-242l-35 -227q-14 -81 -12 -145t14 -86t24 -39q12 -16 39 -22q27 -7 109 -23t93 -15l-9 -57h-145z" />
    <glyph glyph-name="Utilde" unicode="&#x168;" horiz-adv-x="1376" 
d="M708 74q76 0 138 10t126 44q66 34 110 94q97 131 145 421l135 856h84l-135 -856q-61 -392 -215 -527q-144 -128 -369 -126q-267 1 -356 68q-91 69 -117 207t12 378l135 856h84l-135 -856q-53 -334 18 -449q26 -42 54 -66t76 -36q49 -12 91 -15q43 -3 119 -3zM1069 1632
q-41 0 -83 32t-79 62t-63 29q-71 0 -131 -39q-73 -42 -88 -53l-17 39q154 121 246 123q47 -1 123 -61t102 -60q82 -2 215 94l17 -39q-33 -23 -51 -37q-109 -90 -191 -90z" />
    <glyph glyph-name="utilde" unicode="&#x169;" 
d="M454 -16q-174 0 -248 100t-52 248l120 758h84l-120 -758q-18 -121 38 -193q56 -71 176 -71t213 28t232 92l141 902h84l-172 -1088h-55l-8 127q-259 -145 -433 -145zM613 1413q53 0 97 -31q44 -30 82 -60t64 -30q80 -2 213 94l18 -38q-7 -4 -31 -22t-31 -24q-7 -4 -27 -20
t-31 -21t-29 -15t-42 -18q-24 -7 -58 -7q-35 -1 -77 31t-79 62t-63 30q-67 -1 -133 -40q-66 -38 -87 -53l-14 39q53 43 114 83t114 40z" />
    <glyph glyph-name="Umacron" unicode="&#x16a;" horiz-adv-x="1376" 
d="M708 74q76 0 138 10t126 44q66 34 110 94q97 131 145 421l135 856h84l-135 -856q-61 -392 -215 -527q-144 -128 -369 -126q-267 1 -356 68q-91 69 -117 207t12 378l135 856h84l-135 -856q-53 -334 18 -449q26 -42 54 -66t76 -36q49 -12 91 -15q43 -3 119 -3zM674 1632
l8 64h545l-10 -64h-543z" />
    <glyph glyph-name="umacron" unicode="&#x16b;" 
d="M454 -16q-174 0 -248 100t-52 248l120 758h84l-120 -758q-18 -121 38 -193q56 -71 176 -71t213 28t232 92l141 902h84l-172 -1088h-55l-8 127q-259 -145 -433 -145zM449 1221l8 63h544l-10 -63h-542z" />
    <glyph glyph-name="Ubreve" unicode="&#x16c;" horiz-adv-x="1376" 
d="M708 74q76 0 138 10t126 44q66 34 110 94q97 131 145 421l135 856h84l-135 -856q-61 -392 -215 -527q-144 -128 -369 -126q-267 1 -356 68q-91 69 -117 207t12 378l135 856h84l-135 -856q-53 -334 18 -449q26 -42 54 -66t76 -36q49 -12 91 -15q43 -3 119 -3zM748 1866h51
q-11 -78 33 -131t123 -53t139 50t71 134h52q-15 -113 -93 -173q-78 -61 -172 -61t-156 64t-48 170z" />
    <glyph glyph-name="ubreve" unicode="&#x16d;" 
d="M454 -16q-174 0 -248 100t-52 248l120 758h84l-120 -758q-18 -121 38 -193q56 -71 176 -71t213 28t232 92l141 902h84l-172 -1088h-55l-8 127q-259 -145 -433 -145zM728 1221q-95 0 -158 63q-62 64 -48 170h51q-12 -78 33 -131t124 -52t138 50t72 133h51
q-16 -113 -92 -173t-171 -60z" />
    <glyph glyph-name="Uring" unicode="&#x16e;" horiz-adv-x="1376" 
d="M708 74q76 0 138 10t126 44q66 34 110 94q97 131 145 421l135 856h84l-135 -856q-61 -392 -215 -527q-144 -128 -369 -126q-267 1 -356 68q-91 69 -117 207t12 378l135 856h84l-135 -856q-53 -334 18 -449q26 -42 54 -66t76 -36q49 -12 91 -15q43 -3 119 -3zM957 1686
q64 0 116 45q51 45 59 99q16 102 -56 147q-34 22 -76 22q-86 0 -145 -79q-26 -36 -34 -89t32 -99t104 -46zM1008 2052q86 0 138 -61t40 -149t-81 -149t-155 -61t-140 60q-53 60 -40 149q12 87 82 149t156 62z" />
    <glyph glyph-name="uring" unicode="&#x16f;" 
d="M454 -16q-174 0 -248 100t-52 248l120 758h84l-120 -758q-18 -121 38 -193q56 -71 176 -71t213 28t232 92l141 902h84l-172 -1088h-55l-8 127q-259 -145 -433 -145zM776 1587q-64 1 -116 -45t-62 -110t30 -112q40 -46 104 -46t116 45q51 45 61 109t-29 112
q-40 47 -104 47zM782 1640q86 0 138 -61t41 -149q-12 -88 -80 -148t-155 -61q-87 1 -140 61t-41 148t82 149q69 61 155 61z" />
    <glyph glyph-name="Uhungarumlaut" unicode="&#x170;" horiz-adv-x="1376" 
d="M708 74q76 0 138 10t126 44q66 34 110 94q97 131 145 421l135 856h84l-135 -856q-61 -392 -215 -527q-144 -128 -369 -126q-267 1 -356 68q-91 69 -117 207t12 378l135 856h84l-135 -856q-53 -334 18 -449q26 -42 54 -66t76 -36q49 -12 91 -15q43 -3 119 -3zM1053 1632
l280 273h101l-316 -273h-65zM770 1632l281 273h102l-315 -273h-68z" />
    <glyph glyph-name="uhungarumlaut" unicode="&#x171;" 
d="M454 -16q-174 0 -248 100t-52 248l120 758h84l-120 -758q-18 -121 38 -193q56 -71 176 -71t213 28t232 92l141 902h84l-172 -1088h-55l-8 127q-259 -145 -433 -145zM827 1221l281 272h102l-315 -272h-68zM545 1221l282 272h101l-316 -272h-67z" />
    <glyph glyph-name="Uogonek" unicode="&#x172;" horiz-adv-x="1376" 
d="M708 74q76 0 138 10t126 44q66 34 110 94q97 131 145 421l135 856h84l-135 -856q-61 -392 -215 -527q-80 -71 -170 -98t-215 -28q-99 -51 -143 -125t-3 -128t154 -52l-10 -60q-119 -15 -189 49t-33 159t179 157q-210 4 -298 70t-114 205q-26 138 12 378l135 856h84
l-135 -856q-53 -334 18 -449q26 -42 54 -66t76 -36q49 -12 91 -15q43 -3 119 -3z" />
    <glyph glyph-name="uogonek" unicode="&#x173;" horiz-adv-x="1267" 
d="M454 -16q-174 0 -248 100t-52 248l120 758h84l-120 -758q-18 -121 38 -193q56 -71 176 -71t213 28t232 92l141 902h84l-172 -1088h-4q-108 -53 -152 -129t-4 -130t152 -52l-8 -60q-119 -15 -189 49q-69 64 -31 161t189 161h-8l-8 127q-259 -145 -433 -145z" />
    <glyph glyph-name="Wcircumflex" unicode="&#x174;" horiz-adv-x="2021" 
d="M307 1499h84l275 -1380l708 1380h94l-294 -581l174 -805l708 1386h92l-768 -1499h-98l-172 797l-410 -797h-98zM965 1632l301 266h77l191 -266h-68l-166 213l-256 -213h-79z" />
    <glyph glyph-name="wcircumflex" unicode="&#x175;" horiz-adv-x="1644" 
d="M193 1087h83l242 -976l453 802q63 117 71 170h58q20 -63 -43 -188l-107 -193l144 -591l460 807q63 117 72 172h57q23 -72 -43 -189l-516 -901h-88l-145 600l-338 -600h-92zM680 1221l303 266h78l190 -266h-67l-168 213l-256 -213h-80z" />
    <glyph glyph-name="Ycircumflex" unicode="&#x176;" horiz-adv-x="1286" 
d="M307 1499h90l301 -860l615 860h100l-684 -967l-84 -532h-84l84 532zM596 1632l303 266h78l190 -266h-67l-168 213l-256 -213h-80z" />
    <glyph glyph-name="ycircumflex" unicode="&#x177;" 
d="M193 1087h86l155 -849q27 -137 141 -150h35l412 842q43 90 55 168h62q23 -76 -33 -191l-442 -905q-2 -6 -13 -25q-258 -514 -452 -528v55q74 15 168 146t144 237t56 113q-49 0 -98 28q-97 57 -121 197zM399 1223l303 266h78l191 -266h-70l-166 213l-256 -213h-80z" />
    <glyph glyph-name="Ydieresis" unicode="&#x178;" horiz-adv-x="1286" 
d="M276 1499h93l299 -860l616 860h100l-686 -967l-84 -532h-84l84 532zM1132 1747q26 0 40 -16t10 -42t-24 -43q-20 -18 -44 -18q-25 0 -40 18t-11 43q4 26 24 42q19 16 45 16zM614 1747q20 0 35 -16q14 -16 10 -42t-23 -43q-19 -18 -44 -18t-40 18t-11 46q4 29 29 42
q24 13 44 13z" />
    <glyph glyph-name="Zacute" unicode="&#x179;" horiz-adv-x="1077" 
d="M143 0l15 84l1069 1331h-858l12 84h971l-15 -84l-1069 -1331h858l-12 -84h-971zM854 1628l281 273h100l-315 -273h-66z" />
    <glyph glyph-name="zacute" unicode="&#x17a;" horiz-adv-x="923" 
d="M125 2l12 84l811 918h-694l12 83h811l-12 -83l-809 -918h662l-13 -84h-780zM659 1217l281 272h100l-315 -272h-66z" />
    <glyph glyph-name="Zdotaccent" unicode="&#x17b;" horiz-adv-x="1077" 
d="M72 0l14 84l1067 1331h-858l14 84h969l-14 -84l-1067 -1331h858l-15 -84h-968zM776 1794h51q31 0 27 -35l-20 -121q-4 -33 -37 -32h-49q-29 0 -29 32l20 121q4 35 37 35z" />
    <glyph glyph-name="zdotaccent" unicode="&#x17c;" horiz-adv-x="923" 
d="M92 2l12 84l811 918h-694l12 83h811l-12 -83l-809 -918h662l-13 -84h-780zM666 1407h49q33 0 26 -33l-18 -121q-4 -33 -37 -32h-49q-14 0 -23 9q-8 9 -6 23l19 121q6 33 39 33z" />
    <glyph glyph-name="Zcaron" unicode="&#x17d;" horiz-adv-x="1077" 
d="M72 0l14 84l1067 1331h-858l14 84h969l-14 -84l-1067 -1331h858l-15 -84h-968zM571 1898h70l166 -212l256 212h80l-303 -266h-78z" />
    <glyph glyph-name="zcaron" unicode="&#x17e;" horiz-adv-x="923" 
d="M92 2l12 84l811 918h-694l12 83h811l-12 -83l-809 -918h662l-13 -84h-780zM418 1487h67l166 -213l256 213h80l-301 -266h-78z" />
    <glyph glyph-name="florin" unicode="&#x192;" horiz-adv-x="1024" 
d="M160 -334q94 0 162 90q69 90 102 187q34 97 72 237l176 666h-209l18 86h209l31 104q55 208 77 268q23 60 52 123t70 109t90 74q49 27 127 28q79 0 180 -32l-12 -52h-181q-85 0 -144 -79t-89 -164q-73 -211 -84 -275l-31 -106h293l-18 -84h-293l-176 -666
q-59 -242 -95 -317q-77 -160 -151 -220q-73 -59 -163 -60t-137 13q-46 14 -52 19l12 51h164z" />
    <glyph glyph-name="circumflex" unicode="&#x2c6;" horiz-adv-x="681" 
d="M135 1087l303 267h78l191 -267h-70l-166 213l-256 -213h-80z" />
    <glyph glyph-name="caron" unicode="&#x2c7;" horiz-adv-x="806" 
d="M66 1354h67l168 -213l256 213h80l-303 -267h-78z" />
    <glyph glyph-name="breve" unicode="&#x2d8;" horiz-adv-x="544" 
d="M123 1319h51q-12 -78 33 -131t124 -52t137 50t73 133h51q-18 -113 -94 -173t-170 -60t-157 63q-62 64 -48 170z" />
    <glyph glyph-name="dotaccent" unicode="&#x2d9;" horiz-adv-x="321" 
d="M276 1298q31 0 27 -34l-20 -121q-4 -33 -37 -33h-49q-14 0 -23 9q-8 10 -6 24l20 121q4 35 37 34h51z" />
    <glyph glyph-name="ring" unicode="&#x2da;" horiz-adv-x="681" 
d="M474 1139q64 0 116 45q51 45 59 99q15 101 -55 148t-158 0q-83 -47 -96 -137q-10 -63 30 -109t104 -46zM524 1505q86 0 138 -61q52 -62 40 -150t-80 -148t-154 -60q-87 0 -140 60t-41 148t82 150q69 62 155 61z" />
    <glyph glyph-name="ogonek" unicode="&#x2db;" horiz-adv-x="518" 
d="M508 0h43q-109 -53 -154 -129t-5 -130t155 -50l-10 -62q-119 -15 -189 49t-32 162t192 160z" />
    <glyph glyph-name="tilde" unicode="&#x2dc;" horiz-adv-x="976" 
d="M508 1225q-79 0 -217 -92l-17 38q55 41 86 63q85 60 158 60q47 -2 123 -62t104 -61q82 0 216 97l16 -39q-8 -6 -50 -39t-54 -40q-13 -7 -28 -16q-15 -8 -47 -20t-69 -12t-79 31t-78 61t-64 31z" />
    <glyph glyph-name="hungarumlaut" unicode="&#x2dd;" horiz-adv-x="942" 
d="M598 1087l281 273h100l-315 -273h-66zM315 1087l281 273h102l-315 -273h-68z" />
    <glyph glyph-name="uni0338" unicode="&#x338;" horiz-adv-x="1320" 
d="M506 84h295q260 0 299 248l133 835q16 98 -14 156l-889 -1182q57 -57 176 -57zM1012 1415h-295q-129 -1 -209 -67t-98 -181l-134 -835q-12 -86 13 -142l885 1172q-49 53 -162 53zM729 1499h297q250 0 291 -208q12 -60 0 -128l-133 -844q-29 -175 -129 -247t-267 -72h-296
q-152 0 -238 83t-59 255l131 833q27 164 135 246q109 82 268 82z" />
    <glyph glyph-name="Omega" unicode="&#x3a9;" horiz-adv-x="1601" 
d="M998 1513q138 1 230 -27q163 -48 254 -200q70 -119 70 -322q0 -87 -16 -186q-74 -459 -446 -694l342 -21l-11 -63h-467l15 86q227 137 338 309q153 236 161 557q5 183 -53 283q-113 195 -411 195q-561 0 -664 -648q-37 -225 18 -372t252 -324l-14 -86h-451l11 63l352 23
q-145 118 -204 252t-61 226q-6 368 151 629q58 97 137 165t204 112t263 43z" />
    <glyph glyph-name="pi" unicode="&#x3c0;" horiz-adv-x="1284" 
d="M1012 76h186l-6 -49q-16 -5 -43 -13t-35 -10l-24 -6q-32 -8 -84 -8q-131 0 -187 79q-55 79 -24 271l104 664h-450l-158 -1004h-84l158 1004h-177l15 83h1059l-15 -83h-264l-104 -664q-25 -144 8 -204t125 -60z" />
    <glyph glyph-name="uni1E02" unicode="&#x1e02;" horiz-adv-x="1212" 
d="M836 827q133 0 228 80q95 79 124 231t-37 214t-223 63h-455l-92 -588h455zM717 86q311 0 364 334q23 133 -51 229t-209 94h-454l-105 -657h455zM940 1499q385 0 332 -369q-20 -143 -106 -236t-189 -110q70 -17 135 -106q33 -45 49 -117t4 -155q-59 -406 -463 -406h-538
l237 1499h539zM850 1819h51q31 0 27 -33l-21 -121q-4 -33 -37 -33h-49q-14 0 -22 10t-6 23l20 121q4 33 37 33z" />
    <glyph glyph-name="uni1E03" unicode="&#x1e03;" horiz-adv-x="1122" 
d="M768 1020q-176 0 -410 -59l-125 -783q209 -106 387 -106t280 202q54 106 81 265q39 261 -17 371t-196 110zM780 1104q326 0 299 -439q-4 -65 -14 -137q-115 -699 -678 -492q-125 46 -164 85l-45 -121h-55l254 1608h80l-92 -586q98 38 219 60t196 22zM444 1925h50
q31 0 26 -35l-20 -121q-4 -33 -37 -32h-49q-14 0 -23 9q-8 9 -6 23l21 121q4 35 38 35z" />
    <glyph glyph-name="uni1E0A" unicode="&#x1e0a;" horiz-adv-x="1353" 
d="M713 86q96 0 180 40t143 104q171 187 226 515q111 670 -344 670h-447l-209 -1329h451zM932 1499q225 0 325 -136q99 -136 108 -309q10 -174 -22 -321q-95 -526 -389 -677q-111 -56 -249 -56h-541l237 1499h531zM870 1819h50q33 0 28 -33l-20 -121q-4 -33 -37 -33h-49
q-14 0 -23 9q-8 10 -6 24l18 121q6 33 39 33z" />
    <glyph glyph-name="uni1E0B" unicode="&#x1e0b;" horiz-adv-x="1087" 
d="M1022 961q-195 59 -397 59q-281 0 -359 -481q-40 -236 24 -352q64 -115 184 -115t215 28t208 78zM636 1104q83 0 197 -23t201 -59l92 586h80l-254 -1608h-55l-8 121q-53 -41 -187 -87t-223 -46q-241 0 -295 256q-28 132 -8 265q52 345 183 481q48 50 121 82t156 32z
M1237 1892q33 0 27 -32l-19 -121q-4 -33 -37 -33h-49q-34 0 -29 33l19 121q6 33 39 32h49z" />
    <glyph glyph-name="uni1E1E" unicode="&#x1e1e;" horiz-adv-x="1144" 
d="M643 1415q-135 0 -178 -101q-14 -34 -23 -81l-69 -447l712 -14l-10 -59l-717 -15l-110 -698h-84l192 1227q25 156 104 216t197 56l619 -24l-8 -60h-625zM893 1819h51q31 0 27 -33l-21 -121q-4 -33 -37 -33h-49q-14 0 -22 10t-6 23l20 121q4 33 37 33z" />
    <glyph glyph-name="uni1E1F" unicode="&#x1e1f;" horiz-adv-x="763" 
d="M700 1526q-102 0 -141 -66q-38 -66 -61 -213l-25 -160h356l-14 -83h-356l-160 -1004h-84l160 1004h-187l9 57l192 26l25 160q27 165 59 228t68 86q72 44 164 49q51 0 141 -10t131 -23l-6 -51h-271zM752 1919h49q33 0 26 -33l-18 -121q-6 -33 -37 -32h-51q-14 0 -23 9
q-8 9 -6 23l21 121q4 33 39 33z" />
    <glyph glyph-name="uni1E40" unicode="&#x1e40;" horiz-adv-x="1617" 
d="M145 0l381 1499h113l213 -1358l631 1358h123l-86 -1499h-84l77 1364l-634 -1364h-93l-206 1358l-349 -1358h-86zM1092 1819h51q31 0 26 -33l-20 -121q-4 -33 -37 -33h-49q-14 0 -23 9q-8 10 -6 24l21 121q4 33 37 33z" />
    <glyph glyph-name="uni1E41" unicode="&#x1e41;" horiz-adv-x="1869" 
d="M798 1104q106 0 175 -47q70 -47 96 -123q145 99 321 144q97 26 179 26q149 0 227 -102t53 -246l-118 -756h-84l118 756q18 112 -39 188t-170 76q-215 0 -471 -133q14 -47 2 -133l-120 -754h-84l121 756q18 112 -40 188t-176 76t-209 -28t-231 -93l-141 -899h-84l172 1087
h55l8 -129q253 146 440 146zM1130 1413h50q33 0 28 -33l-20 -120q-4 -33 -37 -33h-49q-36 0 -29 33l21 120q4 33 36 33z" />
    <glyph glyph-name="uni1E56" unicode="&#x1e56;" horiz-adv-x="1202" 
d="M854 729q62 0 108 12q182 47 224 342q16 86 -2 196q-9 55 -58 94q-49 40 -163 40h-502l-109 -684h502zM977 1499q356 0 295 -418q-40 -260 -151 -353q-39 -32 -67 -48t-84 -26t-125 -11q-69 0 -281 11t-220 16l-106 -670h-84l237 1499h586zM848 1819h49q33 0 29 -33
l-21 -121q-4 -33 -37 -33h-49q-14 0 -22 10t-6 23l18 121q6 33 39 33z" />
    <glyph glyph-name="uni1E57" unicode="&#x1e57;" horiz-adv-x="1099" 
d="M772 1014h-401l-144 -891q127 -35 211 -49t187 -8q155 6 241 118t124 348q77 482 -218 482zM782 1098q102 0 172 -45t100 -123q65 -168 23 -402q-35 -238 -137 -392q-103 -154 -322 -154q-80 0 -198 20t-205 57l-96 -612h-84l264 1628q162 23 483 23zM731 1409h49
q33 0 27 -33l-19 -123q-6 -31 -36 -30h-52q-30 0 -26 30l18 123q6 33 39 33z" />
    <glyph glyph-name="uni1E60" unicode="&#x1e60;" horiz-adv-x="1161" 
d="M518 68q209 0 260 9q210 37 242 242l20 140q18 121 -26 177q-45 56 -180 56h-248q-150 0 -228 50q-69 47 -81 119q-12 71 2 157l22 135q32 220 162 295q114 67 293 63q112 0 264 -17q151 -17 203 -26l-9 -57l-471 16q-157 6 -245 -55t-113 -225l-23 -135q-2 -41 -7 -78
t14 -73q17 -35 37 -47q55 -32 107 -34q51 -2 83 -2h252q328 0 276 -325l-20 -140q-48 -296 -340 -324q-52 -5 -114 -5t-237 11t-251 25l8 62q139 -14 348 -14zM831 1829h50q33 0 26 -35l-18 -121q-6 -33 -37 -33h-51q-13 0 -21 10t-6 23l19 121q6 35 38 35z" />
    <glyph glyph-name="uni1E61" unicode="&#x1e61;" horiz-adv-x="1034" 
d="M662 70q103 0 147 40q45 40 59 126l19 102q10 74 -27 118t-127 44h-280q-156 0 -215 50t-37 198l16 98q20 131 95 193t229 63q81 0 247 -8t244 -17l-10 -57h-494q-114 0 -164 -46t-63 -136l-16 -99q-15 -110 26 -135q28 -17 56 -19q27 -1 40 -2t30 -1h300q123 0 187 -69
t47 -183l-19 -109q-27 -175 -156 -216q-61 -19 -143 -19q-83 0 -273 10t-249 16l8 58h523zM678 1411h49q33 0 27 -33l-19 -123q-4 -31 -37 -30h-49q-32 0 -28 30l18 123q6 33 39 33z" />
    <glyph glyph-name="uni1E6A" unicode="&#x1e6a;" horiz-adv-x="1255" 
d="M285 1415l14 84h1081l-14 -84h-506l-223 -1415h-84l223 1415h-491zM866 1819h49q33 0 27 -33l-18 -121q-6 -33 -37 -33h-51q-14 0 -23 9q-8 10 -6 24l20 121q4 33 39 33z" />
    <glyph glyph-name="uni1E6B" unicode="&#x1e6b;" horiz-adv-x="727" 
d="M483 -2q-137 0 -189 94t-22 293l99 621h-183l11 61l186 23l70 303h61l-47 -303h344l-14 -84h-344l-99 -621q-25 -176 9 -233q12 -23 21 -34t32 -21t110 -26q86 -16 97 -16l-9 -57h-133zM518 1702h51q31 0 27 -33l-21 -121q-4 -33 -36 -32h-50q-14 0 -22 9t-6 23l20 121
q4 33 37 33z" />
    <glyph glyph-name="Wgrave" unicode="&#x1e80;" horiz-adv-x="2021" 
d="M307 1499h84l275 -1380l708 1380h94l-294 -581l174 -805l708 1386h92l-768 -1499h-98l-172 797l-410 -797h-98zM979 1905h94l209 -273h-65z" />
    <glyph glyph-name="wgrave" unicode="&#x1e81;" horiz-adv-x="1644" 
d="M193 1087h83l242 -976l453 802q63 117 71 170h58q20 -63 -43 -188l-107 -193l144 -591l460 807q63 117 72 172h57q23 -72 -43 -189l-516 -901h-88l-145 600l-338 -600h-92zM721 1493h96l209 -272h-68z" />
    <glyph glyph-name="Wacute" unicode="&#x1e82;" horiz-adv-x="2021" 
d="M307 1499h84l275 -1380l708 1380h94l-294 -581l174 -805l708 1386h92l-768 -1499h-98l-172 797l-410 -797h-98zM1217 1632l280 273h100l-315 -273h-65z" />
    <glyph glyph-name="wacute" unicode="&#x1e83;" horiz-adv-x="1644" 
d="M193 1087h83l242 -976l453 802q63 117 71 170h58q20 -63 -43 -188l-107 -193l144 -591l460 807q63 117 72 172h57q23 -72 -43 -189l-516 -901h-88l-145 600l-338 -600h-92zM913 1214l281 273h102l-315 -273h-68z" />
    <glyph glyph-name="Wdieresis" unicode="&#x1e84;" horiz-adv-x="2021" 
d="M307 1499h84l275 -1380l708 1380h94l-294 -581l174 -805l708 1386h92l-768 -1499h-98l-172 797l-410 -797h-98zM1530 1749q25 0 44 -22t-5 -59q-24 -36 -53 -36q-30 0 -45 18t-11 42q4 25 24 41t46 16zM1008 1749q25 0 43 -21t4 -48q-14 -28 -34 -38q-19 -10 -38 -10
t-34 18t-11 42q4 25 24 41t46 16z" />
    <glyph glyph-name="wdieresis" unicode="&#x1e85;" horiz-adv-x="1644" 
d="M193 1087h83l242 -976l453 802q63 117 71 170h58q20 -63 -43 -188l-107 -193l144 -591l460 807q63 117 72 172h57q23 -72 -43 -189l-516 -901h-88l-145 600l-338 -600h-92zM1233 1337q25 0 43 -21t-2 -58t-52 -37q-33 0 -48 17t-11 42q5 25 25 41t45 16zM711 1337
q25 0 43 -21t-2 -58t-52 -37q-33 0 -48 17t-11 42q5 25 25 41t45 16z" />
    <glyph glyph-name="Ygrave" unicode="&#x1ef2;" horiz-adv-x="1286" 
d="M307 1499h90l301 -860l615 860h100l-684 -967l-84 -532h-84l84 532zM610 1905h97l208 -273h-67z" />
    <glyph glyph-name="ygrave" unicode="&#x1ef3;" 
d="M193 1087h86l155 -849q27 -137 141 -150h35l412 842q43 90 55 168h62q23 -76 -33 -191l-442 -905q-2 -6 -13 -25q-258 -514 -452 -528v55q74 15 168 146t144 237t56 113q-49 0 -98 28q-97 57 -121 197zM434 1495h94l211 -272h-67z" />
    <glyph glyph-name="endash" unicode="&#x2013;" horiz-adv-x="901" 
d="M123 545l14 86h969l-14 -86h-969z" />
    <glyph glyph-name="emdash" unicode="&#x2014;" horiz-adv-x="1513" 
d="M121 549l14 86h1426l-15 -86h-1425z" />
    <glyph glyph-name="quoteleft" unicode="&#x2018;" horiz-adv-x="415" 
d="M481 1499q10 0 19 -2h6l-6 -35q-49 2 -58 -49l-10 -70h19q36 0 32 -40l-20 -125q-6 -43 -47 -43h-56q-36 0 -30 43l32 208q13 61 39 84q27 23 49 26q21 3 31 3z" />
    <glyph glyph-name="quoteright" unicode="&#x2019;" horiz-adv-x="415" 
d="M387 1290q-23 0 -29 14t-4 25l23 127q6 43 45 43h53q41 0 33 -43l-35 -211q-10 -74 -65 -101q-18 -9 -41 -9h-29l-6 2l6 34q47 -2 55 48l13 71h-19z" />
    <glyph glyph-name="quotesinglbase" unicode="&#x201a;" horiz-adv-x="415" 
d="M182 0q-16 0 -26 10t-6 29l20 127q6 43 45 43h55q39 0 31 -43l-33 -211q-6 -39 -23 -65t-50 -39t-68 -7l6 35q47 -2 55 49l13 72h-19z" />
    <glyph glyph-name="quotedblleft" unicode="&#x201c;" horiz-adv-x="632" 
d="M678 1343q41 0 33 -40l-19 -125q-6 -43 -47 -43h-53q-39 0 -33 43l33 208q15 99 98 112q19 3 43 -1l-4 -35q-49 2 -57 -49l-10 -70h16zM436 1343q16 0 26 -10t9 -30l-20 -125q-6 -43 -48 -43h-55q-37 0 -29 43l31 208q24 113 118 113q12 0 17 -2h7l-5 -35q-49 2 -57 -49
l-10 -70h16z" />
    <glyph glyph-name="quotedblright" unicode="&#x201d;" horiz-adv-x="630" 
d="M616 1290q-16 0 -26 10t-6 29l20 127q6 43 45 43h56q39 0 30 -43l-33 -211q-12 -79 -56 -97t-85 -11l4 34q49 -2 58 48l10 71h-17zM375 1290q-40 0 -33 39l20 127q6 43 46 43h55q39 0 31 -43l-33 -211q-10 -75 -66 -101q-19 -9 -41 -9h-28l-7 2l7 34q47 -5 55 48l10 71
h-16z" />
    <glyph glyph-name="quotedblbase" unicode="&#x201e;" horiz-adv-x="630" 
d="M412 2q-41 0 -33 41l20 125q6 45 45 45h56q39 0 30 -45l-32 -209q-12 -77 -56 -97t-86 -14l4 35q49 -2 58 49l10 70h-16zM170 2q-16 0 -27 10q-10 10 -6 31l21 125q6 45 45 45h55q39 0 31 -45l-33 -209q-12 -76 -56 -97t-85 -14l6 35q47 -2 55 49l10 70h-16z" />
    <glyph glyph-name="dagger" unicode="&#x2020;" horiz-adv-x="1021" 
d="M231 1032l9 60l313 14l86 471h63l-63 -471l305 -14l-8 -60l-311 -14l-197 -1165h-63l172 1165z" />
    <glyph glyph-name="daggerdbl" unicode="&#x2021;" horiz-adv-x="899" 
d="M199 383l8 59l315 15l86 561l-307 14l10 60l312 14l86 471h63l-63 -471l307 -14l-10 -60l-310 -14l-96 -561l311 -15l-8 -59l-317 -14l-88 -516h-64l76 516z" />
    <glyph glyph-name="bullet" unicode="&#x2022;" horiz-adv-x="669" 
d="M379 901h84q68 0 59 -74l-14 -94q-10 -66 -84 -65h-84q-63 0 -55 65l14 94q4 35 26 55t54 19z" />
    <glyph glyph-name="ellipsis" unicode="&#x2026;" horiz-adv-x="1523" 
d="M1524 188q33 0 26 -32l-20 -123q-6 -33 -37 -33h-53q-14 0 -23 9q-8 10 -6 24l21 123q6 33 38 32h54zM969 188q33 0 28 -32l-22 -123q-6 -33 -37 -33h-51q-14 0 -24 9q-9 10 -7 24l23 123q4 33 39 32h51zM412 188q33 0 28 -32l-22 -123q-6 -33 -37 -33h-53q-14 0 -23 9
q-8 10 -6 24l23 123q4 33 38 32h52z" />
    <glyph glyph-name="perthousand" unicode="&#x2030;" horiz-adv-x="2752" 
d="M2175 66h207q76 0 120 15q88 30 111 175l43 272q16 106 -17 149q-34 42 -149 42h-206q-113 0 -162 -39t-66 -152l-43 -272q-23 -143 52 -174q38 -16 110 -16zM2499 784q143 0 193 -60t30 -196l-43 -272q-23 -139 -87 -198q-65 -58 -216 -58h-207q-137 0 -190 62
q-51 63 -31 194l43 272q12 92 42 144q65 113 259 112h207zM1307 70h206q111 0 161 39t69 151l43 272q16 106 -18 148t-148 43h-207q-113 0 -162 -39t-65 -152l-43 -272q-19 -110 19 -150t145 -40zM1628 788q140 0 192 -60t31 -196l-43 -272q-23 -139 -87 -198
q-65 -58 -216 -58h-207q-137 0 -189 62t-32 194l43 272q14 92 43 144q63 113 258 112h207zM395 0l1135 1499h78l-1135 -1499h-78zM401 780h207q74 0 118 16q87 31 110 175l43 272q17 110 -17 150q-33 39 -147 41h-207q-113 0 -162 -40t-67 -151l-43 -272q-18 -111 20 -151
t145 -40zM516 1499h207q143 0 192 -60t29 -196l-43 -272q-23 -139 -86 -197t-215 -59h-207q-137 1 -190 63t-33 193l43 272q20 137 85 197t218 59z" />
    <glyph glyph-name="guilsinglleft" unicode="&#x2039;" horiz-adv-x="583" 
d="M78 725l487 416l53 -60l-428 -364l314 -363l-62 -55z" />
    <glyph glyph-name="guilsinglright" unicode="&#x203a;" horiz-adv-x="755" 
d="M217 360l434 369l-305 361l57 51l361 -420l-496 -422z" />
    <glyph glyph-name="fraction" unicode="&#x2044;" horiz-adv-x="1179" 
d="M59 0l1010 1550h72l-1010 -1550h-72z" />
    <glyph glyph-name="zerosuperior" unicode="&#x2070;" horiz-adv-x="964" 
d="M629 795q104 1 144 37t54 129l80 505q14 86 -16 126q-31 40 -129 40h-223q-97 0 -145 -38t-62 -128l-80 -505q-16 -100 18 -134q35 -33 136 -32h223zM543 1700h239q117 0 164 -62t31 -172l-82 -522q-24 -142 -94 -180q-70 -37 -174 -37h-240q-135 0 -176 61
q-49 76 -27 168l82 523q18 121 89 171t188 50z" />
    <glyph glyph-name="foursuperior" unicode="&#x2074;" horiz-adv-x="980" 
d="M236 1067l501 633h82l-467 -592h467l41 248l47 98h35l-55 -346h121l-9 -47l-122 -25l-50 -307h-67l49 307h-559z" />
    <glyph glyph-name="fivesuperior" unicode="&#x2075;" horiz-adv-x="854" 
d="M602 788q164 0 191 173l18 114q13 67 -6 114q-19 46 -127 46h-225q-61 0 -111 -39t-59 -94h-64l127 598h604l-12 -68h-539l-88 -409q47 60 125 71q77 11 157 10q81 -1 95 -1q225 0 193 -220l-23 -131q-37 -236 -258 -233q-336 2 -438 18l8 51h432z" />
    <glyph glyph-name="sixsuperior" unicode="&#x2076;" horiz-adv-x="856" 
d="M633 795q150 0 176 153l25 139q0 27 1 47t-22 42t-56 24q-34 2 -61 2h-417q-63 -408 135 -407h219zM535 1642q-129 0 -191 -165q-38 -102 -57 -228q162 18 428 21q115 0 155 -51t29 -134l-25 -147q-33 -211 -239 -211h-232q-152 0 -191 149q-15 56 -15 148q1 92 23 226
t56 232q81 228 259 228q281 6 428 -16l-9 -52h-419z" />
    <glyph glyph-name="sevensuperior" unicode="&#x2077;" horiz-adv-x="878" 
d="M254 1636l10 68h664l18 -41l-522 -934h-76l510 907h-604z" />
    <glyph glyph-name="eightsuperior" unicode="&#x2078;" horiz-adv-x="847" 
d="M770 1253q66 0 113 40t57 104l10 65q16 106 -16 144q-33 37 -125 36h-203q-61 0 -101 -15q-85 -32 -104 -165l-10 -65q-17 -107 70 -135q25 -8 53 -9h256zM688 793q80 1 124 35t56 118l17 103q10 69 -28 103t-89 34h-250q-72 0 -122 -36t-60 -99l-17 -105
q-12 -84 19 -119t125 -34h225zM606 1710h230q102 0 153 -60t31 -182l-14 -82q-6 -51 -48 -101t-108 -58q51 -11 82 -61t22 -109l-20 -119q-18 -123 -78 -168t-160 -45h-250q-126 -1 -168 59t-28 154l22 125q10 67 60 103t102 44q-70 18 -96 72t-16 111l14 82q23 133 90 184
q68 51 180 51z" />
    <glyph glyph-name="ninesuperior" unicode="&#x2079;" horiz-adv-x="1003" 
d="M793 1645h-220q-152 0 -176 -154l-20 -139q-11 -72 21 -94t112 -21h418q66 408 -135 408zM674 797q113 0 169 121q47 100 77 272q-162 -18 -424 -19q-117 -1 -159 49t-28 132l23 153q31 207 250 207h217q277 0 190 -512q-49 -321 -171 -420q-63 -51 -146 -51
q-301 -7 -426 16l8 52h420z" />
    <glyph glyph-name="zeroinferior" unicode="&#x2080;" horiz-adv-x="985" 
d="M438 -342h224q104 0 144 37t54 129l80 506q14 86 -16 126q-31 40 -129 40h-224q-125 0 -174 -71q-25 -36 -32 -95l-80 -506q-15 -100 19 -133t134 -33zM575 563h240q117 0 164 -62t31 -171l-82 -523q-32 -191 -173 -210q-38 -6 -96 -7h-239q-173 0 -202 109
q-13 49 -1 121l82 522q18 121 89 171t187 50z" />
    <glyph glyph-name="oneinferior" unicode="&#x2081;" horiz-adv-x="591" 
d="M88 389l6 45q74 0 152 34t121 69l43 34h65l-156 -979h-67l141 889q-41 -31 -122 -61t-183 -31z" />
    <glyph glyph-name="twoinferior" unicode="&#x2082;" horiz-adv-x="927" 
d="M586 512h-359q-4 4 1 26q5 21 8 21q166 20 376 21q92 0 148 -45t72 -109q52 -213 -207 -453q-118 -110 -252 -208q-134 -99 -142 -105h500l-10 -68h-633l8 60q65 39 201 141q135 102 179 139q44 38 100 90q168 156 186 267t-19 167t-157 56z" />
    <glyph glyph-name="threeinferior" unicode="&#x2083;" horiz-adv-x="800" 
d="M530 502h-391l6 43q100 25 404 24q121 -1 174 -67t37 -164l-12 -76q-10 -74 -66 -124t-107 -60q45 -16 85 -68t28 -125l-8 -61q-18 -117 -86 -179t-211 -61q-279 0 -377 27l6 39l361 2q109 0 166 41t73 143l9 47q12 80 -39 124t-131 46l-291 8l8 48l285 8q91 4 157 46
t76 111l6 64q16 96 -31 130q-48 34 -131 34z" />
    <glyph glyph-name="fourinferior" unicode="&#x2084;" horiz-adv-x="870" 
d="M8 -70l502 633h82l-467 -592h467l41 248l47 98h35l-56 -346h121l-8 -47l-123 -24l-49 -308h-68l50 308h-559z" />
    <glyph glyph-name="fiveinferior" unicode="&#x2085;" horiz-adv-x="849" 
d="M455 -350q164 0 190 174l19 115q4 43 4 77t-34 59q-34 24 -104 23h-225q-61 0 -110 -39t-60 -94h-63l127 598h604l-12 -67h-539l-88 -410q48 60 113 69q99 14 174 11q76 -2 90 -2q225 0 192 -217l-22 -131q-37 -236 -258 -234q-323 0 -439 19l9 49h432z" />
    <glyph glyph-name="sixinferior" unicode="&#x2086;" horiz-adv-x="854" 
d="M266 -342h219q150 0 177 154l24 139q10 71 -22 93t-115 22h-418q-63 -408 135 -408zM387 506q-151 0 -216 -244q-17 -63 -32 -149q162 18 428 18q115 2 156 -49t29 -133l-25 -148q-33 -211 -240 -211h-231q-151 0 -191 148q-15 55 -16 148q1 93 23 227q22 133 58 231
q58 163 163 210q41 17 94 19q289 6 428 -16l-8 -51h-420z" />
    <glyph glyph-name="seveninferior" unicode="&#x2087;" horiz-adv-x="876" 
d="M106 500l11 67h663l19 -43l-523 -932h-75l510 908h-605z" />
    <glyph glyph-name="eightinferior" unicode="&#x2088;" horiz-adv-x="849" 
d="M367 117h256q67 0 113 40t57 103l10 66q16 104 -17 142t-124 38h-203q-93 0 -141 -40t-64 -140l-10 -66q-16 -96 54 -129q30 -14 69 -14zM315 -344h226q80 0 124 35t56 119l16 102q11 66 -27 102t-89 35h-250q-72 0 -122 -36t-61 -99l-16 -104q-12 -84 18 -119t125 -35z
M688 573q102 0 154 -60t30 -183l-14 -82q-10 -76 -74 -123q-37 -29 -82 -35q51 -14 82 -62t23 -108l-21 -119q-27 -179 -154 -204q-36 -8 -83 -9h-250q-229 0 -197 213l23 125q10 66 59 103t103 43q-70 20 -96 72t-17 112l14 82q35 235 271 235h229z" />
    <glyph glyph-name="nineinferior" unicode="&#x2089;" horiz-adv-x="997" 
d="M362 100h418q66 408 -135 408h-219q-152 0 -176 -154l-21 -139q-12 -71 21 -93t112 -22zM526 -340q114 0 169 121q47 98 77 272q-162 -18 -424 -20q-117 0 -159 49t-27 133l22 154q31 207 250 206h217q153 0 195 -148q16 -56 16 -148q0 -91 -19 -213q-64 -410 -244 -463
q-34 -10 -75 -11q-307 -6 -426 17l8 51h420z" />
    <glyph glyph-name="Euro" unicode="&#x20ac;" horiz-adv-x="1482" 
d="M862 543q-57 0 -178 -2t-201 -3t-77 -3q-39 -223 47 -341t278 -122t399 20l72 8l-10 -59q-219 -53 -469 -53q-170 0 -287 92q-65 51 -105 166q-19 55 -20 127q0 72 11 162l-179 10l9 51l182 10l41 260l-178 11l8 47l180 12q0 8 11 68q12 60 30 126t42 111t69 101
q140 174 426 174q196 0 448 -48l-10 -61q-164 21 -452 23t-396 -211q-53 -106 -84 -283l547 -10l-8 -49l-549 -11l-41 -260l545 -10l-9 -51q-35 -2 -92 -2z" />
    <glyph glyph-name="afii61289" unicode="&#x2113;" horiz-adv-x="817" 
d="M375 717q8 8 53 50t61 58l60 60q43 43 62 67t56 72q37 47 75 130q37 83 30 143q-6 61 -36 92t-72 37t-83 -5q-42 -10 -75 -48t-41 -91zM442 -2q-131 0 -181 91t-21 296l22 147q-35 -33 -100 -63l-21 39q59 47 135 115l107 671q18 102 89 162q70 60 180 57q110 -2 167 -86
t35 -202q-47 -268 -498 -623l-32 -217q-20 -149 -6 -208q15 -58 69 -81q20 -8 107 -24t98 -17l-8 -57h-142z" />
    <glyph glyph-name="afii61352" unicode="&#x2116;" horiz-adv-x="2187" 
d="M1070 76q96 0 118 100q98 625 155 987q35 241 169 310q65 33 161 32h379q146 0 198 -91t23 -276t-97 -272q-69 -86 -226 -86h-135q-152 0 -197 106t-2 374h67q-40 -252 -5 -334q18 -46 54 -62t93 -16h133q104 0 164 65q59 66 84 229t-11 222q-22 41 -62 54q-41 12 -93 14
h-383q-188 0 -230 -265l-161 -1013q-10 -68 -60 -112q-106 -94 -214 -31q-52 32 -68 104l-299 1243q-8 37 -36 53q-60 34 -116 -22q-27 -27 -35 -68l-209 -1321h-82l209 1333q12 74 64 121q105 95 218 31q52 -31 67 -94l299 -1256q6 -27 24 -43t42 -16z" />
    <glyph glyph-name="trademark" unicode="&#x2122;" horiz-adv-x="1292" 
d="M604 784l168 715h53l166 -610l332 610h66l-50 -715h-61l39 570l-311 -570h-50l-157 572l-133 -572h-62zM96 1436l10 63h531l-10 -63h-234l-102 -652h-64l105 652h-236z" />
    <glyph glyph-name="estimated" unicode="&#x212e;" horiz-adv-x="1548" 
d="M428 582q0 -18 18 -19h746q12 8 12 15v272q0 66 -129 134t-245 69q-116 0 -212 -39q-94 -39 -142 -82t-48 -70v-280zM434 528q-6 0 -6 -22v-273q0 -51 116 -121t251 -69q135 0 240 48t173 124h115q-119 -125 -235 -170t-271 -45q-283 0 -449 154t-167 388q0 234 172 396
q172 154 434 154t438 -136t189 -428h-1000z" />
    <glyph glyph-name="partialdiff" unicode="&#x2202;" horiz-adv-x="1359" 
d="M623 74q173 0 297 132q147 161 215 423q16 61 24 116q-81 49 -197 68q-116 20 -190 21q-443 0 -500 -365q-30 -193 74 -294t277 -101zM776 918q250 0 393 -113q45 319 -36 473q-82 154 -324 154q-193 0 -391 -111l-17 49q93 53 143 79q127 65 285 67q269 0 373 -192
t49 -533q-66 -429 -266 -641q-151 -160 -365 -160q-213 0 -339 129t-93 346q74 453 588 453z" />
    <glyph glyph-name="uni2206" unicode="&#x2206;" horiz-adv-x="1513" 
d="M193 84h1140l-352 1298zM41 0l911 1499h82l410 -1499h-1403z" />
    <glyph glyph-name="product" unicode="&#x220f;" horiz-adv-x="1230" 
d="M217 0l223 1415h-176l15 84h1142l-14 -84h-178l-223 -1415h-84l223 1415h-621l-223 -1415h-84z" />
    <glyph glyph-name="summation" unicode="&#x2211;" horiz-adv-x="1079" 
d="M16 -410l15 91l573 870l-299 864l14 84h1024l-14 -84h-923l303 -878l-564 -856h908l-13 -91h-1024z" />
    <glyph glyph-name="minus" unicode="&#x2212;" horiz-adv-x="890" 
d="M143 688l7 82h811l-7 -82h-811z" />
    <glyph glyph-name="radical" unicode="&#x221a;" horiz-adv-x="1173" 
d="M131 649l14 84h228l184 -606l784 1511h84l-843 -1638h-72l-197 649h-182z" />
    <glyph glyph-name="infinity" unicode="&#x221e;" horiz-adv-x="1409" 
d="M1159 430q201 0 260 181q11 38 21 92q35 199 -76 246q-45 19 -123 19q-77 0 -189 -82q-112 -84 -194 -186q117 -270 301 -270zM395 430q174 0 385 270q-57 115 -135 192t-166 77q-139 0 -197 -62t-80 -202q-22 -139 22 -207q42 -68 171 -68zM489 1053q103 0 197 -85
t145 -192q84 104 203 190q118 86 212 87q235 0 274 -164q12 -51 12 -96q0 -219 -105 -347q-85 -102 -276 -102q-115 0 -207 84t-137 201q-79 -121 -187 -202t-235 -81q-317 1 -268 359q10 78 28 133t58 107q81 108 286 108z" />
    <glyph glyph-name="integral" unicode="&#x222b;" horiz-adv-x="825" 
d="M184 -334q57 0 83 20q25 20 42 33q17 14 38 59q51 108 77 298q4 30 10 64t6 40l135 856q45 275 71 346q27 72 53 120q74 136 219 136q107 0 153 -14t49 -16l-8 -54h-192q-69 0 -120 -51q-73 -66 -116 -326l-18 -108q-4 -23 -7 -33l-135 -856q0 -32 -35 -214t-81 -253
t-78 -91q-68 -40 -142 -40q-163 0 -204 31l8 53h192z" />
    <glyph glyph-name="approxequal" unicode="&#x2248;" horiz-adv-x="1007" 
d="M752 879q77 0 144 41t93 57l19 -39q-10 -6 -30 -24t-32 -24q-12 -8 -32 -22q-85 -64 -166 -63q-50 0 -132 62q-82 63 -118 63q-61 1 -101 -19q-41 -20 -81 -43t-60 -32l-16 38q101 76 160 102t106 26t130 -62q83 -61 116 -61zM690 442q-49 0 -131 62t-118 63
q-63 0 -103 -19q-39 -19 -79 -42t-60 -33l-17 41q101 76 160 102q58 26 106 26t132 -63t124 -63t74 13t91 49q58 36 63 38l18 -38l-30 -24q-102 -84 -155 -98t-75 -14z" />
    <glyph glyph-name="notequal" unicode="&#x2260;" horiz-adv-x="1120" 
d="M256 434l14 88h283l311 404h-530l14 88h582l119 153h67l-119 -153h226l-15 -88h-276l-311 -404h524l-15 -88h-577l-135 -176h-68l135 176h-229z" />
    <glyph glyph-name="lessequal" unicode="&#x2264;" horiz-adv-x="1150" 
d="M301 858l12 82l789 373l-17 -94l-677 -324l573 -348l-14 -86zM205 246l14 84h772l-14 -84h-772z" />
    <glyph glyph-name="greaterequal" unicode="&#x2265;" horiz-adv-x="923" 
d="M213 457l14 96l686 346l-581 326l16 84l668 -371l-12 -84zM135 246l15 84h772l-15 -84h-772z" />
    <glyph glyph-name="lozenge" unicode="&#x25ca;" horiz-adv-x="1097" 
d="M262 758l289 -652l500 668l-283 629zM162 764l575 735h82l330 -735l-567 -764h-82z" />
    <glyph glyph-name="f_f" unicode="&#xfb00;" horiz-adv-x="1533" 
d="M1454 1610q58 0 148 -12t145 -29l-8 -53l-275 12q-96 4 -137 -72q-31 -58 -51 -166l-31 -203h342l-14 -83h-344l-158 -1006h-84l158 1006h-674l-158 -1004h-84l158 1004h-199l9 55l204 28l29 183q30 170 103 245t204 74q80 0 238 -39l-8 -53l-228 10q-130 4 -184 -101
q-27 -52 -41 -136l-29 -183h676l31 203q29 171 92 245q62 75 170 75z" />
    <glyph glyph-name="f_f_i" unicode="&#xfb03;" horiz-adv-x="1976" 
d="M1610 1610q192 0 354 -41l-8 -53l-348 10q-140 4 -240 -76t-127 -254l-16 -109l749 -16l-170 -1071h-84l158 1004h-668l-159 -1004h-84l159 1004h-655l-158 -1004h-84l158 1004h-199l9 55l204 28l29 183q30 170 103 245t204 74q80 0 238 -39l-8 -53l-228 10
q-98 4 -151 -54t-74 -183l-29 -183h656l16 109q31 190 146 302t307 112z" />
    <glyph glyph-name="ffl" unicode="&#xfb04;" horiz-adv-x="2240" 
d="M1546 1610h516l-192 -1219q-24 -168 7 -229q11 -23 20 -35q19 -26 126 -47t121 -21l-10 -55h-152q-135 0 -182 90t-14 297l180 1137h-414q-264 0 -317 -332l-16 -109h301l-15 -83h-301l-157 -1004h-84l157 1004h-649l-158 -1004h-84l158 1004h-199l9 55l204 28l29 183
q30 168 97 240q75 80 214 80q76 0 234 -40l-8 -53l-228 10q-98 4 -151 -54t-74 -183l-29 -183h650l16 115q29 182 126 295t269 113z" />
    <glyph glyph-name="s_t" unicode="&#xfb06;" horiz-adv-x="1736" 
d="M662 66q180 0 210 178l15 100q12 72 -27 110t-131 38h-276q-169 0 -215 44t-44 94q1 50 7 103l14 96q20 133 96 197t230 64h886l70 303h62l-48 -303h344l-14 -82h-344l-98 -623q-29 -169 6 -233q12 -23 24 -39t38 -22q178 -36 198 -36l-8 -57h-141q-135 0 -185 91
q-49 91 -16 296l98 623h-889q-110 0 -160 -48t-65 -139l-14 -96q-6 -27 -6 -49q0 -66 29 -82q35 -19 118 -19h309q125 0 190 -61t46 -170l-15 -117q-28 -179 -158 -223q-66 -22 -146 -22t-272 10q-190 10 -249 16l8 58h523z" />
    <glyph glyph-name="zero.oldstyle" horiz-adv-x="1280" 
d="M506 84h295q258 0 297 248l100 629q18 125 -34 186t-185 61h-295q-131 0 -211 -66t-98 -181l-99 -629q-37 -248 230 -248zM690 1292h295q180 0 250 -94t47 -237l-100 -629q-29 -176 -126 -254t-261 -78h-293q-151 0 -244 77t-65 255l98 629q27 167 133 249t266 82z" />
    <glyph glyph-name="one.oldstyle" horiz-adv-x="761" 
d="M209 1055l10 57q142 0 342 120q45 28 70 46l24 18l82 -2l-200 -1294h-84l188 1190q-67 -47 -185 -91t-247 -44z" />
    <glyph glyph-name="two.oldstyle" horiz-adv-x="1269" 
d="M98 0l13 78q219 109 410 234q191 124 309 217t208 202t103 197q51 297 -295 297l-565 -2l8 57q254 37 583 27q213 0 297 -108t60 -281q-13 -98 -103 -214t-206 -212q-289 -239 -619 -408h784l-14 -84h-973z" />
    <glyph glyph-name="three.oldstyle" horiz-adv-x="1198" 
d="M682 -131q282 0 324 258l20 121q20 146 -64 203q-66 45 -174 51l-454 14l8 57l461 17q123 2 212 61t105 170l23 142q20 133 -46 193q-67 60 -188 61h-604l8 51q166 41 617 32q166 -2 244 -98t53 -244l-23 -145q-21 -125 -112 -204q-63 -55 -140 -64q60 -17 121 -89
t41 -212l-20 -121q-53 -340 -418 -340q-463 0 -580 35l10 51h576z" />
    <glyph glyph-name="four.oldstyle" horiz-adv-x="1214" 
d="M111 272l798 1022h103l-774 -995h702l74 463l65 153h45l-98 -616h184l-8 -59l-188 -27l-66 -414h-86l66 414h-787z" />
    <glyph glyph-name="five.oldstyle" horiz-adv-x="1234" 
d="M723 -125q109 0 196 73t105 191l33 201q43 264 -203 264h-311q-92 0 -173 -64t-96 -157h-81l188 911h866l-12 -84h-786l-132 -632q33 38 95 74t128 37t115 1h82l123 -2q162 0 234 -93t47 -251l-35 -209q-33 -204 -157 -277q-108 -67 -232 -71q-381 -6 -617 31l9 57h614z
" />
    <glyph glyph-name="six.oldstyle" horiz-adv-x="1236" 
d="M500 80h264q240 0 276 225l35 230q23 131 -29 178t-182 47h-563q-109 -680 199 -680zM688 1511q307 0 574 -24l-11 -60h-559q-212 0 -340 -425q-29 -95 -43 -187q244 29 559 31q98 0 165 -26t93 -68q62 -99 35 -207l-37 -242q-35 -220 -188 -277q-72 -28 -172 -28h-268
q-224 0 -284 239q-48 190 10 556t186 542t280 176z" />
    <glyph glyph-name="seven.oldstyle" horiz-adv-x="1177" 
d="M223 1210l15 84h911l29 -65l-734 -1434h-98l725 1415h-848z" />
    <glyph glyph-name="eight.oldstyle" horiz-adv-x="1187" 
d="M600 807h287q123 0 193 63t81 142l23 139q26 150 -28 212t-185 62h-256q-153 -1 -223 -65t-93 -209l-20 -139q-20 -131 58 -172q63 -33 163 -33zM518 84h248q95 0 154 36q109 66 129 189l34 215q20 133 -48 167t-152 34h-291q-130 0 -222 -82q-54 -47 -65 -119l-35 -215
q-20 -119 48 -172t200 -53zM985 1509q220 0 276 -161q28 -82 9 -203l-23 -133q-13 -104 -108 -185q-49 -41 -109 -49q172 -53 137 -262l-30 -201q-51 -315 -375 -315h-256q-198 0 -277 99q-66 86 -43 216l31 203q16 106 89 166t149 64q-57 14 -95 46q-58 50 -67 154
q-4 45 4 84l20 133q31 195 131 270t277 74h260z" />
    <glyph glyph-name="nine.oldstyle" horiz-adv-x="1286" 
d="M600 535h557q109 680 -192 679h-265q-250 0 -284 -225l-37 -239q-20 -127 38 -171t183 -44zM766 -133q68 0 127 44q176 131 256 568q-244 -29 -567 -30q-334 -2 -285 307l37 241q18 111 72 180t130 95q75 26 177 24h258q393 0 268 -800q-86 -537 -329 -675
q-67 -38 -138 -38q-309 -1 -575 24l8 60h561z" />
    <glyph glyph-name="at.alt" horiz-adv-x="1525" 
d="M633 705q-30 -183 10 -314t211 -131q233 -4 403 123l115 766q-156 70 -364 65q-314 -7 -375 -509zM741 1616h768q168 0 241 -94t46 -271l-108 -725q-18 -113 -41 -154q-51 -92 -120 -136t-186 -46h-77l-13 123q-49 -53 -163 -94t-204 -43q-92 -2 -146 13
q-129 36 -171 155q-56 160 -14 404q31 214 113 340q81 126 164 166t188 46q104 6 235 -26t205 -103l-131 -899q128 0 193 63t84 191l108 725q22 111 -15 196t-192 85h-772q-161 0 -236 -85t-91 -196l-166 -1048q-22 -137 40 -219t193 -82h789l-9 -52q-162 -33 -596 -32h-200
q-158 0 -243 110t-58 275l166 1048q24 150 119 258q95 107 300 107z" />
    <glyph glyph-name="questiondown.alt" horiz-adv-x="1103" 
d="M922 1505q14 0 22 -9t6 -23l-14 -97q-4 -35 -39 -35h-55q-29 0 -25 35l14 97q4 33 37 32h54zM139 375l33 203q31 204 173 278t407 43l17 102q17 102 15 105h88l-43 -277q-162 2 -241 0q-293 -2 -332 -251l-33 -207q-25 -162 41 -230t244 -67h528l-8 -54
q-272 -33 -543 -28q-217 -2 -296 100t-50 283z" />
    <glyph glyph-name="g.salt" horiz-adv-x="1054" 
d="M477 424h258q165 0 241 148q35 66 44 133q20 133 -35 218t-168 85h-213q-254 0 -307 -303q-24 -146 60 -234q46 -47 120 -47zM354 -469h299q131 0 188 60q56 60 72 171l9 58q19 110 -83 158q-50 24 -134 36l-498 64l-66 -316q-34 -171 127 -219q41 -12 86 -12zM709 338
h-301q-154 0 -166 -79q-6 -38 -6 -58q0 -44 63 -54l453 -59q118 -14 196 -80t60 -178l-11 -68q-21 -127 -58 -188q-38 -61 -87 -83q-101 -44 -213 -44h-272q-163 0 -251 87t-59 230l93 469q10 78 55 120t112 48q-61 37 -89 127t-15 177q61 389 408 387l204 -2
q122 -4 212 -91q91 -87 67 -294q-16 -128 -98 -242q-43 -57 -120 -91t-177 -34z" />
    <glyph glyph-name="exclamdown.alt" horiz-adv-x="620" 
d="M389 1343l21 123q4 29 36 31h50q33 -2 28 -33l-20 -121q-6 -31 -37 -34h-53q-29 1 -25 34zM188 0l185 1096h67l-159 -1096h-93z" />
    <glyph glyph-name="ampersand.salt" horiz-adv-x="1910" 
d="M1026 430q111 0 153 26t55 118t-19 118q-32 27 -142 27h-264q-140 0 -200 -77t-79 -212h496zM823 803h264q149 0 198 -55t34 -177q-15 -79 -35 -123t-61 -67t-85 -28t-124 -5h-496q-6 -41 -6 -74q0 -123 71 -159q50 -26 104 -29q55 -2 89 -2h285q403 0 450 299l99 623
h-928q-154 -4 -217 -21q-63 -18 -91 -44q-63 -58 -81 -177l-27 -178q-16 -98 41 -127t137 -29q35 195 123 284t256 89zM1063 0h-291q-145 0 -208 28q-62 28 -90 64q-63 83 -40 256q-114 0 -193 53t-59 187l29 186q36 258 250 297q94 17 237 19h926l74 303h57l-47 -303h317
l-8 -58l-323 -26l-99 -623q-14 -96 -55 -168t-92 -112q-131 -103 -385 -103z" />
    <glyph glyph-name="zero.tnum" horiz-adv-x="1269" 
d="M483 84h295q258 0 297 248l133 835q20 123 -32 186q-53 62 -187 62h-295q-129 -1 -209 -67t-98 -181l-133 -835q-37 -248 229 -248zM707 1499h294q176 0 245 -93t46 -239l-133 -835q-53 -332 -395 -332h-295q-154 0 -240 80t-59 252l133 835q27 164 135 248
q109 84 269 84z" />
    <glyph glyph-name="one.tnum" horiz-adv-x="1269" 
d="M307 0l12 78h361l211 1315q-65 -47 -183 -91t-249 -45l12 58q84 1 150 27q181 72 284 157h82l-223 -1421h342l-12 -78h-787z" />
    <glyph glyph-name="two.tnum" horiz-adv-x="1269" 
d="M915 1434h-573l8 59q221 27 588 27q209 0 292 -119t54 -314q-33 -264 -550 -689q-198 -164 -429 -314h817l-12 -84h-981l12 78q293 194 438 311q328 263 431 383q166 190 188 320q29 180 -43 261t-240 81z" />
    <glyph glyph-name="three.tnum" horiz-adv-x="1269" 
d="M737 72q121 0 211 61t113 203l20 121q37 236 -237 245l-455 15l8 59l461 15q121 4 211 65t107 174l22 141q20 131 -46 190q-67 58 -187 58h-605l9 51q166 41 618 33q166 -2 242 -96t53 -242l-22 -141q-10 -70 -42 -125t-90 -99t-120 -52q63 -22 104 -69q78 -90 57 -228
l-20 -121q-53 -344 -418 -344q-462 -1 -579 34l10 52h575z" />
    <glyph glyph-name="four.tnum" horiz-adv-x="1269" 
d="M150 477l798 1022h103l-775 -995h703l74 463l65 153h45l-98 -616h184l-8 -60l-188 -26l-66 -414h-86l66 414h-787z" />
    <glyph glyph-name="five.tnum" horiz-adv-x="1269" 
d="M784 82q109 0 196 73t105 191l33 201q43 264 -203 264h-311q-92 0 -173 -65t-95 -156h-82l188 911h867l-13 -84h-786l-131 -633q31 39 93 74t146 37t126 2l178 -2q162 0 234 -94t46 -250l-35 -209q-33 -203 -156 -280q-103 -64 -233 -68q-380 -8 -616 31l8 57h614z" />
    <glyph glyph-name="six.tnum" horiz-adv-x="1269" 
d="M524 80h264q240 0 277 225l35 230q22 131 -30 178t-181 47h-563q-109 -680 198 -680zM713 1511q399 0 573 -24l-10 -60h-559q-82 0 -152 -63q-71 -62 -115 -164q-89 -203 -116 -385q244 29 559 31q98 0 165 -26q68 -26 94 -68q62 -99 34 -207l-37 -242
q-35 -219 -188 -277q-72 -28 -173 -28h-268q-139 0 -218 97q-139 171 -56 691q59 373 187 549t280 176z" />
    <glyph glyph-name="seven.tnum" horiz-adv-x="1269" 
d="M350 1415l15 84h911l29 -65l-734 -1434h-98l725 1415h-848z" />
    <glyph glyph-name="eight.tnum" horiz-adv-x="1269" 
d="M889 807q123 0 193 63t81 142l23 139q26 150 -28 212t-185 62h-256q-153 -1 -223 -65t-93 -209l-20 -139q-20 -131 58 -172q63 -33 163 -33h287zM520 84h248q138 0 221 92q49 53 62 133l34 215q21 142 -80 183q-48 18 -120 18h-291q-130 0 -222 -82q-54 -47 -65 -119
l-35 -215q-20 -119 48 -172t200 -53zM987 1509q220 0 276 -161q28 -82 9 -203l-23 -133q-14 -106 -108 -185q-49 -41 -109 -49q172 -53 137 -262l-30 -201q-51 -315 -375 -315h-256q-198 0 -277 99q-66 86 -43 216l31 203q16 106 89 166t149 64q-57 14 -95 46
q-58 50 -67 154q-4 45 4 84l20 133q31 195 131 270t277 74h260z" />
    <glyph glyph-name="nine.tnum" horiz-adv-x="1269" 
d="M582 743h557q109 680 -193 680h-264q-250 0 -285 -225l-37 -240q-20 -127 38 -171t184 -44zM748 76q68 0 126 44q105 79 167 240q61 161 89 328q-244 -29 -567 -31q-334 -2 -284 310l36 239q27 164 124 232t255 67h258q393 0 269 -800q-87 -541 -329 -675
q-67 -38 -138 -38q-418 -1 -576 24l8 60h562z" />
    <glyph glyph-name="zero.tosf" horiz-adv-x="1269" 
d="M483 84h295q258 0 297 248l101 629q18 125 -34 186t-186 61h-294q-131 0 -211 -66t-99 -181l-98 -629q-37 -248 229 -248zM668 1292h295q179 0 249 -94t48 -237l-101 -629q-29 -176 -126 -254t-263 -78h-291q-152 0 -238 73q-99 82 -71 259l98 629q27 167 133 249t267 82
z" />
    <glyph glyph-name="one.tosf" horiz-adv-x="1269" 
d="M293 0l12 78h354l177 1110q-66 -47 -184 -91t-246 -44l12 57q118 0 231 59q112 59 176 107l27 18h80l-189 -1216h334l-12 -78h-772z" />
    <glyph glyph-name="two.tosf" horiz-adv-x="1269" 
d="M127 0l12 78q140 70 312 173q171 105 279 183q264 193 366 332q63 88 73 162q51 297 -295 297l-565 -2l8 57q254 37 584 27q213 0 297 -108t59 -281q-12 -98 -102 -214t-206 -212q-293 -241 -619 -408h784l-14 -84h-973z" />
    <glyph glyph-name="three.tosf" horiz-adv-x="1269" 
d="M707 -131q149 0 227 72q77 72 96 186l21 121q20 146 -65 203q-66 44 -173 51l-455 14l9 57l460 17q123 2 212 61t106 170l22 142q20 133 -46 193q-67 60 -187 61h-604l8 51q166 41 616 32q166 -2 244 -98t53 -244l-22 -145q-31 -180 -188 -249q-34 -15 -64 -19
q58 -16 102 -67q80 -94 60 -234l-21 -121q-53 -340 -418 -340q-462 0 -579 35l10 51h576z" />
    <glyph glyph-name="four.tosf" horiz-adv-x="1269" 
d="M96 272l799 1022h102l-774 -995h703l73 463l66 153h45l-98 -616h184l-8 -59l-189 -27l-65 -414h-86l65 414h-786z" />
    <glyph glyph-name="five.tosf" horiz-adv-x="1269" 
d="M752 -125q110 0 196 73t105 191l32 201q43 264 -202 264h-312q-92 0 -173 -64t-95 -157h-82l189 911h866l-12 -84h-787l-131 -632q41 53 112 82q70 30 140 30h114l177 -2q161 0 233 -93t47 -251l-34 -209q-33 -202 -157 -277q-108 -67 -233 -71q-380 -6 -616 31l8 57h615
z" />
    <glyph glyph-name="six.tosf" horiz-adv-x="1269" 
d="M524 80h264q240 0 277 225l35 230q22 131 -30 178t-181 47h-563q-109 -680 198 -680zM713 1511q379 0 573 -24l-10 -60h-559q-82 0 -152 -63q-71 -62 -115 -164q-89 -203 -116 -385q244 29 559 31q98 0 165 -26q68 -26 94 -68q62 -99 34 -207l-37 -242
q-35 -219 -188 -277q-72 -28 -173 -28h-268q-139 0 -218 97q-139 171 -56 691q59 373 187 549t280 176z" />
    <glyph glyph-name="seven.tosf" horiz-adv-x="1269" 
d="M317 1210l15 84h911l29 -65l-733 -1434h-99l725 1415h-848z" />
    <glyph glyph-name="eight.tosf" horiz-adv-x="1269" 
d="M889 807q123 0 193 63t81 142l23 139q26 150 -28 212t-185 62h-256q-153 -1 -223 -65t-93 -209l-20 -139q-20 -131 58 -172q63 -33 163 -33h287zM520 84h248q138 0 221 92q49 53 62 133l34 215q21 142 -80 183q-48 18 -120 18h-291q-130 0 -222 -82q-54 -47 -65 -119
l-35 -215q-20 -119 48 -172t200 -53zM987 1509q220 0 276 -161q28 -82 9 -203l-23 -133q-14 -106 -108 -185q-49 -41 -109 -49q172 -53 137 -262l-30 -201q-51 -315 -375 -315h-256q-198 0 -277 99q-66 86 -43 216l31 203q16 106 89 166t149 64q-57 14 -95 46
q-58 50 -67 154q-4 45 4 84l20 133q31 195 131 270t277 74h260z" />
    <glyph glyph-name="nine.tosf" horiz-adv-x="1269" 
d="M549 535h557q109 680 -193 679h-264q-250 0 -284 -225l-37 -239q-20 -127 38 -171t183 -44zM715 -133q68 0 127 44q176 131 256 568q-244 -29 -568 -30q-334 -2 -284 307l37 241q27 164 124 232t255 67h258q393 0 268 -800q-86 -537 -329 -675q-67 -38 -138 -38
q-431 -1 -576 24l9 60h561z" />
    <glyph glyph-name="gbreve.salt" horiz-adv-x="1054" 
d="M477 422h258q164 0 241 150q35 66 44 133q20 133 -35 218t-168 85h-213q-254 0 -307 -303q-24 -146 60 -235q46 -48 120 -48zM354 -469h299q131 0 188 60q56 60 72 171l9 58q14 86 -39 131t-178 61l-498 66l-66 -316q-34 -171 127 -219q41 -12 86 -12zM709 338h-301
q-154 0 -166 -79q-6 -38 -6 -58q0 -44 63 -54l453 -59q118 -14 196 -80t60 -178l-11 -68q-21 -127 -58 -188q-38 -61 -87 -83q-101 -44 -213 -44h-272q-163 0 -251 87t-59 230l93 469q10 78 55 120t112 48q-61 37 -89 127t-15 177q61 389 408 387l204 -2q185 -10 254 -158
q41 -87 25 -221t-98 -248q-43 -57 -120 -91t-177 -34zM724 1217q-95 0 -158 63q-62 64 -48 170h51q-12 -78 33 -131t124 -52t138 50t72 133h51q-16 -113 -92 -173t-171 -60z" />
    <glyph glyph-name="gdotaccent.salt" horiz-adv-x="1054" 
d="M477 422h258q164 0 241 150q35 66 44 133q20 133 -35 218t-168 85h-213q-254 0 -307 -303q-24 -146 60 -235q46 -48 120 -48zM354 -469h299q131 0 188 60q56 60 72 171l9 58q19 110 -83 158q-50 24 -134 34l-498 66l-66 -316q-22 -94 27 -155q34 -46 118 -68q34 -8 68 -8
zM709 338h-301q-154 0 -166 -79q-6 -38 -6 -58q0 -44 63 -54l453 -59q118 -14 196 -80t60 -178l-11 -68q-21 -127 -58 -188q-38 -61 -87 -83q-101 -44 -213 -44h-272q-163 0 -251 87t-59 230l93 469q17 154 167 168q-61 37 -89 127t-15 177q61 389 408 387l204 -2
q185 -10 254 -158q41 -87 25 -221t-98 -248q-43 -57 -120 -91t-177 -34zM745 1407h50q33 0 26 -33l-18 -121q-6 -33 -37 -32h-49q-34 0 -29 32l19 121q6 33 38 33z" />
    <glyph glyph-name="gcircumflex.salt" horiz-adv-x="1054" 
d="M477 422h258q164 0 241 150q35 66 44 133q20 133 -35 218t-168 85h-213q-254 0 -307 -303q-24 -146 60 -235q46 -48 120 -48zM354 -469h299q131 0 188 60q56 60 72 171l9 58q14 86 -39 131t-178 61l-498 66l-66 -316q-34 -171 127 -219q41 -12 86 -12zM709 338h-301
q-154 0 -166 -79q-6 -38 -6 -58q0 -44 63 -54l453 -59q118 -14 196 -80t60 -178l-11 -68q-21 -127 -58 -188q-38 -61 -87 -83q-101 -44 -213 -44h-272q-163 0 -251 87t-59 230l93 469q10 78 55 120t112 48q-61 37 -89 127t-15 177q61 389 408 387l204 -2q185 -10 254 -158
q41 -87 25 -221t-98 -248q-43 -57 -120 -91t-177 -34zM432 1217l303 266h78l191 -266h-70l-166 213l-256 -213h-80z" />
    <glyph glyph-name="c_t" horiz-adv-x="1644" 
d="M1438 -4q-137 0 -187 91q-49 91 -16 296l98 618h-737q-143 0 -208 -78q-66 -78 -95 -183q-62 -226 -63 -355q0 -129 14 -180q38 -135 197 -135t384 26l70 10l-8 -61q-157 -45 -257 -51q-234 -15 -292 4q-132 41 -167 155q-51 165 -5 394q64 392 226 488q54 32 102 41
t116 9l736 2l71 304h62l-49 -304h344l-13 -83h-344l-98 -621q-41 -243 57 -287q25 -10 113 -28q88 -17 98 -17l-8 -55h-141z" />
    <glyph glyph-name="t_t" horiz-adv-x="1458" 
d="M1243 0q-270 0 -211 387l98 617l-675 2l-99 -619q-41 -241 58 -288q20 -9 28 -10t89 -17t92 -17l-9 -55h-133q-270 0 -209 387l99 619h-183l11 61l186 23l70 303h61l-47 -303h674l71 301h60l-47 -304h346l-14 -83h-345l-98 -617q-16 -104 -10 -148q6 -45 10 -67t18 -37
q14 -14 22 -23q7 -9 32 -16t105 -23q81 -16 91 -16l-8 -57h-133z" />
    <glyph glyph-name="f_t" horiz-adv-x="1519" 
d="M692 1528q-68 0 -106 -33t-54 -82t-28 -123l-31 -203h731l72 306h59l-47 -306h344l-14 -83h-344l-96 -617q-24 -179 8 -233q12 -23 21 -34q9 -10 29 -20t30 -11q8 -1 90 -17t92 -17l-10 -55h-135q-133 0 -187 92q-53 92 -22 295l96 617h-733l-158 -1004h-84l158 1004
h-185l9 59l192 24l31 203q14 106 46 175q32 70 67 95q67 48 149 50q193 0 295 -31l-8 -51h-277z" />
    <glyph glyph-name="t_y" horiz-adv-x="1816" 
d="M801 1090q162 0 226 -58q34 -32 51 -72t30 -106l117 -610q17 -97 69 -131q53 -34 78 -29h14l414 842q45 92 58 168h61q23 -74 -33 -191l-444 -905q-2 -6 -12 -25q-258 -514 -451 -528v55q137 35 347 456l20 40q-50 0 -95 32q-91 64 -114 203l-117 609q-20 106 -64 135
t-168 29h-333l-99 -619q-25 -181 8 -233q13 -23 21 -34t30 -20t109 -26q88 -17 99 -17l-9 -57h-137q-131 0 -183 93t-22 294l99 621h-183l11 61l186 23l70 303h61l-47 -303h332z" />
    <glyph glyph-name="f_y" horiz-adv-x="1853" 
d="M692 1528q-94 0 -132 -58t-56 -180l-31 -203l363 3q160 0 222 -54t87 -184l115 -610q18 -80 42 -103q47 -45 74 -53t47 -8h9l405 842q47 98 57 170h64q23 -76 -33 -193l-444 -905q-21 -40 -40 -78q-97 -194 -179 -293q-83 -100 -116 -124q-74 -54 -128 -58v57
q76 17 176 160q87 120 135 224t55 110q-108 9 -170 116q-29 51 -43 123l-114 609q-23 106 -67 136t-167 30h-366l-158 -1004h-84l158 1004h-185l9 59l192 24l31 203q29 180 95 249t167 71q193 0 295 -31l-8 -51h-277z" />
    <glyph glyph-name="gcommaaccent.salt" horiz-adv-x="1038" 
d="M801 1370q31 0 26 -31l-16 -114q-6 -33 -37 -33h-43q-30 0 -24 33l26 188q6 49 35 71t51 19l25 -4l-4 -26q-37 2 -45 -39l-9 -64h15zM494 424h258q106 0 167 55t80 104q64 165 31 278q-20 69 -72 108t-124 39h-213q-255 0 -308 -303q-24 -147 61 -234q46 -47 120 -47z
M371 -467h299q184 0 237 140q14 38 23 89l8 58q19 111 -83 158q-50 24 -134 36l-500 64l-63 -316q-22 -93 19 -147t124 -75q33 -7 70 -7zM723 338h-301q-152 0 -164 -79q-6 -38 -6 -58q0 -44 63 -54l453 -59q119 -14 197 -80t59 -178l-10 -68q-20 -124 -59 -187
q-39 -62 -87 -84q-101 -44 -213 -44h-274q-160 0 -248 87t-59 230l90 469q18 116 108 155q29 11 62 13q-61 37 -90 127t-15 177q61 389 408 387l205 -2q120 -4 211 -91q91 -86 67 -294q-16 -131 -98 -242q-43 -57 -120 -91t-179 -34z" />
    <glyph glyph-name="exclam.smcp" horiz-adv-x="516" 
d="M244 340l118 827h93l-144 -827h-67zM285 188q33 0 26 -32l-20 -123q-4 -33 -35 -33h-55q-14 0 -23 9q-8 10 -6 24l23 123q4 33 36 32h54z" />
    <glyph glyph-name="quotedbl.smcp" horiz-adv-x="651" 
d="M477 834l27 274l22 137h86l-22 -137l-60 -274h-53zM248 834l26 274l23 137h86l-23 -137l-59 -274h-53z" />
    <glyph glyph-name="numbersign.smcp" horiz-adv-x="1138" 
d="M440 432h310l94 297h-305zM96 383l17 49h274l98 297h-280l14 51h283l127 387h53l-127 -387h307l125 387h53l-127 -387h314l-15 -51h-315l-96 -297h319l-16 -49h-320l-125 -385h-53l125 385h-305l-127 -385h-53l127 385h-277z" />
    <glyph glyph-name="dollar.smcp" horiz-adv-x="1067" 
d="M508 80q134 0 172 8q39 8 82 28q95 43 115 160l12 78q17 120 -84 167q-49 24 -117 24h-164q-257 0 -293 173q-10 48 -2 105l11 64q34 218 213 266q92 25 219 25l20 133h70l-23 -135q195 -8 322 -25l-10 -59h-424q-149 0 -217 -50t-86 -165l-11 -64q-14 -100 46 -144
t171 -44h170q150 0 220 -82t53 -195l-12 -78q-28 -169 -145 -225q-117 -57 -265 -53l-21 -133h-67l20 135q-283 19 -342 29l9 57h358z" />
    <glyph glyph-name="percent.smcp" horiz-adv-x="1665" 
d="M1192 68h100q111 0 162 38t68 152l22 143q16 106 -17 149q-34 42 -147 42h-102q-113 0 -162 -40t-65 -151l-23 -143q-6 -57 -4 -93q5 -97 168 -97zM1290 657h101q141 0 191 -61t28 -201l-23 -143q-20 -138 -85 -194t-216 -56h-106q-135 0 -186 64t-31 196l22 144
q20 135 85 193t220 58zM410 0l882 1167h78l-883 -1167h-77zM412 598h102q74 0 118 15q88 30 111 175l21 142q18 110 -16 150t-148 40h-100q-113 0 -162 -39t-68 -151l-22 -142q-16 -110 20 -150t144 -40zM610 1186q142 0 192 -62t27 -198l-20 -142q-14 -94 -46 -147
q-63 -105 -259 -105h-103q-137 0 -187 64t-32 197l23 141q19 137 83 194t220 58h102z" />
    <glyph glyph-name="ampersand.smcp" horiz-adv-x="1148" 
d="M238 176q51 -88 149 -103t197 60l137 113l-234 385l-143 -103q-220 -159 -106 -352zM631 1094q-170 0 -199 -107q-16 -63 27 -135l325 -557l240 203l25 -33l-148 -178l-74 -66l136 -221h-97l-102 170l-129 -102q-72 -60 -162 -76t-175 20t-134 121q-72 123 -38 243
t167 216l153 115l-63 110q-53 94 -40 169t65 122t122 57q162 18 433 -18l-9 -53h-323z" />
    <glyph glyph-name="quotesingle.smcp" horiz-adv-x="421" 
d="M248 831l26 275l23 137h86l-23 -137l-59 -275h-53z" />
    <glyph glyph-name="asterisk.smcp" horiz-adv-x="956" 
d="M657 846l261 164l18 -41l-231 -189zM553 1178l47 16l105 -248l-87 -37zM545 700l57 76l207 -176l-31 -37zM334 543l104 274l84 -18l-147 -271zM233 895l7 47l295 25l-11 -84z" />
    <glyph glyph-name="zero.smcp" horiz-adv-x="1153" 
d="M508 84h172q258 0 297 248l82 504q39 248 -217 247h-174q-131 -1 -210 -65t-100 -182l-79 -504q-39 -248 229 -248zM680 1167h172q166 0 234 -84t62 -172q-3 -43 -5 -82l-82 -503q-27 -174 -127 -250t-264 -76h-174q-154 0 -241 82t-60 256l79 504q27 166 136 246t270 79
z" />
    <glyph glyph-name="one.smcp" horiz-adv-x="735" 
d="M221 926l10 57q163 0 357 166l18 18h80l-176 -1167h-84l166 1061q-140 -135 -371 -135z" />
    <glyph glyph-name="two.smcp" horiz-adv-x="1050" 
d="M719 1169q205 0 283 -106t51 -287q-12 -86 -77 -177q-155 -216 -526 -430q-81 -46 -161 -85h645l-14 -84h-826l12 80q393 192 611 370q92 76 165 166t87 172q23 144 -37 222t-238 75l-442 -2l10 52q145 25 219 29t238 5z" />
    <glyph glyph-name="three.smcp" horiz-adv-x="1056" 
d="M754 1174h41q123 0 184 -83t41 -217l-12 -75q-14 -99 -70 -153t-119 -71q51 -20 90 -82t25 -157l-10 -62q-25 -154 -101 -220t-227 -64h-37q-408 0 -483 30l8 54h502q106 0 170 45q63 45 80 162l10 61q16 102 -38 148t-132 47l-418 10l10 65l422 9q84 2 152 46t82 142
l12 72q20 136 -64 184q-43 25 -112 25h-524l8 53q102 31 510 31z" />
    <glyph glyph-name="four.smcp" horiz-adv-x="1089" 
d="M96 379l570 788h98l-541 -757h602l60 370l63 154h45l-84 -524h185l-9 -62l-188 -26l-51 -318h-84l49 318h-678z" />
    <glyph glyph-name="five.smcp" horiz-adv-x="1157" 
d="M672 86q240 0 276 225l15 101q22 88 -12 147q-32 62 -181 64h-203q-94 1 -172 -53t-92 -136h-76l152 733h735l-12 -84h-656l-102 -479q35 39 97 69t134 32q10 2 209 2q307 0 263 -297l-17 -109q-25 -165 -120 -233t-253 -70q-364 -4 -495 35l8 53h502z" />
    <glyph glyph-name="six.smcp" horiz-adv-x="1132" 
d="M469 86h252q193 0 221 182l27 174q12 80 -28 111t-142 31h-494q-78 -498 164 -498zM618 1094q-57 0 -107 -36q-86 -62 -133 -186q-47 -123 -63 -225q154 18 496 21q145 2 203 -60t39 -170l-29 -186q-39 -252 -317 -252h-242q-112 0 -181 70q-70 70 -80 291q-6 110 20 268
q89 543 407 553q319 2 497 -23l-8 -65h-502z" />
    <glyph glyph-name="seven.smcp" horiz-adv-x="997" 
d="M221 1083l15 84h796l33 -65l-578 -1102h-94l565 1083h-737z" />
    <glyph glyph-name="eight.smcp" horiz-adv-x="1169" 
d="M838 635q63 0 112 27q96 53 113 161l10 66q16 111 -18 158q-35 47 -133 47h-314q-113 0 -163 -39t-70 -166l-10 -66q-16 -111 40 -150q57 -38 127 -38h306zM446 84h314q86 0 142 48t71 136l14 90q17 116 -36 154q-53 37 -126 37h-307q-97 0 -155 -48t-70 -136l-17 -97
q-14 -94 26 -139t144 -45zM942 1178q123 0 179 -77t34 -214l-10 -68q-13 -88 -69 -146t-128 -71q66 -12 103 -84t22 -158l-14 -92q-43 -268 -305 -268h-328q-196 0 -227 142q-10 42 -10 72q2 30 6 65l14 96q27 155 149 194q29 10 58 13q-76 22 -112 92t-21 155l10 68
q25 160 99 220q75 60 224 61h326z" />
    <glyph glyph-name="nine.smcp" horiz-adv-x="1110" 
d="M573 1085q-193 0 -221 -182l-28 -174q-12 -82 28 -112t142 -29h493q78 498 -160 497h-254zM674 76q59 0 110 37q143 103 195 411q-156 -18 -498 -20q-143 -2 -200 59t-41 170l30 185q41 254 318 253h239q113 0 184 -73q40 -41 57 -112q45 -186 -1 -445
q-88 -551 -403 -551q-340 -1 -500 22l10 64h500z" />
    <glyph glyph-name="question.smcp" horiz-adv-x="956" 
d="M418 188q33 0 26 -32l-18 -123q-6 -33 -39 -33h-51q-34 0 -29 33l19 123q6 33 39 32h53zM461 338h-88l37 229q109 -2 163 0q254 4 285 195l14 96q18 129 -47 176q-66 47 -231 47h-391l8 62q233 27 425 25t268 -78q76 -78 52 -238l-14 -98q-28 -171 -163 -230t-294 -30
l-6 -39q-6 -39 -12 -77t-6 -40z" />
    <glyph glyph-name="at.smcp" horiz-adv-x="1822" 
d="M623 602q-31 -187 11 -315q28 -93 121 -117q38 -10 89 -12q233 -4 403 123l115 766q-156 70 -365 65q-313 -8 -374 -510zM1499 1513q168 0 241 -94t46 -270l-109 -725q-26 -160 -99 -242q-34 -38 -98 -66t-149 -28h-78l-12 123q-49 -53 -163 -94t-205 -42t-145 13
q-128 33 -171 155q-58 163 -14 402q42 291 189 442q99 102 240 109q140 8 271 -24t205 -103l-131 -897q130 0 194 62q65 62 82 190l109 725q23 117 -15 197t-192 84h-772q-221 0 -299 -180q-20 -46 -29 -101l-166 -1049q-29 -185 89 -263q58 -38 145 -38h788l-8 -51
q-162 -33 -596 -33h-201q-158 -1 -243 109t-58 276l166 1049q23 146 120 256q96 110 300 108h768z" />
    <glyph glyph-name="a.smcp" horiz-adv-x="1173" 
d="M430 436h494l-140 623zM86 0l672 1167h84l270 -1167h-88l-82 352h-559l-199 -352h-98z" />
    <glyph glyph-name="b.smcp" horiz-adv-x="1079" 
d="M766 643q104 0 176 54t91 177t-41 167t-154 44h-418l-70 -442h416zM678 86q242 0 276 236q14 106 -43 172t-157 65h-416l-76 -473h416zM844 1169q148 0 212 -71q65 -71 63 -156q-1 -43 -5 -86q-33 -211 -221 -258q47 -10 99 -74q28 -33 42 -88t4 -119q-26 -149 -110 -233
t-264 -84h-500l184 1169h496z" />
    <glyph glyph-name="c.smcp" horiz-adv-x="1064" 
d="M706 1184q87 0 229 -14t212 -31l-8 -60q-25 5 -182 13t-252 8q-173 0 -273 -122t-140 -379t15 -390t238 -133l438 20l-10 -59q-249 -45 -385 -45t-195 20q-162 55 -194 244q-20 106 -11 204q9 99 22 180q28 177 102 316t226 197q82 31 168 31z" />
    <glyph glyph-name="d.smcp" horiz-adv-x="1247" 
d="M643 84q375 0 444 496q39 270 -33 389q-73 119 -253 118h-381l-158 -1003h381zM629 0h-465l186 1171h467q121 -2 203 -48t118 -128q75 -172 33 -432q-29 -212 -119 -361q-36 -58 -89 -100t-93 -60q-88 -42 -241 -42z" />
    <glyph glyph-name="e.smcp" horiz-adv-x="1058" 
d="M551 1087q-80 -1 -112 -29t-40 -83l-55 -348l637 -13l-10 -61l-641 -12l-56 -355q-16 -106 91 -106h596l-9 -60l-614 -24q-78 0 -121 48t-31 126l129 815q28 184 240 184l575 -20l-10 -62h-569z" />
    <glyph glyph-name="f.smcp" horiz-adv-x="1060" 
d="M553 1087q-78 1 -110 -29t-42 -83l-55 -350l637 -13l-8 -61l-641 -14l-86 -537h-84l155 985q29 184 236 184l578 -20l-9 -62h-571z" />
    <glyph glyph-name="g.smcp" horiz-adv-x="1181" 
d="M965 104q-199 -118 -417 -118q-74 0 -140 28q-117 51 -165 183q-38 100 -38 218q-1 117 19 231t55 214t96 177t153 113t193 36t235 -16t226 -35l-11 -62q-297 29 -434 29q-195 0 -291 -111t-143 -401q-44 -326 83 -451q70 -69 184 -69t234 41t173 77l57 365h-377l9 53
q80 10 149 21q69 10 155 10t160 -6l-98 -631h-59z" />
    <glyph glyph-name="h.smcp" horiz-adv-x="1218" 
d="M162 -2l184 1169h84l-88 -561h733l86 561h84l-184 -1169h-84l84 522h-731l-84 -522h-84z" />
    <glyph glyph-name="i.smcp" horiz-adv-x="405" 
d="M164 0l184 1167h84l-184 -1167h-84z" />
    <glyph glyph-name="j.smcp" horiz-adv-x="657" 
d="M78 41l16 57q181 -41 259 -6q118 53 149 252l129 823h84l-129 -823q-39 -240 -156 -309q-84 -45 -182 -40t-170 46z" />
    <glyph glyph-name="k.smcp" horiz-adv-x="1069" 
d="M162 -2l184 1169h84l-88 -553h219l500 553h104l-530 -600l346 -569h-102l-328 530h-221l-84 -530h-84z" />
    <glyph glyph-name="l.smcp" horiz-adv-x="1015" 
d="M350 0q-84 0 -128 47t-32 129l160 991h84l-155 -974q-18 -109 102 -109h567l-14 -84h-584z" />
    <glyph glyph-name="m.smcp" horiz-adv-x="1527" 
d="M113 0l319 1169h90l258 -1024l566 1024h92l-62 -1169h-82l54 997l-551 -997h-66l-258 1004l-276 -1004h-84z" />
    <glyph glyph-name="n.smcp" horiz-adv-x="1257" 
d="M164 0l184 1169h80l608 -1017l164 1017h82l-184 -1169h-74l-610 1026l-166 -1026h-84z" />
    <glyph glyph-name="o.smcp" horiz-adv-x="1271" 
d="M632 74q96 0 171 18q167 41 238 231q38 101 67 299t12 277q-18 78 -41 111q-44 63 -170 77q-379 43 -498 -129q-77 -112 -122 -374q-33 -231 -17 -308t41 -112t70 -55q45 -19 99 -27t150 -8zM553 1154q88 24 242 24t256 -39q165 -66 159 -334q-2 -97 -24 -237
q-43 -270 -136 -413q-80 -122 -252 -152q-75 -13 -217 -13q-245 0 -323 98t-76 270q4 96 28 252t68 273t116 183q72 64 159 88z" />
    <glyph glyph-name="p.smcp" horiz-adv-x="1079" 
d="M821 1081h-442l-80 -508l442 2q110 0 159 35q48 35 73 89t42 158t-37 164t-157 60zM836 1165q120 0 198 -72t64 -251q-23 -208 -123 -284q-89 -66 -236 -66h-24l-426 20l-82 -512h-84l184 1165h529z" />
    <glyph glyph-name="q.smcp" horiz-adv-x="1271" 
d="M567 -68h56q63 -139 240 -121q48 5 100 23l-15 -88q-119 -46 -246 -2q-57 20 -95 69t-40 119zM632 74q96 0 171 18q167 41 238 231q38 101 67 299t12 277q-18 78 -41 111q-44 63 -170 77q-379 43 -498 -129q-77 -112 -122 -374q-33 -231 -17 -308t41 -112t70 -55
q45 -19 99 -27t150 -8zM553 1154q88 24 242 24t256 -39q165 -66 159 -334q-2 -97 -24 -237q-43 -270 -136 -413q-80 -122 -252 -152q-75 -13 -217 -13q-245 0 -323 98t-76 270q4 96 28 252t68 273t116 183q72 64 159 88z" />
    <glyph glyph-name="r.smcp" horiz-adv-x="1118" 
d="M752 584q74 0 127 35q101 67 127 213t-41 200q-68 53 -146 53h-440l-80 -501h453zM829 1169q114 0 200 -72t63 -270q-18 -151 -104 -231t-214 -88l205 -508h-94l-199 500q-30 0 -212 11q-183 11 -183 13l-84 -524h-84l184 1169h522z" />
    <glyph glyph-name="s.smcp" horiz-adv-x="1101" 
d="M479 532q-150 0 -208 50t-38 190l21 133q20 131 97 200t231 69q79 0 252 -12t239 -23l-10 -58q-295 10 -496 11q-135 0 -192 -87q-27 -42 -37 -108l-21 -131q-4 -25 -4 -59q1 -34 11 -47t19 -25t54 -16q46 -3 55 -4t40 -1h286q268 0 232 -235l-23 -143
q-41 -256 -309 -256q-106 0 -288 10t-230 26l8 58q328 -10 524 -11q96 -1 148 51t63 128l23 143q12 82 -25 115t-135 32h-287z" />
    <glyph glyph-name="t.smcp" horiz-adv-x="1071" 
d="M231 1083l15 84h899l-15 -84h-407l-170 -1083h-84l170 1083h-408z" />
    <glyph glyph-name="u.smcp" horiz-adv-x="1255" 
d="M643 74q201 0 303 98t144 360l100 635h86l-100 -635q-44 -267 -147 -397q-45 -57 -111 -91t-126 -44t-136 -10q-229 0 -311 60t-103 161q-12 57 -13 138q1 81 19 183l100 635h86l-100 -635q-35 -222 -1 -321q35 -99 162 -125q58 -12 148 -12z" />
    <glyph glyph-name="v.smcp" horiz-adv-x="1243" 
d="M256 1167h90l270 -1036l594 1036h97l-666 -1167h-78z" />
    <glyph glyph-name="w.smcp" horiz-adv-x="1736" 
d="M256 1167h86l227 -1038l543 1038h92l-190 -372l149 -664l543 1036h92l-610 -1167h-80l-156 684l-356 -684h-84z" />
    <glyph glyph-name="x.smcp" horiz-adv-x="1089" 
d="M72 0l518 592l-330 575h102l293 -505l451 505h117l-527 -585l336 -582h-100l-299 510l-449 -510h-112z" />
    <glyph glyph-name="y.smcp" horiz-adv-x="1181" 
d="M256 1167h90l293 -684l506 684h100l-573 -778l-62 -391h-84l62 391z" />
    <glyph glyph-name="z.smcp" horiz-adv-x="987" 
d="M72 0l14 84l905 999h-747l12 84h858l-12 -84l-901 -999h743l-14 -84h-858z" />
    <glyph glyph-name="grave.smcp" horiz-adv-x="471" 
d="M256 1360h96l209 -273h-67z" />
    <glyph glyph-name="aogonek.smcp" horiz-adv-x="1290" 
d="M430 436h494l-140 623zM86 0l672 1167h84l270 -1167h-29q-109 -53 -153 -128t-4 -130q41 -55 153 -51l-10 -62q-119 -17 -187 49t-31 163q38 97 189 159h-16l-82 352h-557l-201 -352h-98z" />
    <glyph glyph-name="rcommaaccent.smcp" horiz-adv-x="1118" 
d="M752 584q74 0 127 35q101 67 127 213t-41 200q-68 53 -146 53h-440l-80 -501h453zM829 1169q114 0 200 -72t63 -270q-18 -151 -104 -231t-214 -88l205 -508h-94l-199 500q-30 0 -212 11q-183 11 -183 13l-84 -524h-84l184 1169h522zM498 -287q-31 0 -25 31l16 111
q6 31 37 30h43q29 0 25 -30l-31 -195q-8 -47 -36 -69t-52 -19l-24 2l4 29q39 0 45 37l12 73h-14z" />
    <glyph glyph-name="itilde.smcp" horiz-adv-x="405" 
d="M166 0l184 1167h84l-184 -1167h-84zM530 1290q-46 0 -87 32q-43 32 -79 62t-62 29q-71 0 -132 -39q-73 -42 -88 -53l-14 39q149 121 243 123q47 -1 123 -61t103 -60q82 -2 215 94l18 -39q-21 -11 -58 -42t-55 -40q-17 -9 -49 -27t-78 -18z" />
    <glyph glyph-name="lcommaaccent.smcp" horiz-adv-x="1015" 
d="M350 0q-84 0 -128 47t-32 129l160 991h84l-155 -974q-18 -109 102 -109h567l-14 -84h-584zM500 -297q-31 0 -25 31l17 108q6 33 36 33h43q29 0 25 -33l-31 -192q-8 -47 -36 -69t-52 -19l-24 2l4 28q39 -2 45 37l12 74h-14z" />
    <glyph glyph-name="dieresis.smcp" horiz-adv-x="913" 
d="M881 1249q25 0 39 -16t10 -41t-24 -43q-20 -19 -44 -19q-25 0 -40 18t-11 44q5 25 25 41t45 16zM358 1249q25 0 39 -16q15 -16 11 -41t-24 -43q-20 -19 -44 -19q-25 0 -40 18t-11 44q4 25 24 41t45 16z" />
    <glyph glyph-name="scaron.smcp" horiz-adv-x="1101" 
d="M479 532q-150 0 -209 50t-37 190l21 133q32 201 191 250q84 26 226 17q318 -20 402 -33l-10 -58q-295 10 -496 11q-104 0 -158 -48t-71 -147l-21 -131q-4 -25 -4 -59q1 -34 11 -47t19 -25t54 -16q46 -3 55 -4t40 -1h286q268 0 232 -235l-23 -143q-41 -256 -309 -256
q-106 0 -288 10t-230 26l8 58q328 -10 524 -11q96 -1 148 51t63 128l23 143q12 82 -25 115t-135 32h-287zM481 1563h68l166 -213l256 213h82l-303 -267h-78z" />
    <glyph glyph-name="emacron.smcp" horiz-adv-x="1058" 
d="M551 1087q-80 -1 -112 -29t-40 -83l-55 -348l637 -13l-10 -61l-641 -12l-56 -355q-16 -106 91 -106h596l-9 -60l-614 -24q-78 0 -121 48t-31 126l129 815q28 184 240 184l575 -20l-10 -62h-569zM481 1294l11 64h544l-10 -64h-545z" />
    <glyph glyph-name="gcommaaccent.smcp" horiz-adv-x="1181" 
d="M580 -125h45q29 0 24 -33l-31 -192q-8 -47 -36 -69t-52 -19l-24 2l4 28q39 -2 45 37l12 74h-14q-31 0 -25 31l17 108q4 33 35 33zM965 104q-199 -118 -417 -118q-74 0 -140 28q-117 51 -165 183q-38 100 -38 218q-1 117 19 231t55 214t96 177t153 113t193 36t235 -16
t226 -35l-11 -62q-297 29 -434 29q-195 0 -291 -111t-143 -401q-44 -326 83 -451q70 -69 184 -69t234 41t173 77l57 365h-377l9 53q80 10 149 21q69 10 155 10t160 -6l-98 -631h-59z" />
    <glyph glyph-name="tbar.smcp" horiz-adv-x="1036" 
d="M221 1085l15 84h884l-12 -84h-403l-64 -391h233l-8 -57h-233l-101 -637h-83l100 637h-238l8 57h238l64 391h-400z" />
    <glyph glyph-name="zcaron.smcp" horiz-adv-x="987" 
d="M72 0l14 84l905 999h-747l12 84h858l-12 -84l-901 -999h743l-14 -84h-858zM463 1556h67l166 -213l256 213h80l-303 -266h-78z" />
    <glyph glyph-name="macron.smcp" horiz-adv-x="858" 
d="M272 1087l11 64h598l-11 -64h-598z" />
    <glyph glyph-name="degree.smcp" horiz-adv-x="686" 
d="M471 1116q-77 0 -133 -76q-26 -36 -36 -89q-9 -53 30 -99t103 -45q64 0 117 45q52 44 62 108t-27 110q-38 46 -116 46zM426 752q-86 0 -137 60t-38 149q13 88 85 150q72 63 158 63t136 -62t36 -151t-84 -149t-156 -60z" />
    <glyph glyph-name="acute.smcp" horiz-adv-x="434" 
d="M213 1087l281 273h102l-315 -273h-68z" />
    <glyph glyph-name="caron.smcp" horiz-adv-x="849" 
d="M326 1374h65l168 -219l270 219h68l-307 -287h-78z" />
    <glyph glyph-name="eng.smcp" horiz-adv-x="1251" 
d="M143 -2l185 1171h78l606 -1034l166 1034h82l-183 -1165l-18 -106q-33 -197 -126 -270t-276 -68l11 67h10q126 12 154 29q70 41 92 85q33 67 53 165l16 94l-602 1024l-164 -1026h-84z" />
    <glyph glyph-name="amacron.smcp" horiz-adv-x="1173" 
d="M430 436h494l-140 623zM86 0l672 1167h84l270 -1167h-88l-82 352h-557l-201 -352h-98zM547 1290l10 64h545l-10 -64h-545z" />
    <glyph glyph-name="aacute.smcp" horiz-adv-x="1173" 
d="M430 436h494l-140 623zM86 0l672 1167h84l270 -1167h-88l-82 352h-557l-201 -352h-98zM786 1290l281 273h100l-315 -273h-66z" />
    <glyph glyph-name="acircumflex.smcp" horiz-adv-x="1173" 
d="M430 436h494l-140 623zM86 0l672 1167h84l270 -1167h-88l-82 352h-557l-201 -352h-98zM535 1290l303 266h77l189 -266h-68l-166 213l-256 -213h-79z" />
    <glyph glyph-name="atilde.smcp" horiz-adv-x="1173" 
d="M430 436h494l-140 623zM86 0l672 1167h84l270 -1167h-88l-82 352h-557l-201 -352h-98zM1136 1380q-109 -90 -181 -90q-71 0 -133 62t-96 61q-83 0 -139 -39q-13 -8 -44 -26t-43 -27l-17 39q154 121 246 123q45 -1 121 -61t104 -60q82 -2 215 94l17 -39q-32 -22 -50 -37z
" />
    <glyph glyph-name="adieresis.smcp" horiz-adv-x="1173" 
d="M430 436h494l-140 623zM86 0l672 1167h84l270 -1167h-88l-82 352h-557l-201 -352h-98zM1100 1407q25 0 39 -16q27 -31 1 -66t-55 -35t-44 18t-11 42q4 25 24 41t46 16zM578 1407q26 0 38 -16q14 -16 11 -44t-27 -42q-24 -15 -45 -15t-36 18t-11 42q4 25 24 41t46 16z" />
    <glyph glyph-name="aring.smcp" horiz-adv-x="1173" 
d="M430 436h494l-140 623zM806 1217q65 0 116 45t61 110t-29 110q-39 46 -93 46t-93 -22q-83 -47 -98 -146q-8 -53 32 -98t104 -45zM840 1581q134 0 180 -104q20 -49 11 -121t-69 -125t-120 -66l270 -1165h-88l-82 352h-557l-201 -352h-98l671 1165q-59 11 -105 65t-35 141
t82 149t141 61z" />
    <glyph glyph-name="ae.smcp" horiz-adv-x="1622" 
d="M549 479h340l90 557zM1206 1079q-84 1 -112 -21t-39 -89l-58 -353l586 -12l-10 -61l-588 -15l-57 -348q-16 -106 92 -106l541 -2l-9 -60l-561 -22q-82 -2 -123 44t-28 128l37 235h-385l-310 -397h-104l760 987q82 106 154 138t222 36l517 -20l-11 -62h-514z" />
    <glyph glyph-name="iogonek.smcp" horiz-adv-x="405" 
d="M164 0l184 1167h84l-184 -1167h-17q-109 -53 -153 -128t-3 -130q40 -55 152 -51l-8 -62q-119 -17 -189 49t-31 163q38 97 189 159h-24z" />
    <glyph glyph-name="ccaron.smcp" horiz-adv-x="1064" 
d="M706 1184q87 0 229 -14t212 -31l-8 -60q-25 5 -182 13t-252 8q-173 0 -273 -122t-140 -379t15 -390t238 -133l438 20l-10 -59q-249 -45 -385 -45t-195 20q-162 55 -194 244q-20 106 -11 204q9 99 22 180q28 177 102 316t226 197q82 31 168 31zM528 1579h70l166 -213
l256 213h80l-303 -266h-78z" />
    <glyph glyph-name="eacute.smcp" horiz-adv-x="1058" 
d="M551 1087q-80 -1 -112 -29t-40 -83l-55 -348l637 -13l-10 -61l-641 -12l-56 -355q-16 -106 91 -106h596l-9 -60l-614 -24q-78 0 -121 48t-31 126l129 815q28 184 240 184l575 -20l-10 -62h-569zM725 1292l283 273h100l-315 -273h-68z" />
    <glyph glyph-name="eogonek.smcp" horiz-adv-x="1058" 
d="M551 1087q-80 -1 -112 -29t-40 -83l-55 -348l637 -13l-10 -61l-641 -12l-56 -355q-16 -106 91 -106h596l-9 -60h-2q-108 -50 -152 -126t-4 -132t152 -51l-10 -61q-116 -16 -186 50t-32 162t184 156l-564 -22q-78 0 -121 48t-31 126l129 815q28 184 240 184l575 -20
l-10 -62h-569z" />
    <glyph glyph-name="edieresis.smcp" horiz-adv-x="1058" 
d="M551 1087q-80 -1 -112 -29t-40 -83l-55 -348l637 -13l-10 -61l-641 -12l-56 -355q-16 -106 91 -106h596l-9 -60l-614 -24q-78 0 -121 48t-31 126l129 815q28 184 240 184l575 -20l-10 -62h-569zM1051 1409q25 0 42 -21t-3 -58q-20 -38 -52 -38q-33 0 -47 18t-10 42
q5 25 25 41t45 16zM528 1409q25 0 42 -21t-3 -58q-20 -38 -52 -38t-46 18t-10 42q4 25 24 41t45 16z" />
    <glyph glyph-name="edotaccent.smcp" horiz-adv-x="1058" 
d="M551 1087q-80 -1 -112 -29t-40 -83l-55 -348l637 -13l-10 -61l-641 -12l-56 -355q-16 -106 91 -106h596l-9 -60l-614 -24q-78 0 -121 48t-31 126l129 815q28 184 240 184l575 -20l-10 -62h-569zM768 1481h49q33 0 29 -35l-21 -121q-4 -33 -37 -33h-49q-14 0 -22 10t-6 23
l18 121q6 35 39 35z" />
    <glyph glyph-name="iacute.smcp" horiz-adv-x="405" 
d="M164 0l184 1167h84l-184 -1167h-84zM336 1290l280 273h103l-316 -273h-67z" />
    <glyph glyph-name="icircumflex.smcp" horiz-adv-x="405" 
d="M164 0l184 1167h84l-184 -1167h-84zM111 1290l303 266h78l190 -266h-68l-168 213l-256 -213h-79z" />
    <glyph glyph-name="imacron.smcp" horiz-adv-x="405" 
d="M164 0l184 1167h84l-184 -1167h-84zM127 1290l10 64h543l-10 -64h-543z" />
    <glyph glyph-name="dcroat.smcp" horiz-adv-x="1245" 
d="M643 84q211 0 310 139t134 357q36 279 -51 394q-86 115 -233 113h-367l-76 -464h232l-8 -58h-232l-76 -481h367zM811 1171q174 0 262 -104t103 -241q16 -137 -4 -259q-57 -337 -211 -463q-87 -70 -160 -86q-83 -18 -149 -18h-474l90 565h-143l8 58h143l89 548h446z" />
    <glyph glyph-name="ncommaaccent.smcp" horiz-adv-x="1257" 
d="M164 0l184 1169h80l608 -1017l164 1017h82l-184 -1169h-74l-610 1026l-166 -1026h-84zM586 -287q-31 0 -25 31l17 111q6 31 36 30h43q29 0 25 -30l-31 -195q-11 -78 -77 -86q-15 -2 -25 0h-10l4 29q39 0 45 37l12 73h-14z" />
    <glyph glyph-name="omacron.smcp" horiz-adv-x="1271" 
d="M624 74q104 0 179 18q167 41 238 231q38 101 67 299t12 277q-18 78 -41 111q-44 63 -170 77q-379 43 -498 -129q-77 -112 -122 -374q-39 -258 -2 -369q33 -105 173 -130q60 -11 164 -11zM798 3q-74 -13 -217 -13q-245 0 -323 98t-76 270q2 96 24 234q65 420 246 519
q115 65 305 66t294 -38q165 -66 159 -334q-2 -97 -24 -237q-43 -270 -136 -413q-80 -122 -252 -152zM526 1300l9 64h544l-10 -64h-543z" />
    <glyph glyph-name="kcommaaccent.smcp" horiz-adv-x="1069" 
d="M162 -2l184 1169h84l-88 -553h219l500 553h104l-530 -600l346 -569h-102l-328 530h-221l-84 -530h-84zM504 -287q-31 0 -27 31l19 111q4 31 34 30h45q29 0 23 -30l-29 -195q-8 -47 -37 -69t-51 -19l-24 2l4 29q39 0 45 37l12 73h-14z" />
    <glyph glyph-name="ocircumflex.smcp" horiz-adv-x="1271" 
d="M624 74q104 0 179 18q167 41 238 231q38 101 67 299t12 277q-18 78 -41 111q-44 63 -170 77q-379 43 -498 -129q-77 -112 -122 -374q-39 -258 -2 -369q33 -105 173 -130q60 -11 164 -11zM798 3q-74 -13 -217 -13q-245 0 -323 98t-76 270q2 96 24 234q65 420 246 519
q115 65 305 66t294 -38q165 -66 159 -334q-2 -97 -24 -237q-43 -270 -136 -413q-80 -122 -252 -152zM512 1300l303 267h78l190 -267h-69l-166 213l-256 -213h-80z" />
    <glyph glyph-name="otilde.smcp" horiz-adv-x="1271" 
d="M624 74q104 0 179 18q167 41 238 231q38 101 67 299t12 277q-18 78 -41 111q-44 63 -170 77q-379 43 -498 -129q-77 -112 -122 -374q-39 -258 -2 -369q33 -105 173 -130q60 -11 164 -11zM798 3q-74 -13 -217 -13q-245 0 -323 98t-76 270q2 96 24 234q65 420 246 519
q115 65 305 66t294 -38q165 -66 159 -334q-2 -97 -24 -237q-43 -270 -136 -413q-80 -122 -252 -152zM711 1493q43 0 119 -60t102 -61q82 -2 215 94l18 -39q-20 -10 -58 -41t-55 -41q-18 -10 -46 -26t-73 -17q-74 -3 -134 59q-61 62 -105 62q-68 0 -129 -39q-73 -42 -88 -53
l-14 39q53 43 84 64q91 59 164 59z" />
    <glyph glyph-name="odieresis.smcp" horiz-adv-x="1271" 
d="M624 74q104 0 179 18q167 41 238 231q38 101 67 299t12 277q-18 78 -41 111q-44 63 -170 77q-379 43 -498 -129q-77 -112 -122 -374q-39 -258 -2 -369q33 -105 173 -130q60 -11 164 -11zM798 3q-74 -13 -217 -13q-245 0 -323 98t-76 270q2 96 24 234q65 420 246 519
q115 65 305 66t294 -38q165 -66 159 -334q-2 -97 -24 -237q-43 -270 -136 -413q-80 -122 -252 -152zM1078 1417q26 0 39 -16q25 -31 0 -65t-54 -35t-43 17t-10 42q4 25 23 41t45 16zM556 1417q26 0 43 -21t-2 -57t-52 -37q-33 -2 -47 16t-11 42q3 25 23 41t46 16z" />
    <glyph glyph-name="oslash.smcp" horiz-adv-x="1210" 
d="M604 74q102 0 167 12t121 45q155 92 209 436q54 345 -11 441l-756 -852q36 -46 102 -64t168 -18zM793 1094q-268 0 -358 -130t-131 -388q-40 -258 5 -369l742 842q-62 45 -258 45zM799 1178q227 0 311 -64l49 53h72l-82 -92q98 -123 39 -493q-31 -186 -75 -303
q-81 -215 -277 -267q-88 -22 -220 -22t-214 22q-81 22 -130 80l-79 -92h-72l119 137q-68 133 -19 447q29 186 75 303q86 219 279 268q88 23 224 23z" />
    <glyph glyph-name="uogonek.smcp" horiz-adv-x="1234" 
d="M643 74q201 0 303 98t144 360l100 635h86l-100 -635q-44 -267 -147 -397q-45 -57 -111 -91t-100 -40t-44 -7q-78 -47 -118 -115t0 -123q40 -54 153 -52l-8 -59q-119 -16 -189 48t-36 152t138 144q-31 -2 -82 -2q-205 0 -287 60t-103 161q-12 57 -13 138q1 81 19 183
l100 635h86l-100 -635q-35 -222 -1 -321q35 -99 162 -125q58 -12 148 -12z" />
    <glyph glyph-name="uacute.smcp" horiz-adv-x="1255" 
d="M643 74q201 0 303 98t144 360l100 635h86l-100 -635q-44 -267 -147 -397q-45 -57 -111 -91t-126 -44t-136 -10q-229 0 -311 60t-103 161q-12 57 -13 138q1 81 19 183l100 635h86l-100 -635q-35 -222 -1 -321q35 -99 162 -125q58 -12 148 -12zM799 1290l280 273h101
l-316 -273h-65z" />
    <glyph glyph-name="ucircumflex.smcp" horiz-adv-x="1255" 
d="M643 74q201 0 303 98t144 360l100 635h86l-100 -635q-44 -267 -147 -397q-45 -57 -111 -91t-126 -44t-136 -10q-229 0 -311 60t-103 161q-12 57 -13 138q1 81 19 183l100 635h86l-100 -635q-35 -222 -1 -321q35 -99 162 -125q58 -12 148 -12zM547 1290l301 266h78
l190 -266h-67l-166 213l-256 -213h-80z" />
    <glyph glyph-name="udieresis.smcp" horiz-adv-x="1255" 
d="M643 74q201 0 303 98t144 360l100 635h86l-100 -635q-44 -267 -147 -397q-45 -57 -111 -91t-126 -44t-136 -10q-229 0 -311 60t-103 161q-12 57 -13 138q1 81 19 183l100 635h86l-100 -635q-35 -222 -1 -321q35 -99 162 -125q58 -12 148 -12zM1112 1407q25 0 39 -16
t10 -41t-23 -42q-19 -18 -44 -18q-24 0 -40 18t-12 42q4 25 24 41t46 16zM586 1407q29 0 43 -16t10 -41q-3 -25 -23 -42q-20 -18 -45 -18t-40 18q-28 32 9 78q17 20 46 21z" />
    <glyph glyph-name="utilde.smcp" horiz-adv-x="1255" 
d="M643 74q201 0 303 98t144 360l100 635h86l-100 -635q-44 -267 -147 -397q-45 -57 -111 -91t-126 -44t-136 -10q-229 0 -311 60t-103 161q-12 57 -13 138q1 81 19 183l100 635h86l-100 -635q-35 -222 -1 -321q35 -99 162 -125q58 -12 148 -12zM960 1290q-44 0 -87 32
t-79 62t-60 29q-62 0 -117 -29t-105 -63l-16 39q154 121 245 123q45 -1 121 -61t105 -60q82 -2 215 94l16 -39q-33 -22 -66 -48t-49 -35q-15 -8 -47 -26q-30 -18 -76 -18z" />
    <glyph glyph-name="umacron.smcp" horiz-adv-x="1255" 
d="M643 74q201 0 303 98t144 360l100 635h86l-100 -635q-44 -267 -147 -397q-45 -57 -111 -91t-126 -44t-136 -10q-229 0 -311 60t-103 161q-12 57 -13 138q1 81 19 183l100 635h86l-100 -635q-35 -222 -1 -321q35 -99 162 -125q58 -12 148 -12zM559 1290l10 64h545l-10 -64
h-545z" />
    <glyph glyph-name="germandbls.smcp" horiz-adv-x="2015" 
d="M1722 614q268 0 232 -235l-23 -143q-41 -256 -309 -256q-106 0 -288 10t-230 26l8 58q328 -10 524 -11q96 -1 148 51t63 128l23 143q12 82 -25 115t-135 32h-287q-150 0 -209 50t-36 190l20 133q42 267 316 269q66 0 240 -11q175 -11 263 -24l-10 -58q-295 10 -496 11
q-104 0 -158 -48t-71 -147l-20 -131q-16 -93 15 -119q11 -8 16 -14t23 -9q18 -4 23 -6q6 -2 30 -2l67 -2h286zM442 532q-150 0 -209 50t-36 190l20 133q41 267 315 269q66 0 241 -11t263 -24l-10 -58q-295 10 -496 11q-135 0 -192 -87q-27 -42 -37 -108l-20 -131
q-13 -81 1 -100q15 -19 20 -26q4 -7 22 -12l25 -7q7 -1 32 -3t34 -3t40 -1h286q268 0 232 -235l-23 -143q-41 -256 -309 -256q-107 0 -289 10t-229 26l8 58q328 -10 524 -11q95 -1 147 51t64 128l23 143q12 82 -25 115t-135 32h-287z" />
    <glyph glyph-name="agrave.smcp" horiz-adv-x="1173" 
d="M430 436h494l-140 623zM86 0l672 1167h84l270 -1167h-88l-82 352h-557l-201 -352h-98zM549 1563h94l209 -273h-66z" />
    <glyph glyph-name="ccedilla.smcp" horiz-adv-x="1064" 
d="M706 1184q87 0 229 -14t212 -31l-8 -60q-25 5 -182 13t-252 8q-173 0 -273 -122t-140 -379t15 -390t238 -133l438 20l-10 -59q-249 -45 -385 -45t-195 20q-162 55 -194 244q-20 106 -11 204q9 99 22 180q28 177 102 316t226 197q82 31 168 31zM315 -358l7 34l84 17
q78 16 116 60t53 167h70q-16 -109 -43 -166q-54 -114 -209 -112h-78z" />
    <glyph glyph-name="eth.smcp" horiz-adv-x="1275" 
d="M559 84q211 0 309 138t136 358q35 278 -51 394q-87 116 -234 113h-367l-76 -464h232l-8 -58h-232l-75 -481h366zM727 1171q146 0 237 -78q82 -74 112 -188q29 -114 25 -200q-10 -196 -72 -361q-61 -165 -150 -237t-162 -89q-83 -18 -149 -18h-474l90 565h-143l8 58h144
l88 548h446z" />
    <glyph glyph-name="egrave.smcp" horiz-adv-x="1058" 
d="M551 1087q-80 -1 -112 -29t-40 -83l-55 -348l637 -13l-10 -61l-641 -12l-56 -355q-16 -106 91 -106h596l-9 -60l-614 -24q-78 0 -121 48t-31 126l129 815q28 184 240 184l575 -20l-10 -62h-569zM504 1565h94l209 -273h-66z" />
    <glyph glyph-name="ecircumflex.smcp" horiz-adv-x="1058" 
d="M551 1087q-80 -1 -112 -29t-40 -83l-55 -348l637 -13l-10 -61l-641 -12l-56 -355q-16 -106 91 -106h596l-9 -60l-614 -24q-78 0 -121 48t-31 126l129 815q28 184 240 184l575 -20l-10 -62h-569zM469 1292l303 267h78l190 -267h-67l-168 213l-256 -213h-80z" />
    <glyph glyph-name="igrave.smcp" horiz-adv-x="405" 
d="M164 0l184 1167h84l-184 -1167h-84zM109 1563h96l209 -273h-68z" />
    <glyph glyph-name="idieresis.smcp" horiz-adv-x="405" 
d="M164 0l184 1167h84l-184 -1167h-84zM636 1290q-30 0 -44 18t-10 46q4 29 29 41t45 12t33 -16q13 -17 10 -37t-18 -42t-45 -22zM129 1407q25 0 44 -23t-5 -58q-24 -36 -54 -36t-44 18t-11 42q5 25 25 41t45 16z" />
    <glyph glyph-name="ntilde.smcp" horiz-adv-x="1257" 
d="M164 0l184 1169h80l608 -1017l164 1017h82l-184 -1169h-74l-610 1026l-166 -1026h-84zM752 1485q30 0 73 -31q43 -30 82 -60t64 -30q82 -2 215 94l16 -39q-42 -28 -63 -48t-75 -49q-54 -30 -99 -30t-87 32t-79 62t-64 29q-70 0 -131 -39q-73 -42 -88 -53l-16 39
q151 123 252 123z" />
    <glyph glyph-name="ograve.smcp" horiz-adv-x="1271" 
d="M624 74q104 0 179 18q167 41 238 231q38 101 67 299t12 277q-18 78 -41 111q-44 63 -170 77q-379 43 -498 -129q-77 -112 -122 -374q-39 -258 -2 -369q33 -105 173 -130q60 -11 164 -11zM798 3q-74 -13 -217 -13q-245 0 -323 98t-76 270q2 96 24 234q65 420 246 519
q115 65 305 66t294 -38q165 -66 159 -334q-2 -97 -24 -237q-43 -270 -136 -413q-80 -122 -252 -152zM526 1573h97l208 -273h-67z" />
    <glyph glyph-name="oacute.smcp" horiz-adv-x="1271" 
d="M624 74q104 0 179 18q167 41 238 231q38 101 67 299t12 277q-18 78 -41 111q-44 63 -170 77q-379 43 -498 -129q-77 -112 -122 -374q-39 -258 -2 -369q33 -105 173 -130q60 -11 164 -11zM798 3q-74 -13 -217 -13q-245 0 -323 98t-76 270q2 96 24 234q65 420 246 519
q115 65 305 66t294 -38q165 -66 159 -334q-2 -97 -24 -237q-43 -270 -136 -413q-80 -122 -252 -152zM764 1300l280 273h103l-316 -273h-67z" />
    <glyph glyph-name="ugrave.smcp" horiz-adv-x="1255" 
d="M643 74q201 0 303 98t144 360l100 635h86l-100 -635q-44 -267 -147 -397q-45 -57 -111 -91t-126 -44t-136 -10q-229 0 -311 60t-103 161q-12 57 -13 138q1 81 19 183l100 635h86l-100 -635q-35 -222 -1 -321q35 -99 162 -125q58 -12 148 -12zM559 1563h96l209 -273h-65z
" />
    <glyph glyph-name="yacute.smcp" horiz-adv-x="1181" 
d="M256 1167h90l293 -684l506 684h100l-573 -778l-62 -391h-84l62 391zM737 1290l281 273h100l-315 -273h-66z" />
    <glyph glyph-name="thorn.smcp" horiz-adv-x="1118" 
d="M674 309q83 0 137 36q91 56 123 257q20 127 -23 198t-147 70h-389l-88 -561h387zM776 954q118 0 179 -67t66 -141t-5 -163t-41 -162t-65 -110t-83 -59t-84 -25q-35 -4 -81 -4q-299 0 -386 25l-38 -248h-84q70 438 184 1165h84l-33 -211h387z" />
    <glyph glyph-name="quotesinglbase.smcp" horiz-adv-x="389" 
d="M180 0q-37 0 -35 39l21 127q8 43 47 43h53q41 0 33 -43l-33 -211q-6 -39 -23 -65t-50 -39t-70 -7l6 35q47 -2 55 49l13 72h-17z" />
    <glyph glyph-name="quotedblleft.smcp" horiz-adv-x="622" 
d="M621 1012q36 0 32 -41l-20 -127q-6 -41 -47 -41h-56q-36 0 -30 41l35 211q12 78 54 98t87 12l-6 -35q-49 2 -58 -49l-10 -69h19zM381 1012q17 0 27 -10t6 -31l-21 -127q-6 -41 -45 -41h-55q-39 0 -31 41l33 211q15 112 117 112q12 0 18 -2h6l-6 -35q-47 2 -55 -49
l-13 -69h19z" />
    <glyph glyph-name="quotedblright.smcp" horiz-adv-x="622" 
d="M557 958q-17 0 -27 10t-6 29l21 127q6 43 45 43h55q39 0 31 -43l-33 -211q-12 -80 -57 -97q-44 -17 -84 -11l4 33q23 0 36 9t15 17t6 23l10 71h-16zM317 958q-16 0 -26 10t-6 29l20 127q6 43 45 43h56q39 0 30 -43l-33 -211q-12 -80 -55 -97q-43 -18 -86 -11l6 33
q47 -2 56 49l12 71h-19z" />
    <glyph glyph-name="quotedblbase.smcp" horiz-adv-x="622" 
d="M406 0q-16 0 -27 10q-10 10 -6 29l20 129q6 41 45 41h56q39 0 30 -41l-32 -211q-12 -81 -60 -99q-42 -19 -82 -12l6 35q39 0 51 27q3 8 5 20l10 72h-16zM168 0q-39 0 -35 39l21 129q6 41 47 41h55q37 0 31 -41l-33 -211q-6 -39 -27 -70q-36 -54 -116 -41l6 35
q49 -2 57 47l10 72h-16z" />
    <glyph glyph-name="exclamdown.smcp" horiz-adv-x="524" 
d="M434 1167q14 0 22 -9t7 -23l-21 -123q-4 -33 -36 -33h-56q-30 0 -24 33l18 123q6 33 37 32h53zM182 0l140 827h67l-115 -827h-92z" />
    <glyph glyph-name="ordmasculine.smcp" horiz-adv-x="843" 
d="M786 946q0 113 -51 145q-51 31 -185 32q-135 1 -197 -60t-88 -222t-12 -210q13 -48 37 -77t79 -35q140 -17 220 2q105 25 147 132q24 59 37 149t13 144zM193 813q17 113 41 181q51 145 176 178q63 17 163 18q187 2 245 -84t24 -305q-16 -103 -39 -167q-50 -139 -174 -172
q-66 -17 -168 -18q-182 0 -241 84q-58 84 -27 285zM156 322l10 65h602l-10 -65h-602z" />
    <glyph glyph-name="ordfeminine.smcp" horiz-adv-x="858" 
d="M416 739h270l-74 359zM184 453l398 721h82l145 -721h-66l-47 221h-315l-123 -221h-74zM166 326l10 65h637l-10 -65h-637z" />
    <glyph glyph-name="Euro.smcp" horiz-adv-x="1017" 
d="M762 1098q-174 0 -269 -88q-94 -88 -124 -283l376 -12l-8 -47l-379 -11l-26 -168l377 -10l-9 -49q-26 0 -64 -1t-178 -4t-139 -7q-27 -162 33 -253t212 -91q151 0 343 24l64 8l-10 -59q-211 -57 -383 -57t-276 96t-69 332l-137 12l8 47l142 12l26 168l-137 13l6 43
l142 14q14 105 46 181q32 77 64 114q70 82 151 120q82 38 208 39q127 1 374 -46l-8 -60q-252 23 -356 23z" />
    <glyph glyph-name="lcaron.smcp" horiz-adv-x="1038" 
d="M571 838l25 274l22 137h87l-23 -137l-57 -274h-54zM350 0q-84 0 -124 46q-39 46 -27 130l155 991h84l-153 -974q-18 -109 102 -109h565l-12 -84h-590z" />
    <glyph glyph-name="sacute.smcp" horiz-adv-x="1101" 
d="M479 532q-150 0 -209 50t-37 190l21 133q32 201 191 250q84 26 226 17q318 -20 402 -33l-10 -58q-295 10 -496 11q-104 0 -158 -48t-71 -147l-21 -131q-4 -25 -4 -59q1 -34 11 -47t19 -25t54 -16q46 -3 55 -4t40 -1h286q268 0 232 -235l-23 -143q-41 -256 -309 -256
q-106 0 -288 10t-230 26l8 58q328 -10 524 -11q96 -1 148 51t63 128l23 143q12 82 -25 115t-135 32h-287zM676 1296l282 273h101l-316 -273h-67z" />
    <glyph glyph-name="scedilla.smcp" horiz-adv-x="1101" 
d="M479 532q-150 0 -209 50t-37 190l21 133q32 201 191 250q84 26 226 17q318 -20 402 -33l-10 -58q-295 10 -496 11q-104 0 -158 -48t-71 -147l-21 -131q-4 -25 -4 -59q1 -34 11 -47t19 -25t54 -16q46 -3 55 -4t40 -1h286q268 0 232 -235l-23 -143q-41 -256 -309 -256
q-106 0 -288 10t-230 26l8 58q328 -10 524 -11q96 -1 148 51t63 128l23 143q12 82 -25 115t-135 32h-287zM354 -350h-75l4 35l84 18q77 14 115 59t55 166h69q-25 -158 -76 -218t-176 -60z" />
    <glyph glyph-name="tcaron.smcp" horiz-adv-x="1136" 
d="M291 1083l12 84h901l-14 -84h-408l-172 -1083h-84l172 1083h-407zM545 1583h69l166 -213l256 213h80l-303 -266h-78z" />
    <glyph glyph-name="zacute.smcp" horiz-adv-x="987" 
d="M72 0l14 84l905 999h-747l12 84h858l-12 -84l-901 -999h743l-14 -84h-858zM666 1290l280 273h101l-316 -273h-65z" />
    <glyph glyph-name="zdotaccent.smcp" horiz-adv-x="987" 
d="M72 0l14 84l905 999h-747l12 84h858l-12 -84l-901 -999h743l-14 -84h-858zM668 1452h49q33 0 26 -35l-18 -121q-6 -33 -37 -32h-51q-14 0 -23 9q-8 9 -6 23l21 121q4 35 39 35z" />
    <glyph glyph-name="racute.smcp" horiz-adv-x="1118" 
d="M752 584q74 0 127 35q101 67 127 213t-41 200q-68 53 -146 53h-440l-80 -501h453zM829 1169q114 0 200 -72t63 -270q-18 -151 -104 -231t-214 -88l205 -508h-94l-199 500q-30 0 -212 11q-183 11 -183 13l-84 -524h-84l184 1169h522zM682 1292l281 273h102l-315 -273h-68z
" />
    <glyph glyph-name="abreve.smcp" horiz-adv-x="1173" 
d="M430 436h494l-140 623zM86 0l672 1167h84l270 -1167h-88l-82 352h-557l-201 -352h-98zM614 1524h52q-12 -78 32 -131t110 -53q124 1 185 86q31 42 39 98h51q-16 -113 -92 -173q-76 -61 -170 -61q-95 0 -157 64t-50 170z" />
    <glyph glyph-name="lacute.smcp" horiz-adv-x="1015" 
d="M350 0q-84 0 -128 47t-32 129l160 991h84l-155 -974q-18 -109 102 -109h567l-14 -84h-584zM377 1290l282 273h101l-316 -273h-67z" />
    <glyph glyph-name="cacute.smcp" horiz-adv-x="1064" 
d="M706 1184q87 0 229 -14t212 -31l-8 -60q-25 5 -182 13t-252 8q-173 0 -273 -122t-140 -379t15 -390t238 -133l438 20l-10 -59q-249 -45 -385 -45t-195 20q-162 55 -194 244q-20 106 -11 204q9 99 22 180q28 177 102 316t226 197q82 31 168 31zM696 1311l281 272h100
l-315 -272h-66z" />
    <glyph glyph-name="ecaron.smcp" horiz-adv-x="1058" 
d="M551 1087q-80 -1 -112 -29t-40 -83l-55 -348l637 -13l-10 -61l-641 -12l-56 -355q-16 -106 91 -106h596l-9 -60l-614 -24q-78 0 -121 48t-31 126l129 815q28 184 240 184l575 -20l-10 -62h-569zM512 1559h68l165 -213l256 213h82l-303 -267h-78z" />
    <glyph glyph-name="dcaron.smcp" horiz-adv-x="1257" 
d="M762 84q375 0 444 496q39 270 -34 389t-252 118h-381l-158 -1003h381zM748 0h-465l186 1171h467q121 -2 203 -48q81 -46 117 -128q75 -174 34 -432q-29 -215 -120 -361q-36 -58 -89 -100t-92 -60q-86 -42 -241 -42zM664 1561h67l168 -213l256 213h80l-303 -267h-78z" />
    <glyph glyph-name="nacute.smcp" horiz-adv-x="1257" 
d="M164 0l184 1169h80l608 -1017l164 1017h82l-184 -1169h-74l-610 1026l-166 -1026h-84zM803 1292l280 273h101l-316 -273h-65z" />
    <glyph glyph-name="ncaron.smcp" horiz-adv-x="1257" 
d="M164 0l184 1169h80l608 -1017l164 1017h82l-184 -1169h-74l-610 1026l-166 -1026h-84zM592 1559h70l165 -213l256 213h80l-303 -267h-78z" />
    <glyph glyph-name="ohungarumlaut.smcp" horiz-adv-x="1271" 
d="M624 74q104 0 179 18q167 41 238 231q38 101 67 299t12 277q-18 78 -41 111q-44 63 -170 77q-379 43 -498 -129q-77 -112 -122 -374q-39 -258 -2 -369q33 -105 173 -130q60 -11 164 -11zM798 3q-74 -13 -217 -13q-245 0 -323 98t-76 270q2 96 24 234q65 420 246 519
q115 65 305 66t294 -38q165 -66 159 -334q-2 -97 -24 -237q-43 -270 -136 -413q-80 -122 -252 -152zM905 1300l281 273h102l-315 -273h-68zM623 1300l280 273h103l-316 -273h-67z" />
    <glyph glyph-name="rcaron.smcp" horiz-adv-x="1118" 
d="M752 584q74 0 127 35q101 67 127 213t-41 200q-68 53 -146 53h-440l-80 -501h453zM829 1169q114 0 200 -72t63 -270q-18 -151 -104 -231t-214 -88l205 -508h-94l-199 500q-30 0 -212 11q-183 11 -183 13l-84 -524h-84l184 1169h522zM492 1559h67l168 -213l256 213h80
l-303 -267h-78z" />
    <glyph glyph-name="uring.smcp" horiz-adv-x="1255" 
d="M643 74q201 0 303 98t144 360l100 635h86l-100 -635q-44 -267 -147 -397q-45 -57 -111 -91t-126 -44t-136 -10q-229 0 -311 60t-103 161q-12 57 -13 138q1 81 19 183l100 635h86l-100 -635q-35 -222 -1 -321q35 -99 162 -125q58 -12 148 -12zM888 1657q-87 0 -141 -74
q-53 -74 -36 -137q27 -100 151 -102q48 0 99 44q51 46 58 100q13 103 -56 147q-33 22 -75 22zM895 1710q86 0 137 -61t40 -149t-80 -149q-68 -61 -154 -61t-140 60t-42 149q11 87 82 149t157 62z" />
    <glyph glyph-name="uhungarumlaut.smcp" horiz-adv-x="1255" 
d="M643 74q201 0 303 98t144 360l100 635h86l-100 -635q-44 -267 -147 -397q-45 -57 -111 -91t-126 -44t-136 -10q-229 0 -311 60t-103 161q-12 57 -13 138q1 81 19 183l100 635h86l-100 -635q-35 -222 -1 -321q35 -99 162 -125q58 -12 148 -12zM938 1290l283 273h100
l-315 -273h-68zM657 1290l281 273h100l-315 -273h-66z" />
    <glyph glyph-name="tcommaaccent.smcp" horiz-adv-x="1071" 
d="M287 1083l14 84h899l-12 -84h-410l-170 -1083h-84l170 1083h-407zM244 -375l6 35l84 18q78 14 115 60t55 166h69q-27 -158 -77 -218t-174 -61h-78z" />
    <glyph glyph-name="lslash.smcp" horiz-adv-x="1013" 
d="M317 0q-83 0 -123 46t-28 130l67 422l-139 -55l10 67l140 54l80 503h84l-74 -469l250 97l-13 -68l-247 -94l-70 -440q-18 -109 102 -109h566l-13 -84h-592z" />
    <glyph glyph-name="questiondown.smcp" horiz-adv-x="1034" 
d="M786 1167q33 0 27 -32l-18 -123q-4 -35 -39 -35h-54q-32 0 -26 35l20 123q4 33 39 32h51zM528 86h390l-9 -61q-231 -27 -421 -26t-268 79q-77 78 -54 233l12 97q18 110 86 176q123 119 371 90l13 77q13 77 11 78h89l-35 -229q-111 2 -166 0q-254 -2 -285 -192l-12 -101
q-20 -127 46 -174t232 -47z" />
    <glyph glyph-name="oe.smcp" horiz-adv-x="1835" 
d="M238 362q0 -90 18 -147t66 -88t107 -42q60 -11 165 -11q104 0 178 18q166 41 239 231q38 101 58 241q21 140 25 218q8 148 -45 228q-44 63 -170 77q-380 43 -499 -129q-78 -114 -120 -373q-22 -133 -22 -223zM766 1178q156 0 251 -40t132 -153q33 193 231 184l549 -20
l-10 -62h-545q-78 -1 -110 -29t-39 -83l-54 -348l609 -13l-8 -61l-615 -12l-57 -355q-16 -106 90 -106h569l-10 -60l-586 -24q-82 -2 -119 42t-24 128q-69 -105 -172 -141q-102 -35 -228 -35t-188 8q-145 19 -214 104t-66 258q2 96 26 252t69 273q43 117 115 183t160 88
t244 22z" />
    <glyph glyph-name="ydieresis.smcp" horiz-adv-x="1181" 
d="M256 1167h90l293 -684l506 684h100l-573 -778l-62 -391h-84l62 391zM1051 1407q25 0 39 -16q28 -32 1 -66q-27 -35 -59 -35t-42 22q-23 49 16 79q20 16 45 16zM528 1407q25 0 44 -22t3 -49q-26 -46 -63 -46t-51 35q-15 35 22 66q20 16 45 16z" />
    <glyph glyph-name="sterling.smcp" horiz-adv-x="1062" 
d="M799 1090q-324 0 -371 -293l-31 -185l527 -22l-9 -53h-528l-72 -455h654l-15 -82h-852l9 53l118 21l74 467h-115l7 47l120 20l31 193q57 369 459 368l334 -22l-11 -57h-329z" />
    <glyph glyph-name="yen.smcp" horiz-adv-x="1038" 
d="M186 281l11 65h335l19 117h-336l10 65h318l-299 641h92l272 -577l455 577h106l-503 -641h333l-10 -65h-354l-19 -117h355l-10 -65h-355l-45 -281h-84l45 281h-336z" />
    <glyph glyph-name="perthousand.smcp" horiz-adv-x="2428" 
d="M1927 68h103q112 0 162 38t67 152l22 143q16 106 -17 149q-34 42 -148 42h-101q-113 0 -162 -40t-67 -151l-21 -143q-23 -143 53 -174q38 -16 109 -16zM2025 657h103q141 0 191 -61t28 -201l-23 -143q-20 -138 -85 -194t-218 -56h-104q-135 0 -186 64t-31 196l20 144
q23 135 87 193q65 58 218 58zM1192 68h100q111 0 162 38t68 152l22 143q16 106 -17 149q-34 42 -147 42h-102q-113 0 -162 -40t-65 -151l-23 -143q-6 -57 -4 -93q5 -97 168 -97zM1290 657h101q141 0 191 -61t28 -201l-23 -143q-20 -138 -85 -194t-216 -56h-106
q-135 0 -186 64t-31 196l22 144q20 135 85 193t220 58zM410 0l882 1167h78l-883 -1167h-77zM412 598h102q74 0 118 15q88 30 111 175l21 142q18 110 -16 150t-148 40h-100q-113 0 -162 -39t-68 -151l-22 -142q-16 -110 20 -150t144 -40zM610 1186q142 0 192 -62t27 -198
l-20 -142q-14 -94 -46 -147q-63 -105 -259 -105h-103q-137 0 -187 64t-32 197l23 141q19 137 83 194t220 58h102z" />
    <glyph glyph-name="circumflex.smcp" horiz-adv-x="849" 
d="M274 1087l304 267h77l191 -267h-72l-164 211l-254 -211h-82z" />
    <glyph glyph-name="tilde.smcp" horiz-adv-x="966" 
d="M748 1174q26 0 62 8t66 29q30 20 42 27t29 19t26 17l16 -39q-6 -7 -24 -21q-17 -14 -25 -21t-26 -21q-91 -70 -169 -70q-45 0 -119 61t-105 61q-32 0 -66 -10q-34 -11 -85 -43q-51 -31 -67 -38l-16 38q43 32 68 53t44 30q19 10 47 26t79 16q50 0 124 -61q73 -61 99 -61z
" />
    <glyph glyph-name="ring.smcp" horiz-adv-x="686" 
d="M488 1139q64 0 117 45q53 46 63 110t-28 110t-91 46q-102 0 -158 -77q-27 -36 -36 -89t30 -99t103 -46zM547 1505q86 0 136 -61q50 -62 36 -150t-84 -148t-156 -60t-137 60t-38 148t85 150t158 61z" />
    <glyph glyph-name="hbar.smcp" horiz-adv-x="1243" 
d="M324 606h718l39 238h-719zM143 -2l136 846h-101l6 51h101l43 272h84l-43 -272h718l43 272h84l-43 -272h105l-6 -51h-105l-135 -846h-84l84 524h-719l-84 -524h-84z" />
    <glyph glyph-name="hcircumflex.smcp" horiz-adv-x="1218" 
d="M162 -2l184 1169h84l-88 -561h733l86 561h84l-184 -1169h-84l84 522h-731l-84 -522h-84zM530 1290l304 266h77l191 -266h-68l-168 213l-256 -213h-80z" />
    <glyph glyph-name="gbreve.smcp" horiz-adv-x="1181" 
d="M965 104q-199 -118 -417 -118q-74 0 -140 28q-117 51 -165 183q-38 100 -38 218t16 216t42 184t68 159t98 118q56 46 136 70q81 24 169 24t222 -16t226 -35l-11 -62q-297 29 -434 29q-195 0 -291 -111t-143 -401q-44 -326 83 -451q70 -69 184 -69t234 41t173 77l57 365
h-377l9 53q80 10 149 21q69 10 155 10t160 -6l-98 -631h-59zM784 1309q-94 -1 -156 63t-48 170h51q-12 -78 33 -131q46 -53 124 -52t138 50q59 49 71 133h52q-15 -113 -93 -173t-172 -60z" />
    <glyph glyph-name="jcircumflex.smcp" horiz-adv-x="657" 
d="M78 41l16 57q66 -14 108 -20t97 0q164 18 203 266l129 823h84l-129 -823q-39 -240 -156 -309q-84 -45 -182 -40t-170 46zM387 1290l303 266h78l190 -266h-67l-168 213l-256 -213h-80z" />
    <glyph glyph-name="cdotaccent.smcp" horiz-adv-x="1064" 
d="M706 1184q87 0 229 -14t212 -31l-8 -60q-25 5 -182 13t-252 8q-173 0 -273 -122t-140 -379t15 -390t238 -133l438 20l-10 -59q-249 -45 -385 -45t-195 20q-162 55 -194 244q-20 106 -11 204q9 99 22 180q28 177 102 316t226 197q82 31 168 31zM762 1503h49q33 0 27 -33
l-19 -120q-6 -33 -37 -33h-51q-14 -1 -22 9t-4 24l18 120q4 33 39 33z" />
    <glyph glyph-name="ccircumflex.smcp" horiz-adv-x="1064" 
d="M706 1184q87 0 229 -14t212 -31l-8 -60q-25 5 -182 13t-252 8q-173 0 -273 -122t-140 -379t15 -390t238 -133l438 20l-10 -59q-249 -45 -385 -45t-195 20q-162 55 -194 244q-20 106 -11 204q9 99 22 180q28 177 102 316t226 197q82 31 168 31zM475 1317l303 266h78
l191 -266h-68l-168 213l-256 -213h-80z" />
    <glyph glyph-name="gdotaccent.smcp" horiz-adv-x="1181" 
d="M965 104q-199 -118 -417 -118q-74 0 -140 28q-117 51 -165 183q-38 100 -38 218t16 216t42 184t68 159t98 118q56 46 136 70q81 24 169 24t222 -16t226 -35l-11 -62q-297 29 -434 29q-195 0 -291 -111t-143 -401q-44 -326 83 -451q70 -69 184 -69t234 41t173 77l57 365
h-377l9 53q80 10 149 21q69 10 155 10t160 -6l-98 -631h-59zM803 1470q31 0 26 -34l-20 -121q-4 -33 -37 -33h-49q-14 0 -23 9q-8 10 -6 24l21 121q4 35 37 34h51z" />
    <glyph glyph-name="gcircumflex.smcp" horiz-adv-x="1181" 
d="M965 104q-199 -118 -417 -118q-74 0 -140 28q-117 51 -165 183q-38 100 -38 218t16 216t42 184t68 159t98 118q56 46 136 70q81 24 169 24t222 -16t226 -35l-11 -62q-297 29 -434 29q-195 0 -291 -111t-143 -401q-44 -326 83 -451q70 -69 184 -69t234 41t173 77l57 365
h-377l9 53q80 10 149 21q69 10 155 10t160 -6l-98 -631h-59zM502 1309l303 266h78l190 -266h-69l-166 213l-256 -213h-80z" />
    <glyph glyph-name="ubreve.smcp" horiz-adv-x="1255" 
d="M643 74q201 0 303 98t144 360l100 635h86l-100 -635q-44 -267 -147 -397q-45 -57 -111 -91t-126 -44t-136 -10q-229 0 -311 60t-103 161q-12 57 -13 138q1 81 19 183l100 635h86l-100 -635q-35 -222 -1 -321q35 -99 162 -125q58 -12 148 -12zM635 1524h49
q-10 -78 35 -131t123 -53t137 50t74 134h49q-16 -113 -92 -173q-76 -61 -170 -61t-157 64q-62 64 -48 170z" />
    <glyph glyph-name="scircumflex.smcp" horiz-adv-x="1101" 
d="M479 532q-150 0 -209 50t-37 190l21 133q32 201 191 250q84 26 226 17q318 -20 402 -33l-10 -58q-295 10 -496 11q-104 0 -158 -48t-71 -147l-21 -131q-4 -25 -4 -59q1 -34 11 -47t19 -25t54 -16q46 -3 55 -4t40 -1h286q268 0 232 -235l-23 -143q-41 -256 -309 -256
q-106 0 -288 10t-230 26l8 58q328 -10 524 -11q96 -1 148 51t63 128l23 143q12 82 -25 115t-135 32h-287zM418 1296l303 267h78l190 -267h-69l-166 213l-256 -213h-80z" />
    <glyph glyph-name="Idotaccent.smcp" horiz-adv-x="419" 
d="M426 1470q33 0 27 -32l-19 -123q-6 -31 -37 -31h-51q-14 0 -22 8t-7 23l21 123q4 33 39 32h49zM123 0l184 1167h84l-184 -1167h-84z" />
    <glyph glyph-name="periodcentered.smcp" horiz-adv-x="567" 
d="M311 707h54q33 0 28 -33l-10 -58q-4 -31 -37 -30h-53q-33 0 -29 30l10 58q4 33 37 33z" />
    <glyph glyph-name="bullet.smcp" horiz-adv-x="669" 
d="M360 780h84q68 0 60 -71l-15 -97q-10 -66 -83 -65h-84q-64 0 -56 65l15 97q4 33 25 52q22 19 54 19z" />
    <glyph glyph-name="quoteleft.smcp" horiz-adv-x="409" 
d="M393 1014q17 0 27 -12t6 -29l-18 -127q-6 -41 -50 -41h-53q-37 0 -31 41l33 211q12 78 56 96t86 12l-7 -32q-47 2 -55 -50l-10 -69h16z" />
    <glyph glyph-name="quoteright.smcp" horiz-adv-x="409" 
d="M332 958q-16 0 -26 10t-7 31l20 127q6 43 46 43h53q41 0 33 -43l-33 -211q-12 -78 -60 -98q-47 -19 -69 -12l-13 2l5 33q41 0 51 26q2 8 4 23l12 69h-16z" />
    <glyph glyph-name="uni1E03.smcp" horiz-adv-x="1079" 
d="M766 643q104 0 176 54t91 177t-41 167t-154 44h-418l-70 -442h416zM678 86q242 0 276 236q14 106 -43 172t-157 65h-416l-76 -473h416zM844 1169q148 0 212 -71q65 -71 63 -156q-1 -43 -5 -86q-33 -211 -221 -258q47 -10 99 -74q28 -33 42 -88t4 -119q-26 -149 -110 -233
t-264 -84h-500l184 1169h496zM745 1479h50q31 0 26 -33l-20 -121q-4 -33 -37 -33h-49q-15 0 -23 10t-6 23l21 121q4 33 38 33z" />
    <glyph glyph-name="uni1E0B.smcp" horiz-adv-x="1247" 
d="M643 84q375 0 444 496q39 270 -33 389q-73 119 -253 118h-381l-158 -1003h381zM629 0h-465l186 1171h467q121 -2 203 -48t118 -128q75 -172 33 -432q-29 -212 -119 -361q-36 -58 -89 -100t-93 -60q-88 -42 -241 -42zM778 1481h51q31 0 27 -33l-20 -121q-4 -33 -37 -33
h-49q-14 0 -22 10t-7 23l20 121q4 33 37 33z" />
    <glyph glyph-name="uni1E1F.smcp" horiz-adv-x="1060" 
d="M553 1087q-78 1 -110 -29t-42 -83l-55 -350l637 -13l-8 -61l-641 -14l-86 -537h-84l155 985q29 184 236 184l578 -20l-9 -62h-571zM770 1481h49q33 0 27 -35l-19 -121q-6 -33 -36 -33h-52q-33 0 -26 33l18 121q6 35 39 35z" />
    <glyph glyph-name="uni1E41.smcp" horiz-adv-x="1527" 
d="M113 0l319 1169h90l258 -1024l566 1024h92l-62 -1169h-82l54 997l-551 -997h-66l-258 1004l-276 -1004h-84zM958 1479h52q31 0 26 -33l-20 -121q-4 -33 -37 -33h-49q-29 0 -29 33l21 121q4 33 36 33z" />
    <glyph glyph-name="wgrave.smcp" horiz-adv-x="1736" 
d="M256 1167h86l227 -1038l543 1038h92l-190 -372l149 -664l543 1036h92l-610 -1167h-80l-156 684l-356 -684h-84zM776 1563h96l209 -273h-67z" />
    <glyph glyph-name="uni1E57.smcp" horiz-adv-x="1079" 
d="M741 573q108 0 157 36q50 36 75 90t42 158t-37 164t-157 60h-442l-80 -508h442zM836 1165q120 0 198 -72t64 -251q-23 -208 -123 -284q-89 -66 -236 -66h-24l-426 20l-82 -512h-84l184 1165h529zM713 1475h49q33 0 26 -33l-18 -121q-6 -33 -37 -33h-51q-14 0 -23 9
q-8 10 -4 24l19 121q4 33 39 33z" />
    <glyph glyph-name="wacute.smcp" horiz-adv-x="1736" 
d="M256 1167h86l227 -1038l543 1038h92l-190 -372l149 -664l543 1036h92l-610 -1167h-80l-156 684l-356 -684h-84zM977 1290l280 273h103l-316 -273h-67z" />
    <glyph glyph-name="ygrave.smcp" horiz-adv-x="1181" 
d="M256 1167h90l293 -684l506 684h100l-573 -778l-62 -391h-84l62 391zM500 1563h94l209 -273h-66z" />
    <glyph glyph-name="wdieresis.smcp" horiz-adv-x="1736" 
d="M256 1167h86l227 -1038l543 1038h92l-190 -372l149 -664l543 1036h92l-610 -1167h-80l-156 684l-356 -684h-84zM1328 1407q26 0 39 -16t9 -41t-23 -42q-19 -18 -44 -18t-39 18t-10 42q4 25 23 41t45 16zM806 1407q26 0 39 -16t9 -41t-24 -42q-20 -18 -44 -18
q-25 0 -39 18t-10 42q3 25 23 41t46 16z" />
    <glyph glyph-name="uni1E61.smcp" horiz-adv-x="1101" 
d="M479 532q-150 0 -209 50t-37 190l21 133q32 201 191 250q84 26 226 17q318 -20 402 -33l-10 -58q-295 10 -496 11q-104 0 -158 -48t-71 -147l-21 -131q-4 -25 -4 -59q1 -34 11 -47t19 -25t54 -16q46 -3 55 -4t40 -1h286q268 0 232 -235l-23 -143q-41 -256 -309 -256
q-106 0 -288 10t-230 26l8 58q328 -10 524 -11q96 -1 148 51t63 128l23 143q12 82 -25 115t-135 32h-287zM684 1458h49q33 0 27 -35l-19 -120q-4 -33 -36 -33h-50q-21 0 -25 12t-3 21l18 120q6 35 39 35z" />
    <glyph glyph-name="wcircumflex.smcp" horiz-adv-x="1736" 
d="M256 1167h86l227 -1038l543 1038h92l-190 -372l149 -664l543 1036h92l-610 -1167h-80l-156 684l-356 -684h-84zM762 1290l303 266h78l190 -266h-69l-166 213l-256 -213h-80z" />
    <glyph glyph-name="uni1E6B.smcp" horiz-adv-x="1071" 
d="M231 1083l15 84h899l-15 -84h-407l-170 -1083h-84l170 1083h-408zM672 1452h51q31 0 27 -35l-21 -121q-4 -33 -37 -32h-49q-15 0 -23 9t-6 23l21 121q4 35 37 35z" />
    <glyph glyph-name="ycircumflex.smcp" horiz-adv-x="1181" 
d="M256 1167h90l293 -684l506 684h100l-573 -778l-62 -391h-84l62 391zM485 1290l303 266h78l189 -266h-68l-166 213l-256 -213h-80z" />
    <glyph glyph-name="c_k" horiz-adv-x="1941" 
d="M612 1102q158 0 457 -58l-8 -57q-281 31 -407 31t-176 -20q-117 -46 -174 -218q-32 -96 -56 -243q-25 -196 23 -294q48 -97 129 -133q82 -36 188 -40q229 -4 618 266l201 1266h84l-191 -1199q146 103 286 235q286 268 386 449h99q-85 -139 -215 -286t-254 -256l356 -545
h-98l-324 487q-106 -96 -254 -202l-45 -285h-84l35 221q-356 -238 -592 -235q-176 0 -279 72t-135 169q-48 158 -16 320q45 272 124 392t203 151q52 12 119 12z" />
    <glyph glyph-name="N.salt" horiz-adv-x="1372" 
d="M164 0l209 1341q10 72 60 117q103 93 215 26q52 -32 67 -95l282 -1250q9 -49 49 -62t80 13t48 76l210 1333h84l-208 -1341q-8 -58 -43 -102t-80 -59t-91 -11t-83 40t-52 93l-280 1243q-5 29 -23 45q-35 30 -86 9q-23 -9 -41 -33t-22 -56l-211 -1327h-84z" />
    <glyph glyph-name="M.salt" horiz-adv-x="1652" 
d="M113 0l293 1335q12 74 60 121t102 54t103 -26q48 -34 58 -106l117 -825q8 -51 47 -49t59 49l355 842q29 65 85 95t107 22t87 -55q36 -48 30 -122l-111 -1335h-86l111 1346q6 48 -23 70t-67 8t-56 -60l-354 -840q-22 -51 -64 -80q-88 -61 -161 3q-35 32 -43 90l-117 821
q-6 37 -28 54q-46 36 -93 -11q-23 -23 -30 -58l-299 -1343h-82z" />
    <glyph glyph-name="uni1E40.salt" horiz-adv-x="1652" 
d="M113 0l293 1335q12 74 60 121t102 54t103 -26q48 -34 58 -106l117 -825q8 -51 47 -49t59 49l355 842q29 65 85 95t107 22t87 -55q36 -48 30 -122l-111 -1335h-86l111 1346q4 34 -12 56t-41 26t-52 -13q-27 -16 -41 -51l-354 -840q-22 -51 -64 -80q-88 -61 -161 3
q-35 32 -43 90l-117 823q-8 47 -41 61q-32 13 -66 -9t-44 -69l-299 -1343h-82zM977 1845h49q33 0 27 -35l-19 -120q-6 -33 -37 -33h-51q-31 0 -26 33l18 120q4 35 39 35z" />
    <glyph glyph-name="Ntilde.salt" horiz-adv-x="1372" 
d="M164 0l209 1341q10 72 60 117q103 93 215 26q52 -32 67 -95l282 -1250q9 -49 49 -62t80 13t48 76l210 1333h84l-208 -1341q-10 -74 -60 -120q-107 -97 -218 -26q-52 35 -71 107l-280 1243q-5 29 -23 45q-35 30 -86 9q-23 -9 -41 -33t-22 -56l-211 -1327h-84zM1042 1647
q-45 1 -87 31q-41 30 -77 61t-63 31q-79 -1 -177 -67q-30 -19 -42 -26l-16 39q55 41 86 63q85 60 157 60q47 -2 123 -62t105 -61q82 0 215 96l16 -38q-12 -8 -58 -44t-91 -59q-46 -24 -91 -24z" />
    <glyph glyph-name="Nacute.salt" horiz-adv-x="1372" 
d="M164 0l209 1341q10 72 60 117q103 93 215 26q52 -32 67 -95l282 -1250q9 -49 49 -62t80 13t48 76l210 1333h84l-208 -1341q-10 -74 -60 -120q-107 -97 -218 -26q-52 35 -71 107l-280 1243q-5 29 -23 45q-35 30 -86 9q-23 -9 -41 -33t-22 -56l-211 -1327h-84zM915 1632
l281 273h102l-315 -273h-68z" />
    <glyph glyph-name="Ncaron.salt" horiz-adv-x="1372" 
d="M164 0l209 1341q10 72 60 117q103 93 215 26q52 -32 67 -95l282 -1250q9 -49 49 -62t80 13t48 76l210 1333h84l-208 -1341q-10 -74 -60 -120q-107 -97 -218 -26q-52 35 -71 107l-280 1243q-5 29 -23 45q-35 30 -86 9q-23 -9 -41 -33t-22 -56l-211 -1327h-84zM750 1898h67
l168 -212l256 212h80l-303 -266h-78z" />
    <glyph glyph-name="Ncommaaccent.salt" horiz-adv-x="1372" 
d="M164 0l209 1341q10 72 60 117q103 93 215 26q52 -32 67 -95l282 -1250q9 -49 49 -62t80 13t48 76l210 1333h84l-208 -1341q-10 -74 -60 -120q-107 -97 -218 -26q-52 35 -71 107l-280 1243q-5 29 -23 45q-35 30 -86 9q-23 -9 -41 -33t-22 -56l-211 -1327h-84zM625 -352
q-31 0 -27 33l16 108q6 33 37 33h45q29 0 23 -33l-31 -192q-8 -60 -45 -77q-38 -17 -65 -9l4 26q39 0 45 39l10 72h-12z" />
    <glyph glyph-name="zero.numerator" horiz-adv-x="1011" 
d="M463 592h223q107 0 144 37t55 129l80 506q14 86 -17 126t-129 40h-223q-98 0 -145 -39t-62 -127l-80 -506q-16 -100 19 -133t135 -33zM600 1497h240q117 0 164 -62t30 -171l-82 -523q-23 -139 -89 -178t-179 -39h-240q-138 0 -176 61q-47 77 -26 169l82 522
q18 121 89 171t187 50z" />
    <glyph glyph-name="one.numerator" horiz-adv-x="565" 
d="M236 1323l6 45q99 0 183 46t116 77l16 14h66l-156 -979h-68l142 889q-41 -31 -122 -61t-183 -31z" />
    <glyph glyph-name="two.numerator" horiz-adv-x="802" 
d="M651 1446h-358q-4 4 1 26q5 21 7 21q166 20 377 20q92 0 148 -45t72 -108q52 -212 -208 -453q-112 -104 -248 -205q-137 -102 -145 -108h500l-11 -68h-632l8 60q10 6 70 48t96 68q106 74 226 174q120 101 167 160q97 121 106 193q18 106 -18 162q-37 55 -158 55z" />
    <glyph glyph-name="three.numerator" horiz-adv-x="856" 
d="M680 1436h-391l6 43q100 25 403 24q121 -1 174 -67t37 -164l-12 -76q-11 -74 -67 -124t-105 -60q45 -16 85 -68t28 -125l-9 -61q-18 -117 -86 -179t-211 -61q-278 0 -376 27l6 39l360 2q109 0 166 41t74 143l8 47q8 55 -15 94q-44 71 -155 76l-291 8l8 47l285 9
q90 4 157 46t77 111l6 64q16 92 -29 128t-133 36z" />
    <glyph glyph-name="four.numerator" horiz-adv-x="839" 
d="M162 864l502 633h81l-466 -592h466l41 248l48 98h34l-55 -346h121l-8 -47l-123 -24l-49 -308h-68l49 308h-559z" />
    <glyph glyph-name="five.numerator" horiz-adv-x="880" 
d="M637 584q164 0 190 174l19 114q13 67 -6 114q-19 46 -127 46h-226q-61 0 -110 -39t-60 -94h-63l127 598h604l-12 -67h-539l-88 -410q48 60 113 69q99 14 174 11q76 -2 90 -2q225 0 192 -217l-22 -131q-37 -236 -258 -234q-336 1 -438 19l8 49h432z" />
    <glyph glyph-name="six.numerator" horiz-adv-x="946" 
d="M690 592q150 0 176 153l25 140q10 71 -23 93t-114 21h-418q-63 -408 135 -407h219zM592 1440q-158 0 -224 -273q-13 -53 -24 -120q162 18 428 18q115 2 156 -49t28 -133l-24 -148q-33 -211 -240 -211h-231q-152 0 -192 148q-15 56 -15 186t46 311t112 253q71 85 180 85
q289 6 428 -16l-8 -51h-420z" />
    <glyph glyph-name="seven.numerator" horiz-adv-x="763" 
d="M248 1434l10 67h664l18 -43l-522 -932h-76l510 908h-604z" />
    <glyph glyph-name="eight.numerator" horiz-adv-x="1015" 
d="M512 1051h256q66 0 113 40t57 103l10 66q16 104 -16 142q-33 38 -125 38h-203q-118 0 -168 -72q-27 -39 -37 -108l-10 -66q-17 -107 70 -135q25 -8 53 -8zM461 590h225q80 0 124 35t56 118l17 103q10 66 -28 102t-89 35h-250q-72 0 -122 -36t-60 -99l-17 -105
q-12 -85 19 -119t125 -34zM604 1507h230q102 0 153 -60t31 -183l-14 -82q-6 -50 -48 -100t-108 -58q51 -14 82 -62t22 -108l-20 -119q-18 -123 -78 -168t-160 -45h-250q-126 0 -168 60t-28 153l22 125q10 66 60 103t102 43q-70 20 -96 72t-17 112l15 82q23 131 90 183
q68 52 180 52z" />
    <glyph glyph-name="nine.numerator" horiz-adv-x="946" 
d="M475 1034h418q66 408 -135 408h-219q-152 0 -177 -154l-20 -139q-12 -71 20 -93t113 -22zM639 594q112 0 169 121q47 98 77 272q-162 -18 -424 -20q-117 0 -159 49t-28 133l23 154q31 207 250 206h217q277 0 190 -512q-50 -291 -138 -387q-44 -47 -85 -65t-94 -19
q-242 -6 -426 17l8 51h420z" />
    <glyph glyph-name="zero.denominator" horiz-adv-x="1007" 
d="M602 68q104 0 144 36t55 129l80 506q24 122 -63 155q-32 11 -83 11h-223q-98 0 -145 -39t-62 -127l-80 -506q-16 -100 19 -133t135 -32h223zM516 973h240q117 -1 164 -63t30 -171l-82 -522q-24 -143 -97 -183q-59 -34 -171 -34h-240q-172 0 -201 109q-13 48 -1 120
l82 523q18 121 89 171t187 50z" />
    <glyph glyph-name="one.denominator" horiz-adv-x="565" 
d="M154 799l6 45q74 0 152 34t120 68l43 35h66l-156 -979h-68l142 889q-41 -31 -122 -61t-183 -31z" />
    </font>
</defs>
</svg>
